<svg id="Layer_1" data-name="Layer 1" xmlns="http://www.w3.org/2000/svg" viewBox="0 0 595.28 841.89"><defs><style>.cls-1{fill:#e75a12;}.cls-2{fill:#e1a216;}.cls-3{fill:#fff;}</style></defs><title>Artboard 1</title><path class="cls-1" d="M136,473.85V449.59H120.23v24.26H109.51V421.76h10.72v18H136v-18h10.72v52.09Z"/><path class="cls-1" d="M163.09,473.85v-8.78h6.48V430.61h-6.48v-8.85h23.6v8.85h-6.48v34.46h6.48v8.78Z"/><path class="cls-1" d="M198.59,464.55l8.56-6.1c2.09,4.09,5.36,6.25,9.16,6.25a5.44,5.44,0,0,0,5.8-5.51c0-7.74-20.09-10.72-20.09-24.78,0-7.89,6.7-13.39,14.06-13.39A14.72,14.72,0,0,1,229,427.94l-7.14,6.32c-1.34-2-3.2-3.57-5.36-3.57a3.67,3.67,0,0,0-3.8,3.79c0,6.55,20,9.9,20,24.56,0,8.93-6.84,15.48-16.52,15.48C208.86,474.52,202.09,471.47,198.59,464.55Z"/><path class="cls-1" d="M249.35,473.85V431.58h-10v-9.82H270v9.82h-10v42.27Z"/><path class="cls-1" d="M277.78,447.81a26.76,26.76,0,1,1,26.79,26.79A26.81,26.81,0,0,1,277.78,447.81Zm42.49,0c0-9.83-6.69-16.75-15.7-16.75s-15.78,7-15.78,16.75,6.7,16.81,15.78,16.81S320.27,457.63,320.27,447.81ZM312,408.59,300.4,419.38l-5.28-5.73,11.53-10.79Z"/><path class="cls-1" d="M346.17,473.85V421.76h19c10.27,0,16.82,6.62,16.82,17.12,0,6.69-2.68,11.68-7.22,14.51l8.93,20.46H372.07l-7.29-17.93h-8v17.93Zm25.6-35c0-4.77-3-7.45-8.26-7.45h-6.77v14.81h6.77C368.65,446.24,371.77,443.64,371.77,438.88Z"/><path class="cls-1" d="M396.33,473.85v-8.78h6.48V430.61h-6.48v-8.85h23.59v8.85h-6.47v34.46h6.47v8.78Z"/><path class="cls-1" d="M461.68,461.5H446.05l-3.65,12.35H431.09l16.82-52.09h11.83l16.82,52.09H465.25Zm-13.18-8.34h10.72l-1.56-5.58c-1.42-5.13-3.2-11.24-3.8-14.58a135.71,135.71,0,0,1-3.72,14.58Z"/><path class="cls-1" d="M493.23,460.83a6.85,6.85,0,1,1-6.84,6.84A6.92,6.92,0,0,1,493.23,460.83Zm-4.91-5.21L488,421.76h10.27l-.3,33.86Z"/><path class="cls-2" d="M152.27,368h11.31l-16.82,52.09H134.93L118.11,368h11.31l7.74,26.27c1.42,5.06,3.05,10.49,3.72,14.58a142,142,0,0,1,3.8-14.58Z"/><path class="cls-2" d="M170.28,420.08V411.3h6.47V376.84h-6.47V368h23.59v8.85H187.4V411.3h6.47v8.78Z"/><path class="cls-2" d="M234.73,368H246l-16.82,52.09H217.39L200.57,368h11.31l7.74,26.27c1.42,5.06,3,10.49,3.72,14.58a142,142,0,0,1,3.8-14.58Z"/><path class="cls-2" d="M275.88,407.73H260.26l-3.65,12.35H245.3L262.12,368H274l16.82,52.09H279.46Zm-13.17-8.34h10.72l-1.56-5.58c-1.42-5.13-3.2-11.24-3.8-14.59a135.25,135.25,0,0,1-3.72,14.59Z"/><path class="cls-3" d="M121.36,416.92H108.45l-2.27,6.63H95.69l13.73-38.23h11l13.73,38.23H123.7Zm-10.21-7.72h7.52a86.57,86.57,0,0,1-3.73-13.46A88.35,88.35,0,0,1,111.15,409.2Z"/></svg>