<?xml version="1.0" encoding="utf-8"?>
<!-- Generator: Adobe Illustrator 22.1.0, SVG Export Plug-In . SVG Version: 6.00 Build 0)  -->
<svg version="1.1" id="Layer_1" xmlns="http://www.w3.org/2000/svg" xmlns:xlink="http://www.w3.org/1999/xlink" x="0px" y="0px"
	 viewBox="0 0 64 64" style="enable-background:new 0 0 64 64;" xml:space="preserve">
<style type="text/css">
	.st0{fill:#E17516;}
</style>
<title>Artboard 1</title>
<path class="st0" d="M32,63.2c-17.2,0-31.2-14-31.2-31.2S14.8,0.8,32,0.8s31.2,14,31.2,31.2S49.2,63.2,32,63.2z M32,6.8
	C18.1,6.8,6.8,18.1,6.8,32S18.1,57.2,32,57.2S57.2,45.9,57.2,32S45.9,6.8,32,6.8z"/>
<path class="st0" d="M36.2,32l11.6-11.6c1.2-1.2,1.2-3.1,0-4.2c-1.2-1.2-3.1-1.2-4.2,0L32,27.8L20.4,16.2c-1.2-1.2-3.1-1.2-4.2,0
	c-1.2,1.2-1.2,3.1,0,4.2L27.8,32L16.2,43.6c-1.2,1.2-1.2,3.1,0,4.2c0.6,0.6,1.4,0.9,2.1,0.9s1.5-0.3,2.1-0.9L32,36.2l11.6,11.6
	c0.6,0.6,1.4,0.9,2.1,0.9s1.5-0.3,2.1-0.9c1.2-1.2,1.2-3.1,0-4.2L36.2,32z"/>
</svg>
