<svg xmlns="http://www.w3.org/2000/svg" viewBox="0 0 1920 1080"><defs><style>.a{fill:#e72b12;}.a,.b,.c,.d,.e{opacity:0.7;}.b{fill:#9d4701;}.c{fill:#ff883c;}.d{fill:#e75a12;}.e{fill:#e1a216;}.f,.m{font-size:18px;}.f,.m,.q,.t{fill:#fff;font-family:SourceSansPro-Bold, Source Sans Pro;font-weight:700;}.f,.o{letter-spacing:0.04em;}.g{letter-spacing:-0.01em;}.h{letter-spacing:0em;}.i{letter-spacing:0.01em;}.j{letter-spacing:0.04em;}.k{letter-spacing:0.02em;}.l{letter-spacing:0.02em;}.m{letter-spacing:0.04em;}.n{letter-spacing:0.03em;}.p{letter-spacing:0.01em;}.q{font-size:15px;letter-spacing:0.04em;}.r{letter-spacing:0.03em;}.s{letter-spacing:0.04em;}.t{font-size:14.73px;letter-spacing:0.04em;}.u{letter-spacing:0.03em;}.v{letter-spacing:0.02em;}.w{letter-spacing:0.03em;}</style></defs><title>01-Home - botões</title><polygon class="a" points="952.99 360.55 677.73 327.76 778.89 523.04 952.99 360.55"/><polygon class="b" points="676 328 417.63 223.28 910.63 150.26 676 328"/><polygon class="c" points="649 520 704 597 779 523 649 520"/><polygon class="d" points="1068 511 1143 606 992 572 953 361 1068 511"/><polygon class="e" points="1170 838 1067 751 1275 658 1170 838"/><polygon class="b" points="1252.52 933.38 1118 976 1170 838 1252.52 933.38"/><text class="f" transform="translate(617.52 242.94) scale(0.98 1)">MA<tspan class="g" x="25.47" y="0">P</tspan><tspan x="36.02" y="0">AS DO</tspan><tspan class="h"><tspan x="-3.84" y="18.4">C</tspan><tspan class="i" x="6.69" y="18.4">O</tspan><tspan class="j" x="19.22" y="18.4">TIDIANO</tspan></tspan></text><text class="f" transform="translate(738.88 412.6) scale(0.98 1)">VI<tspan class="k" x="16.87" y="0">V</tspan><tspan x="27.27" y="0">A A HI</tspan><tspan class="l" x="76.97" y="0">S</tspan><tspan class="i" x="87.34" y="0">T</tspan><tspan x="97.56" y="0">ÓRIA</tspan></text><text class="m" transform="translate(1001.37 537.1) scale(0.98 1)">OUT<tspan class="n" x="36.45" y="0">R</tspan><tspan class="o" x="48.06" y="0">AS</tspan><tspan x="-6.04" y="18.4">HI</tspan><tspan class="p" x="12.95" y="18.4">T</tspan><tspan x="23.18" y="18.4">ÓRIAS</tspan></text><text class="q" transform="translate(1130.39 762.18) scale(0.98 1)">Sob<tspan class="r" x="27.06" y="0">r</tspan><tspan class="s" x="33.48" y="0">e</tspan></text><text class="t" transform="translate(1061.75 836.18) scale(0.98 1)">SOBRE</text><text class="q" transform="translate(1157.96 926.1) scale(0.98 1)">C<tspan class="u" x="9.33" y="0">r</tspan><tspan x="15.75" y="0">édi</tspan><tspan class="v" x="38.05" y="0">t</tspan><tspan class="w" x="44.13" y="0">o</tspan><tspan x="52.98" y="0">s</tspan></text><text class="q" transform="translate(678.08 548.19) scale(0.98 1)">Comen<tspan class="v" x="49.26" y="0">t</tspan><tspan x="55.33" y="0">e</tspan></text></svg>