<svg xmlns="http://www.w3.org/2000/svg" xmlns:xlink="http://www.w3.org/1999/xlink" viewBox="0 0 1920 1080"><defs><style>.a,.bd{fill:none;}.b{clip-path:url(#a);}.aa,.ab,.ac,.ad,.ae,.af,.ag,.ah,.ai,.aj,.ak,.al,.am,.an,.ao,.ap,.aq,.ar,.as,.at,.au,.av,.aw,.ax,.ay,.az,.c,.d,.e,.f,.g,.h,.i,.j,.k,.l,.m,.n,.o,.p,.q,.r,.s,.t,.u,.v,.w,.x,.y,.z{opacity:0.7;}.d{fill:#f9ecd7;}.e{fill:#f7e3c4;}.f{fill:#fbf2e4;}.g{fill:#f7e6ca;}.h{fill:#f9eedc;}.i{fill:#f8e9d0;}.j{fill:#faefdf;}.k{fill:#fcf5ea;}.bb,.l{fill:#f7e2c2;}.m{fill:#f4ddb6;}.n{fill:#faf0e1;}.o{fill:#f8e7cc;}.ba,.p{fill:#f5e0bd;}.q{fill:#f3d9ad;}.r{fill:#f7e5c7;}.s{fill:#f9ebd5;}.t{fill:#f5deb9;}.u{fill:#f3dab0;}.v{fill:#f8ead2;}.w{fill:#f4dcb4;}.x{fill:#f2d7a8;}.y{fill:#f9edd8;}.z{fill:#f5e0be;}.aa{fill:#f3d9ab;}.ab{fill:#f5e1bf;}.ac{fill:#fcf6ee;}.ad{fill:#fcf7ef;}.ae{fill:#fbf4e9;}.af{fill:#f3d7a9;}.ag{fill:#f0ce93;}.ah{fill:#f4ddb7;}.ai{fill:#f2d5a3;}.aj{fill:#f4dcb5;}.ak{fill:#f7e3c3;}.al{fill:#f4dbb2;}.am{fill:#f1d29d;}.an{fill:#f3d9ae;}.ao{fill:#f6e2c0;}.ap{fill:#f0cc8d;}.aq{fill:#f5dfbc;}.ar{fill:#f0d097;}.as{fill:#f7e4c5;}.at{fill:#f1d19a;}.au{fill:#f2d6a7;}.av{fill:#f2d6a5;}.aw{fill:#efcb8b;}.ax,.bc{fill:#f0cd8f;}.ay{fill:#f0cf94;}.az{fill:#fbf2e5;}.bd{stroke:#f3b78d;stroke-linecap:round;stroke-linejoin:round;stroke-width:0.9px;stroke-dasharray:30.03 15.02;}</style><clipPath id="a"><rect class="a" width="1920" height="1080"/></clipPath></defs><title>Artboard 1</title><g class="b"><g class="c"><polygon class="d" points="284.14 1082.89 221.49 1018.26 406.74 1040.58 284.14 1082.89"/><polygon class="e" points="253.12 869.23 336.68 961.42 221.49 1018.26 253.12 869.23"/><polygon class="f" points="336.68 961.42 406.74 1040.58 221.49 1018.26 336.68 961.42"/><polygon class="d" points="336.68 961.42 424.39 993.17 406.74 1040.58 336.68 961.42"/><polygon class="g" points="336.68 961.42 408.9 867 424.39 993.17 336.68 961.42"/><polygon class="d" points="253.12 869.23 408.9 867 336.68 961.42 253.12 869.23"/><polygon class="e" points="406.74 1040.58 490.81 1017.8 424.39 993.17 406.74 1040.58"/><polygon class="g" points="424.39 993.17 479.42 961.42 490.81 1017.8 424.39 993.17"/><polygon class="f" points="479.42 961.42 553.46 994.2 490.81 1017.8 479.42 961.42"/><polygon class="d" points="553.46 994.2 545.6 921.79 479.42 961.42 553.46 994.2"/><polygon class="h" points="488.7 883.74 479.42 961.42 545.6 921.79 488.7 883.74"/><polygon class="h" points="553.46 994.2 604.72 953.52 581.94 1001.52 553.46 994.2"/><polygon class="e" points="545.6 921.79 604.72 953.52 553.46 994.2 545.6 921.79"/><polygon class="i" points="-7.69 929.92 95.1 1066.91 168.06 882.19 -7.69 929.92"/><polygon class="j" points="169.15 1131.71 221.49 1018.26 284.14 1082.89 169.15 1131.71"/><polygon class="k" points="182.17 1017.8 169.15 1131.71 221.49 1018.26 182.17 1017.8"/><polygon class="k" points="182.17 1017.8 95.1 1066.91 168.06 882.19 182.17 1017.8"/><polygon class="i" points="95.1 1066.91 169.15 1131.71 182.17 1017.8 95.1 1066.91"/><polygon class="f" points="95.1 1066.91 55.23 1147.98 169.15 1131.71 95.1 1066.91"/><polygon class="d" points="168.06 882.19 106.22 809.5 209.83 820.89 168.06 882.19"/><polygon class="l" points="106.22 809.5 -7.69 929.92 168.06 882.19 106.22 809.5"/><polygon class="f" points="-33.18 819.26 106.22 809.5 -7.69 929.92 -33.18 819.26"/><polygon class="m" points="106.22 809.5 144.19 723.25 209.83 820.89 106.22 809.5"/><polygon class="n" points="209.83 820.89 318.32 752.55 253.12 869.23 209.83 820.89"/><polygon class="i" points="253.12 869.23 408.9 867 318.32 752.55 253.12 869.23"/><polygon class="f" points="408.9 867 468.03 820.89 318.32 752.55 408.9 867"/><polygon class="d" points="318.32 752.55 144.19 723.25 209.83 820.89 318.32 752.55"/><polygon class="o" points="106.22 809.5 144.19 723.25 24.86 723.25 106.22 809.5"/><polygon class="p" points="-33.18 819.26 24.86 723.25 106.22 809.5 -33.18 819.26"/><polygon class="q" points="24.86 723.25 -155.23 788.89 -33.18 819.26 24.86 723.25"/><polygon class="r" points="-118.34 1024.31 -70.34 1229.35 55.23 1147.98 -118.34 1024.31"/><polygon class="k" points="468.03 820.89 579.5 845.85 488.7 883.74 468.03 820.89"/><polygon class="d" points="545.6 921.79 579.5 845.85 488.7 883.74 545.6 921.79"/><polygon class="r" points="604.72 953.52 545.6 921.79 579.5 845.85 604.72 953.52"/><polygon class="s" points="468.03 820.89 585.2 714.29 579.5 845.85 468.03 820.89"/><polygon class="t" points="318.32 752.55 430.6 641.35 468.03 820.89 318.32 752.55"/><polygon class="h" points="585.2 714.29 430.6 641.35 468.03 820.89 585.2 714.29"/><polygon class="g" points="144.19 723.25 235.32 636.17 318.32 752.55 144.19 723.25"/><polygon class="u" points="430.6 641.35 235.32 636.17 318.32 752.55 430.6 641.35"/><polygon class="l" points="579.5 845.85 670.63 851.54 604.72 953.52 579.5 845.85"/><polygon class="v" points="585.2 714.29 670.63 851.54 579.5 845.85 585.2 714.29"/><polygon class="w" points="581.94 1001.52 619.37 1013.08 585.2 1037.33 581.94 1001.52"/><polygon class="x" points="585.2 1037.33 579.09 1080.21 651.85 1066.91 585.2 1037.33"/><polygon class="p" points="619.37 1013.08 651.85 1066.91 585.2 1037.33 619.37 1013.08"/><polygon class="v" points="604.72 953.52 619.37 1013.08 581.94 1001.52 604.72 953.52"/><polygon class="p" points="604.72 953.52 675.92 964.1 619.37 1013.08 604.72 953.52"/><polygon class="e" points="651.85 1066.91 619.37 1013.08 732.2 1019.42 651.85 1066.91"/><polygon class="d" points="675.92 964.1 732.2 1019.42 619.37 1013.08 675.92 964.1"/><polygon class="y" points="619.37 1118.65 651.85 1066.91 579.09 1080.21 619.37 1118.65"/><polygon class="z" points="651.85 1066.91 710.5 1101.33 619.37 1118.65 651.85 1066.91"/><polygon class="v" points="732.2 1019.42 710.5 1101.33 651.85 1066.91 732.2 1019.42"/><polygon class="aa" points="604.72 953.52 670.63 851.54 675.92 964.1 604.72 953.52"/><polygon class="w" points="675.92 964.1 777.76 883.82 670.63 851.54 675.92 964.1"/><polygon class="i" points="585.2 714.29 750.64 714.29 670.63 851.54 585.2 714.29"/><polygon class="l" points="777.76 883.82 750.64 714.29 670.63 851.54 777.76 883.82"/><polygon class="r" points="675.92 964.1 777.76 883.82 732.2 1019.42 675.92 964.1"/><polygon class="t" points="710.5 1101.33 732.2 1019.42 745.22 1132.79 710.5 1101.33"/><polygon class="t" points="732.2 1019.42 863.47 983.3 777.76 883.82 732.2 1019.42"/><polygon class="x" points="745.22 1132.79 732.2 1019.42 863.47 983.3 745.22 1132.79"/><polygon class="ab" points="797.83 1200.2 863.47 983.3 745.22 1132.79 797.83 1200.2"/><polygon class="u" points="777.76 883.82 977.38 766.38 750.64 714.29 777.76 883.82"/><polygon class="l" points="863.47 983.3 777.76 883.82 977.38 766.38 863.47 983.3"/><polygon class="d" points="863.47 983.3 1018.06 1114.35 797.83 1200.2 863.47 983.3"/><polygon class="d" points="235.32 636.17 278.72 348.14 430.6 641.35 235.32 636.17"/><polygon class="ab" points="692.02 397.38 430.6 641.35 585.2 714.29 692.02 397.38"/><polygon class="aa" points="692.02 397.38 278.72 348.14 430.6 641.35 692.02 397.38"/><polygon class="i" points="76.39 539.37 24.86 723.25 144.19 723.25 76.39 539.37"/><polygon class="h" points="-155.23 788.89 -197.81 519.97 24.86 723.25 -155.23 788.89"/><polygon class="w" points="235.32 636.17 76.39 539.37 144.19 723.25 235.32 636.17"/><polygon class="l" points="278.72 348.14 76.39 539.37 235.32 636.17 278.72 348.14"/><polygon class="ac" points="76.39 539.37 -197.81 519.97 24.86 723.25 76.39 539.37"/><polygon class="x" points="692.02 397.38 750.64 714.29 585.2 714.29 692.02 397.38"/><polygon class="d" points="278.72 348.14 -197.81 519.97 76.39 539.37 278.72 348.14"/><polygon class="g" points="692.02 397.38 977.38 766.38 750.64 714.29 692.02 397.38"/><polygon class="ab" points="692.02 397.38 1024.81 397 977.38 766.38 692.02 397.38"/><polygon class="ad" points="278.72 348.14 628.42 81.62 692.02 397.38 278.72 348.14"/><polygon class="n" points="628.42 81.62 1024.81 397 692.02 397.38 628.42 81.62"/><polygon class="ae" points="-197.81 519.97 -111.84 191.26 278.72 348.14 -197.81 519.97"/><polygon class="j" points="628.42 81.62 -111.84 191.26 278.72 348.14 628.42 81.62"/><polygon class="af" points="1601.42 100.66 1651.43 128.98 1530.65 144.68 1601.42 100.66"/><polygon class="r" points="1707.05 200.83 1651.43 128.98 1676.37 123.13 1707.05 200.83"/><polygon class="ag" points="1655.32 221.71 1587.67 180.41 1651.43 128.98 1655.32 221.71"/><polygon class="ah" points="1587.67 180.41 1530.65 144.68 1651.43 128.98 1587.67 180.41"/><polygon class="ai" points="1587.67 180.41 1527.09 175.37 1530.65 144.68 1587.67 180.41"/><polygon class="aj" points="1587.67 180.41 1557.12 247.29 1527.09 175.37 1587.67 180.41"/><polygon class="ak" points="1655.32 221.71 1557.12 247.29 1587.67 180.41 1655.32 221.71"/><polygon class="ai" points="1530.65 144.68 1481.11 171.2 1527.09 175.37 1530.65 144.68"/><polygon class="al" points="1527.09 175.37 1497.36 202.64 1481.11 171.2 1527.09 175.37"/><polygon class="ah" points="1497.36 202.64 1445.26 194.86 1481.11 171.2 1497.36 202.64"/><polygon class="z" points="1445.26 194.86 1461.85 236.3 1497.36 202.64 1445.26 194.86"/><polygon class="ah" points="1503.95 249.86 1497.36 202.64 1461.85 236.3 1503.95 249.86"/><polygon class="z" points="1445.26 194.86 1419.36 226.82 1426.07 194.99 1445.26 194.86"/><polygon class="am" points="1461.85 236.3 1419.36 226.82 1445.26 194.86 1461.85 236.3"/><polygon class="i" points="1810.58 145.33 1723.58 80.63 1707.05 200.83 1810.58 145.33"/><polygon class="g" points="1666.34 53.99 1651.43 128.98 1601.42 100.66 1666.34 53.99"/><polygon class="an" points="1676.37 123.13 1666.34 53.99 1651.43 128.98 1676.37 123.13"/><polygon class="ak" points="1676.37 123.13 1723.58 80.63 1707.05 200.83 1676.37 123.13"/><polygon class="ao" points="1810.58 145.33 1723.58 80.63 1735.8 26.66 1810.58 145.33"/><polygon class="i" points="1723.58 80.63 1666.34 53.99 1676.37 123.13 1723.58 80.63"/><polygon class="o" points="1723.58 80.63 1735.8 26.66 1666.34 53.99 1723.58 80.63"/><polygon class="ah" points="1720.58 -2.34 1735.8 26.66 1666.34 53.99 1720.58 -2.34"/><polygon class="v" points="1810.58 145.33 1844.45 206.55 1877.95 138.62 1810.58 145.33"/><polygon class="al" points="1707.05 200.83 1757.83 234.02 1690.45 243.45 1707.05 200.83"/><polygon class="l" points="1757.83 234.02 1810.58 145.33 1707.05 200.83 1757.83 234.02"/><polygon class="f" points="1844.45 206.55 1757.83 234.02 1810.58 145.33 1844.45 206.55"/><polygon class="m" points="1757.83 234.02 1747.64 290.75 1690.45 243.45 1757.83 234.02"/><polygon class="z" points="1690.45 243.45 1632.78 300.61 1655.32 221.71 1690.45 243.45"/><polygon class="i" points="1655.32 221.71 1557.12 247.29 1632.78 300.61 1655.32 221.71"/><polygon class="ah" points="1557.12 247.29 1527.11 283.67 1632.78 300.61 1557.12 247.29"/><polygon class="ap" points="1632.78 300.61 1747.64 290.75 1690.45 243.45 1632.78 300.61"/><polygon class="o" points="1757.83 234.02 1747.64 290.75 1823.13 272.16 1757.83 234.02"/><polygon class="p" points="1844.45 206.55 1823.13 272.16 1757.83 234.02 1844.45 206.55"/><polygon class="p" points="1877.95 138.62 1944.73 247.29 1844.45 206.55 1877.95 138.62"/><polygon class="q" points="1823.13 272.16 1944.73 247.29 1844.45 206.55 1823.13 272.16"/><polygon class="v" points="1735.8 26.66 1802.19 -40.84 1720.58 -2.34 1735.8 26.66"/><polygon class="r" points="1865.44 72.48 1802.19 -40.84 1735.8 26.66 1865.44 72.48"/><polygon class="aq" points="1893.07 -44.89 1865.44 72.48 1802.19 -40.84 1893.07 -44.89"/><polygon class="t" points="1893.07 -44.89 1865.44 72.48 1971.31 -14.79 1893.07 -44.89"/><polygon class="x" points="1527.11 283.67 1452.59 286.33 1503.95 249.86 1527.11 283.67"/><polygon class="aj" points="1461.85 236.3 1452.59 286.33 1503.95 249.86 1461.85 236.3"/><polygon class="r" points="1419.36 226.82 1461.85 236.3 1452.59 286.33 1419.36 226.82"/><polygon class="an" points="1527.11 283.67 1470.08 364.72 1452.59 286.33 1527.11 283.67"/><polygon class="ar" points="1632.78 300.61 1579.58 383.62 1527.11 283.67 1632.78 300.61"/><polygon class="aj" points="1470.08 364.72 1579.58 383.62 1527.11 283.67 1470.08 364.72"/><polygon class="g" points="1747.64 290.75 1690.21 383.62 1632.78 300.61 1747.64 290.75"/><polygon class="u" points="1579.58 383.62 1690.21 383.62 1632.78 300.61 1579.58 383.62"/><polygon class="l" points="1452.59 286.33 1394.02 297.17 1419.36 226.82 1452.59 286.33"/><polygon class="af" points="1470.08 364.72 1394.02 297.17 1452.59 286.33 1470.08 364.72"/><polygon class="w" points="1426.07 194.99 1400.54 194 1418.27 174.4 1426.07 194.99"/><polygon class="x" points="1418.27 174.4 1415.25 148.18 1371.36 167.35 1418.27 174.4"/><polygon class="p" points="1400.54 194 1371.36 167.35 1418.27 174.4 1400.54 194"/><polygon class="ai" points="1419.36 226.82 1400.54 194 1426.07 194.99 1419.36 226.82"/><polygon class="p" points="1419.36 226.82 1372.62 231.68 1400.54 194 1419.36 226.82"/><polygon class="e" points="1371.36 167.35 1400.54 194 1328.14 207.84 1371.36 167.35"/><polygon class="aq" points="1372.62 231.68 1328.14 207.84 1400.54 194 1372.62 231.68"/><polygon class="g" points="1415.25 148.18 1383.61 131.81 1410.26 95.21 1415.25 148.18"/><polygon class="n" points="1383.61 131.81 1381.38 111.51 1410.26 95.21 1383.61 131.81"/><polygon class="d" points="1381.38 111.51 1360.54 76.33 1410.26 95.21 1381.38 111.51"/><polygon class="g" points="1320.02 118.79 1381.38 111.51 1360.54 76.33 1320.02 118.79"/><polygon class="g" points="1360.54 76.33 1411.56 24.64 1410.26 95.21 1360.54 76.33"/><polygon class="u" points="1424.27 -22.82 1411.56 24.64 1378.61 -13.46 1424.27 -22.82"/><polygon class="l" points="1369.19 26.21 1378.61 -13.46 1411.56 24.64 1369.19 26.21"/><polygon class="al" points="1360.54 76.33 1369.19 26.21 1411.56 24.64 1360.54 76.33"/><polygon class="am" points="1360.54 76.33 1293.56 14.71 1369.19 26.21 1360.54 76.33"/><polygon class="t" points="1360.54 76.33 1320.02 118.79 1293.56 14.71 1360.54 76.33"/><polygon class="y" points="1383.61 131.81 1371.36 167.35 1415.25 148.18 1383.61 131.81"/><polygon class="ao" points="1371.36 167.35 1328.73 156.21 1383.61 131.81 1371.36 167.35"/><polygon class="v" points="1328.14 207.84 1328.73 156.21 1371.36 167.35 1328.14 207.84"/><polygon class="aa" points="1419.36 226.82 1394.02 297.17 1372.62 231.68 1419.36 226.82"/><polygon class="as" points="1470.08 364.72 1336.09 425.5 1394.02 297.17 1470.08 364.72"/><polygon class="t" points="1328.73 156.21 1328.14 207.84 1301.73 143.08 1328.73 156.21"/><polygon class="ae" points="628.42 81.62 323.88 -468.41 -111.84 191.26 628.42 81.62"/><polygon class="j" points="-348.34 -212.31 323.88 -468.41 -111.84 191.26 -348.34 -212.31"/><polygon class="h" points="1372.62 231.68 1326.2 298.48 1394.02 297.17 1372.62 231.68"/><polygon class="r" points="1328.14 207.84 1326.2 298.48 1372.62 231.68 1328.14 207.84"/><polygon class="am" points="1301.73 143.08 1256.7 213.11 1328.14 207.84 1301.73 143.08"/><polygon class="q" points="1326.2 298.48 1256.7 213.11 1328.14 207.84 1326.2 298.48"/><polygon class="r" points="1394.02 297.17 1326.2 298.48 1336.09 425.5 1394.02 297.17"/><polygon class="r" points="1256.7 213.11 1205.66 361.85 1326.2 298.48 1256.7 213.11"/><polygon class="ab" points="1336.09 425.5 1205.66 361.85 1326.2 298.48 1336.09 425.5"/><polygon class="ab" points="1256.7 213.11 1120.6 204.08 1205.66 361.85 1256.7 213.11"/><polygon class="at" points="1335.11 425.5 1306.16 662.67 1205.66 361.85 1335.11 425.5"/><polygon class="aa" points="1306.16 662.67 1166.12 558.96 1205.66 361.85 1306.16 662.67"/><polygon class="m" points="1205.66 361.85 1024.81 397 1166.12 558.96 1205.66 361.85"/><polygon class="l" points="1120.6 204.08 1024.81 397 1205.66 361.85 1120.6 204.08"/><polygon class="l" points="1336.1 424.34 1445.14 487.01 1471.12 365.89 1336.1 424.34"/><polygon class="au" points="1306.16 662.67 1446.2 486.27 1335.11 425.5 1306.16 662.67"/><polygon class="at" points="1446.2 486.27 1527.57 782.56 1306.16 662.67 1446.2 486.27"/><polygon class="av" points="1470.08 364.72 1446.2 486.27 1579.58 383.62 1470.08 364.72"/><polygon class="l" points="1446.2 486.27 1579.58 383.62 1643.04 520.99 1446.2 486.27"/><polygon class="aw" points="1527.57 782.56 1643.04 520.99 1446.2 486.27 1527.57 782.56"/><polygon class="au" points="1527.57 782.56 1720.33 842.34 1643.04 520.99 1527.57 782.56"/><polygon class="o" points="1690.21 383.62 1643.04 520.99 1579.58 383.62 1690.21 383.62"/><polygon class="t" points="1690.21 383.62 1810.58 383.62 1747.64 290.75 1690.21 383.62"/><polygon class="ai" points="1643.04 520.99 1690.21 383.62 1815.28 531.84 1643.04 520.99"/><polygon class="y" points="1810.58 383.62 1815.28 531.84 1690.21 383.62 1810.58 383.62"/><polygon class="ax" points="1815.28 531.84 1720.33 842.34 1643.04 520.99 1815.28 531.84"/><polygon class="l" points="1120.6 204.08 1153.1 -7.12 879.86 45.52 1120.6 204.08"/><polygon class="o" points="628.42 81.62 879.86 45.52 1024.81 397 628.42 81.62"/><polygon class="q" points="1120.6 204.08 879.86 45.52 1024.81 397 1120.6 204.08"/><polygon class="e" points="1024.81 397 1166.12 558.96 977.38 766.38 1024.81 397"/><polygon class="v" points="1306.16 662.67 977.38 766.38 1166.12 558.96 1306.16 662.67"/><polygon class="ab" points="977.38 766.38 1177.45 842.34 863.47 983.3 977.38 766.38"/><polygon class="ab" points="1177.45 842.34 1018.06 1114.35 863.47 983.3 1177.45 842.34"/><polygon class="g" points="1177.45 842.34 1452.59 1049.26 1018.06 1114.35 1177.45 842.34"/><polygon class="ab" points="1306.16 662.67 1177.45 842.34 977.38 766.38 1306.16 662.67"/><polygon class="t" points="1527.57 782.56 1452.59 1049.26 1306.16 662.67 1527.57 782.56"/><polygon class="u" points="1177.45 842.34 1307.9 662.67 1452.59 1049.26 1177.45 842.34"/><polygon class="v" points="1823.13 272.16 1810.58 383.62 1747.64 290.75 1823.13 272.16"/><polygon class="i" points="1944.73 247.29 1823.13 272.16 2035.41 443.75 1944.73 247.29"/><polygon class="u" points="1810.58 383.62 2035.41 443.75 1823.13 272.16 1810.58 383.62"/><polygon class="m" points="1815.28 531.84 2035.41 443.75 1810.58 383.62 1815.28 531.84"/><polygon class="r" points="1720.33 842.34 1452.59 1049.26 1527.57 782.56 1720.33 842.34"/><polygon class="au" points="1720.33 842.34 2096.79 852.32 1815.28 531.84 1720.33 842.34"/><polygon class="p" points="2035.41 443.75 2096.79 852.32 1815.28 531.84 2035.41 443.75"/><polygon class="s" points="1720.33 842.34 2001.39 1060.38 2096.79 852.32 1720.33 842.34"/><polygon class="m" points="879.86 45.52 928.71 -175.67 1153.1 -7.12 879.86 45.52"/><polygon class="x" points="1293.56 14.71 1236.75 83.72 1320.02 118.79 1293.56 14.71"/><polygon class="ai" points="1251.58 -14.25 1236.75 83.72 1293.56 14.71 1251.58 -14.25"/><polygon class="x" points="1236.75 83.72 1153.1 -7.12 1251.58 -14.25 1236.75 83.72"/><polygon class="am" points="1153.1 -7.12 1120.6 204.08 1236.75 83.72 1153.1 -7.12"/><polygon class="ay" points="1320.02 118.79 1301.73 143.08 1236.75 83.72 1320.02 118.79"/><polygon class="au" points="1256.7 213.11 1236.75 83.72 1301.73 143.08 1256.7 213.11"/><polygon class="t" points="1120.6 204.08 1236.75 83.72 1256.7 213.11 1120.6 204.08"/><polygon class="i" points="1877.95 138.62 1934.13 93.92 1865.44 72.48 1877.95 138.62"/><polygon class="ai" points="1971.31 -14.79 1934.13 93.92 1865.44 72.48 1971.31 -14.79"/><polygon class="w" points="1944.73 247.29 1934.13 93.92 1877.95 138.62 1944.73 247.29"/><polygon class="ac" points="1452.59 1049.26 1018.06 1114.35 1141.77 1257.48 1452.59 1049.26"/><polygon class="az" points="1452.59 1049.26 2001.39 1060.38 1720.33 842.34 1452.59 1049.26"/><polygon class="y" points="1452.59 1049.26 1607.8 1384.48 1141.77 1257.48 1452.59 1049.26"/><polygon class="y" points="2001.39 1060.38 1607.8 1384.48 1452.59 1049.26 2001.39 1060.38"/><polygon class="ac" points="1607.8 1384.48 2056.76 1727.31 2001.39 1060.38 1607.8 1384.48"/><polygon class="ae" points="628.42 81.62 928.71 -175.67 879.86 45.52 628.42 81.62"/><polygon class="h" points="323.88 -468.41 928.71 -175.67 628.42 81.62 323.88 -468.41"/></g><g class="c"><polygon class="ai" points="1527.09 175.37 1557.12 247.29 1503.95 249.86 1527.09 175.37"/><polygon class="t" points="1707.05 200.83 1655.32 221.71 1651.43 128.98 1707.05 200.83"/><polygon class="ai" points="1865.44 72.48 1810.58 145.33 1735.8 26.66 1865.44 72.48"/><polygon class="t" points="1503.95 249.86 1527.09 175.37 1497.36 202.64 1503.95 249.86"/><polygon class="ai" points="1707.05 200.83 1690.45 243.45 1655.32 221.71 1707.05 200.83"/><polygon class="aw" points="1810.58 145.33 1877.95 138.62 1865.44 72.48 1810.58 145.33"/><polygon class="t" points="1557.12 247.29 1527.11 283.67 1503.95 249.86 1557.12 247.29"/><polygon class="am" points="1378.61 -13.46 1291.61 -44.72 1293.56 14.71 1378.61 -13.46"/><polygon class="ai" points="1381.38 111.51 1320.02 118.79 1328.73 156.21 1381.38 111.51"/><polygon class="t" points="1328.73 156.21 1383.61 131.81 1381.38 111.51 1328.73 156.21"/><polygon class="ak" points="1328.73 156.21 1301.73 143.08 1320.02 118.79 1328.73 156.21"/><polygon class="al" points="1378.61 -13.46 1369.19 26.21 1293.56 14.71 1378.61 -13.46"/><polygon class="am" points="1291.61 -44.72 1251.58 -14.25 1293.56 14.71 1291.61 -44.72"/></g><polygon class="e" points="424.39 993.17 408.9 867 488.7 883.74 424.39 993.17"/><polygon class="k" points="168.06 882.19 253.12 869.23 221.49 1018.26 168.06 882.19"/><polygon class="k" points="-118.34 1024.31 -7.69 929.92 55.23 1147.98 -118.34 1024.31"/><polygon class="e" points="168.06 882.19 221.49 1018.26 182.17 1017.8 168.06 882.19"/><polygon class="k" points="488.7 883.74 424.39 993.17 479.42 961.42 488.7 883.74"/><polygon class="l" points="-7.69 929.92 95.1 1066.91 55.23 1147.98 -7.69 929.92"/><polygon class="e" points="168.06 882.19 209.83 820.89 253.12 869.23 168.06 882.19"/><polygon class="k" points="408.9 867 468.03 820.89 488.7 883.74 408.9 867"/><g class="c"><polygon class="al" points="1456.1 -5.42 1411.56 24.64 1424.27 -22.82 1456.1 -5.42"/><polygon class="ak" points="1443.15 70.75 1456.1 -5.42 1411.56 24.64 1443.15 70.75"/><polygon class="ba" points="1410.26 95.21 1443.15 70.75 1411.56 24.64 1410.26 95.21"/><polygon class="ak" points="1439.01 122.87 1443.15 70.75 1410.26 95.21 1439.01 122.87"/><polygon class="al" points="1415.25 148.18 1439.01 122.87 1410.26 95.21 1415.25 148.18"/><polygon class="g" points="1415.25 148.18 1437.23 145.86 1439.01 122.87 1415.25 148.18"/><polygon class="ag" points="1440.65 172.26 1437.23 145.86 1415.25 148.18 1440.65 172.26"/><polygon class="ak" points="1440.65 172.26 1415.25 148.18 1418.27 174.4 1440.65 172.26"/><polygon class="ai" points="1418.27 174.4 1426.07 194.99 1440.65 172.26 1418.27 174.4"/><polygon class="ai" points="1426.07 194.99 1445.26 194.86 1440.65 172.26 1426.07 194.99"/><polygon class="bb" points="1657.59 8.4 1720.58 -2.34 1698.37 -67.8 1657.59 8.4"/><polygon class="ak" points="1720.58 -2.34 1666.34 53.99 1657.59 8.4 1720.58 -2.34"/><polygon class="g" points="1657.59 8.4 1607.8 59.53 1666.34 53.99 1657.59 8.4"/><polygon class="ba" points="1666.34 53.99 1601.42 100.66 1607.8 59.53 1666.34 53.99"/><polygon class="ak" points="1545.54 107.92 1601.42 100.66 1607.8 59.53 1545.54 107.92"/><polygon class="ai" points="1481.11 171.2 1440.65 172.26 1445.26 194.86 1481.11 171.2"/><polygon class="ai" points="1464.06 155.62 1440.65 172.26 1481.11 171.2 1464.06 155.62"/><polygon class="g" points="1499.01 133.38 1464.06 155.62 1481.11 171.2 1499.01 133.38"/><polygon class="ag" points="1499.01 133.38 1481.11 171.2 1530.65 144.68 1499.01 133.38"/><polygon class="ai" points="1545.54 107.92 1499.01 133.38 1530.65 144.68 1545.54 107.92"/><polygon class="g" points="1530.65 144.68 1601.42 100.66 1545.54 107.92 1530.65 144.68"/></g><g class="c"><polygon class="an" points="1525.88 -1.97 1443.15 70.75 1456.1 -5.42 1525.88 -1.97"/><polygon class="ak" points="1523.75 63.52 1443.15 70.75 1525.88 -1.97 1523.75 63.52"/><polygon class="al" points="1595.84 29.06 1607.8 59.53 1545.54 107.92 1595.84 29.06"/><polygon class="ak" points="1607.8 59.53 1650.6 15.57 1595.84 29.06 1607.8 59.53"/><polygon class="ak" points="1464.06 155.62 1437.23 145.86 1440.65 172.26 1464.06 155.62"/><polygon class="ba" points="1439.01 122.87 1464.06 155.62 1437.23 145.86 1439.01 122.87"/><polygon class="ak" points="1499.01 133.38 1464.06 155.62 1439.01 122.87 1499.01 133.38"/><polygon class="al" points="1439.01 122.87 1443.15 70.75 1499.01 133.38 1439.01 122.87"/><polygon class="ah" points="1545.54 107.92 1523.75 63.52 1499.01 133.38 1545.54 107.92"/><polygon class="an" points="1499.01 133.38 1523.75 63.52 1443.15 70.75 1499.01 133.38"/><polygon class="ak" points="1523.75 63.52 1595.84 29.06 1545.54 107.92 1523.75 63.52"/><polygon class="al" points="1523.75 63.52 1595.84 29.06 1565.62 31.04 1525.88 -1.97 1523.75 63.52"/></g><g class="c"><polygon class="ba" points="1650.6 15.57 1595.84 29.06 1630.28 12.98 1657.59 8.4 1650.6 15.57"/><polygon class="an" points="1565.62 31.04 1595.84 29.06 1630.28 12.98 1594.45 23.94 1562.14 18.26 1565.62 31.04"/><polygon class="ak" points="1565.62 31.04 1525.88 -1.97 1562.14 18.26 1565.62 31.04"/><polygon class="an" points="1525.88 -1.97 1562.14 18.26 1531.99 -10.46 1517.57 -32.49 1525.88 -1.97"/><polygon class="an" points="1630.28 12.98 1657.59 8.4 1674.2 -22.63 1680.66 -49.45 1660.79 -10.8 1630.28 12.98"/><polygon class="ak" points="1617.26 -32.14 1630.28 12.98 1594.45 23.94 1617.26 -32.14"/><polygon class="ba" points="1588.43 -27.77 1562.14 18.26 1563.03 -45.73 1588.43 -27.77"/><polygon class="ba" points="1594.45 23.94 1562.14 18.26 1588.43 -27.77 1594.45 23.94"/><polygon class="ak" points="1531.99 -10.46 1562.14 18.26 1563.03 -45.73 1531.99 -10.46"/><polygon class="ba" points="1660.79 -10.8 1630.28 12.98 1617.26 -32.14 1660.79 -10.8"/><polygon class="ak" points="1594.45 23.94 1617.26 -32.14 1588.43 -27.77 1594.45 23.94"/></g><g class="c"><polygon class="d" points="509.8 1049.26 545.6 1075.3 551.18 1031.96 509.8 1049.26"/><polygon class="e" points="533.7 1111.17 509.8 1049.26 545.6 1075.3 533.7 1111.17"/><polygon class="k" points="449.05 1070.96 509.8 1049.26 533.7 1111.17 449.05 1070.96"/><polygon class="e" points="533.7 1111.17 506.54 1192.46 449.05 1070.96 533.7 1111.17"/><polygon class="e" points="369.85 1093.23 384.23 1172.39 449.05 1070.96 369.85 1093.23"/><polygon class="d" points="449.05 1070.96 384.23 1172.39 506.54 1192.46 449.05 1070.96"/></g><g class="c"><polygon class="bc" points="579.09 1080.21 545.6 1075.3 533.7 1111.17 579.09 1080.21"/><polygon class="k" points="551.18 1031.96 545.6 1075.3 579.09 1080.21 551.18 1031.96"/><polygon class="e" points="551.18 1031.96 579.09 1080.21 585.2 1037.33 551.18 1031.96"/><polygon class="e" points="585.2 1037.33 581.94 1001.52 551.18 1031.96 585.2 1037.33"/><polygon class="e" points="581.94 1001.52 553.46 994.2 551.18 1031.96 581.94 1001.52"/><polygon class="k" points="490.81 1017.8 551.18 1031.96 553.46 994.2 490.81 1017.8"/><polygon class="e" points="509.8 1049.26 551.18 1031.96 490.81 1017.8 509.8 1049.26"/><polygon class="aa" points="449.05 1070.96 509.8 1049.26 490.81 1017.8 449.05 1070.96"/><polygon class="e" points="449.05 1070.96 490.81 1017.8 406.74 1040.58 449.05 1070.96"/><polygon class="k" points="369.85 1093.23 449.05 1070.96 406.74 1040.58 369.85 1093.23"/><polygon class="e" points="406.74 1040.58 284.14 1082.89 369.85 1093.23 406.74 1040.58"/></g><polygon class="bd" points="284.14 1082.89 221.49 1018.26 406.74 1040.58 284.14 1082.89"/><polygon class="bd" points="253.12 869.23 336.68 961.42 221.49 1018.26 253.12 869.23"/><polygon class="bd" points="336.68 961.42 424.39 993.17 406.74 1040.58 336.68 961.42"/><line class="bd" x1="408.9" y1="867" x2="424.39" y2="993.17"/><polyline class="bd" points="253.12 869.23 408.9 867 336.68 961.42"/><polyline class="bd" points="406.74 1040.58 490.81 1017.8 424.39 993.17"/><line class="bd" x1="424.39" y1="993.17" x2="479.42" y2="961.42"/><polygon class="bd" points="479.42 961.42 553.46 994.2 490.81 1017.8 479.42 961.42"/><polygon class="bd" points="488.7 883.74 479.42 961.42 545.6 921.79 488.7 883.74"/><polygon class="bd" points="553.46 994.2 604.72 953.52 581.94 1001.52 553.46 994.2"/><line class="bd" x1="553.46" y1="994.2" x2="545.6" y2="921.79"/><polygon class="bd" points="-7.69 929.92 95.1 1066.91 168.06 882.19 -7.69 929.92"/><polyline class="bd" points="284.14 1082.89 169.15 1131.71 221.49 1018.26"/><polyline class="bd" points="221.49 1018.26 182.17 1017.8 169.15 1131.71"/><line class="bd" x1="168.06" y1="882.19" x2="182.17" y2="1017.8"/><polyline class="bd" points="182.17 1017.8 95.1 1066.91 169.15 1131.71"/><line class="bd" x1="95.1" y1="1066.91" x2="55.23" y2="1147.98"/><polygon class="bd" points="168.06 882.19 106.22 809.5 209.83 820.89 168.06 882.19"/><line class="bd" x1="106.22" y1="809.5" x2="-7.69" y2="929.92"/><line class="bd" x1="-33.18" y1="819.27" x2="106.22" y2="809.5"/><polygon class="bd" points="209.83 820.89 318.32 752.55 253.12 869.23 209.83 820.89"/><line class="bd" x1="408.9" y1="867" x2="318.32" y2="752.55"/><line class="bd" x1="408.9" y1="867" x2="468.03" y2="820.89"/><polygon class="bd" points="318.32 752.55 144.19 723.25 209.83 820.89 318.32 752.55"/><polygon class="bd" points="106.22 809.5 144.19 723.25 24.86 723.25 106.22 809.5"/><polygon class="bd" points="24.86 723.25 -155.23 788.89 -33.18 819.26 24.86 723.25"/><line class="bd" x1="55.23" y1="1147.98" x2="-118.35" y2="1024.31"/><polygon class="bd" points="468.03 820.89 579.5 845.85 488.7 883.74 468.03 820.89"/><polygon class="bd" points="604.72 953.52 545.6 921.79 579.5 845.85 604.72 953.52"/><polyline class="bd" points="468.03 820.89 585.2 714.29 579.5 845.85"/><polygon class="bd" points="318.32 752.55 430.6 641.35 468.03 820.89 318.32 752.55"/><polygon class="bd" points="144.19 723.25 235.32 636.17 318.32 752.55 144.19 723.25"/><line class="bd" x1="579.5" y1="845.84" x2="670.63" y2="851.54"/><polygon class="bd" points="581.94 1001.52 619.37 1013.08 585.2 1037.33 581.94 1001.52"/><polygon class="bd" points="585.2 1037.33 579.09 1080.21 651.85 1066.91 585.2 1037.33"/><line class="bd" x1="619.37" y1="1013.08" x2="651.85" y2="1066.91"/><line class="bd" x1="604.72" y1="953.52" x2="619.37" y2="1013.08"/><polyline class="bd" points="604.72 953.52 675.92 964.1 619.37 1013.08"/><line class="bd" x1="619.37" y1="1013.08" x2="732.2" y2="1019.42"/><polygon class="bd" points="579.09 1080.21 619.37 1118.65 565.13 1166.43 579.09 1080.21"/><polygon class="bd" points="651.85 1066.91 710.5 1101.33 619.37 1118.65 651.85 1066.91"/><polygon class="bd" points="732.2 1019.42 710.5 1101.33 651.85 1066.91 732.2 1019.42"/><polyline class="bd" points="604.72 953.52 670.63 851.54 675.92 964.1"/><line class="bd" x1="777.76" y1="883.82" x2="670.63" y2="851.54"/><polygon class="bd" points="585.2 714.29 750.64 714.29 670.63 851.54 585.2 714.29"/><polygon class="bd" points="675.92 964.1 777.76 883.82 732.2 1019.42 675.92 964.1"/><polyline class="bd" points="732.2 1019.42 745.22 1132.79 710.5 1101.33"/><polygon class="bd" points="732.2 1019.42 863.47 983.3 777.76 883.82 732.2 1019.42"/><polygon class="bd" points="797.83 1200.2 863.47 983.3 745.22 1132.79 797.83 1200.2"/><polygon class="bd" points="777.76 883.82 977.38 766.38 750.64 714.29 777.76 883.82"/><line class="bd" x1="977.38" y1="766.38" x2="863.47" y2="983.3"/><polygon class="bd" points="235.32 636.17 278.72 348.14 430.6 641.35 235.32 636.17"/><polygon class="bd" points="692.02 397.38 430.6 641.35 585.2 714.29 692.02 397.38"/><line class="bd" x1="76.39" y1="539.37" x2="24.86" y2="723.25"/><line class="bd" x1="-197.81" y1="519.97" x2="24.86" y2="723.25"/><polyline class="bd" points="235.32 636.17 76.39 539.37 144.19 723.25"/><line class="bd" x1="278.72" y1="348.14" x2="76.39" y2="539.37"/><line class="bd" x1="76.39" y1="539.37" x2="-197.81" y2="519.97"/><line class="bd" x1="278.72" y1="348.14" x2="-197.81" y2="519.97"/><line class="bd" x1="750.64" y1="714.29" x2="692.02" y2="397.38"/><polygon class="bd" points="692.02 397.38 1024.81 397 977.38 766.38 692.02 397.38"/><polygon class="bd" points="278.72 348.14 628.42 81.62 692.02 397.38 278.72 348.14"/><polyline class="bd" points="628.42 81.62 -111.84 191.26 278.72 348.14"/><polygon class="bd" points="1601.42 100.66 1651.43 128.98 1530.65 144.68 1601.42 100.66"/><polygon class="bd" points="1707.05 200.83 1651.43 128.98 1676.37 123.13 1707.05 200.83"/><polygon class="bd" points="1655.32 221.71 1587.67 180.41 1651.43 128.98 1655.32 221.71"/><polygon class="bd" points="1587.67 180.41 1527.09 175.37 1530.65 144.68 1587.67 180.41"/><line class="bd" x1="1557.12" y1="247.29" x2="1527.09" y2="175.37"/><polyline class="bd" points="1655.32 221.71 1557.12 247.29 1587.67 180.41"/><polygon class="bd" points="1530.65 144.68 1481.11 171.2 1527.09 175.37 1530.65 144.68"/><line class="bd" x1="1527.09" y1="175.37" x2="1497.36" y2="202.64"/><polygon class="bd" points="1497.36 202.64 1445.26 194.86 1481.11 171.2 1497.36 202.64"/><line class="bd" x1="1445.26" y1="194.86" x2="1461.85" y2="236.3"/><polygon class="bd" points="1503.95 249.86 1497.36 202.64 1461.85 236.3 1503.95 249.86"/><polygon class="bd" points="1445.26 194.86 1419.36 226.82 1426.07 194.99 1445.26 194.86"/><polygon class="bd" points="1810.58 145.33 1723.58 80.63 1707.05 200.83 1810.58 145.33"/><line class="bd" x1="1601.42" y1="100.66" x2="1666.34" y2="53.99"/><polygon class="bd" points="1676.37 123.13 1666.34 53.99 1651.43 128.98 1676.37 123.13"/><line class="bd" x1="1676.37" y1="123.13" x2="1723.58" y2="80.63"/><polygon class="bd" points="1810.58 145.33 1723.58 80.63 1735.8 26.66 1810.58 145.33"/><polygon class="bd" points="1723.58 80.63 1735.8 26.66 1666.34 53.99 1723.58 80.63"/><polyline class="bd" points="1666.34 53.99 1720.58 -2.34 1735.8 26.66"/><polygon class="bd" points="1810.58 145.33 1844.45 206.55 1877.95 138.62 1810.58 145.33"/><polygon class="bd" points="1707.05 200.83 1757.83 234.02 1690.45 243.45 1707.05 200.83"/><line class="bd" x1="1757.83" y1="234.02" x2="1810.58" y2="145.33"/><polygon class="bd" points="1690.45 243.45 1632.78 300.61 1655.32 221.71 1690.45 243.45"/><polygon class="bd" points="1557.12 247.29 1527.11 283.67 1632.78 300.61 1557.12 247.29"/><polygon class="bd" points="1632.78 300.61 1747.64 290.75 1690.45 243.45 1632.78 300.61"/><polygon class="bd" points="1757.83 234.02 1747.64 290.75 1823.13 272.16 1757.83 234.02"/><polyline class="bd" points="1757.83 234.02 1844.45 206.55 1823.13 272.16"/><polyline class="bd" points="1877.95 138.62 1944.73 247.29 1844.45 206.55"/><line class="bd" x1="1735.8" y1="26.65" x2="1802.19" y2="-40.84"/><polyline class="bd" points="1735.8 26.66 1865.44 72.48 1802.19 -40.84"/><polygon class="bd" points="1893.07 -44.89 1865.44 72.48 1971.31 -14.79 1893.07 -44.89"/><polygon class="bd" points="1527.11 283.67 1452.59 286.33 1503.95 249.86 1527.11 283.67"/><polygon class="bd" points="1419.36 226.82 1461.85 236.3 1452.59 286.33 1419.36 226.82"/><line class="bd" x1="1527.11" y1="283.67" x2="1470.08" y2="364.72"/><polyline class="bd" points="1632.78 300.61 1579.58 383.62 1527.11 283.67"/><line class="bd" x1="1470.08" y1="364.72" x2="1579.58" y2="383.62"/><polyline class="bd" points="1747.64 290.75 1690.21 383.62 1632.78 300.61"/><line class="bd" x1="1579.58" y1="383.62" x2="1690.21" y2="383.62"/><line class="bd" x1="1394.02" y1="297.17" x2="1419.36" y2="226.82"/><polygon class="bd" points="1470.08 364.72 1394.02 297.17 1452.59 286.33 1470.08 364.72"/><line class="bd" x1="1418.27" y1="174.4" x2="1426.07" y2="194.98"/><polygon class="bd" points="1418.27 174.4 1415.25 148.18 1371.36 167.35 1418.27 174.4"/><line class="bd" x1="1418.27" y1="174.4" x2="1400.54" y2="194"/><polygon class="bd" points="1419.36 226.82 1400.54 194 1426.07 194.99 1419.36 226.82"/><polyline class="bd" points="1419.36 226.82 1372.62 231.68 1400.54 194"/><polygon class="bd" points="1371.36 167.35 1400.54 194 1328.14 207.84 1371.36 167.35"/><polygon class="bd" points="1415.25 148.18 1383.61 131.81 1410.26 95.21 1415.25 148.18"/><line class="bd" x1="1383.61" y1="131.81" x2="1381.38" y2="111.51"/><polygon class="bd" points="1381.38 111.51 1360.54 76.33 1410.26 95.21 1381.38 111.51"/><line class="bd" x1="1320.01" y1="118.79" x2="1381.38" y2="111.51"/><polygon class="bd" points="1360.54 76.33 1411.56 24.64 1410.26 95.21 1360.54 76.33"/><polygon class="bd" points="1424.27 -22.82 1411.56 24.64 1378.61 -13.46 1424.27 -22.82"/><polyline class="bd" points="1411.56 24.64 1369.19 26.21 1378.61 -13.46"/><polygon class="bd" points="1360.54 76.33 1293.56 14.71 1369.19 26.21 1360.54 76.33"/><polyline class="bd" points="1360.54 76.33 1320.02 118.79 1293.56 14.71"/><polygon class="bd" points="1371.36 167.35 1328.73 156.21 1383.61 131.81 1371.36 167.35"/><line class="bd" x1="1328.14" y1="207.84" x2="1328.73" y2="156.2"/><line class="bd" x1="1301.73" y1="143.08" x2="1328.73" y2="156.2"/><line class="bd" x1="628.42" y1="81.62" x2="323.88" y2="-468.41"/><polygon class="bd" points="1372.62 231.68 1326.2 298.48 1394.02 297.17 1372.62 231.68"/><line class="bd" x1="1372.62" y1="231.67" x2="1328.14" y2="207.84"/><polygon class="bd" points="1301.73 143.08 1256.7 213.11 1328.14 207.84 1301.73 143.08"/><polygon class="bd" points="1326.2 298.48 1256.7 213.11 1328.14 207.84 1326.2 298.48"/><polyline class="bd" points="1326.2 298.48 1336.09 425.5 1394.02 297.17"/><line class="bd" x1="1205.66" y1="361.85" x2="1326.2" y2="298.48"/><polygon class="bd" points="1256.7 213.11 1120.6 204.08 1205.66 361.85 1256.7 213.11"/><polygon class="bd" points="1335.11 425.5 1306.16 662.67 1205.66 361.85 1335.11 425.5"/><line class="bd" x1="1166.12" y1="558.96" x2="1205.66" y2="361.85"/><line class="bd" x1="1024.81" y1="397" x2="1166.12" y2="558.96"/><polyline class="bd" points="1120.6 204.08 1024.81 397 1205.66 361.85"/><polygon class="bd" points="1336.1 424.34 1445.14 487.01 1471.12 365.89 1336.1 424.34"/><polygon class="bd" points="1446.2 486.27 1527.57 782.56 1306.16 662.67 1446.2 486.27"/><polygon class="bd" points="1446.2 486.27 1579.58 383.62 1643.04 520.99 1446.2 486.27"/><polygon class="bd" points="1527.57 782.56 1720.33 842.34 1643.04 520.99 1527.57 782.56"/><line class="bd" x1="1690.21" y1="383.62" x2="1810.58" y2="383.62"/><polygon class="bd" points="1643.04 520.99 1690.21 383.62 1815.28 531.84 1643.04 520.99"/><line class="bd" x1="1810.58" y1="383.62" x2="1815.28" y2="531.84"/><polygon class="bd" points="1120.6 204.08 1153.1 -7.12 879.86 45.52 1120.6 204.08"/><polygon class="bd" points="628.42 81.62 879.86 45.52 1024.81 397 628.42 81.62"/><polygon class="bd" points="1306.16 662.67 977.38 766.38 1166.12 558.96 1306.16 662.67"/><line class="bd" x1="976.81" y1="767.9" x2="1178.02" y2="840.81"/><polygon class="bd" points="1177.45 842.34 1018.06 1114.35 863.47 983.3 1177.45 842.34"/><line class="bd" x1="1527.57" y1="782.56" x2="1452.59" y2="1049.26"/><polygon class="bd" points="1177.45 842.34 1307.9 662.67 1452.59 1049.26 1177.45 842.34"/><polyline class="bd" points="1823.13 272.16 1810.58 383.62 1747.64 290.75"/><polygon class="bd" points="1944.73 247.29 1823.13 272.16 2035.41 443.75 1944.73 247.29"/><line class="bd" x1="1810.58" y1="383.62" x2="2035.41" y2="443.75"/><line class="bd" x1="1815.28" y1="531.84" x2="2035.41" y2="443.75"/><polygon class="bd" points="1720.33 842.34 2096.79 852.32 1815.28 531.84 1720.33 842.34"/><polygon class="bd" points="879.86 45.52 928.71 -175.67 1153.1 -7.12 879.86 45.52"/><line class="bd" x1="1293.56" y1="14.71" x2="1236.75" y2="83.72"/><polyline class="bd" points="1293.56 14.71 1251.58 -14.25 1236.75 83.72"/><polyline class="bd" points="1120.6 204.08 1236.75 83.72 1153.1 -7.12"/><polygon class="bd" points="1320.02 118.79 1301.73 143.08 1236.75 83.72 1320.02 118.79"/><line class="bd" x1="1256.7" y1="213.11" x2="1236.75" y2="83.72"/><polygon class="bd" points="1877.95 138.62 1934.13 93.92 1865.44 72.48 1877.95 138.62"/><polyline class="bd" points="1141.77 1257.48 1452.59 1049.26 1018.06 1114.35"/><polygon class="bd" points="1452.59 1049.26 2001.39 1060.38 1720.33 842.34 1452.59 1049.26"/><line class="bd" x1="1607.8" y1="1384.48" x2="1452.59" y2="1049.26"/><polygon class="bd" points="1607.8 1384.48 2056.76 1727.31 2001.39 1060.38 1607.8 1384.48"/><line class="bd" x1="628.42" y1="81.62" x2="928.71" y2="-175.67"/></g></svg>