<svg xmlns="http://www.w3.org/2000/svg" xmlns:xlink="http://www.w3.org/1999/xlink" viewBox="0 0 1920 1080"><defs><style>.a,.ae{fill:none;}.b{clip-path:url(#a);}.aa,.ab,.ac,.ad,.c,.d,.e,.f,.g,.h,.i,.j,.k,.l,.m,.n,.o,.p,.q,.r,.s,.t,.u,.v,.w,.x,.y,.z{opacity:0.7;}.d{fill:#f9eedc;}.e{fill:#f7e3c4;}.f{fill:#f7e5c7;}.g{fill:#f7e2c2;}.h{fill:#f8ead2;}.i{fill:#f4dcb4;}.j{fill:#f2d7a8;}.k{fill:#f5e0bd;}.l{fill:#f9ecd7;}.m{fill:#f7e6ca;}.n{fill:#faf0e1;}.o{fill:#f9edd8;}.p{fill:#f8e9d1;}.q{fill:#f5deb9;}.r{fill:#fbf2e5;}.s{fill:#f8e7cc;}.t{fill:#f5e0be;}.u{fill:#f3d9ab;}.v{fill:#f8e9d0;}.w{fill:#f5e1bf;}.x{fill:#f3dab0;}.y{fill:#f1d19a;}.z{fill:#efcb8b;}.aa{fill:#f2d6a7;}.ab{fill:#f0cd8f;}.ac{fill:#f9ebd5;}.ad{fill:#fcf6ee;}.ae{stroke:#e6332a;stroke-linecap:round;stroke-linejoin:round;stroke-width:1.21px;stroke-dasharray:40.49 20.25;}</style><clipPath id="a"><rect class="a" width="1920" height="1080"/></clipPath></defs><title>Artboard 1</title><g class="b"><g class="c"><polygon class="d" points="-64.76 325.34 4.35 270.49 -26.37 335.21 -64.76 325.34"/><polygon class="e" points="-75.37 227.7 4.35 270.49 -64.76 325.34 -75.37 227.7"/><polygon class="f" points="4.35 270.49 -75.37 227.7 -29.66 125.31 4.35 270.49"/><polygon class="g" points="-29.66 125.31 93.22 132.99 4.35 270.49 -29.66 125.31"/><polygon class="h" points="-21.98 -52.07 93.22 132.99 -29.66 125.31 -21.98 -52.07"/><polygon class="i" points="-26.37 335.21 24.1 350.8 -21.98 383.49 -26.37 335.21"/><polygon class="j" points="-21.98 383.49 -30.21 441.31 67.89 423.37 -21.98 383.49"/><polygon class="k" points="24.1 350.8 67.89 423.37 -21.98 383.49 24.1 350.8"/><polygon class="h" points="4.35 270.49 24.1 350.8 -26.37 335.21 4.35 270.49"/><polygon class="k" points="4.35 270.49 100.35 284.75 24.1 350.8 4.35 270.49"/><polygon class="e" points="67.89 423.37 24.1 350.8 176.23 359.35 67.89 423.37"/><polygon class="l" points="100.35 284.75 176.23 359.35 24.1 350.8 100.35 284.75"/><polygon class="m" points="-30.21 441.31 24.1 493.13 -49.04 557.55 -30.21 441.31"/><polygon class="n" points="24.1 493.13 17.52 537.86 -49.04 557.55 24.1 493.13"/><polygon class="l" points="17.52 537.86 40.01 624.29 -49.04 557.55 17.52 537.86"/><polygon class="m" points="144.05 554.63 17.52 537.86 40.01 624.29 144.05 554.63"/><polygon class="m" points="40.01 624.29 -90 708.22 -49.04 557.55 40.01 624.29"/><polygon class="o" points="40.01 624.29 -4.52 727.23 -90 708.22 40.01 624.29"/><polygon class="p" points="40.01 624.29 140.3 791.83 -4.52 727.23 40.01 624.29"/><polygon class="q" points="40.01 624.29 144.05 554.63 140.3 791.83 40.01 624.29"/><polygon class="l" points="144.05 554.63 264.73 603.09 140.3 791.83 144.05 554.63"/><polygon class="r" points="193.78 512.21 144.05 554.63 264.73 603.09 193.78 512.21"/><polygon class="s" points="140.3 791.83 264.73 603.09 208.41 876.11 140.3 791.83"/><polygon class="o" points="24.1 493.13 67.89 423.37 -30.21 441.31 24.1 493.13"/><polygon class="t" points="67.89 423.37 146.97 469.79 24.1 493.13 67.89 423.37"/><polygon class="h" points="176.23 359.35 146.97 469.79 67.89 423.37 176.23 359.35"/><polygon class="u" points="4.35 270.49 93.22 132.99 100.35 284.75 4.35 270.49"/><polygon class="i" points="100.35 284.75 237.66 176.5 93.22 132.99 100.35 284.75"/><polygon class="v" points="-21.98 -52.07 201.09 -52.07 93.22 132.99 -21.98 -52.07"/><polygon class="g" points="237.66 176.5 201.09 -52.07 93.22 132.99 237.66 176.5"/><polygon class="f" points="100.35 284.75 237.66 176.5 176.23 359.35 100.35 284.75"/><polygon class="q" points="146.97 469.79 176.23 359.35 193.78 512.21 146.97 469.79"/><polygon class="q" points="176.23 359.35 353.22 310.64 237.66 176.5 176.23 359.35"/><polygon class="j" points="193.78 512.21 176.23 359.35 353.22 310.64 193.78 512.21"/><polygon class="w" points="264.73 603.09 353.22 310.64 193.78 512.21 264.73 603.09"/><polygon class="x" points="237.66 176.5 506.81 18.16 201.09 -52.07 237.66 176.5"/><polygon class="g" points="353.22 310.64 237.66 176.5 506.81 18.16 353.22 310.64"/><polygon class="g" points="208.41 876.11 456.11 767.28 264.73 603.09 208.41 876.11"/><polygon class="l" points="353.22 310.64 561.67 487.34 264.73 603.09 353.22 310.64"/><polygon class="m" points="122.06 -479.38 506.81 18.16 201.09 -52.07 122.06 -479.38"/><polygon class="w" points="122.06 -479.38 570.77 -479.88 506.81 18.16 122.06 -479.38"/><polygon class="y" points="1138.94 -359.52 1248.65 39.97 950.12 -121.68 1138.94 -359.52"/><polygon class="z" points="1248.65 39.97 1404.35 -312.71 1138.94 -359.52 1248.65 39.97"/><polygon class="aa" points="1248.65 39.97 1508.56 120.58 1404.35 -312.71 1248.65 39.97"/><polygon class="ab" points="1636.58 -298.08 1508.56 120.58 1404.35 -312.71 1636.58 -298.08"/><polygon class="e" points="570.77 -479.88 761.3 -261.51 506.81 18.16 570.77 -479.88"/><polygon class="h" points="950.12 -121.68 506.81 18.16 761.3 -261.51 950.12 -121.68"/><polygon class="w" points="506.81 18.16 776.58 120.58 353.22 310.64 506.81 18.16"/><polygon class="w" points="776.58 120.58 561.67 487.34 353.22 310.64 776.58 120.58"/><polygon class="ac" points="456.11 767.28 561.67 487.34 264.73 603.09 456.11 767.28"/><polygon class="m" points="776.58 120.58 1147.55 399.57 561.67 487.34 776.58 120.58"/><polygon class="w" points="950.12 -121.68 776.58 120.58 506.81 18.16 950.12 -121.68"/><polygon class="q" points="1248.65 39.97 1147.55 399.57 950.12 -121.68 1248.65 39.97"/><polygon class="x" points="776.58 120.58 952.47 -121.68 1147.55 399.57 776.58 120.58"/><polygon class="f" points="1508.56 120.58 1147.55 399.57 1248.65 39.97 1508.56 120.58"/><polygon class="aa" points="1508.56 120.58 2016.16 134.03 1636.58 -298.08 1508.56 120.58"/><polygon class="k" points="1933.39 -416.85 2016.16 134.03 1636.58 -298.08 1933.39 -416.85"/><polygon class="ac" points="1508.56 120.58 1887.52 414.57 2016.16 134.03 1508.56 120.58"/><polygon class="m" points="111.87 920.32 -44.91 807.33 -90 913.92 111.87 920.32"/><polygon class="k" points="111.87 920.32 -2.23 1192.4 -90 913.92 111.87 920.32"/><polygon class="o" points="111.87 920.32 240.59 1134.51 208.41 876.11 111.87 920.32"/><polygon class="i" points="456.11 767.28 240.59 1134.51 208.41 876.11 456.11 767.28"/><polygon class="s" points="111.87 920.32 -2.23 1192.4 240.59 1134.51 111.87 920.32"/><polygon class="f" points="240.59 1134.51 603.12 1102.62 456.11 767.28 240.59 1134.51"/><polygon class="r" points="456.11 767.28 728.47 680.33 561.67 487.34 456.11 767.28"/><polygon class="ad" points="1147.55 399.57 561.67 487.34 728.47 680.33 1147.55 399.57"/><polygon class="r" points="1147.55 399.57 1887.52 414.57 1508.56 120.58 1147.55 399.57"/><polygon class="d" points="728.47 680.33 603.12 1102.62 456.11 767.28 728.47 680.33"/><polygon class="o" points="1147.55 399.57 1356.83 851.57 728.47 680.33 1147.55 399.57"/><polygon class="o" points="1887.52 414.57 1356.83 851.57 1147.55 399.57 1887.52 414.57"/><polygon class="r" points="728.47 680.33 603.12 1102.62 1356.83 851.57 728.47 680.33"/><polygon class="r" points="1887.52 414.57 2419.88 359.35 2016.16 134.03 1887.52 414.57"/><polygon class="ad" points="1356.83 851.57 1053.5 1623.78 603.12 1102.62 1356.83 851.57"/><polygon class="ad" points="1356.83 851.57 1962.18 1313.81 1887.52 414.57 1356.83 851.57"/><polygon class="d" points="1053.5 1623.78 1962.18 1313.81 1356.83 851.57 1053.5 1623.78"/><polygon class="n" points="1962.18 1313.81 1887.52 414.57 2419.88 359.35 1962.18 1313.81"/></g><g class="c"><polygon class="p" points="-44.91 807.33 111.87 920.32 140.3 791.83 -44.91 807.33"/><polygon class="h" points="17.52 537.86 144.05 554.63 146.97 469.79 17.52 537.86"/><polygon class="u" points="146.97 469.79 24.1 493.13 17.52 537.86 146.97 469.79"/><polygon class="j" points="146.97 469.79 193.78 512.21 144.05 554.63 146.97 469.79"/><polygon class="u" points="-44.91 807.33 -4.52 727.23 140.3 791.83 -44.91 807.33"/><polygon class="u" points="111.87 920.32 208.41 876.11 140.3 791.83 111.87 920.32"/></g><polygon class="ae" points="-64.76 325.34 4.35 270.49 -26.37 335.21 -64.76 325.34"/><polygon class="ae" points="4.35 270.49 -75.37 227.7 -29.66 125.31 4.35 270.49"/><line class="ae" x1="-29.66" y1="125.31" x2="93.22" y2="132.98"/><polygon class="ae" points="-26.37 335.21 24.1 350.8 -21.98 383.49 -26.37 335.21"/><polygon class="ae" points="-21.98 383.49 -30.21 441.31 67.89 423.37 -21.98 383.49"/><line class="ae" x1="24.1" y1="350.8" x2="67.89" y2="423.37"/><line class="ae" x1="4.35" y1="270.49" x2="24.1" y2="350.8"/><polyline class="ae" points="4.35 270.49 100.35 284.75 24.1 350.8"/><line class="ae" x1="24.1" y1="350.8" x2="176.23" y2="359.35"/><polygon class="ae" points="-30.21 441.31 24.1 493.13 -49.04 557.55 -30.21 441.31"/><line class="ae" x1="24.1" y1="493.13" x2="17.52" y2="537.86"/><polygon class="ae" points="17.52 537.86 40.01 624.29 -49.04 557.55 17.52 537.86"/><polyline class="ae" points="40.01 624.29 144.05 554.63 17.52 537.86"/><polygon class="ae" points="40.01 624.29 -4.52 727.23 -90 708.22 40.01 624.29"/><polygon class="ae" points="40.01 624.29 140.3 791.83 -4.52 727.23 40.01 624.29"/><polygon class="ae" points="144.05 554.63 264.73 603.09 140.3 791.83 144.05 554.63"/><line class="ae" x1="193.78" y1="512.21" x2="144.05" y2="554.63"/><polygon class="ae" points="140.3 791.83 264.73 603.09 208.41 876.11 140.3 791.83"/><polygon class="ae" points="67.89 423.37 146.97 469.79 24.1 493.13 67.89 423.37"/><polygon class="ae" points="176.23 359.35 146.97 469.79 67.89 423.37 176.23 359.35"/><polyline class="ae" points="4.35 270.49 93.22 132.99 100.35 284.75"/><line class="ae" x1="237.66" y1="176.5" x2="93.22" y2="132.98"/><polygon class="ae" points="-21.98 -52.07 201.09 -52.07 93.22 132.99 -21.98 -52.07"/><polygon class="ae" points="100.35 284.75 237.66 176.5 176.23 359.35 100.35 284.75"/><polyline class="ae" points="176.23 359.35 193.78 512.21 146.97 469.79"/><polygon class="ae" points="176.23 359.35 353.22 310.64 237.66 176.5 176.23 359.35"/><polygon class="ae" points="264.73 603.09 353.22 310.64 193.78 512.21 264.73 603.09"/><polygon class="ae" points="237.66 176.5 506.81 18.16 201.09 -52.07 237.66 176.5"/><line class="ae" x1="506.81" y1="18.16" x2="353.22" y2="310.64"/><polyline class="ae" points="208.41 876.11 456.11 767.28 264.73 603.09"/><line class="ae" x1="561.67" y1="487.34" x2="264.73" y2="603.09"/><polygon class="ae" points="122.06 -479.38 570.77 -479.88 506.81 18.16 122.06 -479.38"/><polygon class="ae" points="1138.94 -359.52 1248.65 39.97 950.12 -121.68 1138.94 -359.52"/><polygon class="ae" points="1248.65 39.97 1508.56 120.58 1404.35 -312.71 1248.65 39.97"/><polygon class="ae" points="950.12 -121.68 506.81 18.16 761.3 -261.51 950.12 -121.68"/><line class="ae" x1="506.05" y1="20.21" x2="777.34" y2="118.52"/><polygon class="ae" points="776.58 120.58 561.67 487.34 353.22 310.64 776.58 120.58"/><line class="ae" x1="1248.65" y1="39.97" x2="1147.55" y2="399.58"/><polygon class="ae" points="776.58 120.58 952.47 -121.68 1147.55 399.57 776.58 120.58"/><polygon class="ae" points="1508.56 120.58 2016.16 134.03 1636.58 -298.08 1508.56 120.58"/><line class="ae" x1="1887.52" y1="414.57" x2="2016.16" y2="134.03"/><polygon class="ae" points="111.87 920.32 -44.91 807.33 -90 913.92 111.87 920.32"/><polyline class="ae" points="240.59 1134.51 208.41 876.11 111.87 920.32"/><polygon class="ae" points="111.87 920.32 -2.23 1192.4 240.59 1134.51 111.87 920.32"/><line class="ae" x1="456.11" y1="767.28" x2="240.59" y2="1134.51"/><polygon class="ae" points="456.11 767.28 728.47 680.33 561.67 487.34 456.11 767.28"/><polyline class="ae" points="728.47 680.33 1147.55 399.57 561.67 487.34"/><polygon class="ae" points="1147.55 399.57 1887.52 414.57 1508.56 120.58 1147.55 399.57"/><polyline class="ae" points="728.47 680.33 603.12 1102.62 456.11 767.28"/><line class="ae" x1="1356.83" y1="851.57" x2="1147.55" y2="399.58"/><polygon class="ae" points="728.47 680.33 603.12 1102.62 1356.83 851.57 728.47 680.33"/><line class="ae" x1="1356.83" y1="851.57" x2="1053.5" y2="1623.78"/><polygon class="ae" points="1356.83 851.57 1962.18 1313.81 1887.52 414.57 1356.83 851.57"/><polygon class="ae" points="1962.18 1313.81 1887.52 414.57 2419.88 359.35 1962.18 1313.81"/></g></svg>