<svg xmlns="http://www.w3.org/2000/svg" xmlns:xlink="http://www.w3.org/1999/xlink" viewBox="0 0 1920 1080"><defs><style>.a,.bj,.bu{fill:none;}.b{clip-path:url(#a);}.aa,.ab,.ac,.ad,.ae,.ai,.bd,.be,.bf,.bg,.bh,.bi,.bu,.c,.d,.e,.f,.g,.j,.k,.l,.m,.n,.o,.p,.q,.r,.x,.y,.z{opacity:0.7;}.d,.i{fill:#f8ead2;}.e{fill:#faefdf;}.ax,.f{fill:#f7e2c2;}.bc,.g{fill:#fbf2e5;}.h,.p{fill:#f7e5c7;}.j{fill:#f8e8ce;}.k{fill:#f9eedc;}.l{fill:#f8e7cc;}.ar,.m{fill:#f3dab0;}.n{fill:#fcf7ef;}.o{fill:#f7e4c5;}.az,.q{fill:#f9edd8;}.r{fill:#fbf2e4;}.bg,.s{fill:#f7e3c4;}.t{fill:#f4dcb5;}.aa,.u{fill:#f9ecd7;}.v{fill:#f2d5a3;}.ab,.w{fill:#f9ebd5;}.af,.x{fill:#f7e6ca;}.y{fill:#f8e9d1;}.z{fill:#f5deb9;}.ac,.aj{fill:#f4ddb6;}.ad,.aq{fill:#f5e0bd;}.ae,.ag{fill:#f4dcb4;}.ah,.bh{fill:#f2d6a7;}.ai,.bo{fill:#f0cf94;}.ak{fill:#f1d19a;}.al{fill:#f1d29d;}.am{fill:#f0cd8f;}.an{fill:#edc580;}.ao{fill:#f1d098;}.ap{fill:#f2d4a0;}.as{fill:#f8e9d0;}.at{fill:#f5dfbc;}.au{fill:#f3d9ae;}.av{fill:#f8ebd5;}.aw{fill:#f2d6a5;}.ay{fill:#f3d9ab;}.ba{fill:#f5e1bf;}.bb{fill:#f2d7a8;}.bd{fill:#fcf6ee;}.be{fill:#fcfaf4;}.bf{fill:#faf0e1;}.bi{fill:#fbf4e9;}.bj,.bu{stroke:#f3b78d;stroke-linecap:round;stroke-linejoin:round;stroke-width:0.9px;stroke-dasharray:30.03 15.02;}.bk{fill:#fbcc86;}.bl{fill:#eec783;}.bm{fill:#f0cd91;}.bn{fill:#787865;}.bp{fill:#f3d9ad;}.bq{fill:#efcb8b;}.br{fill:#ecc37b;}.bs{fill:#f2d4a1;}.bt{fill:#eabd6e;}</style><clipPath id="a"><rect class="a" width="1920" height="1080"/></clipPath></defs><title>Artboard 1</title><g class="b"><g class="c"><polygon class="d" points="456.22 -79.15 330.65 2.21 467.07 -27.08 456.22 -79.15"/><polygon class="e" points="378.11 105.27 330.65 2.21 467.07 -27.08 378.11 105.27"/><polygon class="f" points="317.71 79.37 378.11 105.27 330.65 2.21 317.71 79.37"/><polygon class="g" points="334.71 223.53 256.06 280.91 302.71 330.93 334.71 223.53"/><polygon class="h" points="257.69 327.67 256.06 280.91 302.71 330.93 257.69 327.67"/><polygon class="i" points="152.46 338.52 283.18 392.77 257.69 327.67 152.46 338.52"/><polygon class="j" points="150.29 260.41 243.59 182.3 256.06 280.91 150.29 260.41"/><polygon class="k" points="334.71 223.53 243.59 182.3 256.06 280.91 334.71 223.53"/><polygon class="l" points="243.59 182.3 317.71 79.37 334.71 223.53 243.59 182.3"/><polygon class="l" points="163.31 75.98 243.59 182.3 317.71 79.37 163.31 75.98"/><polygon class="m" points="163.31 75.98 150.29 260.41 243.59 182.3 163.31 75.98"/><polygon class="n" points="150.29 260.41 51.56 214.3 103.64 299.47 150.29 260.41"/><polygon class="o" points="163.31 75.98 51.56 214.3 150.29 260.41 163.31 75.98"/><polygon class="e" points="122.08 2.21 163.31 75.98 51.56 63.51 122.08 2.21"/><polygon class="p" points="51.56 63.51 51.56 214.3 163.31 75.98 51.56 63.51"/><polygon class="p" points="282.64 -202.83 330.65 2.21 456.22 -79.15 282.64 -202.83"/><polygon class="q" points="194.38 -26.94 282.64 -202.83 330.65 2.21 194.38 -26.94"/><polygon class="q" points="194.38 -26.94 90.62 -105.46 122.08 2.21 194.38 -26.94"/><polygon class="p" points="90.62 -105.46 51.56 63.51 122.08 2.21 90.62 -105.46"/><polygon class="r" points="90.62 -105.46 -76.5 -79.15 51.56 63.51 90.62 -105.46"/><polygon class="s" points="283.18 392.77 217.82 420.43 257.69 454.6 283.18 392.77"/><polygon class="t" points="152.46 338.52 217.82 420.43 283.18 392.77 152.46 338.52"/><polygon class="g" points="74.34 356.96 96.04 444.23 152.46 338.52 74.34 356.96"/><polygon class="s" points="217.82 420.43 152.46 338.52 96.04 444.23 217.82 420.43"/><polygon class="u" points="257.69 454.6 217.82 420.43 243.59 500.17 257.69 454.6"/><polygon class="v" points="176.6 495.98 217.82 420.43 243.59 500.17 176.6 495.98"/><polygon class="d" points="103.64 299.47 74.34 356.96 152.46 338.52 103.64 299.47"/><polygon class="d" points="103.64 299.47 51.56 214.3 -16.96 304.69 103.64 299.47"/><polygon class="g" points="103.64 299.47 -16.96 304.69 74.34 356.96 103.64 299.47"/><polygon class="w" points="96.04 444.23 217.82 420.43 176.6 495.98 96.04 444.23"/><polygon class="x" points="1032.15 -11.21 935.74 51.03 966.11 -60.71 1032.15 -11.21"/><polygon class="m" points="897.77 121.55 935.74 51.03 969.17 124.54 897.77 121.55"/><polygon class="f" points="999.13 65.13 969.17 124.54 935.74 51.03 999.13 65.13"/><polygon class="q" points="1032.15 -11.21 999.13 65.13 935.74 51.03 1032.15 -11.21"/><polygon class="y" points="1032.15 -11.21 1106.54 113.04 999.13 65.13 1032.15 -11.21"/><polygon class="z" points="1032.15 -11.21 1109.32 -62.88 1106.54 113.04 1032.15 -11.21"/><polygon class="aa" points="1109.32 -62.88 1198.82 -26.94 1106.54 113.04 1109.32 -62.88"/><polygon class="l" points="1106.54 113.04 1198.82 -26.94 1157.05 175.55 1106.54 113.04"/><polygon class="f" points="1157.05 175.55 1340.76 94.83 1198.82 -26.94 1157.05 175.55"/><polygon class="ab" points="1340.76 94.83 1419.05 -112.79 1198.82 -26.94 1340.76 94.83"/><polygon class="ac" points="840.27 213.76 935.74 203.59 897.77 121.55 840.27 213.76"/><polygon class="x" points="969.17 124.54 935.74 203.59 897.77 121.55 969.17 124.54"/><polygon class="x" points="1085.45 208.34 969.17 124.54 935.74 203.59 1085.45 208.34"/><polygon class="x" points="840.27 213.76 840.27 305.92 935.74 203.59 840.27 213.76"/><polygon class="f" points="935.74 203.59 1000.83 410.12 840.27 305.92 935.74 203.59"/><polygon class="ad" points="1085.45 208.34 1000.83 410.12 935.74 203.59 1085.45 208.34"/><polygon class="q" points="1085.45 208.34 1180.92 367.19 1157.05 175.55 1085.45 208.34"/><polygon class="ae" points="1340.76 94.83 1180.92 367.19 1157.05 175.55 1340.76 94.83"/><polygon class="l" points="1085.45 208.34 1000.83 410.12 1180.92 367.19 1085.45 208.34"/><polygon class="ad" points="745.88 304.69 840.27 305.92 840.27 213.76 745.88 304.69"/><polygon class="af" points="745.88 304.69 763.78 432.36 840.27 305.92 745.88 304.69"/><polygon class="ag" points="635.23 371.07 627.3 426.42 763.78 432.36 635.23 371.07"/><polygon class="ah" points="745.88 304.69 635.23 371.07 763.78 432.36 745.88 304.69"/><polygon class="ag" points="840.27 305.92 763.78 432.36 924.89 477.39 840.27 305.92"/><polygon class="ah" points="763.78 432.36 707.91 585.87 627.3 426.42 763.78 432.36"/><polygon class="ai" points="924.89 477.39 763.78 432.36 707.91 585.87 924.89 477.39"/><polygon class="v" points="513.72 436.16 627.3 426.42 635.23 371.07 513.72 436.16"/><polygon class="aj" points="631.97 609.74 539.62 525.02 627.3 426.42 631.97 609.74"/><polygon class="ak" points="513.72 436.16 539.62 525.02 627.3 426.42 513.72 436.16"/><polygon class="aj" points="425.85 467.62 425.85 514.27 513.72 436.16 425.85 467.62"/><polygon class="ah" points="539.62 525.02 513.72 436.16 425.85 514.27 539.62 525.02"/><polygon class="al" points="441.03 622.76 539.62 525.02 425.85 514.27 441.03 622.76"/><polygon class="am" points="631.97 609.74 539.62 525.02 441.03 622.76 631.97 609.74"/><polygon class="an" points="425.85 467.62 300 515.36 425.85 514.27 425.85 467.62"/><polygon class="ao" points="373.77 622.76 300 515.36 425.85 514.27 373.77 622.76"/><polygon class="ao" points="243.59 500.17 243.59 585.87 300 515.36 243.59 500.17"/><polygon class="ap" points="373.77 622.76 243.59 585.87 300 515.36 373.77 622.76"/><polygon class="h" points="243.59 500.17 176.6 495.98 243.59 585.87 243.59 500.17"/><polygon class="h" points="96.04 444.23 74.34 640.56 176.6 495.98 96.04 444.23"/><polygon class="aq" points="243.59 585.87 176.6 495.98 74.34 640.56 243.59 585.87"/><polygon class="ar" points="373.77 622.76 295.39 730.06 243.59 585.87 373.77 622.76"/><polygon class="as" points="707.91 585.87 806.64 640.56 687.3 664.97 707.91 585.87"/><polygon class="at" points="924.89 477.39 806.64 640.56 707.91 585.87 924.89 477.39"/><polygon class="au" points="1020.36 491.49 924.89 477.39 969.17 609.74 1020.36 491.49"/><polygon class="h" points="806.64 640.56 969.17 609.74 924.89 477.39 806.64 640.56"/><polygon class="av" points="1020.36 491.49 1000.83 410.12 1180.92 367.19 1020.36 491.49"/><polygon class="aw" points="441.03 622.76 492.43 730.06 407.4 673.11 441.03 622.76"/><polygon class="af" points="631.97 609.74 492.43 730.06 687.3 664.97 631.97 609.74"/><polygon class="ax" points="441.03 622.76 492.32 730.06 631.7 609.74 441.03 622.76"/><polygon class="al" points="295.39 730.06 373.77 622.76 407.4 673.11 295.39 730.06"/><polygon class="ax" points="492.32 730.06 407.4 673.11 295.39 730.06 492.32 730.06"/><polygon class="ax" points="74.34 640.56 243.59 585.87 295.39 730.06 74.34 640.56"/><polygon class="f" points="96.04 444.23 -38.42 475.22 74.34 356.96 96.04 444.23"/><polygon class="aa" points="-16.96 304.69 -38.42 475.22 74.34 356.96 -16.96 304.69"/><polygon class="aa" points="74.34 640.56 -38.42 475.22 96.04 444.23 74.34 640.56"/><polygon class="ay" points="295.39 730.06 422.59 948.67 492.32 730.06 295.39 730.06"/><polygon class="ax" points="687.3 664.97 492.32 730.06 707.91 895.48 687.3 664.97"/><polygon class="az" points="422.59 948.67 707.91 895.48 492.32 730.06 422.59 948.67"/><polygon class="aj" points="687.3 664.97 806.64 640.56 707.91 895.48 687.3 664.97"/><polygon class="ba" points="806.64 640.56 969.17 609.74 1032.15 938.35 806.64 640.56"/><polygon class="bb" points="707.91 895.48 1032.15 938.35 806.64 640.56 707.91 895.48"/><polygon class="ba" points="969.17 609.74 1315.35 705.87 1020.36 491.49 969.17 609.74"/><polygon class="h" points="1180.92 367.19 1315.35 705.87 1020.36 491.49 1180.92 367.19"/><polygon class="p" points="1180.92 367.19 1449.79 343.54 1340.76 94.83 1180.92 367.19"/><polygon class="q" points="1315.35 705.87 1449.79 343.54 1180.92 367.19 1315.35 705.87"/><polygon class="az" points="1315.35 705.87 1032.15 938.35 969.17 609.74 1315.35 705.87"/><polygon class="q" points="707.91 895.48 752.39 1252.34 1032.15 938.35 707.91 895.48"/><polygon class="bc" points="422.59 948.67 752.39 1252.34 707.91 895.48 422.59 948.67"/><polygon class="g" points="1340.76 94.83 1542.76 30.34 1419.05 -112.79 1340.76 94.83"/><polygon class="bd" points="1853.57 -177.88 1419.05 -112.79 1542.76 30.34 1853.57 -177.88"/><polygon class="k" points="1542.76 30.34 1449.79 343.54 1340.76 94.83 1542.76 30.34"/><polygon class="q" points="1853.57 -177.88 2008.79 157.35 1542.76 30.34 1853.57 -177.88"/><polygon class="q" points="2402.38 -166.76 2008.79 157.35 1853.57 -177.88 2402.38 -166.76"/><polygon class="g" points="1542.76 30.34 1449.79 343.54 2008.79 157.35 1542.76 30.34"/><polygon class="bd" points="2008.79 157.35 1783.82 730.06 1449.79 343.54 2008.79 157.35"/><polygon class="k" points="1783.82 730.06 2457.75 500.17 2008.79 157.35 1783.82 730.06"/><polygon class="r" points="1315.35 705.87 1783.82 730.06 1449.79 343.54 1315.35 705.87"/><polygon class="n" points="1315.35 705.87 1421.44 1203.61 1783.82 730.06 1315.35 705.87"/><polygon class="r" points="1032.15 938.35 1421.44 1203.61 1315.35 705.87 1032.15 938.35"/><polygon class="be" points="1032.15 938.35 752.39 1252.34 1421.44 1203.61 1032.15 938.35"/><polygon class="bf" points="1421.44 1203.61 1783.82 730.06 2051.89 1027.86 1421.44 1203.61"/><polygon class="n" points="422.59 948.67 224.5 1320.96 752.39 1252.34 422.59 948.67"/><polygon class="ax" points="295.39 730.06 107.43 954.74 422.59 948.67 295.39 730.06"/><polygon class="ae" points="74.34 640.56 107.43 954.74 295.39 730.06 74.34 640.56"/><polygon class="e" points="224.5 1320.96 107.43 954.74 422.59 948.67 224.5 1320.96"/><polygon class="e" points="107.43 954.74 -239.29 789.46 74.34 640.56 107.43 954.74"/><polygon class="p" points="-38.42 475.22 -239.29 789.46 74.34 640.56 -38.42 475.22"/><polygon class="d" points="51.56 214.3 -120.62 120.46 51.56 63.51 51.56 214.3"/><polygon class="bg" points="-76.5 -79.15 -120.62 120.46 51.56 63.51 -76.5 -79.15"/><polygon class="ac" points="-120.62 120.46 -16.96 304.69 51.56 214.3 -120.62 120.46"/><polygon class="bh" points="-239.29 789.46 -265.4 1158.05 107.43 954.74 -239.29 789.46"/><polygon class="ac" points="224.5 1320.96 -265.4 1158.05 107.43 954.74 224.5 1320.96"/><polygon class="bi" points="2051.89 1027.86 1981.87 1525.15 1421.44 1203.61 2051.89 1027.86"/><polygon class="be" points="2457.75 500.17 2051.89 1027.86 1783.82 730.06 2457.75 500.17"/><polygon class="g" points="334.71 223.53 317.71 79.37 378.11 105.27 334.71 223.53"/></g><polygon class="m" points="163.31 75.98 194.38 -26.94 317.71 79.37 163.31 75.98"/><polygon class="aj" points="150.29 260.41 152.46 338.52 257.69 327.67 150.29 260.41"/><polygon class="bj" points="194.38 -26.94 330.65 2.21 317.71 79.37 194.38 -26.94"/><polygon class="ak" points="150.29 260.41 256.06 280.91 257.69 327.67 150.29 260.41"/><polygon class="bj" points="163.31 75.98 122.08 2.21 194.38 -26.94 163.31 75.98"/><polygon class="ak" points="150.29 260.41 103.64 299.47 152.46 338.52 150.29 260.41"/><g class="c"><polygon class="ak" points="425.85 514.27 373.77 622.76 441.03 622.76 425.85 514.27"/><polygon class="ba" points="627.3 426.42 631.97 609.74 707.91 585.87 627.3 426.42"/><path class="ah" d="M840.27,305.92c0,5.42,84.62,171.47,84.62,171.47l75.94-67.27Z"/><polygon class="q" points="969.17 124.54 1085.45 208.34 1106.54 113.04 969.17 124.54"/><polygon class="z" points="969.17 124.54 999.13 65.13 1106.54 113.04 969.17 124.54"/><polygon class="z" points="1085.45 208.34 1157.05 175.55 1106.54 113.04 1085.45 208.34"/><polygon class="bk" points="373.77 622.76 407.4 673.11 441.03 622.76 373.77 622.76"/><polygon class="ah" points="631.97 609.74 687.3 664.97 707.91 585.87 631.97 609.74"/><polygon class="q" points="924.89 477.39 1020.36 491.49 1000.83 410.12 924.89 477.39"/></g><g class="c"><polygon class="bl" points="789.28 162.77 770.84 157.62 759.23 193.48 789.28 162.77"/><polygon class="ag" points="770.84 99.31 809.28 138.97 789.28 162.77 770.84 157.62 770.84 99.31"/><polygon class="bm" points="770.84 99.31 857.63 81.41 809.28 138.97 770.84 99.31"/><polygon class="m" points="755.65 48.59 907.53 -34.67 857.63 81.41 755.65 48.59"/><polygon class="bm" points="785.22 -54.74 907.53 -34.67 755.65 48.59 785.22 -54.74"/><polygon class="f" points="755.65 48.59 770.84 99.31 857.63 81.41 755.65 48.59"/><polygon class="f" points="785.22 -54.74 664.52 -28.16 710.08 -19.49 755.65 48.59 785.22 -54.74"/><polygon class="m" points="539.76 363.48 452.42 343.54 449.71 402.53 539.76 363.48"/><polygon class="ak" points="525.11 265.84 539.76 363.48 599.42 294.58 525.11 265.84"/><polygon class="bm" points="525.11 265.84 452.42 343.54 539.76 363.48 525.11 265.84"/><polygon class="bm" points="455.06 109.48 447.54 138.91 477.38 214.3 398.72 194.23 455.06 109.48"/><polygon class="ah" points="398.72 194.23 367.8 296.75 477.38 214.3 398.72 194.23"/><polygon class="m" points="340.14 386.26 452.42 343.54 367.8 296.75 340.14 386.26"/><polygon class="ah" points="452.42 343.54 525.11 265.84 367.8 296.75 452.42 343.54"/><polygon class="m" points="477.38 214.3 525.11 265.84 367.8 296.75 477.38 214.3"/><polygon class="bm" points="452.42 343.54 340.14 386.26 449.71 402.53 452.42 343.54"/><polygon class="m" points="449.71 402.53 340.14 386.26 323.87 436.7 449.71 402.53"/><polygon class="ag" points="650.41 290.25 599.42 294.58 539.76 363.48 650.41 290.25"/></g><g class="c"><polygon class="bn" points="710.08 -19.49 664.52 -28.16 607.02 -16.08 664.52 -19.49 710.08 2.21 710.08 -19.49"/><polygon class="m" points="710.08 -19.49 755.65 48.59 710.08 2.21 710.08 -19.49"/><polygon class="bl" points="755.65 48.59 770.84 99.31 752.39 170.37 755.65 100.39 755.65 48.59"/><polygon class="bm" points="755.65 48.59 710.08 2.21 743.17 59.71 755.65 100.39 755.65 48.59"/><polygon class="ak" points="770.84 99.31 770.84 157.62 752.39 170.37 770.84 99.31"/><polygon class="ac" points="770.84 157.62 752.39 170.37 739.64 203.59 715.56 237.27 759.23 193.48 770.84 157.62"/><polygon class="m" points="607.02 -16.08 564.71 -19.49 527.6 23.37 507.21 63.51 552.23 9.8 607.02 -16.08"/><path class="bm" d="M527.6,23.37,507.21,63.51l-52.15,46s31.22-38.4,31-38.14Z"/><polygon class="m" points="507.21 63.51 455.06 109.48 447.54 138.91 477.38 214.3 460.13 138.91 507.21 63.51"/><polygon class="bl" points="486.87 96.09 469.95 181.84 460.13 138.91 486.87 96.09"/><polygon class="ah" points="475.64 152.99 469.95 181.84 477.38 214.3 514.8 234.37 486.87 197.45 475.64 152.99"/><polygon class="ag" points="477.38 214.3 525.11 265.84 568.51 270.18 514.8 234.37 477.38 214.3"/><polygon class="af" points="525.11 265.84 599.42 294.58 650.41 290.25 664.52 280.91 598.88 275.6 568.51 270.18 525.11 265.84"/><polygon class="ag" points="598.88 275.6 664.52 280.91 687.3 265.84 715.56 237.27 667.77 261.5 598.88 275.6"/><polygon class="ag" points="739.64 203.59 667.77 261.5 715.56 237.27 739.64 203.59"/><polygon class="ah" points="652.58 65.13 682.96 103.64 630.34 101.47 652.58 65.13"/><polygon class="ag" points="614.07 132.39 682.96 103.64 684.05 150.29 614.07 132.39"/><polygon class="ak" points="614.07 132.39 684.05 150.29 656.93 182.3 614.07 132.39"/><polygon class="m" points="682.96 103.64 630.34 101.47 614.07 132.39 682.96 103.64"/><polygon class="m" points="610.82 103.64 608.1 60.79 572.3 78.69 610.82 103.64"/><polygon class="m" points="614.07 132.39 610.82 103.64 552.24 120.46 614.07 132.39"/><polygon class="m" points="552.24 120.46 572.3 78.69 610.82 103.64 552.24 120.46"/><polygon class="ag" points="552.24 120.46 563.08 168.19 614.07 132.39 552.24 120.46"/><polygon class="x" points="614.07 132.39 563.08 168.19 607.02 195.86 614.07 132.39"/><polygon class="ag" points="614.07 132.39 607.02 195.86 656.93 182.3 614.07 132.39"/><polygon class="ah" points="614.07 132.39 610.82 103.64 630.34 101.47 614.07 132.39"/><polygon class="bl" points="610.82 103.64 652.58 65.13 630.34 101.47 610.82 103.64"/><polygon class="bm" points="610.82 103.64 608.1 60.79 652.58 65.13 610.82 103.64"/><polygon class="bm" points="608.1 60.79 607.02 -16.08 664.52 -19.49 608.1 60.79"/><polygon class="bm" points="652.58 65.13 710.08 2.21 682.96 103.64 652.58 65.13"/><polygon class="m" points="664.52 -19.49 710.08 2.21 652.58 65.13 664.52 -19.49"/><polygon class="ag" points="743.17 59.71 710.08 2.21 682.96 103.64 743.17 59.71"/><polygon class="m" points="743.17 59.71 755.65 100.39 682.96 103.64 743.17 59.71"/><polygon class="bl" points="682.96 103.64 684.05 150.29 752.39 170.37 682.96 103.64"/><polygon class="x" points="755.65 100.39 682.96 103.64 752.39 170.37 755.65 100.39"/><polygon class="x" points="656.93 182.3 667.77 261.5 739.64 203.59 656.93 182.3"/><polygon class="ag" points="684.05 150.29 739.64 203.59 656.93 182.3 684.05 150.29"/><polygon class="ac" points="752.39 170.37 684.05 150.29 739.64 203.59 752.39 170.37"/><polygon class="m" points="572.3 78.69 552.23 9.8 608.1 60.79 572.3 78.69"/><polygon class="m" points="552.23 9.8 607.02 -16.08 608.1 60.79 552.23 9.8"/><polygon class="ah" points="507.21 63.51 552.24 120.46 486.87 96.09 507.21 63.51"/><polygon class="ah" points="664.52 -19.49 608.1 60.79 652.58 65.13 664.52 -19.49"/><polygon class="bl" points="572.3 78.69 552.23 9.8 507.21 63.51 572.3 78.69"/><polygon class="bm" points="552.24 120.46 572.3 78.69 507.21 63.51 552.24 120.46"/><polygon class="ak" points="552.24 120.46 563.08 168.19 486.87 197.45 552.24 120.46"/><polygon class="m" points="486.87 197.45 475.64 152.99 552.24 120.46 486.87 197.45"/><polygon class="m" points="486.87 96.09 475.64 152.99 552.24 120.46 486.87 96.09"/><polygon class="ag" points="563.08 168.19 514.8 234.37 607.02 195.86 563.08 168.19"/><polygon class="ag" points="486.87 197.45 563.08 168.19 514.8 234.37 486.87 197.45"/><polygon class="x" points="607.02 195.86 598.88 275.6 568.51 270.18 607.02 195.86"/><polygon class="bl" points="514.8 234.37 568.51 270.18 607.02 195.86 514.8 234.37"/><polygon class="bl" points="656.93 182.3 607.02 195.86 667.77 261.5 656.93 182.3"/><polygon class="ak" points="598.88 275.6 667.77 261.5 607.02 195.86 598.88 275.6"/></g><g class="c"><polygon class="bo" points="687.3 265.84 840.27 213.76 789.28 162.77 687.3 265.84"/><polygon class="aj" points="789.28 162.77 840.27 213.76 857.63 81.41 789.28 162.77"/><polygon class="ak" points="857.63 81.41 840.27 213.76 897.77 121.55 857.63 81.41"/><polygon class="bm" points="857.63 81.41 935.74 51.03 897.77 121.55 857.63 81.41"/><polygon class="bp" points="907.53 -34.67 857.63 81.41 935.74 51.03 907.53 -34.67"/><polygon class="aq" points="966.11 -60.71 907.53 -34.67 935.74 51.03 966.11 -60.71"/><polygon class="bl" points="687.3 265.84 840.27 213.76 745.88 304.69 687.3 265.84"/><polygon class="ak" points="687.3 265.84 745.88 304.69 635.23 371.07 687.3 265.84"/><polygon class="bq" points="687.3 265.84 635.23 371.07 539.76 363.48 687.3 265.84"/><polygon class="ar" points="539.76 363.48 635.23 371.07 513.72 436.16 539.76 363.48"/><polygon class="br" points="513.72 436.16 539.76 363.48 449.71 402.53 513.72 436.16"/><polygon class="bs" points="449.71 402.53 513.72 436.16 425.85 467.62 449.71 402.53"/><polygon class="aj" points="449.71 402.53 343.39 462.2 425.85 467.62 449.71 402.53"/><polygon class="bl" points="425.85 467.62 343.39 462.2 300 515.36 425.85 467.62"/><polygon class="bt" points="300 515.36 343.39 462.2 323.87 436.7 300 515.36"/><polygon class="ak" points="323.87 436.7 300 515.36 243.59 500.17 323.87 436.7"/><polygon class="bl" points="323.87 436.7 243.59 500.17 257.69 454.6 323.87 436.7"/><polygon class="aj" points="323.87 436.7 257.69 454.6 283.18 392.77 323.87 436.7"/><polygon class="ak" points="283.18 392.77 323.87 436.7 340.14 386.26 283.18 392.77"/><polygon class="bl" points="283.18 392.77 302.71 330.93 340.14 386.26 283.18 392.77"/><polygon class="ak" points="302.71 330.93 367.8 296.75 340.14 386.26 302.71 330.93"/><polygon class="m" points="334.71 223.53 302.71 330.93 367.8 296.75 334.71 223.53"/><polygon class="x" points="367.8 296.75 334.71 223.53 398.72 194.23 367.8 296.75"/><polygon class="ah" points="334.71 223.53 378.11 105.27 398.72 194.23 334.71 223.53"/><polygon class="x" points="473.58 85.75 398.72 194.23 378.11 105.27 473.58 85.75"/><polygon class="bb" points="378.11 105.27 473.58 85.75 467.07 -27.08 378.11 105.27"/><polygon class="ax" points="564.71 -19.49 467.07 -27.08 473.58 85.75 564.71 -19.49"/><polygon class="bl" points="323.87 436.7 449.71 402.53 343.39 462.2 323.87 436.7"/><polygon class="u" points="283.18 392.77 257.69 327.67 302.71 330.93 283.18 392.77"/></g><polygon class="bj" points="456.22 -79.15 330.65 2.21 467.07 -27.08 456.22 -79.15"/><line class="bj" x1="467.07" y1="-27.08" x2="378.11" y2="105.27"/><polygon class="bj" points="317.71 79.37 378.11 105.27 330.65 2.21 317.71 79.37"/><polygon class="bj" points="334.71 223.53 256.06 280.91 302.71 330.93 334.71 223.53"/><polygon class="bj" points="257.69 327.67 256.06 280.91 302.71 330.93 257.69 327.67"/><polygon class="bj" points="152.46 338.52 283.18 392.77 257.69 327.67 152.46 338.52"/><polygon class="bj" points="150.29 260.41 243.59 182.3 256.06 280.91 150.29 260.41"/><polygon class="bj" points="243.59 182.3 317.71 79.37 334.71 223.53 243.59 182.3"/><polyline class="bj" points="317.71 79.37 163.31 75.98 243.59 182.3"/><polygon class="bj" points="150.29 260.41 51.56 214.3 103.64 299.47 150.29 260.41"/><polyline class="bj" points="150.29 260.41 163.31 75.98 51.56 214.3"/><polygon class="bj" points="122.08 2.21 163.31 75.98 51.56 63.51 122.08 2.21"/><polygon class="bj" points="194.38 -26.94 282.64 -202.83 330.65 2.21 194.38 -26.94"/><polygon class="bj" points="194.38 -26.94 90.62 -105.46 122.08 2.21 194.38 -26.94"/><polygon class="bj" points="90.62 -105.46 51.56 63.51 122.08 2.21 90.62 -105.46"/><polyline class="bj" points="90.62 -105.46 -76.5 -79.15 51.56 63.51"/><polygon class="bj" points="283.18 392.77 217.82 420.43 257.69 454.6 283.18 392.77"/><polygon class="bj" points="152.46 338.52 217.82 420.43 283.18 392.77 152.46 338.52"/><polygon class="bj" points="74.34 356.96 96.04 444.23 152.46 338.52 74.34 356.96"/><polygon class="bj" points="217.82 420.43 152.46 338.52 96.04 444.23 217.82 420.43"/><polygon class="bj" points="257.69 454.6 217.82 420.43 243.59 500.17 257.69 454.6"/><polygon class="bj" points="176.6 495.98 217.82 420.43 243.59 500.17 176.6 495.98"/><polygon class="bj" points="103.64 299.47 74.34 356.96 152.46 338.52 103.64 299.47"/><polyline class="bj" points="51.56 214.3 -16.96 304.69 103.64 299.47"/><polygon class="bj" points="96.04 444.23 217.82 420.43 176.6 495.98 96.04 444.23"/><line class="bj" x1="935.74" y1="51.03" x2="966.11" y2="-60.71"/><polygon class="bj" points="897.77 121.55 935.74 51.03 969.17 124.54 897.77 121.55"/><line class="bj" x1="999.13" y1="65.13" x2="969.18" y2="124.54"/><polygon class="bj" points="1032.15 -11.21 999.13 65.13 935.74 51.03 1032.15 -11.21"/><polygon class="bj" points="1032.15 -11.21 1106.54 113.04 999.13 65.13 1032.15 -11.21"/><polygon class="bj" points="1109.32 -62.88 1198.82 -26.94 1106.54 113.04 1109.32 -62.88"/><polygon class="bj" points="1106.54 113.04 1198.82 -26.94 1157.05 175.55 1106.54 113.04"/><polyline class="bj" points="1157.05 175.55 1340.76 94.83 1198.82 -26.94"/><polygon class="bj" points="840.27 213.76 935.74 203.59 897.77 121.55 840.27 213.76"/><polygon class="bj" points="1085.45 208.34 969.17 124.54 935.74 203.59 1085.45 208.34"/><polygon class="bj" points="935.74 203.59 1000.83 410.12 840.27 305.92 935.74 203.59"/><polyline class="bj" points="1180.92 367.19 1157.05 175.55 1085.45 208.34"/><polygon class="bj" points="1085.45 208.34 1000.83 410.12 1180.92 367.19 1085.45 208.34"/><polygon class="bj" points="745.88 304.69 840.27 305.92 840.27 213.76 745.88 304.69"/><polyline class="bj" points="745.88 304.69 763.78 432.36 840.27 305.92"/><polygon class="bj" points="635.23 371.07 627.3 426.42 763.78 432.36 635.23 371.07"/><polyline class="bj" points="763.78 432.36 745.88 304.69 635.23 371.07"/><polyline class="bj" points="763.78 432.36 924.89 477.39 840.27 305.92"/><polyline class="bj" points="763.78 432.36 707.91 585.87 627.3 426.42"/><polyline class="bj" points="763.78 432.36 707.91 585.87 924.89 477.39"/><polygon class="bj" points="513.72 436.16 627.3 426.42 635.23 371.07 513.72 436.16"/><polygon class="bj" points="631.97 609.74 539.62 525.02 627.3 426.42 631.97 609.74"/><line class="bj" x1="513.72" y1="436.16" x2="539.62" y2="525.02"/><polygon class="bj" points="425.85 467.62 425.85 514.27 513.72 436.16 425.85 467.62"/><polygon class="bj" points="539.62 525.02 513.72 436.16 425.85 514.27 539.62 525.02"/><polygon class="bj" points="441.03 622.76 539.62 525.02 425.85 514.27 441.03 622.76"/><polygon class="bj" points="631.97 609.74 539.62 525.02 441.03 622.76 631.97 609.74"/><polygon class="bj" points="425.85 467.62 300 515.36 425.85 514.27 425.85 467.62"/><polygon class="bj" points="373.77 622.76 300 515.36 425.85 514.27 373.77 622.76"/><polygon class="bj" points="243.59 500.17 243.59 585.87 300 515.36 243.59 500.17"/><polygon class="bj" points="373.77 622.76 243.59 585.87 300 515.36 373.77 622.76"/><polygon class="bj" points="243.59 500.17 176.6 495.98 243.59 585.87 243.59 500.17"/><polygon class="bj" points="96.04 444.23 74.34 640.56 176.6 495.98 96.04 444.23"/><polygon class="bj" points="243.59 585.87 176.6 495.98 74.34 640.56 243.59 585.87"/><polygon class="bj" points="373.77 622.76 295.39 730.06 243.59 585.87 373.77 622.76"/><polygon class="bj" points="707.91 585.87 806.64 640.56 687.3 664.97 707.91 585.87"/><line class="bj" x1="924.89" y1="477.39" x2="806.64" y2="640.56"/><polygon class="bj" points="1020.36 491.49 924.89 477.39 969.17 609.74 1020.36 491.49"/><polyline class="bj" points="924.89 477.39 806.64 640.56 969.17 609.74"/><polygon class="bj" points="1020.36 491.49 1000.83 410.12 1180.92 367.19 1020.36 491.49"/><polygon class="bj" points="441.03 622.76 492.43 730.06 407.4 673.11 441.03 622.76"/><polygon class="bj" points="631.97 609.74 492.43 730.06 687.3 664.97 631.97 609.74"/><polygon class="bj" points="441.03 622.76 492.32 730.06 631.7 609.74 441.03 622.76"/><polygon class="bj" points="295.39 730.06 373.77 622.76 407.4 673.11 295.39 730.06"/><polygon class="bj" points="492.32 730.06 407.4 673.11 295.39 730.06 492.32 730.06"/><polygon class="bj" points="74.34 640.56 243.59 585.87 295.39 730.06 74.34 640.56"/><polygon class="bj" points="96.04 444.23 -38.42 475.22 74.34 356.96 96.04 444.23"/><polygon class="bj" points="-16.96 304.69 -38.42 475.22 74.34 356.96 -16.96 304.69"/><polygon class="bj" points="74.34 640.56 -38.42 475.22 96.04 444.23 74.34 640.56"/><polygon class="bj" points="295.39 730.06 422.59 948.67 492.32 730.06 295.39 730.06"/><polygon class="bj" points="687.3 664.97 492.32 730.06 707.91 895.48 687.3 664.97"/><polyline class="bj" points="492.32 730.06 422.59 948.67 707.91 895.48"/><line class="bj" x1="806.64" y1="640.56" x2="707.91" y2="895.48"/><polyline class="bj" points="969.17 609.74 1032.15 938.35 806.64 640.56"/><line class="bj" x1="707.91" y1="895.48" x2="1032.15" y2="938.35"/><polyline class="bj" points="969.17 609.74 1315.35 705.87 1020.36 491.49"/><polygon class="bj" points="1180.92 367.19 1315.35 705.87 1020.36 491.49 1180.92 367.19"/><line class="bj" x1="1340.76" y1="94.83" x2="1180.92" y2="367.19"/><polyline class="bj" points="1315.35 705.87 1449.79 343.54 1180.92 367.19"/><polyline class="bj" points="969.17 609.74 1315.35 705.87 1032.15 938.35"/><polyline class="bj" points="707.91 895.48 752.39 1252.34 1032.15 938.35"/><polyline class="bj" points="707.91 895.48 422.59 948.67 752.39 1252.34"/><polygon class="bj" points="1340.76 94.83 1542.76 30.34 1419.05 -112.79 1340.76 94.83"/><polyline class="bj" points="1542.76 30.34 1853.57 -177.88 1419.05 -112.79"/><polyline class="bj" points="1542.76 30.34 1449.79 343.54 1340.76 94.83"/><line class="bj" x1="2008.79" y1="157.35" x2="1853.57" y2="-177.88"/><polygon class="bj" points="1542.76 30.34 1449.79 343.54 2008.79 157.35 1542.76 30.34"/><line class="bj" x1="2008.79" y1="157.35" x2="1783.82" y2="730.06"/><polyline class="bj" points="1315.35 705.87 1783.82 730.06 1449.79 343.54"/><polyline class="bj" points="1315.35 705.87 1421.44 1203.61 1783.82 730.06"/><polyline class="bj" points="1032.15 938.35 1421.44 1203.61 1315.35 705.87"/><polyline class="bj" points="1783.82 730.06 2051.89 1027.86 1421.44 1203.61"/><polygon class="bj" points="422.59 948.67 224.5 1320.96 752.39 1252.34 422.59 948.67"/><polygon class="bj" points="295.39 730.06 107.43 954.74 422.59 948.67 295.39 730.06"/><polygon class="bj" points="74.34 640.56 107.43 954.74 295.39 730.06 74.34 640.56"/><polygon class="bj" points="224.5 1320.96 107.43 954.74 422.59 948.67 224.5 1320.96"/><polygon class="bj" points="107.43 954.74 -239.29 789.46 74.34 640.56 107.43 954.74"/><polygon class="bj" points="-38.42 475.22 -239.29 789.46 74.34 640.56 -38.42 475.22"/><polygon class="bj" points="51.56 214.3 -120.62 120.46 51.56 63.51 51.56 214.3"/><polygon class="bj" points="-239.29 789.46 -265.4 1158.05 107.43 954.74 -239.29 789.46"/><polygon class="bj" points="224.5 1320.96 -265.4 1158.05 107.43 954.74 224.5 1320.96"/><polygon class="bj" points="2457.75 500.17 2051.89 1027.86 1783.82 730.06 2457.75 500.17"/><line class="bj" x1="378.11" y1="105.27" x2="334.72" y2="223.53"/><polygon class="bj" points="789.28 162.77 770.84 157.62 759.23 193.48 789.28 162.77"/><polygon class="bj" points="770.84 99.31 809.28 138.97 789.28 162.77 770.84 157.62 770.84 99.31"/><polygon class="bu" points="755.65 48.59 907.53 -34.67 857.63 81.41 755.65 48.59"/><polygon class="bj" points="785.22 -54.74 907.53 -34.67 755.65 48.59 785.22 -54.74"/><line class="bu" x1="755.65" y1="48.59" x2="770.84" y2="99.31"/><polygon class="bu" points="785.22 -54.74 664.52 -28.16 710.08 -19.49 755.65 48.59 785.22 -54.74"/><polygon class="bu" points="539.76 363.48 452.42 343.54 449.71 402.53 539.76 363.48"/><polygon class="bj" points="525.11 265.84 539.76 363.48 599.42 294.58 525.11 265.84"/><polygon class="bj" points="455.06 109.48 447.54 138.91 477.38 214.3 398.72 194.23 455.06 109.48"/><polyline class="bj" points="398.72 194.23 367.8 296.75 477.38 214.3"/><polygon class="bu" points="340.14 386.26 452.42 343.54 367.8 296.75 340.14 386.26"/><polygon class="bj" points="452.42 343.54 525.11 265.84 367.8 296.75 452.42 343.54"/><polyline class="bu" points="477.38 214.3 525.11 265.84 367.8 296.75"/><polygon class="bj" points="452.42 343.54 340.14 386.26 449.71 402.53 452.42 343.54"/><polygon class="bu" points="449.71 402.53 340.14 386.26 323.87 436.7 449.71 402.53"/><polyline class="bj" points="539.76 363.48 650.41 290.25 599.42 294.58"/><polygon class="bj" points="710.08 -19.49 664.52 -28.16 607.02 -16.08 664.52 -19.49 710.08 2.21 710.08 -19.49"/><polygon class="bu" points="710.08 -19.49 755.65 48.59 710.08 2.21 710.08 -19.49"/><polyline class="bj" points="770.84 99.31 752.39 170.37 755.65 100.39 755.65 48.59"/><polygon class="bj" points="755.65 48.59 710.08 2.21 743.17 59.71 755.65 100.39 755.65 48.59"/><polygon class="bj" points="770.84 99.31 770.84 157.62 752.39 170.37 770.84 99.31"/><polygon class="bu" points="770.84 157.62 752.39 170.37 739.64 203.59 715.56 237.27 759.23 193.48 770.84 157.62"/><polygon class="bu" points="607.02 -16.08 564.71 -19.49 527.6 23.37 507.21 63.51 552.23 9.8 607.02 -16.08"/><path class="bj" d="M527.6,23.37,507.21,63.51l-52.15,46s31.22-38.4,31-38.14Z"/><polyline class="bu" points="477.38 214.3 460.13 138.91 507.21 63.51 455.06 109.48 447.54 138.91"/><polygon class="bj" points="486.87 96.09 469.95 181.84 460.13 138.91 486.87 96.09"/><polygon class="bj" points="475.64 152.99 469.95 181.84 477.38 214.3 514.8 234.37 486.87 197.45 475.64 152.99"/><polygon class="bj" points="477.38 214.3 525.11 265.84 568.51 270.18 514.8 234.37 477.38 214.3"/><polygon class="bj" points="598.88 275.6 664.52 280.91 687.3 265.84 715.56 237.27 667.77 261.5 598.88 275.6"/><polygon class="bj" points="739.64 203.59 667.77 261.5 715.56 237.27 739.64 203.59"/><polyline class="bj" points="682.96 103.64 630.34 101.47 652.58 65.13"/><polyline class="bj" points="684.05 150.29 614.07 132.39 682.96 103.64"/><polyline class="bj" points="684.05 150.29 656.93 182.3 614.07 132.39"/><polyline class="bu" points="682.96 103.64 630.34 101.47 614.07 132.39"/><polygon class="bu" points="610.82 103.64 608.1 60.79 572.3 78.69 610.82 103.64"/><polygon class="bu" points="614.07 132.39 610.82 103.64 552.24 120.46 614.07 132.39"/><polyline class="bu" points="610.82 103.64 552.24 120.46 572.3 78.69"/><polygon class="bj" points="552.24 120.46 563.08 168.19 614.07 132.39 552.24 120.46"/><polygon class="bu" points="614.07 132.39 563.08 168.19 607.02 195.86 614.07 132.39"/><polyline class="bj" points="614.07 132.39 607.02 195.86 656.93 182.3"/><polygon class="bj" points="614.07 132.39 610.82 103.64 630.34 101.47 614.07 132.39"/><polygon class="bj" points="610.82 103.64 652.58 65.13 630.34 101.47 610.82 103.64"/><polygon class="bj" points="610.82 103.64 608.1 60.79 652.58 65.13 610.82 103.64"/><polygon class="bj" points="608.1 60.79 607.02 -16.08 664.52 -19.49 608.1 60.79"/><polyline class="bj" points="652.58 65.13 710.08 2.21 682.96 103.64"/><polyline class="bu" points="652.58 65.13 664.52 -19.49 710.08 2.21"/><polyline class="bj" points="682.96 103.64 743.17 59.71 710.08 2.21"/><polyline class="bu" points="743.17 59.71 755.65 100.39 682.96 103.64"/><polyline class="bj" points="684.05 150.29 752.39 170.37 682.96 103.64"/><polyline class="bu" points="752.39 170.37 755.65 100.39 682.96 103.64"/><polygon class="bu" points="656.93 182.3 667.77 261.5 739.64 203.59 656.93 182.3"/><polyline class="bj" points="684.05 150.29 739.64 203.59 656.93 182.3"/><polyline class="bu" points="608.1 60.79 552.23 9.8 607.02 -16.08"/><polygon class="bj" points="507.21 63.51 552.24 120.46 486.87 96.09 507.21 63.51"/><polyline class="bj" points="608.1 60.79 652.58 65.13 664.52 -19.49"/><polygon class="bj" points="572.3 78.69 552.23 9.8 507.21 63.51 572.3 78.69"/><polyline class="bj" points="572.3 78.69 507.21 63.51 552.24 120.46"/><polygon class="bj" points="552.24 120.46 563.08 168.19 486.87 197.45 552.24 120.46"/><polygon class="bu" points="486.87 197.45 475.64 152.99 552.24 120.46 486.87 197.45"/><polygon class="bu" points="486.87 96.09 475.64 152.99 552.24 120.46 486.87 96.09"/><polygon class="bj" points="563.08 168.19 514.8 234.37 607.02 195.86 563.08 168.19"/><polyline class="bj" points="563.08 168.19 514.8 234.37 486.87 197.45"/><polygon class="bu" points="607.02 195.86 598.88 275.6 568.51 270.18 607.02 195.86"/><polygon class="bj" points="656.93 182.3 607.02 195.86 667.77 261.5 656.93 182.3"/><polygon class="bj" points="598.88 275.6 667.77 261.5 607.02 195.86 598.88 275.6"/><polygon class="bj" points="687.3 265.84 840.27 213.76 789.28 162.77 687.3 265.84"/><line class="bj" x1="840.27" y1="213.76" x2="857.63" y2="81.41"/><polygon class="bj" points="857.63 81.41 935.74 51.03 897.77 121.55 857.63 81.41"/><polygon class="bj" points="966.11 -60.71 907.53 -34.67 935.74 51.03 966.11 -60.71"/><polygon class="bj" points="687.3 265.84 840.27 213.76 745.88 304.69 687.3 265.84"/><polyline class="bj" points="745.88 304.69 635.23 371.07 687.3 265.84"/><polyline class="bj" points="687.3 265.84 635.23 371.07 539.76 363.48"/><polyline class="bj" points="513.72 436.16 539.76 363.48 635.23 371.07"/><polyline class="bj" points="449.71 402.53 513.72 436.16 539.76 363.48"/><polygon class="bj" points="449.71 402.53 513.72 436.16 425.85 467.62 449.71 402.53"/><polygon class="bj" points="449.71 402.53 343.39 462.2 425.85 467.62 449.71 402.53"/><polygon class="bj" points="425.85 467.62 343.39 462.2 300 515.36 425.85 467.62"/><polygon class="bj" points="300 515.36 343.39 462.2 323.87 436.7 300 515.36"/><polygon class="bj" points="323.87 436.7 300 515.36 243.59 500.17 323.87 436.7"/><polygon class="bj" points="323.87 436.7 243.59 500.17 257.69 454.6 323.87 436.7"/><polygon class="bj" points="323.87 436.7 257.69 454.6 283.18 392.77 323.87 436.7"/><polygon class="bj" points="283.18 392.77 323.87 436.7 340.14 386.26 283.18 392.77"/><polygon class="bj" points="283.18 392.77 302.71 330.93 340.14 386.26 283.18 392.77"/><polygon class="bj" points="302.71 330.93 367.8 296.75 340.14 386.26 302.71 330.93"/><polyline class="bu" points="302.71 330.93 367.8 296.75 334.71 223.53"/><polygon class="bj" points="334.71 223.53 378.11 105.27 398.72 194.23 334.71 223.53"/><polygon class="bu" points="473.58 85.75 398.72 194.23 378.11 105.27 473.58 85.75"/><polyline class="bj" points="378.11 105.27 473.58 85.75 467.07 -27.08"/><polygon class="bj" points="564.71 -19.49 467.07 -27.08 473.58 85.75 564.71 -19.49"/><polygon class="bj" points="323.87 436.7 449.71 402.53 343.39 462.2 323.87 436.7"/><polygon class="bj" points="283.18 392.77 257.69 327.67 302.71 330.93 283.18 392.77"/></g></svg>