<svg xmlns="http://www.w3.org/2000/svg" xmlns:xlink="http://www.w3.org/1999/xlink" viewBox="0 0 1920 1080"><defs><style>.a,.ew{fill:none;}.b{clip-path:url(#a);}.aa,.ab,.ah,.ai,.aj,.ak,.al,.am,.an,.ao,.ap,.aq,.ar,.as,.at,.ax,.br,.bs,.bt,.bu,.bw,.bx,.by,.c,.d,.e,.f,.g,.h,.i,.j,.k,.l,.m,.n,.o,.p,.q,.r,.s,.v,.w,.x,.y,.z{opacity:0.7;}.ae,.d{fill:#f9ecd7;}.ac,.e{fill:#f7e3c4;}.f{fill:#fbf2e4;}.au,.g{fill:#f7e6ca;}.h{fill:#f9eedc;}.bh,.i{fill:#f8e9d0;}.j{fill:#faefdf;}.k{fill:#fcf5ea;}.l,.u{fill:#f8ead2;}.bm,.m{fill:#f7e2c2;}.ay,.n{fill:#f4ddb6;}.o{fill:#faf0e1;}.p{fill:#f8e7cc;}.bf,.q{fill:#f5e0bd;}.ej,.r{fill:#f3d9ad;}.s{fill:#fbf2e5;}.t,.z{fill:#f7e5c7;}.v{fill:#f8e8ce;}.bg,.w{fill:#f3dab0;}.x{fill:#fcf7ef;}.y{fill:#f7e4c5;}.aa,.bo{fill:#f9edd8;}.ab{fill:#f3d9ac;}.ad{fill:#f4dcb5;}.af{fill:#f2d5a3;}.ag,.ah{fill:#f9ebd5;}.ai{fill:#f5deb9;}.aj,.av{fill:#f4dcb4;}.ak,.bq{fill:#f2d7a8;}.al{fill:#f8e9d1;}.am{fill:#f5e0be;}.an,.bn{fill:#f3d9ab;}.ao,.bp{fill:#f5e1bf;}.ap{fill:#fbf4e9;}.aq,.az{fill:#f1d19a;}.ar,.en{fill:#efcb8b;}.as,.aw{fill:#f2d6a7;}.at,.bb{fill:#f0cd8f;}.ax,.eh{fill:#f0cf94;}.ba{fill:#f1d29d;}.bc{fill:#edc580;}.bd{fill:#f1d098;}.be{fill:#f2d4a0;}.bi{fill:#f5dfbc;}.bj{fill:#f3d9ae;}.bk{fill:#f8ebd5;}.bl{fill:#f2d6a5;}.br{fill:#fcf6ee;}.bs{fill:#fcfaf4;}.bt,.bv{fill:#f49e00;}.bu,.ca{fill:#ee8200;}.bw,.cb{fill:#f7b13e;}.bx,.bz{fill:#fbcc86;}.by{fill:#fcd77c;}.cc{fill:#bcbcbc;}.cd{fill:#d7d7d6;}.ce{fill:#e4e4e4;}.cf{fill:#f6f6f6;}.cg{fill:#e9e9e9;}.ch{fill:#dadada;}.ci{fill:#ccc;}.cj{fill:#c6c6c6;}.ck{fill:#bbbbba;}.cl{fill:#f2f2f2;}.cm{fill:#ececec;}.cn{fill:#e2e2e1;}.co{fill:#efefef;}.cp{fill:#ebebeb;}.cq{fill:#d8d8d8;}.cr{fill:#d0d0d0;}.cs{fill:#dedede;}.ct{fill:#e7e7e7;}.cu{fill:#e5e5e5;}.cv{fill:#b8b8b8;}.cw{fill:#444932;}.cx{fill:#787865;}.cy{fill:#89897a;}.cz{fill:#70715d;}.da{fill:#5b5d48;}.db{fill:#747561;}.dc{fill:#545741;}.dd{fill:#40462f;}.de{fill:#4e523b;}.df{fill:#5f614b;}.dg{fill:#767764;}.dh{fill:#63644f;}.di{fill:#52553f;}.dj{fill:#6a6b57;}.dk{fill:#353d25;}.dl{fill:#31331d;}.dm{fill:#2b341c;}.dn{fill:#2b2e18;}.do{fill:#313921;}.dp{fill:#30321c;}.dq{fill:#3f452d;}.dr{fill:#555842;}.ds{fill:#595c46;}.dt{fill:#9d9c8e;}.du{fill:#686a55;}.dv{fill:#8b8a7c;}.dw{fill:#858475;}.dx{fill:#80806e;}.dy{fill:#9b9a8b;}.dz{fill:#808070;}.ea{fill:#aaa89b;}.eb{fill:#a09f91;}.ec{fill:#bcbbb2;}.ed{fill:#949384;}.ee{fill:#7a7b68;}.ef{fill:#acaa9e;}.eg{fill:#bebdb4;}.ei{fill:#f0cd91;}.ek{fill:#ecc37b;}.el{fill:#e9ba67;}.em{fill:#eec783;}.eo{fill:#f2d4a1;}.ep{fill:#e9b961;}.eq{fill:#eabd6e;}.er{fill:#e7b14f;}.es{fill:#e18006;}.et{fill:#e8b75d;}.eu{fill:#efc988;}.ev{fill:#ecc47d;}.ew{stroke:#ffb501;stroke-linecap:round;stroke-linejoin:round;stroke-width:0.74px;stroke-dasharray:24.77 12.38;}</style><clipPath id="a"><rect class="a" width="1920" height="1080"/></clipPath></defs><title>Artboard 1</title><g class="b"><g class="c"><polygon class="d" points="514.09 279.88 462.4 226.57 615.2 244.98 514.09 279.88"/><polygon class="e" points="488.49 103.65 557.42 179.69 462.4 226.57 488.49 103.65"/><polygon class="f" points="557.42 179.69 615.2 244.98 462.4 226.57 557.42 179.69"/><polygon class="d" points="557.42 179.69 629.76 205.87 615.2 244.98 557.42 179.69"/><polygon class="g" points="557.42 179.69 616.99 101.81 629.76 205.87 557.42 179.69"/><polygon class="d" points="488.49 103.65 616.99 101.81 557.42 179.69 488.49 103.65"/><polygon class="e" points="615.2 244.98 684.55 226.19 629.76 205.87 615.2 244.98"/><polygon class="g" points="629.76 205.87 675.15 179.69 684.55 226.19 629.76 205.87"/><polygon class="f" points="675.15 179.69 736.23 206.73 684.55 226.19 675.15 179.69"/><polygon class="d" points="736.23 206.73 729.74 147 675.15 179.69 736.23 206.73"/><polygon class="h" points="682.81 115.61 675.15 179.69 729.74 147 682.81 115.61"/><polygon class="h" points="736.23 206.73 778.51 173.17 759.72 212.77 736.23 206.73"/><polygon class="e" points="729.74 147 778.51 173.17 736.23 206.73 729.74 147"/><polygon class="i" points="273.37 153.71 358.16 266.7 418.34 114.33 273.37 153.71"/><polygon class="j" points="419.23 320.15 462.4 226.57 514.09 279.88 419.23 320.15"/><polygon class="k" points="429.97 226.19 419.23 320.15 462.4 226.57 429.97 226.19"/><polygon class="k" points="429.97 226.19 358.16 266.7 418.34 114.33 429.97 226.19"/><polygon class="i" points="358.16 266.7 419.23 320.15 429.97 226.19 358.16 266.7"/><polygon class="f" points="358.16 266.7 325.27 333.57 419.23 320.15 358.16 266.7"/><polygon class="l" points="273.37 153.71 252.34 62.43 188.81 140.75 273.37 153.71"/><polygon class="d" points="418.34 114.33 367.33 54.38 452.79 63.78 418.34 114.33"/><polygon class="m" points="367.33 54.38 273.37 153.71 418.34 114.33 367.33 54.38"/><polygon class="f" points="252.34 62.43 367.33 54.38 273.37 153.71 252.34 62.43"/><polygon class="n" points="367.33 54.38 398.65 -16.76 452.79 63.78 367.33 54.38"/><polygon class="o" points="452.79 63.78 542.27 7.4 488.49 103.65 452.79 63.78"/><polygon class="i" points="488.49 103.65 616.99 101.81 542.27 7.4 488.49 103.65"/><polygon class="f" points="616.99 101.81 665.76 63.78 542.27 7.4 616.99 101.81"/><polygon class="d" points="542.27 7.4 398.65 -16.76 452.79 63.78 542.27 7.4"/><polygon class="p" points="367.33 54.38 398.65 -16.76 300.22 -16.76 367.33 54.38"/><polygon class="q" points="252.34 62.43 300.22 -16.76 367.33 54.38 252.34 62.43"/><polygon class="q" points="188.81 140.75 151.68 37.38 252.34 62.43 188.81 140.75"/><polygon class="r" points="300.22 -16.76 151.68 37.38 252.34 62.43 300.22 -16.76"/><polygon class="l" points="325.27 333.57 221.7 400.68 334.22 376.52 325.27 333.57"/><polygon class="j" points="260.85 485.69 221.7 400.68 334.22 376.52 260.85 485.69"/><polygon class="m" points="211.03 464.32 260.85 485.69 221.7 400.68 211.03 464.32"/><polygon class="s" points="225.05 583.23 160.18 630.56 198.66 671.82 225.05 583.23"/><polygon class="t" points="161.52 669.13 160.18 630.56 198.66 671.82 161.52 669.13"/><polygon class="u" points="74.72 678.08 182.55 722.82 161.52 669.13 74.72 678.08"/><polygon class="v" points="72.93 613.65 149.89 549.22 160.18 630.56 72.93 613.65"/><polygon class="h" points="225.05 583.23 149.89 549.22 160.18 630.56 225.05 583.23"/><polygon class="p" points="149.89 549.22 211.03 464.32 225.05 583.23 149.89 549.22"/><polygon class="p" points="83.67 461.53 149.89 549.22 211.03 464.32 83.67 461.53"/><polygon class="w" points="83.67 461.53 72.93 613.65 149.89 549.22 83.67 461.53"/><polygon class="x" points="72.93 613.65 -8.5 575.62 34.45 645.87 72.93 613.65"/><polygon class="y" points="83.67 461.53 -8.5 575.62 72.93 613.65 83.67 461.53"/><polygon class="j" points="49.66 400.68 83.67 461.53 -8.5 451.24 49.66 400.68"/><polygon class="z" points="-8.5 451.24 -8.5 575.62 83.67 461.53 -8.5 451.24"/><polygon class="z" points="182.1 231.56 221.7 400.68 325.27 333.57 182.1 231.56"/><polygon class="aa" points="109.3 376.64 182.1 231.56 221.7 400.68 109.3 376.64"/><polygon class="aa" points="109.3 376.64 23.71 311.87 49.66 400.68 109.3 376.64"/><polygon class="aa" points="182.1 231.56 79.48 154.83 188.81 140.75 182.1 231.56"/><polygon class="p" points="151.68 37.38 188.81 140.75 79.48 154.83 151.68 37.38"/><polygon class="ab" points="109.3 376.64 182.1 231.56 23.71 311.87 109.3 376.64"/><polygon class="o" points="79.48 154.83 23.71 311.87 182.1 231.56 79.48 154.83"/><polygon class="z" points="23.71 311.87 -8.5 451.24 49.66 400.68 23.71 311.87"/><polygon class="i" points="79.48 154.83 -26.84 179.69 23.71 311.87 79.48 154.83"/><polygon class="aa" points="151.68 37.38 10.74 -16.76 79.48 154.83 151.68 37.38"/><polygon class="f" points="23.71 311.87 -114.12 333.57 -8.5 451.24 23.71 311.87"/><polygon class="e" points="-26.84 179.69 -114.12 333.57 23.71 311.87 -26.84 179.69"/><polygon class="ac" points="182.55 722.82 128.63 745.64 161.52 773.83 182.55 722.82"/><polygon class="ad" points="74.72 678.08 128.63 745.64 182.55 722.82 74.72 678.08"/><polygon class="s" points="10.29 693.29 28.19 765.27 74.72 678.08 10.29 693.29"/><polygon class="ac" points="128.63 745.64 74.72 678.08 28.19 765.27 128.63 745.64"/><polygon class="ae" points="161.52 773.83 128.63 745.64 149.89 811.41 161.52 773.83"/><polygon class="af" points="94.64 807.96 128.63 745.64 149.89 811.41 94.64 807.96"/><polygon class="l" points="34.45 645.87 10.29 693.29 74.72 678.08 34.45 645.87"/><polygon class="l" points="34.45 645.87 -8.5 575.62 -65.02 650.17 34.45 645.87"/><polygon class="s" points="34.45 645.87 -65.02 650.17 10.29 693.29 34.45 645.87"/><polygon class="ag" points="28.19 765.27 128.63 745.64 94.64 807.96 28.19 765.27"/><polygon class="k" points="665.76 63.78 757.7 84.36 682.81 115.61 665.76 63.78"/><polygon class="d" points="729.74 147 757.7 84.36 682.81 115.61 729.74 147"/><polygon class="z" points="778.51 173.17 729.74 147 757.7 84.36 778.51 173.17"/><polygon class="ah" points="665.76 63.78 762.4 -24.15 757.7 84.36 665.76 63.78"/><polygon class="ai" points="542.27 7.4 634.89 -84.32 665.76 63.78 542.27 7.4"/><polygon class="h" points="762.4 -24.15 634.89 -84.32 665.76 63.78 762.4 -24.15"/><polygon class="g" points="398.65 -16.76 473.82 -88.58 542.27 7.4 398.65 -16.76"/><polygon class="w" points="634.89 -84.32 473.82 -88.58 542.27 7.4 634.89 -84.32"/><polygon class="m" points="757.7 84.36 832.87 89.06 778.51 173.17 757.7 84.36"/><polygon class="l" points="762.4 -24.15 832.87 89.06 757.7 84.36 762.4 -24.15"/><polygon class="aj" points="759.72 212.77 790.59 222.3 762.4 242.3 759.72 212.77"/><polygon class="ak" points="762.4 242.3 757.37 277.67 817.38 266.7 762.4 242.3"/><polygon class="q" points="790.59 222.3 817.38 266.7 762.4 242.3 790.59 222.3"/><polygon class="l" points="778.51 173.17 790.59 222.3 759.72 212.77 778.51 173.17"/><polygon class="q" points="778.51 173.17 837.23 181.9 790.59 222.3 778.51 173.17"/><polygon class="e" points="817.38 266.7 790.59 222.3 883.65 227.53 817.38 266.7"/><polygon class="d" points="837.23 181.9 883.65 227.53 790.59 222.3 837.23 181.9"/><polygon class="g" points="757.37 277.67 790.59 309.37 745.85 348.78 757.37 277.67"/><polygon class="o" points="790.59 309.37 786.56 336.73 745.85 348.78 790.59 309.37"/><polygon class="d" points="786.56 336.73 800.32 389.61 745.85 348.78 786.56 336.73"/><polygon class="g" points="863.97 346.99 786.56 336.73 800.32 389.61 863.97 346.99"/><polygon class="g" points="800.32 389.61 720.79 440.95 745.85 348.78 800.32 389.61"/><polygon class="w" points="689.47 499.11 720.79 440.95 748.37 501.58 689.47 499.11"/><polygon class="m" points="773.08 452.58 748.37 501.58 720.79 440.95 773.08 452.58"/><polygon class="aa" points="800.32 389.61 773.08 452.58 720.79 440.95 800.32 389.61"/><polygon class="al" points="800.32 389.61 861.67 492.1 773.08 452.58 800.32 389.61"/><polygon class="ai" points="800.32 389.61 863.97 346.99 861.67 492.1 800.32 389.61"/><polygon class="d" points="863.97 346.99 937.79 376.64 861.67 492.1 863.97 346.99"/><polygon class="s" points="894.39 321.04 863.97 346.99 937.79 376.64 894.39 321.04"/><polygon class="p" points="861.67 492.1 937.79 376.64 903.34 543.65 861.67 492.1"/><polygon class="aa" points="790.59 309.37 817.38 266.7 757.37 277.67 790.59 309.37"/><polygon class="am" points="817.38 266.7 865.75 295.09 790.59 309.37 817.38 266.7"/><polygon class="l" points="883.65 227.53 865.75 295.09 817.38 266.7 883.65 227.53"/><polygon class="an" points="778.51 173.17 832.87 89.06 837.23 181.9 778.51 173.17"/><polygon class="aj" points="837.23 181.9 921.23 115.68 832.87 89.06 837.23 181.9"/><polygon class="i" points="762.4 -24.15 898.86 -24.15 832.87 89.06 762.4 -24.15"/><polygon class="m" points="921.23 115.68 898.86 -24.15 832.87 89.06 921.23 115.68"/><polygon class="z" points="837.23 181.9 921.23 115.68 883.65 227.53 837.23 181.9"/><polygon class="ai" points="865.75 295.09 883.65 227.53 894.39 321.04 865.75 295.09"/><polygon class="ai" points="883.65 227.53 991.93 197.74 921.23 115.68 883.65 227.53"/><polygon class="ak" points="894.39 321.04 883.65 227.53 991.93 197.74 894.39 321.04"/><polygon class="ao" points="937.79 376.64 991.93 197.74 894.39 321.04 937.79 376.64"/><polygon class="w" points="921.23 115.68 1085.88 18.81 898.86 -24.15 921.23 115.68"/><polygon class="m" points="991.93 197.74 921.23 115.68 1085.88 18.81 991.93 197.74"/><polygon class="m" points="903.34 543.65 1054.87 477.08 937.79 376.64 903.34 543.65"/><polygon class="d" points="991.93 197.74 1119.44 305.83 937.79 376.64 991.93 197.74"/><polygon class="h" points="151.68 37.38 116.55 -184.43 300.22 -16.76 151.68 37.38"/><polygon class="i" points="10.74 -16.76 151.68 37.38 116.55 -184.43 10.74 -16.76"/><polygon class="i" points="10.74 -16.76 -26.84 179.69 79.48 154.83 10.74 -16.76"/><polygon class="g" points="850.51 -285.55 1085.88 18.81 898.86 -24.15 850.51 -285.55"/><polygon class="ao" points="850.51 -285.55 1125.01 -285.86 1085.88 18.81 850.51 -285.55"/><polygon class="ap" points="10.74 -16.76 -259.57 7.4 -26.84 179.69 10.74 -16.76"/><polygon class="g" points="10.74 -16.76 -49.66 -406.22 -259.57 7.4 10.74 -16.76"/><polygon class="aq" points="1472.58 -212.23 1539.69 32.16 1357.07 -66.73 1472.58 -212.23"/><polygon class="ar" points="1539.69 32.16 1634.94 -183.59 1472.58 -212.23 1539.69 32.16"/><polygon class="as" points="1539.69 32.16 1698.69 81.47 1634.94 -183.59 1539.69 32.16"/><polygon class="at" points="1777.01 -174.64 1698.69 81.47 1634.94 -183.59 1777.01 -174.64"/><polygon class="e" points="1125.01 -285.86 1241.56 -152.27 1085.88 18.81 1125.01 -285.86"/><polygon class="l" points="1357.07 -66.73 1085.88 18.81 1241.56 -152.27 1357.07 -66.73"/><polygon class="ao" points="1085.88 18.81 1250.91 81.47 991.93 197.74 1085.88 18.81"/><polygon class="ao" points="1250.91 81.47 1119.44 305.83 991.93 197.74 1250.91 81.47"/><polygon class="ah" points="1054.87 477.08 1119.44 305.83 937.79 376.64 1054.87 477.08"/><polygon class="g" points="1250.91 81.47 1477.85 252.14 1119.44 305.83 1250.91 81.47"/><polygon class="ao" points="1357.07 -66.73 1250.91 81.47 1085.88 18.81 1357.07 -66.73"/><polygon class="ai" points="1539.69 32.16 1477.85 252.14 1357.07 -66.73 1539.69 32.16"/><polygon class="w" points="1250.91 81.47 1358.51 -66.73 1477.85 252.14 1250.91 81.47"/><polygon class="z" points="1698.69 81.47 1477.85 252.14 1539.69 32.16 1698.69 81.47"/><polygon class="as" points="1698.69 81.47 2009.21 89.69 1777.01 -174.64 1698.69 81.47"/><polygon class="q" points="1958.57 -247.3 2009.21 89.69 1777.01 -174.64 1958.57 -247.3"/><polygon class="ah" points="1698.69 81.47 1930.52 261.31 2009.21 89.69 1698.69 81.47"/><polygon class="n" points="642.05 575.17 720.79 566.79 689.47 499.11 642.05 575.17"/><polygon class="g" points="748.37 501.58 720.79 566.79 689.47 499.11 748.37 501.58"/><polygon class="g" points="844.28 570.7 748.37 501.58 720.79 566.79 844.28 570.7"/><polygon class="g" points="642.05 575.17 642.05 651.19 720.79 566.79 642.05 575.17"/><polygon class="m" points="720.79 566.79 774.48 737.14 642.05 651.19 720.79 566.79"/><polygon class="q" points="844.28 570.7 774.48 737.14 720.79 566.79 844.28 570.7"/><polygon class="aa" points="844.28 570.7 923.02 701.73 903.34 543.65 844.28 570.7"/><polygon class="aj" points="1054.87 477.08 923.02 701.73 903.34 543.65 1054.87 477.08"/><polygon class="p" points="844.28 570.7 774.48 737.14 923.02 701.73 844.28 570.7"/><polygon class="q" points="564.2 650.17 642.05 651.19 642.05 575.17 564.2 650.17"/><polygon class="au" points="564.2 650.17 578.96 755.48 642.05 651.19 564.2 650.17"/><polygon class="av" points="472.92 704.93 466.39 750.58 578.96 755.48 472.92 704.93"/><polygon class="aw" points="564.2 650.17 472.92 704.93 578.96 755.48 564.2 650.17"/><polygon class="av" points="642.05 651.19 578.96 755.48 711.84 792.62 642.05 651.19"/><polygon class="aw" points="578.96 755.48 532.88 882.1 466.39 750.58 578.96 755.48"/><polygon class="ax" points="711.84 792.62 578.96 755.48 532.88 882.1 711.84 792.62"/><polygon class="af" points="372.7 758.62 466.39 750.58 472.92 704.93 372.7 758.62"/><polygon class="ay" points="470.24 901.79 394.06 831.91 466.39 750.58 470.24 901.79"/><polygon class="az" points="372.7 758.62 394.06 831.91 466.39 750.58 372.7 758.62"/><polygon class="ay" points="300.22 784.57 300.22 823.04 372.7 758.62 300.22 784.57"/><polygon class="aw" points="394.06 831.91 372.7 758.62 300.22 823.04 394.06 831.91"/><polygon class="ba" points="312.75 912.53 394.06 831.91 300.22 823.04 312.75 912.53"/><polygon class="bb" points="470.24 901.79 394.06 831.91 312.75 912.53 470.24 901.79"/><polygon class="bc" points="300.22 784.57 196.42 823.94 300.22 823.04 300.22 784.57"/><polygon class="bd" points="257.27 912.53 196.42 823.94 300.22 823.04 257.27 912.53"/><polygon class="bd" points="149.89 811.41 149.89 882.1 196.42 823.94 149.89 811.41"/><polygon class="be" points="257.27 912.53 149.89 882.1 196.42 823.94 257.27 912.53"/><polygon class="t" points="149.89 811.41 94.64 807.96 149.89 882.1 149.89 811.41"/><polygon class="t" points="28.19 765.27 10.29 927.21 94.64 807.96 28.19 765.27"/><polygon class="bf" points="149.89 882.1 94.64 807.96 10.29 927.21 149.89 882.1"/><polygon class="bg" points="257.27 912.53 192.62 1001.03 149.89 882.1 257.27 912.53"/><polygon class="bh" points="532.88 882.1 614.31 927.21 515.87 947.35 532.88 882.1"/><polygon class="bi" points="711.84 792.62 614.31 927.21 532.88 882.1 711.84 792.62"/><polygon class="bj" points="790.59 804.25 711.84 792.62 748.37 901.79 790.59 804.25"/><polygon class="t" points="614.31 927.21 748.37 901.79 711.84 792.62 614.31 927.21"/><polygon class="bk" points="790.59 804.25 774.48 737.14 923.02 701.73 790.59 804.25"/><polygon class="bl" points="312.75 912.53 355.14 1001.03 285.01 954.06 312.75 912.53"/><polygon class="au" points="470.24 901.79 355.14 1001.03 515.87 947.35 470.24 901.79"/><polygon class="bm" points="312.75 912.53 355.05 1001.03 470.01 901.79 312.75 912.53"/><polygon class="ba" points="192.62 1001.03 257.27 912.53 285.01 954.06 192.62 1001.03"/><polygon class="bm" points="355.05 1001.03 285.01 954.06 192.62 1001.03 355.05 1001.03"/><polygon class="bm" points="10.29 927.21 149.89 882.1 192.62 1001.03 10.29 927.21"/><polygon class="m" points="28.19 765.27 -82.72 790.83 10.29 693.29 28.19 765.27"/><polygon class="d" points="-65.02 650.17 -82.72 790.83 10.29 693.29 -65.02 650.17"/><polygon class="d" points="10.29 927.21 -82.72 790.83 28.19 765.27 10.29 927.21"/><polygon class="bn" points="192.62 1001.03 297.54 1181.34 355.05 1001.03 192.62 1001.03"/><polygon class="bm" points="515.87 947.35 355.05 1001.03 532.88 1137.48 515.87 947.35"/><polygon class="bo" points="297.54 1181.34 532.88 1137.48 355.05 1001.03 297.54 1181.34"/><polygon class="ay" points="515.87 947.35 614.31 927.21 532.88 1137.48 515.87 947.35"/><polygon class="bp" points="614.31 927.21 748.37 901.79 800.32 1172.84 614.31 927.21"/><polygon class="bq" points="532.88 1137.48 800.32 1172.84 614.31 927.21 532.88 1137.48"/><polygon class="bp" points="748.37 901.79 1033.91 981.08 790.59 804.25 748.37 901.79"/><polygon class="t" points="923.02 701.73 1033.91 981.08 790.59 804.25 923.02 701.73"/><polygon class="z" points="923.02 701.73 1144.8 682.22 1054.87 477.08 923.02 701.73"/><polygon class="aa" points="1033.91 981.08 1144.8 682.22 923.02 701.73 1033.91 981.08"/><polygon class="bo" points="1033.91 981.08 800.32 1172.84 748.37 901.79 1033.91 981.08"/><polygon class="s" points="1054.87 477.08 1221.48 423.88 1119.44 305.83 1054.87 477.08"/><polygon class="br" points="1477.85 252.14 1119.44 305.83 1221.48 423.88 1477.85 252.14"/><polygon class="s" points="1477.85 252.14 1930.52 261.31 1698.69 81.47 1477.85 252.14"/><polygon class="h" points="1221.48 423.88 1144.8 682.22 1054.87 477.08 1221.48 423.88"/><polygon class="aa" points="1477.85 252.14 1605.87 528.64 1221.48 423.88 1477.85 252.14"/><polygon class="aa" points="1930.52 261.31 1605.87 528.64 1477.85 252.14 1930.52 261.31"/><polygon class="s" points="1221.48 423.88 1144.8 682.22 1605.87 528.64 1221.48 423.88"/><polygon class="br" points="1605.87 528.64 1420.31 1001.03 1144.8 682.22 1605.87 528.64"/><polygon class="br" points="1605.87 528.64 1976.19 811.41 1930.52 261.31 1605.87 528.64"/><polygon class="h" points="1420.31 1001.03 1976.19 811.41 1605.87 528.64 1420.31 1001.03"/><polygon class="f" points="1033.91 981.08 1420.31 1001.03 1144.8 682.22 1033.91 981.08"/><polygon class="x" points="1033.91 981.08 1121.42 1391.63 1420.31 1001.03 1033.91 981.08"/><polygon class="f" points="800.32 1172.84 1121.42 1391.63 1033.91 981.08 800.32 1172.84"/><polygon class="o" points="1121.42 1391.63 1420.31 1001.03 1641.43 1246.67 1121.42 1391.63"/><polygon class="bm" points="192.62 1001.03 37.59 1186.35 297.54 1181.34 192.62 1001.03"/><polygon class="aj" points="10.29 927.21 37.59 1186.35 192.62 1001.03 10.29 927.21"/><polygon class="j" points="37.59 1186.35 -248.41 1050.02 10.29 927.21 37.59 1186.35"/><polygon class="z" points="-82.72 790.83 -248.41 1050.02 10.29 927.21 -82.72 790.83"/><polygon class="as" points="-248.41 1050.02 -269.94 1354.05 37.59 1186.35 -248.41 1050.02"/><polygon class="bs" points="1976.19 811.41 1641.43 1246.67 1420.31 1001.03 1976.19 811.41"/><polygon class="s" points="1976.19 811.41 2121.96 1391.63 1641.43 1246.67 1976.19 811.41"/><polygon class="k" points="334.22 376.52 325.27 333.57 419.23 320.15 334.22 376.52"/><polygon class="s" points="225.05 583.23 211.03 464.32 260.85 485.69 225.05 583.23"/></g><polygon class="bt" points="629.76 205.87 616.99 101.81 682.81 115.61 629.76 205.87"/><polygon class="bt" points="418.34 114.33 488.49 103.65 462.4 226.57 418.34 114.33"/><polygon class="bu" points="182.1 231.56 273.37 153.71 325.27 333.57 182.1 231.56"/><polygon class="bt" points="83.67 461.53 109.3 376.64 211.03 464.32 83.67 461.53"/><polygon class="bv" points="72.93 613.65 74.72 678.08 161.52 669.13 72.93 613.65"/><polygon class="bw" points="418.34 114.33 462.4 226.57 429.97 226.19 418.34 114.33"/><polygon class="bw" points="682.81 115.61 629.76 205.87 675.15 179.69 682.81 115.61"/><polygon class="bx" points="273.37 153.71 358.16 266.7 325.27 333.57 273.37 153.71"/><polygon class="bu" points="418.34 114.33 452.79 63.78 488.49 103.65 418.34 114.33"/><polygon class="bt" points="273.37 153.71 188.81 140.75 182.1 231.56 273.37 153.71"/><polygon class="bx" points="616.99 101.81 665.76 63.78 682.81 115.61 616.99 101.81"/><polygon class="by" points="109.3 376.64 221.7 400.68 211.03 464.32 109.3 376.64"/><polygon class="bz" points="72.93 613.65 160.18 630.56 161.52 669.13 72.93 613.65"/><polygon class="bu" points="83.67 461.53 49.66 400.68 109.3 376.64 83.67 461.53"/><polygon class="ca" points="72.93 613.65 34.45 645.87 74.72 678.08 72.93 613.65"/><g class="c"><polygon class="bv" points="300.22 823.04 257.27 912.53 312.75 912.53 300.22 823.04"/><polygon class="bv" points="466.39 750.58 470.24 901.79 532.88 882.1 466.39 750.58"/><path class="ca" d="M642.05,651.19c0,4.47,69.79,141.43,69.79,141.43l62.64-55.48Z"/><polygon class="bv" points="748.37 501.58 844.28 570.7 861.67 492.1 748.37 501.58"/><polygon class="bv" points="786.56 336.73 863.97 346.99 865.75 295.09 786.56 336.73"/><polygon class="cb" points="865.75 295.09 790.59 309.37 786.56 336.73 865.75 295.09"/><polygon class="bz" points="865.75 295.09 894.39 321.04 863.97 346.99 865.75 295.09"/><polygon class="bz" points="748.37 501.58 773.08 452.58 861.67 492.1 748.37 501.58"/><polygon class="cb" points="844.28 570.7 903.34 543.65 861.67 492.1 844.28 570.7"/><polygon class="bz" points="257.27 912.53 285.01 954.06 312.75 912.53 257.27 912.53"/><polygon class="ca" points="470.24 901.79 515.87 947.35 532.88 882.1 470.24 901.79"/><polygon class="bv" points="711.84 792.62 790.59 804.25 774.48 737.14 711.84 792.62"/></g><g class="c"><polygon class="cc" points="599.99 533.12 584.78 528.87 575.21 558.44 599.99 533.12"/><polygon class="cd" points="584.78 480.77 616.48 513.48 599.99 533.12 584.78 528.87 584.78 480.77"/><polygon class="ce" points="584.78 480.77 656.36 466 616.48 513.48 584.78 480.77"/><polygon class="cf" points="572.25 438.94 697.53 370.26 656.36 466 572.25 438.94"/><polygon class="cg" points="596.64 353.7 697.53 370.26 572.25 438.94 596.64 353.7"/><polygon class="ch" points="497.08 375.63 492.61 331.78 584.78 288.41 497.08 375.63"/><polygon class="ci" points="492.61 331.78 425.68 375.63 497.08 375.63 492.61 331.78"/><polygon class="cj" points="700.21 252.14 729.74 273.62 734.34 237.87 700.21 252.14"/><polygon class="ck" points="719.92 303.21 700.21 252.14 729.74 273.62 719.92 303.21"/><polygon class="cd" points="650.1 270.04 700.21 252.14 719.92 303.21 650.1 270.04"/><polygon class="ce" points="719.92 303.21 697.53 370.26 650.1 270.04 719.92 303.21"/><polygon class="cg" points="584.78 288.41 596.64 353.7 650.1 270.04 584.78 288.41"/><polygon class="cl" points="650.1 270.04 596.64 353.7 697.53 370.26 650.1 270.04"/><polygon class="cm" points="572.25 438.94 584.78 480.77 656.36 466 572.25 438.94"/><polygon class="cn" points="596.64 353.7 497.08 375.63 584.78 288.41 596.64 353.7"/><polygon class="co" points="596.64 353.7 497.08 375.63 534.67 382.79 572.25 438.94 596.64 353.7"/><polygon class="cp" points="394.18 698.66 322.14 682.22 319.9 730.88 394.18 698.66"/><polygon class="cq" points="382.1 618.13 394.18 698.66 443.39 641.84 382.1 618.13"/><polygon class="cn" points="382.1 618.13 322.14 682.22 394.18 698.66 382.1 618.13"/><polygon class="cr" points="324.32 489.16 318.12 513.43 342.72 575.62 277.85 559.07 324.32 489.16"/><polygon class="cs" points="277.85 559.07 252.34 643.63 342.72 575.62 277.85 559.07"/><polygon class="cp" points="229.53 717.45 322.14 682.22 252.34 643.63 229.53 717.45"/><polygon class="cl" points="322.14 682.22 382.1 618.13 252.34 643.63 322.14 682.22"/><polygon class="ct" points="342.72 575.62 382.1 618.13 252.34 643.63 342.72 575.62"/><polygon class="cu" points="322.14 682.22 229.53 717.45 319.9 730.88 322.14 682.22"/><polygon class="cv" points="319.9 730.88 229.53 717.45 216.1 759.06 319.9 730.88"/><polygon class="ck" points="485.44 638.26 443.39 641.84 394.18 698.66 485.44 638.26"/></g><g class="c"><polygon class="cw" points="425.68 375.63 497.08 375.63 449.66 385.6 414.76 382.79 425.68 375.63"/><polygon class="cx" points="534.67 382.79 497.08 375.63 449.66 385.6 497.08 382.79 534.67 400.68 534.67 382.79"/><polygon class="cy" points="534.67 382.79 572.25 438.94 534.67 400.68 534.67 382.79"/><polygon class="cz" points="572.25 438.94 584.78 480.77 569.56 539.38 572.25 481.66 572.25 438.94"/><polygon class="da" points="572.25 438.94 534.67 400.68 561.96 448.11 572.25 481.66 572.25 438.94"/><polygon class="db" points="584.78 480.77 584.78 528.87 569.56 539.38 584.78 480.77"/><polygon class="dc" points="584.78 528.87 569.56 539.38 559.05 566.79 539.18 594.57 575.21 558.44 584.78 528.87"/><polygon class="dc" points="449.66 385.6 414.76 382.79 384.15 418.13 367.33 451.24 404.47 406.95 449.66 385.6"/><path class="dd" d="M384.15,418.13l-16.82,33.11-43,37.92s25.75-31.67,25.56-31.46Z"/><polygon class="de" points="367.33 451.24 324.32 489.16 318.12 513.43 342.72 575.62 328.5 513.43 367.33 451.24"/><polygon class="df" points="350.55 478.11 336.6 548.85 328.5 513.43 350.55 478.11"/><polygon class="dg" points="341.3 525.05 336.6 548.85 342.72 575.62 373.6 592.18 350.55 561.72 341.3 525.05"/><polygon class="dh" points="342.72 575.62 382.1 618.13 417.89 621.71 373.6 592.18 342.72 575.62"/><polygon class="di" points="382.1 618.13 443.39 641.84 485.44 638.26 497.08 630.56 442.94 626.18 417.89 621.71 382.1 618.13"/><polygon class="dj" points="442.94 626.18 497.08 630.56 515.87 618.13 539.18 594.57 499.77 614.55 442.94 626.18"/><polygon class="dg" points="559.05 566.79 499.77 614.55 539.18 594.57 559.05 566.79"/><polygon class="dk" points="487.24 452.58 512.29 484.35 468.89 482.56 487.24 452.58"/><polygon class="dl" points="455.47 508.06 512.29 484.35 513.19 522.83 455.47 508.06"/><polygon class="dm" points="455.47 508.06 513.19 522.83 490.82 549.22 455.47 508.06"/><polygon class="dn" points="512.29 484.35 468.89 482.56 455.47 508.06 512.29 484.35"/><polygon class="dn" points="452.79 484.35 450.55 449 421.02 463.77 452.79 484.35"/><polygon class="do" points="455.47 508.06 452.79 484.35 404.47 498.21 455.47 508.06"/><polygon class="dm" points="404.47 498.21 421.02 463.77 452.79 484.35 404.47 498.21"/><polygon class="dm" points="404.47 498.21 413.42 537.59 455.47 508.06 404.47 498.21"/><polygon class="dp" points="455.47 508.06 413.42 537.59 449.66 560.41 455.47 508.06"/><polygon class="dq" points="455.47 508.06 449.66 560.41 490.82 549.22 455.47 508.06"/><polygon class="dr" points="455.47 508.06 452.79 484.35 468.89 482.56 455.47 508.06"/><polygon class="cz" points="452.79 484.35 487.24 452.58 468.89 482.56 452.79 484.35"/><polygon class="ds" points="452.79 484.35 450.55 449 487.24 452.58 452.79 484.35"/><polygon class="dt" points="450.55 449 449.66 385.6 497.08 382.79 450.55 449"/><polygon class="dg" points="487.24 452.58 534.67 400.68 512.29 484.35 487.24 452.58"/><polygon class="du" points="497.08 382.79 534.67 400.68 487.24 452.58 497.08 382.79"/><polygon class="dv" points="561.96 448.11 534.67 400.68 512.29 484.35 561.96 448.11"/><polygon class="dw" points="561.96 448.11 572.25 481.66 512.29 484.35 561.96 448.11"/><polygon class="dw" points="512.29 484.35 513.19 522.83 569.56 539.38 512.29 484.35"/><polygon class="cx" points="572.25 481.66 512.29 484.35 569.56 539.38 572.25 481.66"/><polygon class="cy" points="490.82 549.22 499.77 614.55 559.05 566.79 490.82 549.22"/><polygon class="dv" points="513.19 522.83 559.05 566.79 490.82 549.22 513.19 522.83"/><polygon class="dx" points="569.56 539.38 513.19 522.83 559.05 566.79 569.56 539.38"/><polygon class="dy" points="421.02 463.77 404.47 406.95 450.55 449 421.02 463.77"/><polygon class="cy" points="404.47 406.95 449.66 385.6 450.55 449 404.47 406.95"/><polygon class="cy" points="367.33 451.24 404.47 498.21 350.55 478.11 367.33 451.24"/><polygon class="dz" points="497.08 382.79 450.55 449 487.24 452.58 497.08 382.79"/><polygon class="ea" points="421.02 463.77 404.47 406.95 367.33 451.24 421.02 463.77"/><polygon class="dt" points="404.47 498.21 421.02 463.77 367.33 451.24 404.47 498.21"/><polygon class="cy" points="404.47 498.21 413.42 537.59 350.55 561.72 404.47 498.21"/><polygon class="eb" points="350.55 561.72 341.3 525.05 404.47 498.21 350.55 561.72"/><polygon class="ec" points="350.55 478.11 341.3 525.05 404.47 498.21 350.55 478.11"/><polygon class="ed" points="413.42 537.59 373.6 592.18 449.66 560.41 413.42 537.59"/><polygon class="ee" points="350.55 561.72 413.42 537.59 373.6 592.18 350.55 561.72"/><polygon class="ed" points="449.66 560.41 442.94 626.18 417.89 621.71 449.66 560.41"/><polygon class="ef" points="373.6 592.18 417.89 621.71 449.66 560.41 373.6 592.18"/><polygon class="ef" points="490.82 549.22 449.66 560.41 499.77 614.55 490.82 549.22"/><polygon class="eg" points="442.94 626.18 499.77 614.55 449.66 560.41 442.94 626.18"/></g><g class="c"><polygon class="eh" points="515.87 618.13 642.05 575.17 599.99 533.12 515.87 618.13"/><polygon class="ay" points="599.99 533.12 642.05 575.17 656.36 466 599.99 533.12"/><polygon class="az" points="656.36 466 642.05 575.17 689.47 499.11 656.36 466"/><polygon class="ei" points="656.36 466 720.79 440.95 689.47 499.11 656.36 466"/><polygon class="ej" points="697.53 370.26 656.36 466 720.79 440.95 697.53 370.26"/><polygon class="bf" points="745.85 348.78 697.53 370.26 720.79 440.95 745.85 348.78"/><polygon class="au" points="719.92 303.21 697.53 370.26 745.85 348.78 719.92 303.21"/><polygon class="bq" points="757.37 277.67 719.92 303.21 745.85 348.78 757.37 277.67"/><polygon class="bb" points="757.37 277.67 729.74 273.62 719.92 303.21 757.37 277.67"/><polygon class="ek" points="734.34 237.87 729.74 273.62 757.37 277.67 734.34 237.87"/><polygon class="el" points="734.34 237.87 757.37 277.67 762.4 242.3 734.34 237.87"/><polygon class="ek" points="762.4 242.3 759.72 212.77 734.34 237.87 762.4 242.3"/><polygon class="az" points="759.72 212.77 736.23 206.73 734.34 237.87 759.72 212.77"/><polygon class="em" points="515.87 618.13 642.05 575.17 564.2 650.17 515.87 618.13"/><polygon class="az" points="515.87 618.13 564.2 650.17 472.92 704.93 515.87 618.13"/><polygon class="en" points="515.87 618.13 472.92 704.93 394.18 698.66 515.87 618.13"/><polygon class="bg" points="394.18 698.66 472.92 704.93 372.7 758.62 394.18 698.66"/><polygon class="ek" points="372.7 758.62 394.18 698.66 319.9 730.88 372.7 758.62"/><polygon class="eo" points="319.9 730.88 372.7 758.62 300.22 784.57 319.9 730.88"/><polygon class="ep" points="319.9 730.88 232.21 780.09 300.22 784.57 319.9 730.88"/><polygon class="em" points="300.22 784.57 232.21 780.09 196.42 823.94 300.22 784.57"/><polygon class="eq" points="196.42 823.94 232.21 780.09 216.1 759.06 196.42 823.94"/><polygon class="er" points="216.1 759.06 196.42 823.94 149.89 811.41 216.1 759.06"/><polygon class="em" points="216.1 759.06 149.89 811.41 161.52 773.83 216.1 759.06"/><polygon class="eq" points="216.1 759.06 161.52 773.83 182.55 722.82 216.1 759.06"/><polygon class="es" points="182.55 722.82 216.1 759.06 229.53 717.45 182.55 722.82"/><polygon class="em" points="182.55 722.82 198.66 671.82 229.53 717.45 182.55 722.82"/><polygon class="az" points="198.66 671.82 252.34 643.63 229.53 717.45 198.66 671.82"/><polygon class="et" points="225.05 583.23 198.66 671.82 252.34 643.63 225.05 583.23"/><polygon class="bc" points="252.34 643.63 225.05 583.23 277.85 559.07 252.34 643.63"/><polygon class="aw" points="225.05 583.23 260.85 485.69 277.85 559.07 225.05 583.23"/><polygon class="em" points="339.59 469.58 277.85 559.07 260.85 485.69 339.59 469.58"/><polygon class="bq" points="260.85 485.69 339.59 469.58 334.22 376.52 260.85 485.69"/><polygon class="bm" points="414.76 382.79 334.22 376.52 339.59 469.58 414.76 382.79"/><polygon class="bn" points="334.22 376.52 419.23 320.15 414.76 382.79 334.22 376.52"/><polygon class="en" points="414.76 382.79 492.61 331.78 419.23 320.15 414.76 382.79"/><polygon class="eq" points="419.23 320.15 514.09 279.88 492.61 331.78 419.23 320.15"/><polygon class="eu" points="584.78 288.41 514.09 279.88 492.61 331.78 584.78 288.41"/><polygon class="en" points="684.55 226.19 734.34 237.87 736.23 206.73 684.55 226.19"/><polygon class="af" points="700.21 252.14 734.34 237.87 684.55 226.19 700.21 252.14"/><polygon class="eu" points="650.1 270.04 700.21 252.14 684.55 226.19 650.1 270.04"/><polygon class="ep" points="650.1 270.04 684.55 226.19 615.2 244.98 650.1 270.04"/><polygon class="eq" points="584.78 288.41 650.1 270.04 615.2 244.98 584.78 288.41"/><polygon class="ev" points="615.2 244.98 514.09 279.88 584.78 288.41 615.2 244.98"/><polygon class="em" points="216.1 759.06 319.9 730.88 232.21 780.09 216.1 759.06"/><polygon class="ae" points="182.55 722.82 161.52 669.13 198.66 671.82 182.55 722.82"/></g><polygon class="ew" points="514.09 279.88 462.4 226.57 615.2 244.98 514.09 279.88"/><polygon class="ew" points="488.49 103.65 557.42 179.69 462.4 226.57 488.49 103.65"/><polygon class="ew" points="557.42 179.69 629.76 205.87 615.2 244.98 557.42 179.69"/><line class="ew" x1="616.99" y1="101.81" x2="629.76" y2="205.87"/><polyline class="ew" points="488.49 103.65 616.99 101.81 557.42 179.69"/><polyline class="ew" points="615.2 244.98 684.55 226.19 629.76 205.87"/><line class="ew" x1="629.76" y1="205.87" x2="675.15" y2="179.69"/><polygon class="ew" points="675.15 179.69 736.23 206.73 684.55 226.19 675.15 179.69"/><polygon class="ew" points="682.81 115.61 675.15 179.69 729.74 147 682.81 115.61"/><polygon class="ew" points="736.23 206.73 778.51 173.17 759.72 212.77 736.23 206.73"/><line class="ew" x1="736.23" y1="206.73" x2="729.74" y2="147"/><polygon class="ew" points="273.37 153.71 358.16 266.7 418.34 114.33 273.37 153.71"/><polyline class="ew" points="514.09 279.88 419.23 320.15 462.4 226.57"/><polyline class="ew" points="462.4 226.57 429.97 226.19 419.23 320.15"/><line class="ew" x1="418.34" y1="114.33" x2="429.97" y2="226.19"/><polyline class="ew" points="429.97 226.19 358.16 266.7 419.23 320.15"/><line class="ew" x1="358.16" y1="266.7" x2="325.27" y2="333.57"/><polygon class="ew" points="273.37 153.71 252.34 62.43 188.81 140.75 273.37 153.71"/><polygon class="ew" points="418.34 114.33 367.33 54.38 452.79 63.78 418.34 114.33"/><line class="ew" x1="367.33" y1="54.38" x2="273.37" y2="153.71"/><line class="ew" x1="252.35" y1="62.43" x2="367.33" y2="54.38"/><polygon class="ew" points="452.79 63.78 542.27 7.4 488.49 103.65 452.79 63.78"/><line class="ew" x1="616.99" y1="101.81" x2="542.27" y2="7.4"/><line class="ew" x1="616.99" y1="101.81" x2="665.76" y2="63.78"/><polygon class="ew" points="542.27 7.4 398.65 -16.76 452.79 63.78 542.27 7.4"/><polygon class="ew" points="367.33 54.38 398.65 -16.76 300.22 -16.76 367.33 54.38"/><polygon class="ew" points="300.22 -16.76 151.68 37.38 252.34 62.43 300.22 -16.76"/><polygon class="ew" points="325.27 333.57 221.7 400.68 334.22 376.52 325.27 333.57"/><line class="ew" x1="334.22" y1="376.52" x2="260.85" y2="485.69"/><polygon class="ew" points="211.03 464.32 260.85 485.69 221.7 400.68 211.03 464.32"/><polygon class="ew" points="225.05 583.23 160.18 630.56 198.66 671.82 225.05 583.23"/><polygon class="ew" points="161.52 669.13 160.18 630.56 198.66 671.82 161.52 669.13"/><polygon class="ew" points="74.72 678.08 182.55 722.82 161.52 669.13 74.72 678.08"/><polygon class="ew" points="72.93 613.65 149.89 549.22 160.18 630.56 72.93 613.65"/><polygon class="ew" points="149.89 549.22 211.03 464.32 225.05 583.23 149.89 549.22"/><polyline class="ew" points="211.03 464.32 83.67 461.53 149.89 549.22"/><polygon class="ew" points="72.93 613.65 -8.5 575.62 34.45 645.87 72.93 613.65"/><polyline class="ew" points="72.93 613.65 83.67 461.53 -8.5 575.62"/><polygon class="ew" points="49.66 400.68 83.67 461.53 -8.5 451.24 49.66 400.68"/><line class="ew" x1="325.27" y1="333.57" x2="182.1" y2="231.56"/><polygon class="ew" points="109.3 376.64 182.1 231.56 221.7 400.68 109.3 376.64"/><polygon class="ew" points="109.3 376.64 23.71 311.87 49.66 400.68 109.3 376.64"/><polygon class="ew" points="182.1 231.56 79.48 154.83 188.81 140.75 182.1 231.56"/><polyline class="ew" points="79.48 154.83 151.68 37.38 188.81 140.75"/><line class="ew" x1="23.72" y1="311.87" x2="182.1" y2="231.56"/><polygon class="ew" points="23.71 311.87 -8.5 451.24 49.66 400.68 23.71 311.87"/><polygon class="ew" points="79.48 154.83 -26.84 179.69 23.71 311.87 79.48 154.83"/><polyline class="ew" points="151.68 37.38 10.74 -16.76 79.48 154.83"/><polyline class="ew" points="23.71 311.87 -114.12 333.57 -8.5 451.24"/><polygon class="ew" points="182.55 722.82 128.63 745.64 161.52 773.83 182.55 722.82"/><polygon class="ew" points="74.72 678.08 128.63 745.64 182.55 722.82 74.72 678.08"/><polygon class="ew" points="10.29 693.29 28.19 765.27 74.72 678.08 10.29 693.29"/><polygon class="ew" points="128.63 745.64 74.72 678.08 28.19 765.27 128.63 745.64"/><polygon class="ew" points="161.52 773.83 128.63 745.64 149.89 811.41 161.52 773.83"/><polygon class="ew" points="94.64 807.96 128.63 745.64 149.89 811.41 94.64 807.96"/><polygon class="ew" points="34.45 645.87 10.29 693.29 74.72 678.08 34.45 645.87"/><polyline class="ew" points="-8.5 575.62 -65.02 650.17 34.45 645.87"/><polygon class="ew" points="28.19 765.27 128.63 745.64 94.64 807.96 28.19 765.27"/><polygon class="ew" points="665.76 63.78 757.7 84.36 682.81 115.61 665.76 63.78"/><polygon class="ew" points="778.51 173.17 729.74 147 757.7 84.36 778.51 173.17"/><polyline class="ew" points="665.76 63.78 762.4 -24.15 757.7 84.36"/><polygon class="ew" points="542.27 7.4 634.89 -84.32 665.76 63.78 542.27 7.4"/><polygon class="ew" points="398.65 -16.76 473.82 -88.58 542.27 7.4 398.65 -16.76"/><line class="ew" x1="757.7" y1="84.36" x2="832.87" y2="89.06"/><polygon class="ew" points="759.72 212.77 790.59 222.3 762.4 242.3 759.72 212.77"/><polygon class="ew" points="762.4 242.3 757.37 277.67 817.38 266.7 762.4 242.3"/><line class="ew" x1="790.59" y1="222.3" x2="817.38" y2="266.7"/><line class="ew" x1="778.51" y1="173.17" x2="790.59" y2="222.3"/><polyline class="ew" points="778.51 173.17 837.23 181.9 790.59 222.3"/><line class="ew" x1="790.59" y1="222.3" x2="883.65" y2="227.53"/><polygon class="ew" points="757.37 277.67 790.59 309.37 745.85 348.78 757.37 277.67"/><line class="ew" x1="790.59" y1="309.37" x2="786.56" y2="336.73"/><polygon class="ew" points="786.56 336.73 800.32 389.61 745.85 348.78 786.56 336.73"/><polyline class="ew" points="800.32 389.61 863.97 346.99 786.56 336.73"/><line class="ew" x1="720.79" y1="440.95" x2="745.85" y2="348.78"/><polygon class="ew" points="689.47 499.11 720.79 440.95 748.37 501.58 689.47 499.11"/><line class="ew" x1="773.08" y1="452.58" x2="748.37" y2="501.58"/><polygon class="ew" points="800.32 389.61 773.08 452.58 720.79 440.95 800.32 389.61"/><polygon class="ew" points="800.32 389.61 861.67 492.1 773.08 452.58 800.32 389.61"/><polygon class="ew" points="863.97 346.99 937.79 376.64 861.67 492.1 863.97 346.99"/><line class="ew" x1="894.39" y1="321.04" x2="863.96" y2="346.99"/><polygon class="ew" points="861.67 492.1 937.79 376.64 903.34 543.65 861.67 492.1"/><polygon class="ew" points="817.38 266.7 865.75 295.09 790.59 309.37 817.38 266.7"/><polygon class="ew" points="883.65 227.53 865.75 295.09 817.38 266.7 883.65 227.53"/><polyline class="ew" points="778.51 173.17 832.87 89.06 837.23 181.9"/><line class="ew" x1="921.23" y1="115.68" x2="832.87" y2="89.06"/><polygon class="ew" points="762.4 -24.15 898.86 -24.15 832.87 89.06 762.4 -24.15"/><polygon class="ew" points="837.23 181.9 921.23 115.68 883.65 227.53 837.23 181.9"/><polyline class="ew" points="883.65 227.53 894.39 321.04 865.75 295.09"/><polygon class="ew" points="883.65 227.53 991.93 197.74 921.23 115.68 883.65 227.53"/><polygon class="ew" points="937.79 376.64 991.93 197.74 894.39 321.04 937.79 376.64"/><polygon class="ew" points="921.23 115.68 1085.88 18.81 898.86 -24.15 921.23 115.68"/><line class="ew" x1="1085.88" y1="18.81" x2="991.93" y2="197.74"/><polyline class="ew" points="903.34 543.65 1054.87 477.08 937.79 376.64"/><line class="ew" x1="1119.44" y1="305.83" x2="937.79" y2="376.64"/><line class="ew" x1="151.68" y1="37.38" x2="116.55" y2="-184.43"/><polygon class="ew" points="850.51 -285.55 1125.01 -285.86 1085.88 18.81 850.51 -285.55"/><polygon class="ew" points="10.74 -16.76 -259.57 7.4 -26.84 179.69 10.74 -16.76"/><polygon class="ew" points="1472.58 -212.23 1539.69 32.16 1357.07 -66.73 1472.58 -212.23"/><polygon class="ew" points="1539.69 32.16 1698.69 81.47 1634.94 -183.59 1539.69 32.16"/><polygon class="ew" points="1357.07 -66.73 1085.88 18.81 1241.56 -152.27 1357.07 -66.73"/><line class="ew" x1="1085.42" y1="20.07" x2="1251.37" y2="80.21"/><polygon class="ew" points="1250.91 81.47 1119.44 305.83 991.93 197.74 1250.91 81.47"/><line class="ew" x1="1539.69" y1="32.16" x2="1477.85" y2="252.14"/><polygon class="ew" points="1250.91 81.47 1358.51 -66.73 1477.85 252.14 1250.91 81.47"/><polygon class="ew" points="1698.69 81.47 2009.21 89.69 1777.01 -174.64 1698.69 81.47"/><polygon class="ew" points="642.05 575.17 720.79 566.79 689.47 499.11 642.05 575.17"/><polygon class="ew" points="844.28 570.7 748.37 501.58 720.79 566.79 844.28 570.7"/><polygon class="ew" points="720.79 566.79 774.48 737.14 642.05 651.19 720.79 566.79"/><polyline class="ew" points="923.02 701.73 903.34 543.65 844.28 570.7"/><polygon class="ew" points="844.28 570.7 774.48 737.14 923.02 701.73 844.28 570.7"/><polygon class="ew" points="564.2 650.17 642.05 651.19 642.05 575.17 564.2 650.17"/><polygon class="ew" points="564.2 650.17 578.96 755.48 642.05 651.19 564.2 650.17"/><polygon class="ew" points="472.92 704.93 466.39 750.58 578.96 755.48 472.92 704.93"/><polygon class="ew" points="564.2 650.17 472.92 704.93 578.96 755.48 564.2 650.17"/><polygon class="ew" points="642.05 651.19 578.96 755.48 711.84 792.62 642.05 651.19"/><polygon class="ew" points="578.96 755.48 532.88 882.1 466.39 750.58 578.96 755.48"/><polygon class="ew" points="711.84 792.62 578.96 755.48 532.88 882.1 711.84 792.62"/><polygon class="ew" points="372.7 758.62 466.39 750.58 472.92 704.93 372.7 758.62"/><polygon class="ew" points="470.24 901.79 394.06 831.91 466.39 750.58 470.24 901.79"/><polygon class="ew" points="372.7 758.62 394.06 831.91 466.39 750.58 372.7 758.62"/><polygon class="ew" points="300.22 784.57 300.22 823.04 372.7 758.62 300.22 784.57"/><polygon class="ew" points="394.06 831.91 372.7 758.62 300.22 823.04 394.06 831.91"/><polygon class="ew" points="312.75 912.53 394.06 831.91 300.22 823.04 312.75 912.53"/><polygon class="ew" points="470.24 901.79 394.06 831.91 312.75 912.53 470.24 901.79"/><polygon class="ew" points="300.22 784.57 196.42 823.94 300.22 823.04 300.22 784.57"/><polygon class="ew" points="257.27 912.53 196.42 823.94 300.22 823.04 257.27 912.53"/><polygon class="ew" points="149.89 811.41 149.89 882.1 196.42 823.94 149.89 811.41"/><polygon class="ew" points="257.27 912.53 149.89 882.1 196.42 823.94 257.27 912.53"/><polygon class="ew" points="149.89 811.41 94.64 807.96 149.89 882.1 149.89 811.41"/><polygon class="ew" points="28.19 765.27 10.29 927.21 94.64 807.96 28.19 765.27"/><polygon class="ew" points="149.89 882.1 94.64 807.96 10.29 927.21 149.89 882.1"/><polygon class="ew" points="257.27 912.53 192.62 1001.03 149.89 882.1 257.27 912.53"/><polygon class="ew" points="532.88 882.1 614.31 927.21 515.87 947.35 532.88 882.1"/><polygon class="ew" points="711.84 792.62 614.31 927.21 532.88 882.1 711.84 792.62"/><polygon class="ew" points="790.59 804.25 711.84 792.62 748.37 901.79 790.59 804.25"/><polygon class="ew" points="614.31 927.21 748.37 901.79 711.84 792.62 614.31 927.21"/><polygon class="ew" points="790.59 804.25 774.48 737.14 923.02 701.73 790.59 804.25"/><polygon class="ew" points="312.75 912.53 355.14 1001.03 285.01 954.06 312.75 912.53"/><polygon class="ew" points="470.24 901.79 355.14 1001.03 515.87 947.35 470.24 901.79"/><polygon class="ew" points="312.75 912.53 355.05 1001.03 470.01 901.79 312.75 912.53"/><polygon class="ew" points="192.62 1001.03 257.27 912.53 285.01 954.06 192.62 1001.03"/><polygon class="ew" points="355.05 1001.03 285.01 954.06 192.62 1001.03 355.05 1001.03"/><polygon class="ew" points="10.29 927.21 149.89 882.1 192.62 1001.03 10.29 927.21"/><polygon class="ew" points="28.19 765.27 -82.72 790.83 10.29 693.29 28.19 765.27"/><polygon class="ew" points="-65.02 650.17 -82.72 790.83 10.29 693.29 -65.02 650.17"/><polygon class="ew" points="10.29 927.21 -82.72 790.83 28.19 765.27 10.29 927.21"/><polygon class="ew" points="192.62 1001.03 297.54 1181.34 355.05 1001.03 192.62 1001.03"/><polygon class="ew" points="515.87 947.35 355.05 1001.03 532.88 1137.48 515.87 947.35"/><polygon class="ew" points="297.54 1181.34 532.88 1137.48 355.05 1001.03 297.54 1181.34"/><polygon class="ew" points="515.87 947.35 614.31 927.21 532.88 1137.48 515.87 947.35"/><polygon class="ew" points="614.31 927.21 748.37 901.79 800.32 1172.84 614.31 927.21"/><polygon class="ew" points="532.88 1137.48 800.32 1172.84 614.31 927.21 532.88 1137.48"/><polygon class="ew" points="748.37 901.79 1033.91 981.08 790.59 804.25 748.37 901.79"/><polygon class="ew" points="923.02 701.73 1033.91 981.08 790.59 804.25 923.02 701.73"/><line class="ew" x1="1054.87" y1="477.08" x2="923.02" y2="701.73"/><polygon class="ew" points="1033.91 981.08 1144.8 682.22 923.02 701.73 1033.91 981.08"/><polygon class="ew" points="1033.91 981.08 800.32 1172.84 748.37 901.79 1033.91 981.08"/><polygon class="ew" points="1054.87 477.08 1221.48 423.88 1119.44 305.83 1054.87 477.08"/><polyline class="ew" points="1221.48 423.88 1477.85 252.14 1119.44 305.83"/><polygon class="ew" points="1477.85 252.14 1930.52 261.31 1698.69 81.47 1477.85 252.14"/><polyline class="ew" points="1221.48 423.88 1144.8 682.22 1054.87 477.08"/><line class="ew" x1="1605.87" y1="528.64" x2="1477.85" y2="252.14"/><polygon class="ew" points="1221.48 423.88 1144.8 682.22 1605.87 528.64 1221.48 423.88"/><line class="ew" x1="1605.87" y1="528.64" x2="1420.31" y2="1001.04"/><polygon class="ew" points="1605.87 528.64 1976.19 811.41 1930.52 261.31 1605.87 528.64"/><polygon class="ew" points="1033.91 981.08 1420.31 1001.03 1144.8 682.22 1033.91 981.08"/><polygon class="ew" points="1033.91 981.08 1121.42 1391.63 1420.31 1001.03 1033.91 981.08"/><polygon class="ew" points="800.32 1172.84 1121.42 1391.63 1033.91 981.08 800.32 1172.84"/><polygon class="ew" points="1121.42 1391.63 1420.31 1001.03 1641.43 1246.67 1121.42 1391.63"/><polygon class="ew" points="192.62 1001.03 37.59 1186.35 297.54 1181.34 192.62 1001.03"/><polygon class="ew" points="10.29 927.21 37.59 1186.35 192.62 1001.03 10.29 927.21"/><polygon class="ew" points="37.59 1186.35 -248.41 1050.02 10.29 927.21 37.59 1186.35"/><polygon class="ew" points="-82.72 790.83 -248.41 1050.02 10.29 927.21 -82.72 790.83"/><polygon class="ew" points="-248.41 1050.02 -269.94 1354.05 37.59 1186.35 -248.41 1050.02"/><polygon class="ew" points="1976.19 811.41 1641.43 1246.67 1420.31 1001.03 1976.19 811.41"/><polygon class="ew" points="1976.19 811.41 2121.96 1391.63 1641.43 1246.67 1976.19 811.41"/><polyline class="ew" points="325.27 333.57 419.23 320.15 334.22 376.52"/><line class="ew" x1="260.85" y1="485.69" x2="225.05" y2="583.23"/></g></svg>