<?xml version="1.0" encoding="utf-8"?>
<!-- Generator: Adobe Illustrator 22.1.0, SVG Export Plug-In . SVG Version: 6.00 Build 0)  -->
<svg version="1.1" id="Layer_1" xmlns="http://www.w3.org/2000/svg" xmlns:xlink="http://www.w3.org/1999/xlink" x="0px" y="0px"
	 viewBox="0 0 1920 1080" style="enable-background:new 0 0 1920 1080;" xml:space="preserve">
<style type="text/css">
	.st0{clip-path:url(#SVGID_2_);}
	.st1{opacity:0.7;}
	.st2{opacity:0.7;fill:#F9ECD7;enable-background:new    ;}
	.st3{opacity:0.7;fill:#F7E3C4;enable-background:new    ;}
	.st4{opacity:0.7;fill:#FBF2E4;enable-background:new    ;}
	.st5{opacity:0.7;fill:#F7E6CA;enable-background:new    ;}
	.st6{opacity:0.7;fill:#F9EEDC;enable-background:new    ;}
	.st7{opacity:0.7;fill:#F8E9D0;enable-background:new    ;}
	.st8{opacity:0.7;fill:#FAEFDF;enable-background:new    ;}
	.st9{opacity:0.7;fill:#FCF5EA;enable-background:new    ;}
	.st10{opacity:0.7;fill:#F8EAD2;enable-background:new    ;}
	.st11{opacity:0.7;fill:#F7E2C2;enable-background:new    ;}
	.st12{opacity:0.7;fill:#F4DDB6;enable-background:new    ;}
	.st13{opacity:0.7;fill:#FAF0E1;enable-background:new    ;}
	.st14{opacity:0.7;fill:#F8E7CC;enable-background:new    ;}
	.st15{opacity:0.7;fill:#F5E0BD;enable-background:new    ;}
	.st16{opacity:0.7;fill:#F3D9AD;enable-background:new    ;}
	.st17{opacity:0.7;fill:#F7E5C7;enable-background:new    ;}
	.st18{opacity:0.7;fill:#F9EDD8;enable-background:new    ;}
	.st19{opacity:0.7;fill:#F3D9AC;enable-background:new    ;}
	.st20{opacity:0.7;fill:#F9EBD5;enable-background:new    ;}
	.st21{opacity:0.7;fill:#F5DEB9;enable-background:new    ;}
	.st22{opacity:0.7;fill:#F3DAB0;enable-background:new    ;}
	.st23{opacity:0.7;fill:#F4DCB4;enable-background:new    ;}
	.st24{opacity:0.7;fill:#F3D9AB;enable-background:new    ;}
	.st25{opacity:0.7;fill:#F2D7A8;enable-background:new    ;}
	.st26{opacity:0.7;fill:#F5E1BF;enable-background:new    ;}
	.st27{opacity:0.7;fill:#FCF6EE;enable-background:new    ;}
	.st28{opacity:0.7;fill:#FCF7EF;enable-background:new    ;}
	.st29{opacity:0.7;fill:#FBF4E9;enable-background:new    ;}
	.st30{opacity:0.7;fill:#F5DFBC;enable-background:new    ;}
	.st31{opacity:0.7;fill:#F1D29D;enable-background:new    ;}
	.st32{opacity:0.7;fill:#F6E2C0;enable-background:new    ;}
	.st33{opacity:0.7;fill:#F7E4C5;enable-background:new    ;}
	.st34{opacity:0.7;fill:#F1D19A;enable-background:new    ;}
	.st35{opacity:0.7;fill:#F2D6A7;enable-background:new    ;}
	.st36{opacity:0.7;fill:#F0CF94;enable-background:new    ;}
	.st37{opacity:0.7;fill:#F2D5A3;enable-background:new    ;}
	.st38{opacity:0.7;fill:#F2D4A1;enable-background:new    ;}
	.st39{fill:#F49E00;}
	.st40{clip-path:url(#SVGID_4_);}
	.st41{fill:none;stroke:#9D4701;stroke-width:0.83;stroke-linecap:round;stroke-linejoin:round;stroke-dasharray:27.64,13.82;}
</style>
<title>Artboard 1</title>
<g>
	<defs>
		<rect id="SVGID_1_" width="1920" height="1080"/>
	</defs>
	<clipPath id="SVGID_2_">
		<use xlink:href="#SVGID_1_"  style="overflow:visible;"/>
	</clipPath>
	<g class="st0">
		<g class="st1">
			<polygon class="st2" points="978.5,-49 1036.2,10.4 865.7,-10.1 			"/>
			<polygon class="st3" points="1007.1,147.6 930.2,62.7 1036.2,10.4 			"/>
			<polygon class="st4" points="930.2,62.7 865.7,-10.1 1036.2,10.4 			"/>
			<polygon class="st2" points="930.2,62.7 849.5,33.5 865.7,-10.1 			"/>
			<polygon class="st5" points="930.2,62.7 863.7,149.6 849.5,33.5 			"/>
			<polygon class="st2" points="1007.1,147.6 863.7,149.6 930.2,62.7 			"/>
			<polygon class="st3" points="865.7,-10.1 788.3,10.9 849.5,33.5 			"/>
			<polygon class="st5" points="849.5,33.5 798.8,62.7 788.3,10.9 			"/>
			<polygon class="st4" points="798.8,62.7 730.7,32.6 788.3,10.9 			"/>
			<polygon class="st2" points="730.7,32.6 737.9,99.2 798.8,62.7 			"/>
			<polygon class="st6" points="790.3,134.2 798.8,62.7 737.9,99.2 			"/>
			<polygon class="st6" points="730.7,32.6 683.5,70 704.5,25.8 			"/>
			<polygon class="st3" points="737.9,99.2 683.5,70 730.7,32.6 			"/>
			<polygon class="st7" points="1247.1,91.7 1152.5,-34.3 1085.4,135.6 			"/>
			<polygon class="st8" points="1084.4,-94 1036.2,10.4 978.5,-49 			"/>
			<polygon class="st9" points="1072.4,10.9 1084.4,-94 1036.2,10.4 			"/>
			<polygon class="st9" points="1072.4,10.9 1152.5,-34.3 1085.4,135.6 			"/>
			<polygon class="st7" points="1152.5,-34.3 1084.4,-94 1072.4,10.9 			"/>
			<polygon class="st10" points="1247.1,91.7 1270.6,193.6 1341.4,106.2 			"/>
			<polygon class="st2" points="1085.4,135.6 1142.3,202.5 1046.9,192.1 			"/>
			<polygon class="st11" points="1142.3,202.5 1247.1,91.7 1085.4,135.6 			"/>
			<polygon class="st4" points="1270.6,193.6 1142.3,202.5 1247.1,91.7 			"/>
			<polygon class="st12" points="1142.3,202.5 1107.3,281.9 1046.9,192.1 			"/>
			<polygon class="st13" points="1046.9,192.1 947.1,254.9 1007.1,147.6 			"/>
			<polygon class="st7" points="1007.1,147.6 863.7,149.6 947.1,254.9 			"/>
			<polygon class="st4" points="863.7,149.6 809.3,192.1 947.1,254.9 			"/>
			<polygon class="st2" points="947.1,254.9 1107.3,281.9 1046.9,192.1 			"/>
			<polygon class="st14" points="1142.3,202.5 1107.3,281.9 1217.1,281.9 			"/>
			<polygon class="st15" points="1270.6,193.6 1217.1,281.9 1142.3,202.5 			"/>
			<polygon class="st15" points="1341.4,106.2 1382.9,221.5 1270.6,193.6 			"/>
			<polygon class="st16" points="1217.1,281.9 1382.9,221.5 1270.6,193.6 			"/>
			<polygon class="st17" points="1348.9,4.9 1304.8,-183.8 1189.2,-108.9 			"/>
			<polygon class="st18" points="1430.2,-157 1348.9,4.9 1304.8,-183.8 			"/>
			<polygon class="st18" points="1348.9,4.9 1463.4,90.5 1341.4,106.2 			"/>
			<polygon class="st14" points="1382.9,221.5 1341.4,106.2 1463.4,90.5 			"/>
			<polygon class="st19" points="1430.2,-157 1348.9,4.9 1525.6,-84.7 			"/>
			<polygon class="st13" points="1463.4,90.5 1525.6,-84.7 1348.9,4.9 			"/>
			<polygon class="st7" points="1463.4,90.5 1582.1,62.7 1525.6,-84.7 			"/>
			<polygon class="st18" points="1382.9,221.5 1540.1,281.9 1463.4,90.5 			"/>
			<polygon class="st3" points="1582.1,62.7 1679.4,-108.9 1525.6,-84.7 			"/>
			<polygon class="st9" points="809.3,192.1 706.7,169.1 790.3,134.2 			"/>
			<polygon class="st2" points="737.9,99.2 706.7,169.1 790.3,134.2 			"/>
			<polygon class="st17" points="683.5,70 737.9,99.2 706.7,169.1 			"/>
			<polygon class="st20" points="809.3,192.1 701.5,290.1 706.7,169.1 			"/>
			<polygon class="st21" points="947.1,254.9 843.8,357.3 809.3,192.1 			"/>
			<polygon class="st6" points="701.5,290.1 843.8,357.3 809.3,192.1 			"/>
			<polygon class="st5" points="1107.3,281.9 1023.5,362 947.1,254.9 			"/>
			<polygon class="st22" points="843.8,357.3 1023.5,362 947.1,254.9 			"/>
			<polygon class="st11" points="706.7,169.1 622.9,163.9 683.5,70 			"/>
			<polygon class="st10" points="701.5,290.1 622.9,163.9 706.7,169.1 			"/>
			<polygon class="st23" points="704.5,25.8 670,15.2 701.5,-7.1 			"/>
			<polygon class="st15" points="670,15.2 640.2,-34.3 701.5,-7.1 			"/>
			<polygon class="st10" points="683.5,70 670,15.2 704.5,25.8 			"/>
			<polygon class="st15" points="683.5,70 618,60.3 670,15.2 			"/>
			<polygon class="st3" points="640.2,-34.3 670,15.2 566.2,9.4 			"/>
			<polygon class="st2" points="618,60.3 566.2,9.4 670,15.2 			"/>
			<polygon class="st10" points="566.2,9.4 586.2,-66 640.2,-34.3 			"/>
			<polygon class="st24" points="683.5,70 622.9,163.9 618,60.3 			"/>
			<polygon class="st23" points="618,60.3 524.3,134.1 622.9,163.9 			"/>
			<polygon class="st7" points="701.5,290.1 549.2,290.1 622.9,163.9 			"/>
			<polygon class="st11" points="524.3,134.1 549.2,290.1 622.9,163.9 			"/>
			<polygon class="st17" points="618,60.3 524.3,134.1 566.2,9.4 			"/>
			<polygon class="st21" points="586.2,-66 566.2,9.4 554.2,-95 			"/>
			<polygon class="st21" points="566.2,9.4 445.4,42.6 524.3,134.1 			"/>
			<polygon class="st25" points="554.2,-95 566.2,9.4 445.4,42.6 			"/>
			<polygon class="st26" points="505.8,-157 445.4,42.6 554.2,-95 			"/>
			<polygon class="st22" points="524.3,134.1 340.6,242.2 549.2,290.1 			"/>
			<polygon class="st11" points="445.4,42.6 524.3,134.1 340.6,242.2 			"/>
			<polygon class="st2" points="445.4,42.6 303.1,-78 505.8,-157 			"/>
			<polygon class="st2" points="1023.5,362 983.5,627.1 843.8,357.3 			"/>
			<polygon class="st26" points="603.2,581.8 843.8,357.3 701.5,290.1 			"/>
			<polygon class="st24" points="603.2,581.8 983.5,627.1 843.8,357.3 			"/>
			<polygon class="st7" points="1169.7,451.1 1217.1,281.9 1107.3,281.9 			"/>
			<polygon class="st6" points="1382.9,221.5 1422.1,469 1217.1,281.9 			"/>
			<polygon class="st7" points="1540.1,281.9 1382.9,221.5 1422.1,469 			"/>
			<polygon class="st23" points="1023.5,362 1169.7,451.1 1107.3,281.9 			"/>
			<polygon class="st11" points="983.5,627.1 1169.7,451.1 1023.5,362 			"/>
			<polygon class="st27" points="1169.7,451.1 1422.1,469 1217.1,281.9 			"/>
			<polygon class="st7" points="1540.1,281.9 1582.1,62.7 1463.4,90.5 			"/>
			<polygon class="st25" points="603.2,581.8 549.2,290.1 701.5,290.1 			"/>
			<polygon class="st2" points="983.5,627.1 1422.1,469 1169.7,451.1 			"/>
			<polygon class="st5" points="603.2,581.8 340.6,242.2 549.2,290.1 			"/>
			<polygon class="st26" points="603.2,581.8 296.9,582.1 340.6,242.2 			"/>
			<polygon class="st28" points="983.5,627.1 661.7,872.4 603.2,581.8 			"/>
			<polygon class="st13" points="661.7,872.4 296.9,582.1 603.2,581.8 			"/>
			<polygon class="st29" points="1422.1,469 1342.9,771.5 983.5,627.1 			"/>
			<polygon class="st8" points="661.7,872.4 1342.9,771.5 983.5,627.1 			"/>
			<polygon class="st18" points="1342.9,771.5 1607.5,716.4 1422.1,469 			"/>
			<polygon class="st6" points="1607.5,716.4 1422.1,469 1540.1,281.9 			"/>
			<polygon class="st29" points="1540.1,281.9 1841.7,254.9 1582.1,62.7 			"/>
			<polygon class="st5" points="1540.1,281.9 1607.5,716.4 1841.7,254.9 			"/>
			<polygon class="st3" points="-22,793.5 -48.8,769 17.8,756.2 			"/>
			<polygon class="st30" points="-23.1,734.3 17.8,756.2 -48.8,769 			"/>
			<polygon class="st5" points="25.3,838.2 -31.2,844.9 -12,877.2 			"/>
			<polygon class="st31" points="-12,877.2 49.6,933.9 -20,923.4 			"/>
			<polygon class="st21" points="-12,877.2 25.3,838.2 49.6,933.9 			"/>
			<polygon class="st32" points="-22,793.5 17.2,803.7 -33.2,826.2 			"/>
			<polygon class="st10" points="17.8,756.2 17.2,803.7 -22,793.5 			"/>
			<polygon class="st33" points="-112.8,611.8 10.5,555.9 -42.8,674 			"/>
			<polygon class="st21" points="17.2,803.7 17.8,756.2 42.1,815.8 			"/>
			<polygon class="st28" points="1342.9,771.5 1607.5,716.4 1560.6,1142.9 			"/>
			<polygon class="st29" points="661.7,872.4 942,1378.5 1342.9,771.5 			"/>
			<polygon class="st8" points="1560.6,1142.9 942,1378.5 1342.9,771.5 			"/>
			<polygon class="st6" points="-23.1,734.3 19.6,672.8 -42.8,674 			"/>
			<polygon class="st17" points="17.8,756.2 19.6,672.8 -23.1,734.3 			"/>
			<polygon class="st31" points="42.1,815.8 83.5,751.4 17.8,756.2 			"/>
			<polygon class="st16" points="19.6,672.8 83.5,751.4 17.8,756.2 			"/>
			<polygon class="st17" points="-42.8,674 19.6,672.8 10.5,555.9 			"/>
			<polygon class="st17" points="83.5,751.4 130.5,614.5 19.6,672.8 			"/>
			<polygon class="st26" points="10.5,555.9 130.5,614.5 19.6,672.8 			"/>
			<polygon class="st26" points="83.5,751.4 208.8,759.7 130.5,614.5 			"/>
			<polygon class="st34" points="11.4,555.9 38,337.7 130.5,614.5 			"/>
			<polygon class="st24" points="38,337.7 166.9,433.1 130.5,614.5 			"/>
			<polygon class="st12" points="130.5,614.5 296.9,582.1 166.9,433.1 			"/>
			<polygon class="st11" points="208.8,759.7 296.9,582.1 130.5,614.5 			"/>
			<polygon class="st11" points="10.5,557 -89.9,499.3 -113.8,610.8 			"/>
			<polygon class="st35" points="38,337.7 -90.8,500 11.4,555.9 			"/>
			<polygon class="st34" points="-89.8,500.3 -164.7,227.7 39,338 			"/>
			<polygon class="st11" points="208.8,759.7 178.9,954 430.3,905.6 			"/>
			<polygon class="st14" points="661.7,872.4 430.3,905.6 296.9,582.1 			"/>
			<polygon class="st16" points="208.8,759.7 430.3,905.6 296.9,582.1 			"/>
			<polygon class="st3" points="296.9,582.1 166.9,433.1 340.6,242.2 			"/>
			<polygon class="st10" points="38,337.7 340.6,242.2 166.9,433.1 			"/>
			<polygon class="st26" points="340.6,242.2 156.5,172.3 445.4,42.6 			"/>
			<polygon class="st26" points="156.5,172.3 303.1,-78 445.4,42.6 			"/>
			<polygon class="st5" points="156.5,172.3 -96.7,-18.1 303.1,-78 			"/>
			<polygon class="st26" points="38,337.7 156.5,172.3 340.6,242.2 			"/>
			<polygon class="st21" points="-165.7,227.3 -96.7,-18.1 38,337.7 			"/>
			<polygon class="st22" points="156.5,172.3 38,337.7 -96.7,-18.1 			"/>
			<polygon class="st12" points="430.3,905.6 385.4,1109.1 178.9,954 			"/>
			<polygon class="st25" points="130.5,1056.5 385.4,1109.1 178.9,954 			"/>
			<polygon class="st36" points="227.6,1345.6 385.4,1109.1 130.5,1056.5 			"/>
			<polygon class="st25" points="49.6,933.9 101.9,870.4 25.3,838.2 			"/>
			<polygon class="st37" points="88.2,960.6 101.9,870.4 49.6,933.9 			"/>
			<polygon class="st38" points="51.4,988.6 -42.8,1015.8 -28.6,959.9 			"/>
			<polygon class="st17" points="31.9,1110.2 51.4,988.6 -42.8,1015.8 			"/>
			<polygon class="st21" points="-90.8,1070.1 -42.8,1015.8 31.9,1110.2 			"/>
			<polygon class="st12" points="49.6,1159.4 130.5,1056.5 31.9,1110.2 			"/>
			<polygon class="st12" points="51.4,988.6 130.5,1056.5 88.2,960.6 			"/>
			<polygon class="st25" points="31.9,1110.2 130.5,1056.5 51.4,988.6 			"/>
			<polygon class="st11" points="88.2,960.6 178.9,954 130.5,1056.5 			"/>
			<polygon class="st25" points="101.9,870.4 178.9,954 88.2,960.6 			"/>
			<polygon class="st31" points="178.9,954 208.8,759.7 101.9,870.4 			"/>
			<polygon class="st36" points="25.3,838.2 42.1,815.8 101.9,870.4 			"/>
			<polygon class="st35" points="83.5,751.4 101.9,870.4 42.1,815.8 			"/>
			<polygon class="st21" points="208.8,759.7 101.9,870.4 83.5,751.4 			"/>
			<polygon class="st21" points="227.6,1345.6 49.6,1159.4 130.5,1056.5 			"/>
			<polygon class="st29" points="661.7,872.4 385.4,1109.1 430.3,905.6 			"/>
			<polygon class="st6" points="942,1378.5 385.4,1109.1 661.7,872.4 			"/>
			<polygon class="st11" points="1607.5,716.4 2122.8,946.6 1560.6,1142.9 			"/>
			<polygon class="st13" points="1261.1,1980.9 1560.6,1142.9 2122.8,946.6 1997,1942.3 			"/>
			<polygon class="st28" points="1607.5,716.4 1841.7,254.9 2122.8,946.6 			"/>
			<polygon class="st6" points="2123.1,946 1841.7,254.9 1979.4,-84.8 			"/>
			<polygon class="st28" points="1582.1,62.7 1979.1,-84.7 1679.4,-108.9 			"/>
			<polygon class="st5" points="1582.1,62.7 1979.1,-84.7 1841.7,254.9 			"/>
		</g>
		<g class="st1">
			<path class="st39" d="M-90.8,1070.1c0.8,2.9,88.5,87.4,88.5,87.4l34.3-47.4L-90.8,1070.1z"/>
			<polygon class="st11" points="-28.6,959.9 51.4,988.6 49.6,933.9 			"/>
			<polygon class="st36" points="-31.2,844.9 25.3,838.2 17.2,803.7 			"/>
			<polygon class="st21" points="17.2,803.7 -33.2,826.2 -31.2,844.9 			"/>
			<polygon class="st35" points="17.2,803.7 42.1,815.8 25.3,838.2 			"/>
			<polygon class="st25" points="-28.6,959.9 -20,923.4 49.6,933.9 			"/>
			<polygon class="st31" points="51.4,988.6 88.2,960.6 49.6,933.9 			"/>
		</g>
		<polygon class="st21" points="849.5,33.5 863.7,149.6 790.3,134.2 		"/>
		<polygon class="st13" points="1085.4,135.6 1007.1,147.6 1036.2,10.4 		"/>
		<polygon class="st4" points="1348.9,4.9 1247.1,91.7 1189.2,-108.9 		"/>
		<polygon class="st11" points="1085.4,135.6 1036.2,10.4 1072.4,10.9 		"/>
		<polygon class="st6" points="790.3,134.2 849.5,33.5 798.8,62.7 		"/>
		<polygon class="st7" points="1247.1,91.7 1152.5,-34.3 1189.2,-108.9 		"/>
		<polygon class="st12" points="1085.4,135.6 1046.9,192.1 1007.1,147.6 		"/>
		<polygon class="st16" points="1247.1,91.7 1341.4,106.2 1348.9,4.9 		"/>
		<polygon class="st9" points="863.7,149.6 809.3,192.1 790.3,134.2 		"/>
		<g class="st1">
			<polygon class="st10" points="701.5,-7.1 704.5,25.8 732.8,-2.2 			"/>
			<polygon class="st15" points="704.5,25.8 730.7,32.6 732.8,-2.2 			"/>
			<polygon class="st17" points="788.3,10.9 732.8,-2.2 730.7,32.6 			"/>
			<polygon class="st2" points="770.9,-18.1 732.8,-2.2 788.3,10.9 			"/>
			<polygon class="st6" points="826.8,-38.1 770.9,-18.1 788.3,10.9 			"/>
			<polygon class="st21" points="826.8,-38.1 788.3,10.9 865.7,-10.1 			"/>
		</g>
	</g>
</g>
<g>
	<defs>
		<rect id="SVGID_3_" width="1920" height="1080"/>
	</defs>
	<clipPath id="SVGID_4_">
		<use xlink:href="#SVGID_3_"  style="overflow:visible;"/>
	</clipPath>
	<g class="st40">
		<polygon class="st41" points="978.5,-49 1036.2,10.4 865.7,-10.1 		"/>
		<polygon class="st41" points="1007.1,147.6 930.2,62.7 1036.2,10.4 		"/>
		<polygon class="st41" points="930.2,62.7 849.5,33.5 865.7,-10.1 		"/>
		<line class="st41" x1="863.7" y1="149.6" x2="849.5" y2="33.5"/>
		<polyline class="st41" points="1007.1,147.6 863.7,149.6 930.2,62.7 		"/>
		<polyline class="st41" points="865.7,-10.1 788.3,10.9 849.5,33.5 		"/>
		<line class="st41" x1="849.5" y1="33.5" x2="798.8" y2="62.7"/>
		<polygon class="st41" points="798.8,62.7 730.7,32.6 788.3,10.9 		"/>
		<polygon class="st41" points="790.3,134.2 798.8,62.7 737.9,99.2 		"/>
		<polygon class="st41" points="730.7,32.6 683.5,70 704.5,25.8 		"/>
		<line class="st41" x1="730.7" y1="32.6" x2="737.9" y2="99.2"/>
		<polygon class="st41" points="1247.1,91.7 1152.5,-34.3 1085.4,135.6 		"/>
		<polyline class="st41" points="978.5,-49 1084.4,-94 1036.2,10.4 		"/>
		<polyline class="st41" points="1036.2,10.4 1072.4,10.9 1084.4,-94 		"/>
		<line class="st41" x1="1085.4" y1="135.6" x2="1072.4" y2="10.9"/>
		<polyline class="st41" points="1072.4,10.9 1152.5,-34.3 1084.4,-94 		"/>
		<polygon class="st41" points="1247.1,91.7 1270.6,193.6 1341.4,106.2 		"/>
		<polygon class="st41" points="1085.4,135.6 1142.3,202.5 1046.9,192.1 		"/>
		<line class="st41" x1="1142.3" y1="202.5" x2="1247.1" y2="91.7"/>
		<line class="st41" x1="1270.6" y1="193.6" x2="1142.3" y2="202.5"/>
		<polygon class="st41" points="1046.9,192.1 947.1,254.9 1007.1,147.6 		"/>
		<line class="st41" x1="863.7" y1="149.6" x2="947.1" y2="254.9"/>
		<line class="st41" x1="863.7" y1="149.6" x2="809.3" y2="192.1"/>
		<polygon class="st41" points="947.1,254.9 1107.3,281.9 1046.9,192.1 		"/>
		<polygon class="st41" points="1142.3,202.5 1107.3,281.9 1217.1,281.9 		"/>
		<polygon class="st41" points="1217.1,281.9 1382.9,221.5 1270.6,193.6 		"/>
		<line class="st41" x1="1189.2" y1="-108.9" x2="1348.9" y2="4.9"/>
		<polygon class="st41" points="1430.2,-157 1348.9,4.9 1304.8,-183.8 		"/>
		<polygon class="st41" points="1348.9,4.9 1463.4,90.5 1341.4,106.2 		"/>
		<polyline class="st41" points="1463.4,90.5 1382.9,221.5 1341.4,106.2 		"/>
		<line class="st41" x1="1525.6" y1="-84.7" x2="1348.9" y2="4.9"/>
		<polygon class="st41" points="1463.4,90.5 1582.1,62.7 1525.6,-84.7 		"/>
		<polyline class="st41" points="1382.9,221.5 1540.1,281.9 1463.4,90.5 		"/>
		<line class="st41" x1="1582.1" y1="62.7" x2="1679.4" y2="-108.9"/>
		<polygon class="st41" points="809.3,192.1 706.7,169.1 790.3,134.2 		"/>
		<polygon class="st41" points="683.5,70 737.9,99.2 706.7,169.1 		"/>
		<polyline class="st41" points="809.3,192.1 701.5,290.1 706.7,169.1 		"/>
		<polygon class="st41" points="947.1,254.9 843.8,357.3 809.3,192.1 		"/>
		<polygon class="st41" points="1107.3,281.9 1023.5,362 947.1,254.9 		"/>
		<line class="st41" x1="706.7" y1="169.1" x2="622.9" y2="163.9"/>
		<polygon class="st41" points="704.5,25.8 670,15.2 701.5,-7.1 		"/>
		<line class="st41" x1="670" y1="15.2" x2="640.2" y2="-34.3"/>
		<line class="st41" x1="683.5" y1="70" x2="670" y2="15.2"/>
		<polyline class="st41" points="683.5,70 618,60.3 670,15.2 		"/>
		<line class="st41" x1="670" y1="15.2" x2="566.2" y2="9.4"/>
		<polygon class="st41" points="566.2,9.4 586.2,-66 640.2,-34.3 		"/>
		<polyline class="st41" points="683.5,70 622.9,163.9 618,60.3 		"/>
		<line class="st41" x1="524.3" y1="134.1" x2="622.9" y2="163.9"/>
		<polygon class="st41" points="701.5,290.1 549.2,290.1 622.9,163.9 		"/>
		<polygon class="st41" points="618,60.3 524.3,134.1 566.2,9.4 		"/>
		<polyline class="st41" points="566.2,9.4 554.2,-95 586.2,-66 		"/>
		<polygon class="st41" points="566.2,9.4 445.4,42.6 524.3,134.1 		"/>
		<polygon class="st41" points="505.8,-157 445.4,42.6 554.2,-95 		"/>
		<polygon class="st41" points="524.3,134.1 340.6,242.2 549.2,290.1 		"/>
		<line class="st41" x1="340.6" y1="242.2" x2="445.4" y2="42.6"/>
		<polygon class="st41" points="1023.5,362 983.5,627.1 843.8,357.3 		"/>
		<polygon class="st41" points="603.2,581.8 843.8,357.3 701.5,290.1 		"/>
		<line class="st41" x1="1169.7" y1="451.1" x2="1217.1" y2="281.9"/>
		<line class="st41" x1="1422.1" y1="469" x2="1217.1" y2="281.9"/>
		<line class="st41" x1="1382.9" y1="221.5" x2="1422.1" y2="469"/>
		<polyline class="st41" points="1023.5,362 1169.7,451.1 1107.3,281.9 		"/>
		<line class="st41" x1="983.5" y1="627.1" x2="1169.7" y2="451.1"/>
		<line class="st41" x1="1169.7" y1="451.1" x2="1422.1" y2="469"/>
		<line class="st41" x1="983.5" y1="627.1" x2="1422.1" y2="469"/>
		<line class="st41" x1="549.2" y1="290.1" x2="603.2" y2="581.8"/>
		<polygon class="st41" points="603.2,581.8 296.9,582.1 340.6,242.2 		"/>
		<polygon class="st41" points="983.5,627.1 661.7,872.4 603.2,581.8 		"/>
		<line class="st41" x1="1422.1" y1="469" x2="1342.9" y2="771.5"/>
		<polyline class="st41" points="661.7,872.4 1342.9,771.5 983.5,627.1 		"/>
		<polygon class="st41" points="1607.5,716.4 1422.1,469 1540.1,281.9 		"/>
		<polygon class="st41" points="1540.1,281.9 1841.7,254.9 1582.1,62.7 		"/>
		<polygon class="st41" points="-22,793.5 -48.8,769 17.8,756.2 		"/>
		<line class="st41" x1="25.3" y1="838.2" x2="-31.2" y2="844.9"/>
		<polygon class="st41" points="-12,877.2 49.6,933.9 -20,923.4 		"/>
		<polyline class="st41" points="-12,877.2 25.3,838.2 49.6,933.9 		"/>
		<polygon class="st41" points="-22,793.5 17.2,803.7 -33.2,826.2 		"/>
		<line class="st41" x1="17.8" y1="756.2" x2="17.2" y2="803.7"/>
		<line class="st41" x1="42.1" y1="815.8" x2="17.2" y2="803.7"/>
		<polygon class="st41" points="1342.9,771.5 1607.5,716.4 1560.6,1142.9 		"/>
		<line class="st41" x1="661.7" y1="872.4" x2="942" y2="1378.5"/>
		<polygon class="st41" points="-23.1,734.3 19.6,672.8 -42.8,674 		"/>
		<line class="st41" x1="-23.1" y1="734.3" x2="17.8" y2="756.2"/>
		<polygon class="st41" points="42.1,815.8 83.5,751.4 17.8,756.2 		"/>
		<polygon class="st41" points="19.6,672.8 83.5,751.4 17.8,756.2 		"/>
		<polyline class="st41" points="19.6,672.8 10.5,555.9 -42.8,674 		"/>
		<line class="st41" x1="130.5" y1="614.5" x2="19.6" y2="672.8"/>
		<polygon class="st41" points="83.5,751.4 208.8,759.7 130.5,614.5 		"/>
		<polygon class="st41" points="11.4,555.9 38,337.7 130.5,614.5 		"/>
		<line class="st41" x1="166.9" y1="433.1" x2="130.5" y2="614.5"/>
		<line class="st41" x1="296.9" y1="582.1" x2="166.9" y2="433.1"/>
		<polyline class="st41" points="208.8,759.7 296.9,582.1 130.5,614.5 		"/>
		<polygon class="st41" points="10.5,557 -89.9,499.3 -113.8,610.8 		"/>
		<polygon class="st41" points="-90.8,500 -165.7,227.3 38,337.7 		"/>
		<polygon class="st41" points="208.8,759.7 178.9,954 430.3,905.6 		"/>
		<polygon class="st41" points="661.7,872.4 430.3,905.6 296.9,582.1 		"/>
		<polygon class="st41" points="38,337.7 340.6,242.2 166.9,433.1 		"/>
		<line class="st41" x1="341.1" y1="240.8" x2="155.9" y2="173.7"/>
		<polygon class="st41" points="156.5,172.3 303.1,-78 445.4,42.6 		"/>
		<polygon class="st41" points="156.5,172.3 36.4,337.7 -96.7,-18.1 		"/>
		<polygon class="st41" points="430.3,905.6 385.4,1109.1 178.9,954 		"/>
		<polygon class="st41" points="130.5,1056.5 385.4,1109.1 178.9,954 		"/>
		<line class="st41" x1="130.5" y1="1056.5" x2="227.6" y2="1345.6"/>
		<line class="st41" x1="49.6" y1="933.9" x2="101.9" y2="870.4"/>
		<polyline class="st41" points="49.6,933.9 88.2,960.6 101.9,870.4 		"/>
		<polygon class="st41" points="51.4,988.6 -42.8,1015.8 -28.6,959.9 		"/>
		<polygon class="st41" points="31.9,1110.2 51.4,988.6 -42.8,1015.8 		"/>
		<polyline class="st41" points="31.9,1110.2 -90.8,1070.1 -42.8,1015.8 		"/>
		<polygon class="st41" points="49.6,1159.4 130.5,1056.5 31.9,1110.2 		"/>
		<polygon class="st41" points="51.4,988.6 130.5,1056.5 88.2,960.6 		"/>
		<polygon class="st41" points="88.2,960.6 178.9,954 130.5,1056.5 		"/>
		<polyline class="st41" points="208.8,759.7 101.9,870.4 178.9,954 		"/>
		<polygon class="st41" points="25.3,838.2 42.1,815.8 101.9,870.4 		"/>
		<line class="st41" x1="83.5" y1="751.4" x2="101.9" y2="870.4"/>
		<line class="st41" x1="661.7" y1="872.4" x2="385.4" y2="1109.1"/>
		<polygon class="st41" points="1607.5,716.4 2122.8,946.6 1560.6,1142.9 		"/>
		<polyline class="st41" points="2122.8,946.6 1997,1942.3 1261.1,1980.9 1560.6,1142.9 		"/>
		<polyline class="st41" points="1607.5,716.4 1841.7,254.9 2122.8,946.6 		"/>
		<line class="st41" x1="1582.1" y1="62.7" x2="1979.1" y2="-84.7"/>
		<line class="st41" x1="1979.1" y1="-84.7" x2="1841.7" y2="254.9"/>
	</g>
</g>
</svg>
