<?xml version="1.0" encoding="utf-8"?>
<!-- Generator: Adobe Illustrator 22.1.0, SVG Export Plug-In . SVG Version: 6.00 Build 0)  -->
<svg version="1.1" id="Layer_1" xmlns="http://www.w3.org/2000/svg" xmlns:xlink="http://www.w3.org/1999/xlink" x="0px" y="0px"
	 viewBox="0 0 1920 1080" style="enable-background:new 0 0 1920 1080;" xml:space="preserve">
<style type="text/css">
	.st0{clip-path:url(#SVGID_2_);}
	.st1{fill:none;stroke:#9D4701;stroke-width:0.6;stroke-linecap:round;stroke-linejoin:round;stroke-dasharray:20,10;}
	.st2{clip-path:url(#SVGID_4_);}
	.st3{opacity:0.1;fill:#9A7135;enable-background:new    ;}
	.st4{opacity:5.000000e-02;fill:#9A7135;enable-background:new    ;}
	.st5{opacity:0.1;fill:#966825;enable-background:new    ;}
	.st6{opacity:5.000000e-02;fill:#966825;enable-background:new    ;}
	.st7{opacity:0.2;fill:#9B7238;enable-background:new    ;}
	.st8{opacity:0.1;fill:#9B7238;enable-background:new    ;}
	.st9{opacity:5.000000e-02;fill:#9B7238;enable-background:new    ;}
	.st10{opacity:0.2;fill:#9A6E31;enable-background:new    ;}
	.st11{opacity:0.1;fill:#976A29;enable-background:new    ;}
	.st12{opacity:5.000000e-02;fill:#976A29;enable-background:new    ;}
	.st13{opacity:0.2;fill:#976A29;enable-background:new    ;}
	.st14{opacity:0.2;fill:#95651F;enable-background:new    ;}
	.st15{opacity:5.000000e-02;fill:#9C713D;enable-background:new    ;}
	.st16{opacity:5.000000e-02;fill:#9B7439;enable-background:new    ;}
	.st17{opacity:0.1;fill:#9B7439;enable-background:new    ;}
	.st18{opacity:0.1;fill:#95661F;enable-background:new    ;}
	.st19{opacity:0.2;fill:#9C733E;enable-background:new    ;}
	.st20{opacity:0.2;fill:#996D2F;enable-background:new    ;}
	.st21{opacity:0.1;fill:#996D2F;enable-background:new    ;}
	.st22{opacity:5.000000e-02;fill:#996D2F;enable-background:new    ;}
	.st23{opacity:0.2;fill:#9A7034;enable-background:new    ;}
	.st24{opacity:0.3;fill:#9B7439;enable-background:new    ;}
	.st25{opacity:0.2;fill:#9D7540;enable-background:new    ;}
	.st26{opacity:0.1;fill:#9D7540;enable-background:new    ;}
	.st27{opacity:0.2;fill:#996A2D;enable-background:new    ;}
	.st28{opacity:0.1;fill:#976826;enable-background:new    ;}
	.st29{opacity:5.000000e-02;fill:#976826;enable-background:new    ;}
	.st30{opacity:0.1;fill:#9B733B;enable-background:new    ;}
	.st31{opacity:5.000000e-02;fill:#9B733B;enable-background:new    ;}
	.st32{opacity:0.25;fill:#996E30;enable-background:new    ;}
	.st33{opacity:0.3;fill:#956621;enable-background:new    ;}
	.st34{opacity:0.3;fill:#9B7238;enable-background:new    ;}
	.st35{opacity:0.2;fill:#976B2A;enable-background:new    ;}
	.st36{opacity:0.5;fill:#95661E;enable-background:new    ;}
	.st37{opacity:0.3;fill:#9A7034;enable-background:new    ;}
	.st38{opacity:0.3;fill:#9B733B;enable-background:new    ;}
	.st39{opacity:0.3;fill:#966723;enable-background:new    ;}
	.st40{opacity:0.5;fill:#99692B;enable-background:new    ;}
	.st41{opacity:0.5;fill:#9E7446;enable-background:new    ;}
	.st42{opacity:0.2;fill:#94641D;enable-background:new    ;}
	.st43{opacity:0.1;fill:#94641D;enable-background:new    ;}
	.st44{opacity:5.000000e-02;fill:#94641D;enable-background:new    ;}
	.st45{opacity:0.5;fill:#9B7238;enable-background:new    ;}
	.st46{opacity:0.2;fill:#996E30;enable-background:new    ;}
	.st47{opacity:0.1;fill:#996E30;enable-background:new    ;}
	.st48{opacity:5.000000e-02;fill:#996E30;enable-background:new    ;}
	.st49{opacity:0.5;fill:#9A7038;enable-background:new    ;}
	.st50{opacity:0.4;fill:#9C733E;enable-background:new    ;}
	.st51{opacity:0.8;fill:#9D7743;enable-background:new    ;}
	.st52{opacity:0.7;fill:#9C713D;enable-background:new    ;}
	.st53{opacity:0.7;fill:#9B7439;enable-background:new    ;}
	.st54{opacity:0.7;fill:#9B733B;enable-background:new    ;}
	.st55{opacity:0.3;fill:#9D7743;enable-background:new    ;}
	.st56{opacity:0.7;fill:#996E30;enable-background:new    ;}
	.st57{opacity:0.9;fill:#9E7947;enable-background:new    ;}
	.st58{opacity:0.9;fill:#9D7743;enable-background:new    ;}
	.st59{fill:#9C713D;}
	.st60{opacity:0.15;fill:#936116;enable-background:new    ;}
	.st61{opacity:0.15;fill:#95651F;enable-background:new    ;}
	.st62{opacity:0.2;fill:#966825;enable-background:new    ;}
	.st63{opacity:0.2;fill:#99692B;enable-background:new    ;}
	.st64{opacity:0.3;fill:#99692B;enable-background:new    ;}
	.st65{opacity:0.4;fill:#9A6E31;enable-background:new    ;}
	.st66{opacity:0.3;fill:#95651F;enable-background:new    ;}
	.st67{opacity:0.15;fill:#996A2D;enable-background:new    ;}
	.st68{opacity:0.1;fill:#996A2D;enable-background:new    ;}
	.st69{opacity:5.000000e-02;fill:#996A2D;enable-background:new    ;}
	.st70{opacity:2.000000e-02;fill:#996A2D;enable-background:new    ;}
	.st71{opacity:0.3;fill:#966825;enable-background:new    ;}
	.st72{opacity:0.3;fill:#94641D;enable-background:new    ;}
	.st73{opacity:0.1;fill:#925F11;enable-background:new    ;}
	.st74{opacity:0.2;fill:#946319;enable-background:new    ;}
	.st75{opacity:0.1;fill:#99692B;enable-background:new    ;}
	.st76{opacity:0.2;fill:#936116;enable-background:new    ;}
	.st77{opacity:5.000000e-02;fill:#925F11;enable-background:new    ;}
	.st78{opacity:0.2;fill:#94631C;enable-background:new    ;}
	.st79{opacity:0.2;fill:#976826;enable-background:new    ;}
	.st80{opacity:0.5;fill:#9D7743;enable-background:new    ;}
	.st81{fill:#99692B;}
	.st82{fill:#9C733E;}
	.st83{opacity:0.9;fill:#9E7743;enable-background:new    ;}
	.st84{opacity:0.2;fill:#9C743E;enable-background:new    ;}
	.st85{opacity:0.1;fill:#9C743E;enable-background:new    ;}
	.st86{opacity:5.000000e-02;fill:#9C743E;enable-background:new    ;}
	.st87{opacity:0.2;fill:#9A7135;enable-background:new    ;}
	.st88{opacity:0.6;fill:#9E7947;enable-background:new    ;}
</style>
<title>Artboard 1</title>
<g>
	<g>
		<defs>
			<rect id="SVGID_1_" width="1920" height="1080"/>
		</defs>
		<clipPath id="SVGID_2_">
			<use xlink:href="#SVGID_1_"  style="overflow:visible;"/>
		</clipPath>
		<g class="st0">
			<polygon class="st1" points="681.3,817.1 639.6,774.1 763,788.9 			"/>
			<polygon class="st1" points="660.7,674.8 716.3,736.2 639.6,774.1 			"/>
			<polygon class="st1" points="716.3,736.2 774.8,757.3 763,788.9 			"/>
			<line class="st1" x1="764.4" y1="673.3" x2="774.8" y2="757.3"/>
			<polyline class="st1" points="660.7,674.8 764.4,673.3 716.3,736.2 			"/>
			<polyline class="st1" points="763,788.9 819,773.8 774.8,757.3 			"/>
			<line class="st1" x1="774.8" y1="757.3" x2="811.4" y2="736.2"/>
			<polygon class="st1" points="811.4,736.2 860.7,758 819,773.8 			"/>
			<polygon class="st1" points="817.6,684.5 811.4,736.2 855.5,709.8 			"/>
			<polygon class="st1" points="860.7,758 894.8,730.9 879.7,762.9 			"/>
			<line class="st1" x1="860.7" y1="758" x2="855.5" y2="709.8"/>
			<polygon class="st1" points="487,715.2 555.5,806.5 604,683.4 			"/>
			<polyline class="st1" points="681.3,817.1 604.8,849.6 639.6,774.1 			"/>
			<polyline class="st1" points="639.6,774.1 613.4,773.8 604.8,849.6 			"/>
			<line class="st1" x1="604" y1="683.4" x2="613.4" y2="773.8"/>
			<polyline class="st1" points="613.4,773.8 555.5,806.5 604.8,849.6 			"/>
			<line class="st1" x1="555.5" y1="806.5" x2="528.9" y2="860.5"/>
			<polygon class="st1" points="487,715.2 470,641.5 418.7,704.8 			"/>
			<polygon class="st1" points="604,683.4 562.8,635 631.8,642.6 			"/>
			<line class="st1" x1="562.8" y1="635" x2="487" y2="715.2"/>
			<line class="st1" x1="470" y1="641.5" x2="562.8" y2="635"/>
			<polygon class="st1" points="631.8,642.6 704.1,597.1 660.7,674.8 			"/>
			<line class="st1" x1="764.4" y1="673.3" x2="704.1" y2="597.1"/>
			<line class="st1" x1="764.4" y1="673.3" x2="803.8" y2="642.6"/>
			<polygon class="st1" points="704.1,597.1 588.1,577.6 631.8,642.6 			"/>
			<polygon class="st1" points="562.8,635 588.1,577.6 508.7,577.6 			"/>
			<polygon class="st1" points="508.7,577.6 388.7,621.3 470,641.5 			"/>
			<polygon class="st1" points="528.9,860.5 445.3,914.6 536.1,895.1 			"/>
			<line class="st1" x1="536.1" y1="895.1" x2="476.9" y2="983.3"/>
			<polygon class="st1" points="436.6,966 476.9,983.3 445.3,914.6 			"/>
			<polygon class="st1" points="448,1062 395.6,1100.3 426.7,1133.6 			"/>
			<polygon class="st1" points="325.1,1086.6 387.3,1034.6 395.6,1100.3 			"/>
			<polygon class="st1" points="387.3,1034.6 436.6,966 448,1062 			"/>
			<polyline class="st1" points="436.6,966 333.8,963.8 387.3,1034.6 			"/>
			<polygon class="st1" points="325.1,1086.6 259.4,1055.9 294.1,1112.6 			"/>
			<polyline class="st1" points="325.1,1086.6 333.8,963.8 259.4,1055.9 			"/>
			<polygon class="st1" points="306.4,914.6 333.8,963.8 259.4,955.5 			"/>
			<line class="st1" x1="528.9" y1="860.5" x2="413.3" y2="778.1"/>
			<polygon class="st1" points="354.5,895.2 413.3,778.1 445.3,914.6 			"/>
			<polygon class="st1" points="354.5,895.2 285.4,842.9 306.4,914.6 			"/>
			<polygon class="st1" points="413.3,778.1 330.4,716.1 418.7,704.8 			"/>
			<polyline class="st1" points="330.4,716.1 388.7,621.3 418.7,704.8 			"/>
			<line class="st1" x1="285.4" y1="842.9" x2="413.3" y2="778.1"/>
			<polygon class="st1" points="285.4,842.9 259.4,955.5 306.4,914.6 			"/>
			<polygon class="st1" points="330.4,716.1 244.6,736.2 285.4,842.9 			"/>
			<polyline class="st1" points="388.7,621.3 274.9,577.6 330.4,716.1 			"/>
			<polyline class="st1" points="285.4,842.9 174.1,860.5 259.4,955.5 			"/>
			<line class="st1" x1="244.6" y1="736.2" x2="174.1" y2="860.5"/>
			<polyline class="st1" points="259.4,1055.9 213.8,1116.1 294.1,1112.6 			"/>
			<polygon class="st1" points="803.8,642.6 878,659.2 817.6,684.5 			"/>
			<polygon class="st1" points="894.8,730.9 855.5,709.8 878,659.2 			"/>
			<polyline class="st1" points="803.8,642.6 881.8,571.6 878,659.2 			"/>
			<polygon class="st1" points="704.1,597.1 778.9,523 803.8,642.6 			"/>
			<polygon class="st1" points="588.1,577.6 648.8,519.6 704.1,597.1 			"/>
			<line class="st1" x1="878" y1="659.2" x2="938.7" y2="663"/>
			<polygon class="st1" points="879.7,762.9 904.6,770.6 881.8,786.8 			"/>
			<polygon class="st1" points="881.8,786.8 877.8,815.3 926.2,806.5 			"/>
			<line class="st1" x1="904.6" y1="770.6" x2="926.2" y2="806.5"/>
			<line class="st1" x1="894.8" y1="730.9" x2="904.6" y2="770.6"/>
			<polyline class="st1" points="894.8,730.9 942.3,738 904.6,770.6 			"/>
			<line class="st1" x1="904.6" y1="770.6" x2="979.8" y2="774.8"/>
			<polygon class="st1" points="877.8,815.3 904.6,840.9 868.5,872.7 			"/>
			<line class="st1" x1="904.6" y1="840.9" x2="901.3" y2="863"/>
			<polygon class="st1" points="901.3,863 912.5,905.7 868.5,872.7 			"/>
			<polyline class="st1" points="912.5,905.7 963.8,871.3 901.3,863 			"/>
			<line class="st1" x1="848.2" y1="947.2" x2="868.5" y2="872.7"/>
			<polygon class="st1" points="823,994.1 848.2,947.2 870.5,996.1 			"/>
			<line class="st1" x1="890.5" y1="956.5" x2="870.5" y2="996.1"/>
			<polygon class="st1" points="912.5,905.7 890.5,956.5 848.2,947.2 			"/>
			<polygon class="st1" points="912.5,905.7 962,988.5 890.5,956.5 			"/>
			<polygon class="st1" points="963.8,871.3 1023.5,895.2 962,988.5 			"/>
			<line class="st1" x1="988.4" y1="850.3" x2="963.8" y2="871.3"/>
			<polygon class="st1" points="962,988.5 1023.5,895.2 995.6,1030.1 			"/>
			<polygon class="st1" points="926.2,806.5 965.3,829.4 904.6,840.9 			"/>
			<polygon class="st1" points="979.8,774.8 965.3,829.4 926.2,806.5 			"/>
			<polyline class="st1" points="894.8,730.9 938.7,663 942.3,738 			"/>
			<line class="st1" x1="1010.1" y1="684.5" x2="938.7" y2="663"/>
			<polygon class="st1" points="881.8,571.6 992,571.6 938.7,663 			"/>
			<polygon class="st1" points="942.3,738 1010.1,684.5 979.8,774.8 			"/>
			<polyline class="st1" points="979.8,774.8 988.4,850.3 965.3,829.4 			"/>
			<polygon class="st1" points="979.8,774.8 1067.2,750.8 1010.1,684.5 			"/>
			<polygon class="st1" points="1023.5,895.2 1067.2,750.8 988.4,850.3 			"/>
			<polygon class="st1" points="1010.1,684.5 1143,606.3 992,571.6 			"/>
			<line class="st1" x1="1143" y1="606.3" x2="1067.2" y2="750.8"/>
			<polyline class="st1" points="995.6,1030.1 1118,976.3 1023.5,895.2 			"/>
			<line class="st1" x1="1170.1" y1="838.1" x2="1023.5" y2="895.2"/>
			<polygon class="st1" points="648.8,519.6 677.7,327.8 778.9,523 			"/>
			<polygon class="st1" points="953,360.5 778.9,523 881.8,571.6 			"/>
			<line class="st1" x1="543" y1="455.1" x2="508.7" y2="577.6"/>
			<line class="st1" x1="360.4" y1="442.2" x2="508.7" y2="577.6"/>
			<line class="st1" x1="388.7" y1="621.3" x2="360.4" y2="442.2"/>
			<polyline class="st1" points="648.8,519.6 543,455.1 588.1,577.6 			"/>
			<line class="st1" x1="677.7" y1="327.8" x2="543" y2="455.1"/>
			<line class="st1" x1="543" y1="455.1" x2="360.4" y2="442.2"/>
			<line class="st1" x1="677.7" y1="327.8" x2="360.4" y2="442.2"/>
			<line class="st1" x1="992" y1="571.6" x2="953" y2="360.5"/>
			<polygon class="st1" points="953,360.5 1174.6,360.3 1143,606.3 			"/>
			<polygon class="st1" points="677.7,327.8 910.6,150.3 953,360.5 			"/>
			<line class="st1" x1="360.4" y1="442.2" x2="417.6" y2="223.3"/>
			<polyline class="st1" points="910.6,150.3 417.6,223.3 677.7,327.8 			"/>
			<polygon class="st1" points="226.2,263.1 360.4,442.2 274.9,577.6 			"/>
			<polygon class="st1" points="274.9,577.6 56.7,597.1 244.6,736.2 			"/>
			<polygon class="st1" points="1558.6,162.9 1591.9,181.8 1511.5,192.3 			"/>
			<polygon class="st1" points="1629,229.6 1591.9,181.8 1608.6,177.9 			"/>
			<polygon class="st1" points="1594.5,243.6 1549.5,216.1 1591.9,181.8 			"/>
			<polygon class="st1" points="1549.5,216.1 1509.1,212.7 1511.5,192.3 			"/>
			<line class="st1" x1="1529.1" y1="260.6" x2="1509.1" y2="212.7"/>
			<polyline class="st1" points="1594.5,243.6 1529.1,260.6 1549.5,216.1 			"/>
			<polygon class="st1" points="1511.5,192.3 1478.5,209.9 1509.1,212.7 			"/>
			<line class="st1" x1="1509.1" y1="212.7" x2="1489.3" y2="230.9"/>
			<polygon class="st1" points="1489.3,230.9 1454.6,225.7 1478.5,209.9 			"/>
			<line class="st1" x1="1454.7" y1="225.7" x2="1465.7" y2="253.3"/>
			<polygon class="st1" points="1493.7,262.3 1489.3,230.9 1465.7,253.3 			"/>
			<polygon class="st1" points="1454.6,225.7 1437.4,247 1441.9,225.8 			"/>
			<polygon class="st1" points="1697.9,192.7 1640,149.6 1629,229.6 			"/>
			<line class="st1" x1="1558.7" y1="162.9" x2="1601.9" y2="131.9"/>
			<polygon class="st1" points="1608.6,177.9 1601.9,131.9 1591.9,181.8 			"/>
			<line class="st1" x1="1608.6" y1="177.9" x2="1640" y2="149.6"/>
			<polygon class="st1" points="1697.9,192.7 1640,149.6 1648.1,113.7 			"/>
			<polygon class="st1" points="1640,149.6 1648.1,113.7 1601.9,131.9 			"/>
			<polyline class="st1" points="1601.9,131.9 1638,94.3 1648.1,113.7 			"/>
			<polygon class="st1" points="1697.9,192.7 1720.5,233.5 1742.8,188.2 			"/>
			<polygon class="st1" points="1629,229.6 1662.8,251.8 1617.9,258 			"/>
			<line class="st1" x1="1662.8" y1="251.8" x2="1697.9" y2="192.7"/>
			<polygon class="st1" points="1617.9,258 1579.5,296.1 1594.5,243.6 			"/>
			<polygon class="st1" points="1529.1,260.6 1509.2,284.8 1579.5,296.1 			"/>
			<polygon class="st1" points="1579.5,296.1 1656,289.5 1617.9,258 			"/>
			<polygon class="st1" points="1662.8,251.8 1656,289.5 1706.3,277.2 			"/>
			<polyline class="st1" points="1662.8,251.8 1720.5,233.5 1706.3,277.2 			"/>
			<polyline class="st1" points="1742.8,188.2 1787.3,260.6 1720.5,233.5 			"/>
			<line class="st1" x1="1648.1" y1="113.7" x2="1692.4" y2="68.7"/>
			<polygon class="st1" points="1661.3,33.2 1692.4,68.7 1638,94.3 			"/>
			<polygon class="st1" points="1667,-17.7 1689.6,37.1 1661.3,33.2 			"/>
			<polygon class="st1" points="1752.9,66 1692.4,68.7 1689.6,37.1 			"/>
			<polygon class="st1" points="1755,22.4 1709.8,-11 1689.6,37.1 			"/>
			<line class="st1" x1="1755" y1="22.4" x2="1740.8" y2="-51.3"/>
			<polygon class="st1" points="1780.2,47.1 1755,22.4 1811.7,7.7 			"/>
			<polyline class="st1" points="1811.7,7.7 1783.4,-24.5 1755,22.4 			"/>
			<polyline class="st1" points="1648.1,113.7 1734.5,144.2 1692.4,68.7 			"/>
			<polygon class="st1" points="1752.9,66 1805,86.1 1780.2,47.1 			"/>
			<polygon class="st1" points="1752.9,66 1734.5,144.2 1805,86.1 			"/>
			<polyline class="st1" points="1805,86.1 1808.5,45.6 1811.7,7.7 			"/>
			<line class="st1" x1="1805" y1="86.1" x2="1853.6" y2="51.5"/>
			<polygon class="st1" points="1509.2,284.8 1459.5,286.6 1493.7,262.3 			"/>
			<polygon class="st1" points="1437.4,247 1465.7,253.3 1459.5,286.6 			"/>
			<line class="st1" x1="1509.2" y1="284.8" x2="1471.2" y2="338.8"/>
			<polyline class="st1" points="1579.5,296.1 1544.1,351.4 1509.2,284.8 			"/>
			<line class="st1" x1="1471.2" y1="338.8" x2="1544.1" y2="351.4"/>
			<polyline class="st1" points="1656,289.5 1617.8,351.4 1579.5,296.1 			"/>
			<line class="st1" x1="1544.1" y1="351.4" x2="1617.8" y2="351.4"/>
			<line class="st1" x1="1420.5" y1="293.8" x2="1437.4" y2="247"/>
			<polygon class="st1" points="1471.2,338.8 1420.5,293.8 1459.5,286.6 			"/>
			<line class="st1" x1="1436.7" y1="212.1" x2="1441.9" y2="225.8"/>
			<polygon class="st1" points="1436.7,212.1 1434.7,194.6 1405.4,207.4 			"/>
			<line class="st1" x1="1436.7" y1="212.1" x2="1424.9" y2="225.1"/>
			<polygon class="st1" points="1437.4,247 1424.9,225.1 1441.9,225.8 			"/>
			<polyline class="st1" points="1437.4,247 1406.3,250.2 1424.9,225.1 			"/>
			<polygon class="st1" points="1405.4,207.4 1424.9,225.1 1376.6,234.3 			"/>
			<polygon class="st1" points="1434.7,194.6 1413.6,183.7 1431.3,159.3 			"/>
			<line class="st1" x1="1413.6" y1="183.7" x2="1412.1" y2="170.2"/>
			<polygon class="st1" points="1412.1,170.2 1398.2,146.7 1431.3,159.3 			"/>
			<line class="st1" x1="1371.2" y1="175" x2="1412.1" y2="170.2"/>
			<polygon class="st1" points="1398.2,146.7 1432.2,112.3 1431.3,159.3 			"/>
			<polygon class="st1" points="1440.7,80.7 1432.2,112.3 1410.3,86.9 			"/>
			<polyline class="st1" points="1432.2,112.3 1404,113.4 1410.3,86.9 			"/>
			<polygon class="st1" points="1398.2,146.7 1353.6,105.7 1404,113.4 			"/>
			<polyline class="st1" points="1398.2,146.7 1371.2,175 1353.6,105.7 			"/>
			<polygon class="st1" points="1405.4,207.4 1377,199.9 1413.6,183.7 			"/>
			<line class="st1" x1="1376.6" y1="234.3" x2="1377" y2="199.9"/>
			<line class="st1" x1="1359.1" y1="191.2" x2="1377" y2="199.9"/>
			<polygon class="st1" points="417.6,223.3 226.2,263.1 260.1,-45.5 			"/>
			<line class="st1" x1="910.6" y1="150.3" x2="707.8" y2="-216.1"/>
			<polygon class="st1" points="1406.3,250.2 1375.3,294.7 1420.5,293.8 			"/>
			<line class="st1" x1="1406.3" y1="250.2" x2="1376.6" y2="234.3"/>
			<polygon class="st1" points="1359.1,191.2 1329.1,237.8 1376.6,234.3 			"/>
			<polygon class="st1" points="1375.3,294.7 1329.1,237.8 1376.6,234.3 			"/>
			<polyline class="st1" points="1375.3,294.7 1381.9,379.3 1420.5,293.8 			"/>
			<line class="st1" x1="1295.1" y1="336.9" x2="1375.3" y2="294.7"/>
			<polygon class="st1" points="1329.1,237.8 1238.4,231.8 1295.1,336.9 			"/>
			<polygon class="st1" points="1381.3,379.3 1362,537.2 1295.1,336.9 			"/>
			<line class="st1" x1="1268.7" y1="468.2" x2="1295.1" y2="336.9"/>
			<line class="st1" x1="1174.6" y1="360.3" x2="1268.7" y2="468.2"/>
			<polyline class="st1" points="1238.4,231.8 1174.6,360.3 1295.1,336.9 			"/>
			<polygon class="st1" points="1381.9,378.5 1454.6,420.2 1471.9,339.6 			"/>
			<polygon class="st1" points="1455.3,419.8 1509.5,617.1 1362,537.2 			"/>
			<polygon class="st1" points="1455.3,419.8 1544.1,351.4 1586.4,442.9 			"/>
			<polygon class="st1" points="1509.5,617.1 1637.8,656.9 1586.4,442.9 			"/>
			<line class="st1" x1="1617.8" y1="351.4" x2="1697.9" y2="351.4"/>
			<polygon class="st1" points="1586.4,442.9 1617.8,351.4 1701.1,450.1 			"/>
			<line class="st1" x1="1697.9" y1="351.4" x2="1701.1" y2="450.1"/>
			<polygon class="st1" points="1238.4,231.8 1260.1,91.2 1078.1,126.2 			"/>
			<polygon class="st1" points="910.6,150.3 1078.1,126.2 1174.6,360.3 			"/>
			<polygon class="st1" points="1362,537.2 1143,606.3 1268.7,468.2 			"/>
			<line class="st1" x1="1142.7" y1="607.3" x2="1276.7" y2="655.9"/>
			<polygon class="st1" points="1276.3,656.9 1170.1,838.1 1067.2,750.8 			"/>
			<line class="st1" x1="1509.5" y1="617.1" x2="1459.5" y2="794.7"/>
			<polygon class="st1" points="1276.3,656.9 1363.2,537.2 1459.5,794.7 			"/>
			<polyline class="st1" points="1706.3,277.2 1697.9,351.4 1656,289.5 			"/>
			<polygon class="st1" points="1787.3,260.6 1706.3,277.2 1847.7,391.4 			"/>
			<line class="st1" x1="1697.9" y1="351.4" x2="1847.7" y2="391.4"/>
			<line class="st1" x1="1701.1" y1="450.1" x2="1847.7" y2="391.4"/>
			<polygon class="st1" points="1637.8,656.9 1888.6,663.5 1701.1,450.1 			"/>
			<line class="st1" x1="1825" y1="802.1" x2="1888.6" y2="663.5"/>
			<polygon class="st1" points="1078.1,126.2 1110.6,-21.1 1260.1,91.2 			"/>
			<polygon class="st1" points="1295.1,17 1110.6,-21.1 1260.1,91.2 			"/>
			<line class="st1" x1="1295.1" y1="17" x2="1224.8" y2="-192.2"/>
			<polygon class="st1" points="1440.7,80.7 1420.5,46.5 1455,38.6 			"/>
			<line class="st1" x1="1353.6" y1="105.7" x2="1315.8" y2="151.7"/>
			<polyline class="st1" points="1353.6,105.7 1325.7,86.4 1315.8,151.7 			"/>
			<polygon class="st1" points="1352.3,66.1 1420.5,46.5 1410.3,86.9 			"/>
			<polygon class="st1" points="1366.4,-21.8 1352.3,66.1 1420.5,46.5 			"/>
			<polyline class="st1" points="1366.4,-21.8 1455.3,7.2 1420.5,46.5 			"/>
			<polygon class="st1" points="1493.1,-13.5 1455.3,7.2 1455,38.6 			"/>
			<polygon class="st1" points="1353.6,-57.5 1295.1,17 1366.4,-21.8 			"/>
			<polygon class="st1" points="1352.3,66.1 1295.1,17 1325.7,86.4 			"/>
			<polygon class="st1" points="1325.7,86.4 1260.1,91.2 1295.1,17 			"/>
			<polyline class="st1" points="1238.4,231.8 1315.8,151.7 1260.1,91.2 			"/>
			<polygon class="st1" points="1371.2,175 1359.1,191.2 1315.8,151.7 			"/>
			<line class="st1" x1="1329.1" y1="237.8" x2="1315.8" y2="151.7"/>
			<polygon class="st1" points="1455.3,7.2 1476.6,-51.3 1493.1,-13.5 			"/>
			<polygon class="st1" points="1391.2,-56.1 1476.6,-51.3 1455.3,7.2 			"/>
			<polygon class="st1" points="1847.7,391.4 1947.2,320.5 1888.6,663.5 			"/>
			<polygon class="st1" points="1742.8,188.2 1780.2,158.4 1734.5,144.2 			"/>
			<polygon class="st1" points="1780.2,158.4 1867.2,166.2 1805,86.1 			"/>
			<polyline class="st1" points="1780.2,158.4 1787.3,260.6 1867.2,166.2 			"/>
			<line class="st1" x1="1787.3" y1="264" x2="1947.2" y2="320.5"/>
			<polygon class="st1" points="784.7,1055.5 848.2,1048.8 823,994.1 			"/>
			<polygon class="st1" points="948,1051.9 870.5,996.1 848.2,1048.8 			"/>
			<polygon class="st1" points="848.2,1048.8 891.6,1186.3 784.7,1116.9 			"/>
			<polyline class="st1" points="1011.5,1157.7 995.6,1030.1 948,1051.9 			"/>
			<polygon class="st1" points="948,1051.9 891.6,1186.3 1011.5,1157.7 			"/>
			<polygon class="st1" points="721.8,1116.1 784.7,1116.9 784.7,1055.5 			"/>
			<line class="st1" x1="1118" y1="976.3" x2="1011.5" y2="1157.7"/>
			<polygon class="st1" points="1118,976.3 1252.5,933.4 1170.1,838.1 			"/>
			<polyline class="st1" points="1252.5,933.4 1459.5,794.7 1170.1,838.1 			"/>
			<polygon class="st1" points="1459.5,794.7 1825,802.1 1637.8,656.9 			"/>
			<polyline class="st1" points="1252.5,933.4 1190.6,1142 1118,976.3 			"/>
			<line class="st1" x1="1562.9" y1="1018" x2="1459.5" y2="794.7"/>
			<polygon class="st1" points="1252.5,933.4 1190.6,1142 1562.9,1018 			"/>
			<polygon class="st1" points="1947.2,320.5 1888.6,663.5 2088,774.8 			"/>
			<line class="st1" x1="1562.9" y1="1018" x2="1413.1" y2="1399.4"/>
			<polygon class="st1" points="1562.9,1018 1861.9,1246.3 1825,802.1 			"/>
			<polygon class="st1" points="259.4,1055.9 144.7,993.4 259.4,955.5 			"/>
			<line class="st1" x1="174.1" y1="860.5" x2="144.7" y2="993.4"/>
			<polygon class="st1" points="144.7,993.4 48.3,1181.3 213.8,1116.1 			"/>
			<polyline class="st1" points="174.1,860.5 -42.7,842.9 144.7,993.4 			"/>
			<polygon class="st1" points="1861.9,1246.3 1825,802.1 2088,774.8 			"/>
			<polygon class="st1" points="1979.6,1716.2 2274.4,1224.3 2088,776.3 1861.9,1247.8 			"/>
			<line class="st1" x1="910.6" y1="150.3" x2="1110.6" y2="-21.1"/>
			<polygon class="st1" points="226.2,263.1 -146.8,96.5 260.1,-45.5 			"/>
			<polyline class="st1" points="-146.8,96.5 -55.7,-624 476.9,-652 260.1,-45.5 			"/>
			<line class="st1" x1="1811.7" y1="7.7" x2="1822.6" y2="-86.2"/>
			<line class="st1" x1="1811.7" y1="7.7" x2="1988.3" y2="-59.1"/>
			<line class="st1" x1="1811.7" y1="7.7" x2="1853.6" y2="51.5"/>
			<polygon class="st1" points="1853.6,51.5 1963.5,94.6 1867.2,166.2 			"/>
			<polyline class="st1" points="1963.5,94.6 1988.3,-59.1 1853.6,51.5 			"/>
			<polyline class="st1" points="1867.2,166.2 1947.2,320.5 1963.5,94.6 			"/>
			<polyline class="st1" points="528.9,860.5 604.8,849.6 536.1,895.1 			"/>
			<line class="st1" x1="476.9" y1="983.3" x2="448" y2="1062"/>
			<polyline class="st1" points="226.2,263.1 56.7,597.1 -146.8,96.5 			"/>
			<line class="st1" x1="244.6" y1="736.2" x2="-42.7" y2="842.9"/>
			<line class="st1" x1="-42.7" y1="842.9" x2="56.7" y2="597.1"/>
		</g>
	</g>
	<g>
		<defs>
			<rect id="SVGID_3_" width="1920" height="1080"/>
		</defs>
		<clipPath id="SVGID_4_">
			<use xlink:href="#SVGID_3_"  style="overflow:visible;"/>
		</clipPath>
		<g class="st2">
			<g>
				<polygon class="st3" points="487,715.2 470,641.5 418.7,704.8 				"/>
				<polygon class="st4" points="487,715.2 555.5,806.5 528.9,860.5 413.3,778.1 418.7,704.8 				"/>
				<polygon class="st5" points="562.8,635 588.1,577.6 631.8,642.6 				"/>
				<polygon class="st6" points="562.8,635 604,683.4 631.8,642.6 				"/>
				<polygon class="st7" points="704.1,597.1 588.1,577.6 631.8,642.6 				"/>
				<polygon class="st8" points="704.1,597.1 660.7,674.8 631.8,642.6 				"/>
				<polygon class="st9" points="704.1,597.1 660.7,674.8 764.4,673.3 				"/>
				<polygon class="st9" points="604,683.4 613.4,773.8 639.6,774.1 660.7,674.8 631.8,642.6 				"/>
				<polygon class="st10" points="562.8,635 588.1,577.6 508.7,577.6 				"/>
				<polygon class="st11" points="470,641.5 508.7,577.6 562.8,635 				"/>
				<polygon class="st12" points="470,641.5 487,715.2 562.8,635 				"/>
				<polygon class="st12" points="604,683.4 487,715.2 562.8,635 				"/>
				<polygon class="st13" points="418.7,704.8 388.7,621.3 470,641.5 				"/>
				<polygon class="st14" points="508.7,577.6 388.7,621.3 470,641.5 				"/>
				<polygon class="st15" points="306.4,914.6 333.8,963.8 259.4,955.5 				"/>
				<polygon class="st16" points="354.5,895.2 413.3,778.1 445.3,914.6 				"/>
				<polygon class="st17" points="354.5,895.2 285.4,842.9 306.4,914.6 				"/>
				<polygon class="st17" points="413.3,778.1 330.4,716.1 418.7,704.8 				"/>
				<polygon class="st10" points="388.7,621.3 418.7,704.8 330.4,716.1 				"/>
				<polygon class="st18" points="354.5,895.2 413.3,778.1 285.4,842.9 				"/>
				<polygon class="st19" points="330.4,716.1 285.4,842.9 413.3,778.1 				"/>
				<polygon class="st20" points="285.4,842.9 259.4,955.5 306.4,914.6 				"/>
				<polygon class="st21" points="333.8,963.8 259.4,955.5 306.4,914.6 				"/>
				<polygon class="st22" points="333.8,963.8 436.6,966 445.3,914.6 354.5,895.2 306.4,914.6 				"/>
				<polygon class="st22" points="333.8,963.8 259.4,955.5 259.4,1055.9 				"/>
				<polygon class="st23" points="330.4,716.1 244.6,736.2 285.4,842.9 				"/>
				<polygon class="st24" points="388.7,621.3 274.9,577.6 330.4,716.1 				"/>
				<polygon class="st25" points="285.4,842.9 174.1,860.5 259.4,955.5 				"/>
				<polygon class="st26" points="144.7,993.4 174.1,860.5 259.4,955.5 				"/>
				<polygon class="st27" points="244.6,736.2 174.1,860.5 285.4,842.9 				"/>
				<polygon class="st28" points="704.1,597.1 778.9,523 803.8,642.6 				"/>
				<polygon class="st29" points="704.1,597.1 764.4,673.3 803.8,642.6 				"/>
				<polygon class="st30" points="881.8,571.6 778.9,523 803.8,642.6 				"/>
				<polygon class="st31" points="881.8,571.6 878,659.2 803.8,642.6 				"/>
				<polygon class="st32" points="588.1,577.6 648.8,519.6 704.1,597.1 				"/>
				<polygon class="st33" points="778.9,523 648.8,519.6 704.1,597.1 				"/>
				<polygon class="st34" points="648.8,519.6 677.7,327.8 778.9,523 				"/>
				<polygon class="st35" points="953,360.5 778.9,523 881.8,571.6 				"/>
				<polygon class="st36" points="953,360.5 677.7,327.8 778.9,523 				"/>
				<polygon class="st37" points="543,455.1 508.7,577.6 588.1,577.6 				"/>
				<polygon class="st38" points="388.7,621.3 360.4,442.2 508.7,577.6 				"/>
				<polygon class="st37" points="274.9,577.6 388.7,621.3 360.4,442.2 				"/>
				<polygon class="st39" points="648.8,519.6 543,455.1 588.1,577.6 				"/>
				<polygon class="st40" points="677.7,327.8 543,455.1 648.8,519.6 				"/>
				<polygon class="st41" points="543,455.1 360.4,442.2 508.7,577.6 				"/>
				<polygon class="st37" points="274.9,577.6 244.6,736.2 330.4,716.1 				"/>
				<polygon class="st42" points="953,360.5 992,571.6 881.8,571.6 				"/>
				<polygon class="st43" points="938.7,663 992,571.6 881.8,571.6 				"/>
				<polyline class="st43" points="881.8,571.6 938.7,663 878,659.2 				"/>
				<polyline class="st44" points="894.8,730.9 938.7,663 878,659.2 				"/>
				<polygon class="st45" points="677.7,327.8 360.4,442.2 543,455.1 				"/>
				<polygon class="st46" points="953,360.5 1143,606.3 992,571.6 				"/>
				<polygon class="st47" points="1010.1,684.5 1143,606.3 992,571.6 				"/>
				<polygon class="st48" points="1010.1,684.5 938.7,663 992,571.6 				"/>
				<polyline class="st48" points="979.8,774.8 1010.1,684.5 1067.2,750.8 				"/>
				<polygon class="st35" points="953,360.5 1174.6,360.3 1143,606.3 				"/>
				<polygon class="st49" points="677.7,327.8 910.6,150.3 953,360.5 				"/>
				<polygon class="st50" points="910.6,150.3 1174.6,360.3 953,360.5 				"/>
				<polygon class="st51" points="360.4,442.2 417.6,223.3 677.7,327.8 				"/>
				<polygon class="st52" points="910.6,150.3 417.6,223.3 677.7,327.8 				"/>
				<polygon class="st53" points="417.6,223.3 226.2,263.1 360.4,442.2 				"/>
				<polygon class="st54" points="226.2,263.1 360.4,442.2 274.9,577.6 				"/>
				<polygon class="st55" points="274.9,577.6 56.7,597.1 244.6,736.2 				"/>
				<polygon class="st56" points="274.9,577.6 226.2,263.1 56.7,597.1 				"/>
				<polygon class="st28" points="1398.2,146.7 1371.2,175 1353.6,105.7 				"/>
				<polygon class="st28" points="1398.2,146.7 1371.2,175 1412.1,170.2 				"/>
				<polygon class="st28" points="1398.2,146.7 1404,113.4 1353.6,105.7 				"/>
				<polygon class="st28" points="1377,199.9 1376.6,234.3 1359.1,191.2 				"/>
				<polygon class="st29" points="1377,199.9 1376.6,234.3 1405.4,207.4 				"/>
				<polygon class="st29" points="1377,199.9 1413.6,183.7 1405.4,207.4 				"/>
				<polygon class="st57" points="417.6,223.3 226.2,263.1 260.1,-45.5 				"/>
				<polygon class="st58" points="910.6,150.3 707.8,-216.1 417.6,223.3 				"/>
				<polygon class="st59" points="260.1,-45.5 707.8,-216.1 417.6,223.3 				"/>
				<polygon class="st30" points="1406.3,250.2 1375.3,294.7 1420.5,293.8 				"/>
				<polygon class="st21" points="1376.6,234.3 1375.3,294.7 1406.3,250.2 				"/>
				<polygon class="st22" points="1376.6,234.3 1424.9,225.1 1406.3,250.2 				"/>
				<polygon class="st60" points="1359.1,191.2 1329.1,237.8 1376.6,234.3 				"/>
				<polygon class="st61" points="1375.3,294.7 1329.1,237.8 1376.6,234.3 				"/>
				<polygon class="st20" points="1329.1,237.8 1295.1,336.9 1375.3,294.7 				"/>
				<polygon class="st21" points="1381.9,378.5 1295.1,336.9 1375.3,294.7 				"/>
				<polygon class="st22" points="1381.9,378.5 1420.5,293.8 1375.3,294.7 				"/>
				<polygon class="st35" points="1329.1,237.8 1238.4,231.8 1295.1,336.9 				"/>
				<polygon class="st62" points="1295.1,336.9 1174.6,360.3 1268.7,468.2 				"/>
				<polygon class="st5" points="1295.1,336.9 1362,537.2 1268.7,468.2 				"/>
				<polygon class="st6" points="1295.1,336.9 1362,537.2 1381.3,379.3 				"/>
				<polygon class="st63" points="1238.4,231.8 1174.6,360.3 1295.1,336.9 				"/>
				<polygon class="st64" points="1238.4,231.8 1260.1,91.2 1078.1,126.2 				"/>
				<polygon class="st65" points="910.6,150.3 1078.1,126.2 1174.6,360.3 				"/>
				<polygon class="st66" points="1238.4,231.8 1078.1,126.2 1174.6,360.3 				"/>
				<polygon class="st27" points="1174.6,360.3 1268.7,468.2 1143,606.3 				"/>
				<polygon class="st67" points="1362,537.2 1268.7,468.4 1143,606.5 				"/>
				<polygon class="st68" points="1276.3,656.9 1067.2,750.8 1143,606.5 				"/>
				<polygon class="st69" points="1010.1,684.5 1067.2,750.8 1143,606.5 				"/>
				<polygon class="st69" points="1276.3,656.9 1067.2,750.8 1170.1,838.1 				"/>
				<polygon class="st70" points="1252.5,933.4 1118,976.3 1170.1,838.1 				"/>
				<polygon class="st70" points="1252.5,933.4 1459.5,794.7 1170.1,838.1 				"/>
				<polygon class="st70" points="1252.5,933.4 1459.5,794.7 1562.9,1018 				"/>
				<polyline class="st68" points="1362,537.2 1276.7,655.9 1143,606.5 				"/>
				<polygon class="st69" points="1362,537.2 1276.3,656.9 1459.5,794.7 				"/>
				<polygon class="st70" points="1362,537.2 1455.3,419.8 1509.5,617.1 				"/>
				<polyline class="st69" points="1170.1,838.1 1276.3,656.9 1459.5,794.7 				"/>
				<polygon class="st71" points="1078.1,126.2 1110.6,-21.1 1260.1,91.2 				"/>
				<polygon class="st72" points="1295.1,17 1110.6,-21.1 1260.1,91.2 				"/>
				<polygon class="st73" points="1224.8,-192.2 1110.6,-21.1 1295.1,17 				"/>
				<polygon class="st42" points="1353.6,105.7 1315.8,151.7 1371.2,175 				"/>
				<polygon class="st74" points="1325.7,86.4 1315.8,151.7 1353.6,105.7 				"/>
				<polygon class="st62" points="1352.3,66.1 1295.1,17 1325.7,86.4 				"/>
				<polygon class="st6" points="1352.3,66.1 1420.5,46.5 1410.3,86.9 				"/>
				<polygon class="st5" points="1352.3,66.1 1410.3,86.9 1404,113.4 1353.6,105.7 1325.7,86.4 				"/>
				<polygon class="st5" points="1352.3,66.1 1295.1,17 1326.3,0 1362.9,0 				"/>
				<polygon class="st6" points="1352.3,66.1 1420.5,46.5 1383.7,0 1362.9,0 				"/>
				<polygon class="st63" points="1325.7,86.4 1260.1,91.2 1295.1,17 				"/>
				<polygon class="st63" points="1308.4,0 1289.3,0 1295.1,17 				"/>
				<polygon class="st75" points="1308.4,0 1326.3,0 1295.1,17 				"/>
				<polygon class="st42" points="1315.8,151.7 1260.1,91.2 1325.7,86.4 				"/>
				<polygon class="st76" points="1260.1,91.2 1238.4,231.8 1315.8,151.7 				"/>
				<polygon class="st73" points="1371.2,175 1359.1,191.2 1315.8,151.7 				"/>
				<polygon class="st77" points="1371.2,175 1359.1,191.2 1377,199.9 1413.6,183.7 1412.1,170.2 				"/>
				<polygon class="st78" points="1329.1,237.8 1315.8,151.7 1359.1,191.2 				"/>
				<polygon class="st79" points="1238.4,231.8 1315.8,151.7 1329.1,237.8 				"/>
				<polygon class="st80" points="910.6,150.3 1110.6,-21.1 1078.1,126.2 				"/>
				<polygon class="st54" points="707.8,-216.1 1110.6,-21.1 910.6,150.3 				"/>
				<polygon class="st81" points="226.2,263.1 -146.8,96.5 260.1,-45.5 				"/>
				<polygon class="st82" points="476.9,-652 260.1,-45.5 -146.8,96.5 -55.7,-624 				"/>
				<polygon class="st83" points="226.2,263.1 56.7,597.1 -146.8,96.5 				"/>
				<polygon class="st84" points="244.6,736.2 -42.7,842.9 174.1,860.5 				"/>
				<polygon class="st85" points="144.7,993.4 -42.7,842.9 174.1,860.5 				"/>
				<polygon class="st86" points="100.3,1080 144.7,993.4 0,877.2 0,1080 				"/>
				<polygon class="st87" points="244.6,736.2 -42.7,842.9 56.7,597.1 				"/>
				<polygon class="st88" points="0,457.7 0,737.2 56.7,597.1 				"/>
			</g>
		</g>
	</g>
</g>
</svg>
