<svg xmlns="http://www.w3.org/2000/svg" xmlns:xlink="http://www.w3.org/1999/xlink" viewBox="0 0 1920 1080"><defs><style>.a,.bd{fill:none;}.b{clip-path:url(#a);}.aa,.ab,.ac,.ad,.ae,.af,.ag,.ah,.ai,.aj,.ak,.al,.am,.an,.ao,.ap,.aq,.c,.d,.e,.f,.g,.h,.i,.j,.k,.l,.m,.n,.o,.p,.q,.r,.s,.t,.u,.v,.w,.x,.y,.z{opacity:0.7;}.d{fill:#f9ecd7;}.e{fill:#f7e3c4;}.f{fill:#fbf2e4;}.ay,.g{fill:#f7e6ca;}.h{fill:#f9eedc;}.i{fill:#f8e9d0;}.j{fill:#faefdf;}.k{fill:#fcf5ea;}.l{fill:#f8ead2;}.m{fill:#f7e2c2;}.n{fill:#f4ddb6;}.o{fill:#faf0e1;}.p{fill:#f8e7cc;}.ax,.q{fill:#f5e0bd;}.aw,.r{fill:#f3d9ad;}.s{fill:#f7e5c7;}.t{fill:#f9edd8;}.u{fill:#f3d9ac;}.v{fill:#f9ebd5;}.w{fill:#f5deb9;}.x{fill:#f3dab0;}.y{fill:#f4dcb4;}.az,.z{fill:#f2d7a8;}.aa{fill:#f5e0be;}.ab{fill:#f3d9ab;}.ac{fill:#f5e1bf;}.ad{fill:#fcf6ee;}.ae{fill:#fcf7ef;}.af{fill:#fbf4e9;}.ag{fill:#f1d29d;}.ah{fill:#f3d7a9;}.ai{fill:#f2d5a3;}.aj{fill:#f5dfbc;}.ak{fill:#f4dbb2;}.al{fill:#f6e2c0;}.am{fill:#f7e4c5;}.an,.au{fill:#f1d19a;}.ao{fill:#f2d6a7;}.ap{fill:#f2d4a1;}.aq{fill:#f0cf94;}.ar{fill:#fbcc86;}.as{fill:#f49e00;}.at{fill:#f7b13e;}.av{fill:#f0cd91;}.ba{fill:#f0cd8f;}.bb{fill:#ecc37b;}.bc{fill:#e9ba67;}.bd{stroke:#9d4749;stroke-linecap:round;stroke-linejoin:round;stroke-width:0.81px;stroke-dasharray:27.09 13.54;}</style><clipPath id="a"><rect class="a" width="1920" height="1080"/></clipPath></defs><title>Artboard 1</title><g class="b"><g class="c"><polygon class="d" points="882.96 1056.53 826.44 998.23 993.55 1018.37 882.96 1056.53"/><polygon class="e" points="854.98 863.8 930.35 946.96 826.44 998.23 854.98 863.8"/><polygon class="f" points="930.35 946.96 993.55 1018.37 826.44 998.23 930.35 946.96"/><polygon class="d" points="930.35 946.96 1009.48 975.6 993.55 1018.37 930.35 946.96"/><polygon class="g" points="930.35 946.96 995.51 861.78 1009.48 975.6 930.35 946.96"/><polygon class="d" points="854.98 863.8 995.51 861.78 930.35 946.96 854.98 863.8"/><polygon class="e" points="993.55 1018.37 1069.39 997.82 1009.48 975.6 993.55 1018.37"/><polygon class="g" points="1009.48 975.6 1059.12 946.96 1069.39 997.82 1009.48 975.6"/><polygon class="f" points="1059.12 946.96 1125.91 976.53 1069.39 997.82 1059.12 946.96"/><polygon class="d" points="1125.91 976.53 1118.82 911.21 1059.12 946.96 1125.91 976.53"/><polygon class="h" points="1067.49 876.88 1059.12 946.96 1118.82 911.21 1067.49 876.88"/><polygon class="h" points="1125.91 976.53 1172.15 939.83 1151.6 983.13 1125.91 976.53"/><polygon class="e" points="1118.82 911.21 1172.15 939.83 1125.91 976.53 1118.82 911.21"/><polygon class="i" points="619.71 918.54 712.44 1042.12 778.25 875.49 619.71 918.54"/><polygon class="j" points="779.23 1100.57 826.44 998.23 882.96 1056.53 779.23 1100.57"/><polygon class="k" points="790.97 997.82 779.23 1100.57 826.44 998.23 790.97 997.82"/><polygon class="k" points="790.97 997.82 712.44 1042.12 778.25 875.49 790.97 997.82"/><polygon class="i" points="712.44 1042.12 779.23 1100.57 790.97 997.82 712.44 1042.12"/><polygon class="f" points="712.44 1042.12 676.47 1115.25 779.23 1100.57 712.44 1042.12"/><polygon class="l" points="619.71 918.54 596.71 818.72 527.23 904.37 619.71 918.54"/><polygon class="d" points="778.25 875.49 722.47 809.92 815.93 820.19 778.25 875.49"/><polygon class="m" points="722.47 809.92 619.71 918.54 778.25 875.49 722.47 809.92"/><polygon class="f" points="596.71 818.72 722.47 809.92 619.71 918.54 596.71 818.72"/><polygon class="n" points="722.47 809.92 756.72 732.12 815.93 820.19 722.47 809.92"/><polygon class="o" points="815.93 820.19 913.79 758.54 854.98 863.8 815.93 820.19"/><polygon class="i" points="854.98 863.8 995.51 861.78 913.79 758.54 854.98 863.8"/><polygon class="f" points="995.51 861.78 1048.84 820.19 913.79 758.54 995.51 861.78"/><polygon class="d" points="913.79 758.54 756.72 732.12 815.93 820.19 913.79 758.54"/><polygon class="p" points="722.47 809.92 756.72 732.12 649.07 732.12 722.47 809.92"/><polygon class="q" points="596.71 818.72 649.07 732.12 722.47 809.92 596.71 818.72"/><polygon class="q" points="527.23 904.37 486.62 791.32 596.71 818.72 527.23 904.37"/><polygon class="r" points="649.07 732.12 486.62 791.32 596.71 818.72 649.07 732.12"/><polygon class="s" points="519.89 1003.69 563.19 1188.65 676.47 1115.25 519.89 1003.69"/><polygon class="t" points="440.27 1162.36 519.89 1003.69 563.19 1188.65 440.27 1162.36"/><polygon class="t" points="519.89 1003.69 407.66 919.77 527.23 904.37 519.89 1003.69"/><polygon class="p" points="486.62 791.32 527.23 904.37 407.66 919.77 486.62 791.32"/><polygon class="u" points="440.27 1162.36 519.89 1003.69 346.67 1091.52 440.27 1162.36"/><polygon class="o" points="407.66 919.77 346.67 1091.52 519.89 1003.69 407.66 919.77"/><polygon class="i" points="407.66 919.77 291.38 946.96 346.67 1091.52 407.66 919.77"/><polygon class="t" points="486.62 791.32 332.48 732.12 407.66 919.77 486.62 791.32"/><polygon class="e" points="291.38 946.96 195.92 1115.25 346.67 1091.52 291.38 946.96"/><polygon class="k" points="1048.84 820.19 1149.4 842.7 1067.49 876.88 1048.84 820.19"/><polygon class="d" points="1118.82 911.21 1149.4 842.7 1067.49 876.88 1118.82 911.21"/><polygon class="s" points="1172.15 939.83 1118.82 911.21 1149.4 842.7 1172.15 939.83"/><polygon class="v" points="1048.84 820.19 1154.54 724.03 1149.4 842.7 1048.84 820.19"/><polygon class="w" points="913.79 758.54 1015.08 658.23 1048.84 820.19 913.79 758.54"/><polygon class="h" points="1154.54 724.03 1015.08 658.23 1048.84 820.19 1154.54 724.03"/><polygon class="g" points="756.72 732.12 838.92 653.56 913.79 758.54 756.72 732.12"/><polygon class="x" points="1015.08 658.23 838.92 653.56 913.79 758.54 1015.08 658.23"/><polygon class="m" points="1149.4 842.7 1231.6 847.84 1172.15 939.83 1149.4 842.7"/><polygon class="l" points="1154.54 724.03 1231.6 847.84 1149.4 842.7 1154.54 724.03"/><polygon class="y" points="1151.6 983.13 1185.36 993.56 1154.54 1015.43 1151.6 983.13"/><polygon class="z" points="1154.54 1015.43 1149.03 1054.12 1214.66 1042.12 1154.54 1015.43"/><polygon class="q" points="1185.36 993.56 1214.66 1042.12 1154.54 1015.43 1185.36 993.56"/><polygon class="l" points="1172.15 939.83 1185.36 993.56 1151.6 983.13 1172.15 939.83"/><polygon class="q" points="1172.15 939.83 1236.37 949.37 1185.36 993.56 1172.15 939.83"/><polygon class="e" points="1214.66 1042.12 1185.36 993.56 1287.14 999.28 1214.66 1042.12"/><polygon class="d" points="1236.37 949.37 1287.14 999.28 1185.36 993.56 1236.37 949.37"/><polygon class="g" points="1149.03 1054.12 1185.36 1088.79 1136.43 1131.89 1149.03 1054.12"/><polygon class="t" points="1185.36 1088.79 1214.66 1042.12 1149.03 1054.12 1185.36 1088.79"/><polygon class="aa" points="1214.66 1042.12 1267.57 1073.17 1185.36 1088.79 1214.66 1042.12"/><polygon class="l" points="1287.14 999.28 1267.57 1073.17 1214.66 1042.12 1287.14 999.28"/><polygon class="ab" points="1172.15 939.83 1231.6 847.84 1236.37 949.37 1172.15 939.83"/><polygon class="y" points="1236.37 949.37 1328.24 876.95 1231.6 847.84 1236.37 949.37"/><polygon class="i" points="1154.54 724.03 1303.78 724.03 1231.6 847.84 1154.54 724.03"/><polygon class="m" points="1328.24 876.95 1303.78 724.03 1231.6 847.84 1328.24 876.95"/><polygon class="s" points="1236.37 949.37 1328.24 876.95 1287.14 999.28 1236.37 949.37"/><polygon class="w" points="1267.57 1073.17 1287.14 999.28 1298.88 1101.55 1267.57 1073.17"/><polygon class="w" points="1287.14 999.28 1405.56 966.7 1328.24 876.95 1287.14 999.28"/><polygon class="z" points="1298.88 1101.55 1287.14 999.28 1405.56 966.7 1298.88 1101.55"/><polygon class="ac" points="1346.35 1162.36 1405.56 966.7 1298.88 1101.55 1346.35 1162.36"/><polygon class="x" points="1328.24 876.95 1508.31 771.02 1303.78 724.03 1328.24 876.95"/><polygon class="m" points="1405.56 966.7 1328.24 876.95 1508.31 771.02 1405.56 966.7"/><polygon class="d" points="1405.56 966.7 1545.01 1084.91 1346.35 1162.36 1405.56 966.7"/><polygon class="d" points="838.92 653.56 878.07 393.73 1015.08 658.23 838.92 653.56"/><polygon class="ac" points="1250.9 438.15 1015.08 658.23 1154.54 724.03 1250.9 438.15"/><polygon class="ab" points="1250.9 438.15 878.07 393.73 1015.08 658.23 1250.9 438.15"/><polygon class="i" points="695.55 566.24 649.07 732.12 756.72 732.12 695.55 566.24"/><polygon class="h" points="486.62 791.32 448.2 548.74 649.07 732.12 486.62 791.32"/><polygon class="i" points="332.48 732.12 486.62 791.32 448.2 548.74 332.48 732.12"/><polygon class="y" points="838.92 653.56 695.55 566.24 756.72 732.12 838.92 653.56"/><polygon class="m" points="878.07 393.73 695.55 566.24 838.92 653.56 878.07 393.73"/><polygon class="ad" points="695.55 566.24 448.2 548.74 649.07 732.12 695.55 566.24"/><polygon class="i" points="332.48 732.12 291.38 946.96 407.66 919.77 332.48 732.12"/><polygon class="z" points="1250.9 438.15 1303.78 724.03 1154.54 724.03 1250.9 438.15"/><polygon class="d" points="878.07 393.73 448.2 548.74 695.55 566.24 878.07 393.73"/><polygon class="g" points="1250.9 438.15 1508.31 771.02 1303.78 724.03 1250.9 438.15"/><polygon class="ac" points="1250.9 438.15 1551.1 437.81 1508.31 771.02 1250.9 438.15"/><polygon class="ae" points="878.07 393.73 1193.53 153.31 1250.9 438.15 878.07 393.73"/><polygon class="o" points="1193.53 153.31 1551.1 437.81 1250.9 438.15 1193.53 153.31"/><polygon class="af" points="448.2 548.74 525.76 252.22 878.07 393.73 448.2 548.74"/><polygon class="j" points="1193.53 153.31 525.76 252.22 878.07 393.73 1193.53 153.31"/><polygon class="t" points="525.76 252.22 266.42 306.18 448.2 548.74 525.76 252.22"/><polygon class="h" points="266.42 306.18 448.2 548.74 332.48 732.12 266.42 306.18"/><polygon class="af" points="332.48 732.12 36.85 758.54 291.38 946.96 332.48 732.12"/><polygon class="g" points="332.48 732.12 266.42 306.18 36.85 758.54 332.48 732.12"/><polygon class="aa" points="1930.38 255.47 1907.01 284.29 1913.07 255.58 1930.38 255.47"/><polygon class="ag" points="1945.35 292.85 1907.01 284.29 1930.38 255.47 1945.35 292.85"/><polygon class="s" points="1907.01 284.29 1945.35 292.85 1936.98 337.98 1907.01 284.29"/><polygon class="m" points="1936.98 337.98 1884.15 347.75 1907.01 284.29 1936.98 337.98"/><polygon class="ah" points="1952.77 408.69 1884.15 347.75 1936.98 337.98 1952.77 408.69"/><polygon class="y" points="1913.07 255.58 1890.04 254.69 1906.03 237.01 1913.07 255.58"/><polygon class="z" points="1906.03 237.01 1903.31 213.35 1863.71 230.65 1906.03 237.01"/><polygon class="q" points="1890.04 254.69 1863.71 230.65 1906.03 237.01 1890.04 254.69"/><polygon class="ai" points="1907.01 284.29 1890.04 254.69 1913.07 255.58 1907.01 284.29"/><polygon class="q" points="1907.01 284.29 1864.85 288.67 1890.04 254.69 1907.01 284.29"/><polygon class="e" points="1863.71 230.65 1890.04 254.69 1824.73 267.18 1863.71 230.65"/><polygon class="aj" points="1864.85 288.67 1824.73 267.18 1890.04 254.69 1864.85 288.67"/><polygon class="g" points="1903.31 213.35 1874.76 198.59 1898.81 165.57 1903.31 213.35"/><polygon class="o" points="1874.76 198.59 1872.75 180.27 1898.81 165.57 1874.76 198.59"/><polygon class="d" points="1872.75 180.27 1853.96 148.55 1898.81 165.57 1872.75 180.27"/><polygon class="g" points="1817.4 186.85 1872.75 180.27 1853.96 148.55 1817.4 186.85"/><polygon class="g" points="1853.96 148.55 1899.97 101.92 1898.81 165.57 1853.96 148.55"/><polygon class="x" points="1911.44 59.1 1899.97 101.92 1870.26 67.55 1911.44 59.1"/><polygon class="m" points="1861.75 103.33 1870.26 67.55 1899.97 101.92 1861.75 103.33"/><polygon class="ak" points="1853.96 148.55 1861.75 103.33 1899.97 101.92 1853.96 148.55"/><polygon class="ag" points="1853.96 148.55 1793.53 92.96 1861.75 103.33 1853.96 148.55"/><polygon class="w" points="1853.96 148.55 1817.4 186.85 1793.53 92.96 1853.96 148.55"/><polygon class="t" points="1874.76 198.59 1863.71 230.65 1903.31 213.35 1874.76 198.59"/><polygon class="al" points="1863.71 230.65 1825.26 220.59 1874.76 198.59 1863.71 230.65"/><polygon class="l" points="1824.73 267.18 1825.26 220.59 1863.71 230.65 1824.73 267.18"/><polygon class="ab" points="1907.01 284.29 1884.15 347.75 1864.85 288.67 1907.01 284.29"/><polygon class="am" points="1952.77 408.69 1831.89 463.52 1884.15 347.75 1952.77 408.69"/><polygon class="w" points="1825.26 220.59 1824.73 267.18 1800.9 208.75 1825.26 220.59"/><polygon class="ae" points="525.76 252.22 266.42 306.18 312.42 -111.84 525.76 252.22"/><polygon class="af" points="1193.53 153.31 918.81 -342.86 525.76 252.22 1193.53 153.31"/><polygon class="j" points="312.42 -111.84 918.81 -342.86 525.76 252.22 312.42 -111.84"/><polygon class="h" points="1864.85 288.67 1822.98 348.93 1884.15 347.75 1864.85 288.67"/><polygon class="s" points="1824.73 267.18 1822.98 348.93 1864.85 288.67 1824.73 267.18"/><polygon class="ag" points="1800.9 208.75 1760.28 271.93 1824.73 267.18 1800.9 208.75"/><polygon class="r" points="1822.98 348.93 1760.28 271.93 1824.73 267.18 1822.98 348.93"/><polygon class="s" points="1884.15 347.75 1822.98 348.93 1831.89 463.52 1884.15 347.75"/><polygon class="s" points="1760.28 271.93 1714.24 406.1 1822.98 348.93 1760.28 271.93"/><polygon class="ac" points="1831.89 463.52 1714.24 406.1 1822.98 348.93 1831.89 463.52"/><polygon class="ac" points="1760.28 271.93 1637.51 263.78 1714.24 406.1 1760.28 271.93"/><polygon class="an" points="1831.02 463.52 1804.9 677.46 1714.24 406.1 1831.02 463.52"/><polygon class="ab" points="1804.9 677.46 1678.57 583.91 1714.24 406.1 1804.9 677.46"/><polygon class="n" points="1714.24 406.1 1551.1 437.81 1678.57 583.91 1714.24 406.1"/><polygon class="m" points="1637.51 263.78 1551.1 437.81 1714.24 406.1 1637.51 263.78"/><polygon class="m" points="1831.9 462.47 1930.27 519 1953.71 409.74 1831.9 462.47"/><polygon class="ao" points="1804.9 677.46 1931.23 518.34 1831.02 463.52 1804.9 677.46"/><polygon class="an" points="1931.23 518.34 2004.62 785.61 1804.9 677.46 1931.23 518.34"/><polygon class="m" points="1637.51 263.78 1666.83 73.27 1420.34 120.75 1637.51 263.78"/><polygon class="p" points="1193.53 153.31 1420.34 120.75 1551.1 437.81 1193.53 153.31"/><polygon class="r" points="1637.51 263.78 1420.34 120.75 1551.1 437.81 1637.51 263.78"/><polygon class="e" points="1551.1 437.81 1678.57 583.91 1508.31 771.02 1551.1 437.81"/><polygon class="l" points="1804.9 677.46 1508.31 771.02 1678.57 583.91 1804.9 677.46"/><polygon class="ac" points="1508.31 771.02 1688.79 839.54 1405.56 966.7 1508.31 771.02"/><polygon class="ac" points="1688.79 839.54 1545.01 1084.91 1405.56 966.7 1688.79 839.54"/><polygon class="g" points="1688.79 839.54 1936.98 1026.2 1545.01 1084.91 1688.79 839.54"/><polygon class="ac" points="1804.9 677.46 1688.79 839.54 1508.31 771.02 1804.9 677.46"/><polygon class="w" points="2004.62 785.61 1936.98 1026.2 1804.9 677.46 2004.62 785.61"/><polygon class="x" points="1688.79 839.54 1806.47 677.46 1936.98 1026.2 1688.79 839.54"/><polygon class="n" points="1420.34 120.75 1464.41 -78.78 1666.83 73.27 1420.34 120.75"/><polygon class="z" points="1714.24 -27.16 1464.41 -78.78 1666.83 73.27 1714.24 -27.16"/><polygon class="z" points="1911.44 59.1 1884.15 12.73 1930.91 2.01 1911.44 59.1"/><polygon class="z" points="1870.26 67.55 1884.15 12.73 1911.44 59.1 1870.26 67.55"/><polygon class="z" points="1793.53 92.96 1742.28 155.21 1817.4 186.85 1793.53 92.96"/><polygon class="ai" points="1755.66 66.83 1742.28 155.21 1793.53 92.96 1755.66 66.83"/><polygon class="ap" points="1791.78 39.35 1884.15 12.73 1870.26 67.55 1791.78 39.35"/><polygon class="s" points="1810.87 -79.79 1791.78 39.35 1884.15 12.73 1810.87 -79.79"/><polygon class="w" points="1931.23 -40.51 1884.15 12.73 1810.87 -79.79 1931.23 -40.51"/><polygon class="g" points="1930.91 2.01 1884.15 12.73 1931.23 -40.51 1930.91 2.01"/><polygon class="n" points="1791.78 39.35 1714.24 -27.16 1755.66 66.83 1791.78 39.35"/><polygon class="z" points="1810.87 -79.79 1714.24 -27.16 1791.78 39.35 1810.87 -79.79"/><polygon class="m" points="1755.66 66.83 1666.83 73.27 1714.24 -27.16 1755.66 66.83"/><polygon class="z" points="1742.28 155.21 1666.83 73.27 1755.66 66.83 1742.28 155.21"/><polygon class="ag" points="1666.83 73.27 1637.51 263.78 1742.28 155.21 1666.83 73.27"/><polygon class="aq" points="1817.4 186.85 1800.9 208.75 1742.28 155.21 1817.4 186.85"/><polygon class="ao" points="1760.28 271.93 1742.28 155.21 1800.9 208.75 1760.28 271.93"/><polygon class="w" points="1637.51 263.78 1742.28 155.21 1760.28 271.93 1637.51 263.78"/><polygon class="ad" points="1936.98 1026.2 1545.01 1084.91 1656.61 1214.03 1936.98 1026.2"/><polygon class="t" points="1936.98 1026.2 2077 1328.59 1656.61 1214.03 1936.98 1026.2"/><polygon class="af" points="1193.53 153.31 1464.41 -78.78 1420.34 120.75 1193.53 153.31"/><polygon class="h" points="918.81 -342.86 1464.41 -78.78 1193.53 153.31 918.81 -342.86"/><polygon class="m" points="266.42 306.18 -238.72 80.51 312.42 -111.84 266.42 306.18"/><polygon class="o" points="606.01 -933.34 312.42 -111.84 -238.72 80.51 -115.41 -895.45 606.01 -933.34"/><polygon class="ae" points="266.42 306.18 36.85 758.54 -238.72 80.51 266.42 306.18"/><polygon class="h" points="-239.01 81.17 36.85 758.54 -98.14 1091.61 -239.01 81.17"/><polygon class="ae" points="291.38 946.96 -97.79 1091.52 195.92 1115.25 291.38 946.96"/><polygon class="g" points="291.38 946.96 -97.79 1091.52 36.85 758.54 291.38 946.96"/></g><g class="c"><polygon class="m" points="1870.26 67.55 1791.78 39.35 1793.53 92.96 1870.26 67.55"/><polygon class="w" points="1872.75 180.27 1817.4 186.85 1825.26 220.59 1872.75 180.27"/><polygon class="s" points="1825.26 220.59 1874.76 198.59 1872.75 180.27 1825.26 220.59"/><polygon class="ar" points="1825.26 220.59 1800.9 208.75 1817.4 186.85 1825.26 220.59"/><polygon class="z" points="1870.26 67.55 1861.75 103.33 1793.53 92.96 1870.26 67.55"/><polygon class="an" points="1791.78 39.35 1755.66 66.83 1793.53 92.96 1791.78 39.35"/></g><polygon class="k" points="1009.48 975.6 995.51 861.78 1067.49 876.88 1009.48 975.6"/><polygon class="t" points="778.25 875.49 854.98 863.8 826.44 998.23 778.25 875.49"/><polygon class="t" points="519.89 1003.69 619.71 918.54 676.47 1115.25 519.89 1003.69"/><polygon class="i" points="778.25 875.49 826.44 998.23 790.97 997.82 778.25 875.49"/><polygon class="i" points="1067.49 876.88 1009.48 975.6 1059.12 946.96 1067.49 876.88"/><polygon class="i" points="619.71 918.54 712.44 1042.12 676.47 1115.25 619.71 918.54"/><polygon class="k" points="778.25 875.49 815.93 820.19 854.98 863.8 778.25 875.49"/><polygon class="i" points="619.71 918.54 527.23 904.37 519.89 1003.69 619.71 918.54"/><polygon class="i" points="995.51 861.78 1048.84 820.19 1067.49 876.88 995.51 861.78"/><g class="c"><polygon class="as" points="1180.96 1118.71 1265.61 1129.93 1267.57 1073.17 1180.96 1118.71"/><polygon class="at" points="1267.57 1073.17 1185.36 1088.79 1180.96 1118.71 1267.57 1073.17"/><polygon class="ar" points="1267.57 1073.17 1298.88 1101.55 1265.61 1129.93 1267.57 1073.17"/></g><g class="c"><polygon class="au" points="1940.16 74.8 1930.91 2.01 1911.44 59.1 1940.16 74.8"/><polygon class="av" points="1940.16 74.8 1899.97 101.92 1911.44 59.1 1940.16 74.8"/><polygon class="aw" points="1928.47 143.5 1940.16 74.8 1899.97 101.92 1928.47 143.5"/><polygon class="ax" points="1898.81 165.57 1928.47 143.5 1899.97 101.92 1898.81 165.57"/><polygon class="ay" points="1924.74 190.52 1928.47 143.5 1898.81 165.57 1924.74 190.52"/><polygon class="az" points="1903.31 213.35 1924.74 190.52 1898.81 165.57 1903.31 213.35"/><polygon class="ba" points="1903.31 213.35 1923.13 211.26 1924.74 190.52 1903.31 213.35"/><polygon class="bb" points="1926.22 235.08 1923.13 211.26 1903.31 213.35 1926.22 235.08"/><polygon class="bc" points="1926.22 235.08 1903.31 213.35 1906.03 237.01 1926.22 235.08"/><polygon class="bb" points="1906.03 237.01 1913.07 255.58 1926.22 235.08 1906.03 237.01"/><polygon class="au" points="1913.07 255.58 1930.38 255.47 1926.22 235.08 1913.07 255.58"/></g><g class="c"><polygon class="g" points="864.37 1161.25 859.48 1113.29 960.28 1065.86 864.37 1161.25"/><polygon class="g" points="1086.52 1026.2 1118.82 1049.68 1123.85 1010.59 1086.52 1026.2"/><polygon class="ab" points="1108.08 1082.04 1086.52 1026.2 1118.82 1049.68 1108.08 1082.04"/><polygon class="g" points="1031.72 1045.77 1086.52 1026.2 1108.08 1082.04 1031.72 1045.77"/><polygon class="ab" points="1108.08 1082.04 1083.59 1155.38 1031.72 1045.77 1108.08 1082.04"/><polygon class="g" points="960.28 1065.86 973.25 1137.27 1031.72 1045.77 960.28 1065.86"/><polygon class="g" points="1031.72 1045.77 973.25 1137.27 1083.59 1155.38 1031.72 1045.77"/><polygon class="g" points="973.25 1137.27 864.37 1161.25 960.28 1065.86 973.25 1137.27"/></g><g class="c"><polygon class="az" points="1149.03 1054.12 1108.08 1082.04 1136.43 1131.89 1149.03 1054.12"/><polygon class="z" points="1149.03 1054.12 1118.82 1049.68 1108.08 1082.04 1149.03 1054.12"/><polygon class="ab" points="1123.85 1010.59 1118.82 1049.68 1149.03 1054.12 1123.85 1010.59"/><polygon class="g" points="1123.85 1010.59 1149.03 1054.12 1154.54 1015.43 1123.85 1010.59"/><polygon class="ab" points="1154.54 1015.43 1151.6 983.13 1123.85 1010.59 1154.54 1015.43"/><polygon class="g" points="1151.6 983.13 1125.91 976.53 1123.85 1010.59 1151.6 983.13"/><polygon class="d" points="779.23 1100.57 882.96 1056.53 859.48 1113.29 779.23 1100.57"/><polygon class="ab" points="960.28 1065.86 882.96 1056.53 859.48 1113.29 960.28 1065.86"/><polygon class="y" points="1069.39 997.82 1123.85 1010.59 1125.91 976.53 1069.39 997.82"/><polygon class="d" points="1086.52 1026.2 1123.85 1010.59 1069.39 997.82 1086.52 1026.2"/><polygon class="f" points="1031.72 1045.77 1086.52 1026.2 1069.39 997.82 1031.72 1045.77"/><polygon class="g" points="1031.72 1045.77 1069.39 997.82 993.55 1018.37 1031.72 1045.77"/><polygon class="f" points="960.28 1065.86 1031.72 1045.77 993.55 1018.37 960.28 1065.86"/><polygon class="g" points="993.55 1018.37 882.96 1056.53 960.28 1065.86 993.55 1018.37"/></g><polygon class="bd" points="882.96 1056.53 826.44 998.23 993.55 1018.37 882.96 1056.53"/><polygon class="bd" points="854.98 863.8 930.35 946.96 826.44 998.23 854.98 863.8"/><polygon class="bd" points="930.35 946.96 1009.48 975.6 993.55 1018.37 930.35 946.96"/><line class="bd" x1="995.51" y1="861.78" x2="1009.48" y2="975.6"/><polyline class="bd" points="854.98 863.8 995.51 861.78 930.35 946.96"/><polyline class="bd" points="993.55 1018.37 1069.39 997.82 1009.48 975.6"/><line class="bd" x1="1009.48" y1="975.6" x2="1059.12" y2="946.96"/><polygon class="bd" points="1059.12 946.96 1125.91 976.53 1069.39 997.82 1059.12 946.96"/><polygon class="bd" points="1067.49 876.88 1059.12 946.96 1118.82 911.21 1067.49 876.88"/><polygon class="bd" points="1125.91 976.53 1172.15 939.83 1151.6 983.13 1125.91 976.53"/><line class="bd" x1="1125.91" y1="976.53" x2="1118.82" y2="911.21"/><polygon class="bd" points="619.71 918.54 712.44 1042.12 778.25 875.49 619.71 918.54"/><polyline class="bd" points="882.96 1056.53 779.23 1100.57 826.44 998.23"/><polyline class="bd" points="826.44 998.23 790.97 997.82 779.23 1100.57"/><line class="bd" x1="778.25" y1="875.49" x2="790.97" y2="997.82"/><polyline class="bd" points="790.97 997.82 712.44 1042.12 779.23 1100.57"/><line class="bd" x1="712.44" y1="1042.11" x2="676.47" y2="1115.25"/><polygon class="bd" points="619.71 918.54 596.71 818.72 527.23 904.37 619.71 918.54"/><polygon class="bd" points="778.25 875.49 722.47 809.92 815.93 820.19 778.25 875.49"/><line class="bd" x1="722.47" y1="809.92" x2="619.71" y2="918.55"/><line class="bd" x1="596.71" y1="818.72" x2="722.47" y2="809.92"/><polygon class="bd" points="815.93 820.19 913.79 758.54 854.98 863.8 815.93 820.19"/><line class="bd" x1="995.51" y1="861.78" x2="913.79" y2="758.54"/><line class="bd" x1="995.51" y1="861.78" x2="1048.84" y2="820.19"/><polygon class="bd" points="913.79 758.54 756.72 732.12 815.93 820.19 913.79 758.54"/><polygon class="bd" points="722.47 809.92 756.72 732.12 649.07 732.12 722.47 809.92"/><polygon class="bd" points="649.07 732.12 486.62 791.32 596.71 818.72 649.07 732.12"/><line class="bd" x1="676.47" y1="1115.25" x2="519.89" y2="1003.69"/><polygon class="bd" points="440.27 1162.36 519.89 1003.69 563.19 1188.65 440.27 1162.36"/><polygon class="bd" points="519.89 1003.69 407.66 919.77 527.23 904.37 519.89 1003.69"/><polyline class="bd" points="407.66 919.77 486.62 791.32 527.23 904.37"/><line class="bd" x1="346.67" y1="1091.52" x2="519.89" y2="1003.69"/><polygon class="bd" points="407.66 919.77 291.38 946.96 346.67 1091.52 407.66 919.77"/><polyline class="bd" points="486.62 791.32 332.48 732.12 407.66 919.77"/><line class="bd" x1="291.38" y1="946.96" x2="195.92" y2="1115.25"/><polygon class="bd" points="1048.84 820.19 1149.4 842.7 1067.49 876.88 1048.84 820.19"/><polygon class="bd" points="1172.15 939.83 1118.82 911.21 1149.4 842.7 1172.15 939.83"/><polyline class="bd" points="1048.84 820.19 1154.54 724.03 1149.4 842.7"/><polygon class="bd" points="913.79 758.54 1015.08 658.23 1048.84 820.19 913.79 758.54"/><polygon class="bd" points="756.72 732.12 838.92 653.56 913.79 758.54 756.72 732.12"/><line class="bd" x1="1149.4" y1="842.7" x2="1231.6" y2="847.84"/><polygon class="bd" points="1151.6 983.13 1185.36 993.56 1154.54 1015.43 1151.6 983.13"/><polygon class="bd" points="1154.54 1015.43 1149.03 1054.12 1214.66 1042.12 1154.54 1015.43"/><line class="bd" x1="1185.36" y1="993.56" x2="1214.66" y2="1042.11"/><line class="bd" x1="1172.15" y1="939.83" x2="1185.36" y2="993.56"/><polyline class="bd" points="1172.15 939.83 1236.37 949.37 1185.36 993.56"/><line class="bd" x1="1185.36" y1="993.56" x2="1287.14" y2="999.28"/><polygon class="bd" points="1149.03 1054.12 1185.36 1088.79 1136.43 1131.89 1149.03 1054.12"/><polygon class="bd" points="1214.66 1042.12 1267.57 1073.17 1185.36 1088.79 1214.66 1042.12"/><polygon class="bd" points="1287.14 999.28 1267.57 1073.17 1214.66 1042.12 1287.14 999.28"/><polyline class="bd" points="1172.15 939.83 1231.6 847.84 1236.37 949.37"/><line class="bd" x1="1328.24" y1="876.95" x2="1231.6" y2="847.84"/><polygon class="bd" points="1154.54 724.03 1303.78 724.03 1231.6 847.84 1154.54 724.03"/><polygon class="bd" points="1236.37 949.37 1328.24 876.95 1287.14 999.28 1236.37 949.37"/><polyline class="bd" points="1287.14 999.28 1298.88 1101.55 1267.57 1073.17"/><polygon class="bd" points="1287.14 999.28 1405.56 966.7 1328.24 876.95 1287.14 999.28"/><polygon class="bd" points="1346.35 1162.36 1405.56 966.7 1298.88 1101.55 1346.35 1162.36"/><polygon class="bd" points="1328.24 876.95 1508.31 771.02 1303.78 724.03 1328.24 876.95"/><line class="bd" x1="1508.31" y1="771.02" x2="1405.56" y2="966.7"/><polygon class="bd" points="838.92 653.56 878.07 393.73 1015.08 658.23 838.92 653.56"/><polygon class="bd" points="1250.9 438.15 1015.08 658.23 1154.54 724.03 1250.9 438.15"/><line class="bd" x1="695.55" y1="566.24" x2="649.07" y2="732.11"/><line class="bd" x1="448.2" y1="548.74" x2="649.07" y2="732.11"/><line class="bd" x1="486.62" y1="791.32" x2="448.2" y2="548.74"/><polyline class="bd" points="838.92 653.56 695.55 566.24 756.72 732.12"/><line class="bd" x1="878.07" y1="393.73" x2="695.55" y2="566.24"/><line class="bd" x1="695.55" y1="566.24" x2="448.2" y2="548.74"/><line class="bd" x1="878.07" y1="393.73" x2="448.2" y2="548.74"/><line class="bd" x1="1303.78" y1="724.03" x2="1250.9" y2="438.15"/><polygon class="bd" points="1250.9 438.15 1551.1 437.81 1508.31 771.02 1250.9 438.15"/><polygon class="bd" points="878.07 393.73 1193.53 153.31 1250.9 438.15 878.07 393.73"/><line class="bd" x1="448.2" y1="548.74" x2="525.76" y2="252.22"/><polyline class="bd" points="1193.53 153.31 525.76 252.22 878.07 393.73"/><polygon class="bd" points="266.42 306.18 448.2 548.74 332.48 732.12 266.42 306.18"/><polygon class="bd" points="332.48 732.12 36.85 758.54 291.38 946.96 332.48 732.12"/><polygon class="bd" points="1930.38 255.47 1907.01 284.29 1913.07 255.58 1930.38 255.47"/><polygon class="bd" points="1907.01 284.29 1945.35 292.85 1936.98 337.98 1907.01 284.29"/><line class="bd" x1="1884.15" y1="347.75" x2="1907.01" y2="284.29"/><polygon class="bd" points="1952.77 408.69 1884.15 347.75 1936.98 337.98 1952.77 408.69"/><line class="bd" x1="1906.03" y1="237.01" x2="1913.07" y2="255.58"/><polygon class="bd" points="1906.03 237.01 1903.31 213.35 1863.71 230.65 1906.03 237.01"/><line class="bd" x1="1906.03" y1="237.01" x2="1890.04" y2="254.69"/><polygon class="bd" points="1907.01 284.29 1890.04 254.69 1913.07 255.58 1907.01 284.29"/><polyline class="bd" points="1907.01 284.29 1864.85 288.67 1890.04 254.69"/><polygon class="bd" points="1863.71 230.65 1890.04 254.69 1824.73 267.18 1863.71 230.65"/><polygon class="bd" points="1903.31 213.35 1874.76 198.59 1898.81 165.57 1903.31 213.35"/><line class="bd" x1="1874.76" y1="198.59" x2="1872.75" y2="180.27"/><polygon class="bd" points="1872.75 180.27 1853.96 148.55 1898.81 165.57 1872.75 180.27"/><line class="bd" x1="1817.4" y1="186.85" x2="1872.75" y2="180.27"/><polygon class="bd" points="1853.96 148.55 1899.97 101.92 1898.81 165.57 1853.96 148.55"/><polygon class="bd" points="1911.44 59.1 1899.97 101.92 1870.26 67.55 1911.44 59.1"/><polyline class="bd" points="1899.97 101.92 1861.75 103.33 1870.26 67.55"/><polygon class="bd" points="1853.96 148.55 1793.53 92.96 1861.75 103.33 1853.96 148.55"/><polyline class="bd" points="1853.96 148.55 1817.4 186.85 1793.53 92.96"/><polygon class="bd" points="1863.71 230.65 1825.26 220.59 1874.76 198.59 1863.71 230.65"/><line class="bd" x1="1824.73" y1="267.18" x2="1825.26" y2="220.59"/><line class="bd" x1="1800.9" y1="208.75" x2="1825.26" y2="220.59"/><polygon class="bd" points="525.76 252.22 266.42 306.18 312.42 -111.84 525.76 252.22"/><line class="bd" x1="1193.53" y1="153.31" x2="918.81" y2="-342.86"/><line class="bd" x1="525.76" y1="252.22" x2="918.81" y2="-342.86"/><polygon class="bd" points="1864.85 288.67 1822.98 348.93 1884.15 347.75 1864.85 288.67"/><line class="bd" x1="1864.85" y1="288.67" x2="1824.73" y2="267.18"/><polygon class="bd" points="1800.9 208.75 1760.28 271.93 1824.73 267.18 1800.9 208.75"/><polygon class="bd" points="1822.98 348.93 1760.28 271.93 1824.73 267.18 1822.98 348.93"/><polyline class="bd" points="1822.98 348.93 1831.89 463.52 1884.15 347.75"/><line class="bd" x1="1714.24" y1="406.1" x2="1822.98" y2="348.93"/><polygon class="bd" points="1760.28 271.93 1637.51 263.78 1714.24 406.1 1760.28 271.93"/><polygon class="bd" points="1831.02 463.52 1804.9 677.46 1714.24 406.1 1831.02 463.52"/><line class="bd" x1="1678.57" y1="583.91" x2="1714.24" y2="406.1"/><line class="bd" x1="1551.1" y1="437.81" x2="1678.57" y2="583.91"/><polyline class="bd" points="1637.51 263.78 1551.1 437.81 1714.24 406.1"/><polygon class="bd" points="1831.9 462.47 1930.27 519 1953.71 409.74 1831.9 462.47"/><polygon class="bd" points="1931.23 518.34 2004.62 785.61 1804.9 677.46 1931.23 518.34"/><polygon class="bd" points="1637.51 263.78 1666.83 73.27 1420.34 120.75 1637.51 263.78"/><polygon class="bd" points="1193.53 153.31 1420.34 120.75 1551.1 437.81 1193.53 153.31"/><polygon class="bd" points="1804.9 677.46 1508.31 771.02 1678.57 583.91 1804.9 677.46"/><line class="bd" x1="1507.8" y1="772.39" x2="1689.3" y2="838.16"/><polygon class="bd" points="1688.79 839.54 1545.01 1084.91 1405.56 966.7 1688.79 839.54"/><polygon class="bd" points="1688.79 839.54 1806.47 677.46 1936.98 1026.2 1688.79 839.54"/><polygon class="bd" points="1420.34 120.75 1464.41 -78.78 1666.83 73.27 1420.34 120.75"/><polygon class="bd" points="1714.24 -27.16 1464.41 -78.78 1666.83 73.27 1714.24 -27.16"/><polygon class="bd" points="1911.44 59.1 1884.15 12.73 1930.91 2.01 1911.44 59.1"/><line class="bd" x1="1793.53" y1="92.96" x2="1742.28" y2="155.21"/><polyline class="bd" points="1793.53 92.96 1755.66 66.83 1742.28 155.21"/><polygon class="bd" points="1791.78 39.35 1884.15 12.73 1870.26 67.55 1791.78 39.35"/><polygon class="bd" points="1810.87 -79.79 1791.78 39.35 1884.15 12.73 1810.87 -79.79"/><polyline class="bd" points="1810.87 -79.79 1931.23 -40.51 1884.15 12.73"/><polygon class="bd" points="1791.78 39.35 1714.24 -27.16 1755.66 66.83 1791.78 39.35"/><polyline class="bd" points="1714.24 -27.16 1755.66 66.83 1666.83 73.27"/><polyline class="bd" points="1637.51 263.78 1742.28 155.21 1666.83 73.27"/><polygon class="bd" points="1817.4 186.85 1800.9 208.75 1742.28 155.21 1817.4 186.85"/><line class="bd" x1="1760.28" y1="271.93" x2="1742.28" y2="155.21"/><polyline class="bd" points="1656.61 1214.03 1936.98 1026.2 1545.01 1084.91"/><line class="bd" x1="1193.53" y1="153.31" x2="1464.41" y2="-78.78"/><polyline class="bd" points="266.42 306.18 -238.72 80.51 312.42 -111.84"/><polyline class="bd" points="-238.72 80.51 -115.41 -895.45 606.01 -933.34"/><polyline class="bd" points="266.42 306.18 36.85 758.54 -238.72 80.51"/><line class="bd" x1="291.38" y1="946.96" x2="-97.79" y2="1091.52"/><line class="bd" x1="-97.79" y1="1091.52" x2="36.85" y2="758.54"/></g></svg>