<svg xmlns="http://www.w3.org/2000/svg" xmlns:xlink="http://www.w3.org/1999/xlink" viewBox="0 0 1920 1080"><defs><style>.a,.d{fill:none;}.b{isolation:isolate;}.c{clip-path:url(#a);}.d{stroke:#9d4701;stroke-linecap:round;stroke-linejoin:round;stroke-width:0.6px;stroke-dasharray:20 10;}.e{mix-blend-mode:multiply;}.cl,.f,.g{fill:#9a7135;}.ac,.ae,.ag,.at,.ax,.bs,.bx,.bz,.cj,.f,.h,.k,.n,.t,.u,.x{opacity:0.1;}.af,.ah,.au,.ay,.bt,.cb,.ck,.g,.i,.l,.o,.r,.s,.y{opacity:0.05;}.bm,.bv,.h,.i{fill:#966825;}.ak,.av,.j,.k,.l{fill:#9b7238;}.ab,.ad,.al,.as,.aw,.bm,.bn,.by,.ca,.cc,.cd,.ci,.cl,.j,.m,.p,.q,.v,.w,.z{opacity:0.2;}.bp,.m{fill:#9a6e31;}.n,.o,.p{fill:#976a29;}.bl,.bq,.q{fill:#95651f;}.bc,.bj,.r{fill:#9c713d;}.aa,.bd,.s,.t{fill:#9b7439;}.u{fill:#95661f;}.ba,.cg,.v{fill:#9c733e;}.w,.x,.y{fill:#996d2f;}.an,.z{fill:#9a7034;}.aa,.aj,.ak,.an,.ao,.ap,.bf,.bo,.bq,.bv,.bw{opacity:0.3;}.ab,.ac{fill:#9d7540;}.ad,.br,.bs,.bt,.bu{fill:#996a2d;}.ae,.af,.cd{fill:#976826;}.ag,.ah,.ao,.be{fill:#9b733b;}.ai,.aw,.ax,.ay,.bg{fill:#996e30;}.ai{opacity:0.25;}.aj{fill:#956621;}.al{fill:#976b2a;}.am{fill:#95661e;}.am,.aq,.ar,.av,.az,.ce{opacity:0.5;}.ap{fill:#966723;}.aq,.bn,.bo,.bz,.cf{fill:#99692b;}.ar{fill:#9e7446;}.as,.at,.au,.bw{fill:#94641d;}.az{fill:#9a7038;}.ba,.bp{opacity:0.4;}.bb,.bf,.bi,.ce{fill:#9d7743;}.bb{opacity:0.8;}.bc,.bd,.be,.bg{opacity:0.7;}.bh,.cm{fill:#9e7947;}.bh,.bi,.ch{opacity:0.9;}.bk,.ca{fill:#936116;}.bk,.bl,.br{opacity:0.15;}.bu{opacity:0.02;}.bx,.cb{fill:#925f11;}.by{fill:#946319;}.cc{fill:#94631c;}.ch{fill:#9e7743;}.ci,.cj,.ck{fill:#9c743e;}.cm{opacity:0.6;}.cn,.cq{font-size:18px;fill:#fff;font-family:SourceSansPro-Bold, Source Sans Pro;font-weight:700;}.cn,.cu{letter-spacing:0.04em;}.co{letter-spacing:0.03em;}.cp{letter-spacing:0.02em;}.cq{letter-spacing:0.04em;}.cr{letter-spacing:0.03em;}.cs{letter-spacing:0.02em;}.ct{letter-spacing:0.03em;}</style><clipPath id="a"><rect class="a" width="1920" height="1080"/></clipPath></defs><title>Artboard 1</title><g class="b"><g class="c"><polygon class="d" points="681.35 817.1 639.62 774.06 762.99 788.92 681.35 817.1"/><polygon class="d" points="660.68 674.81 716.33 736.21 639.62 774.06 660.68 674.81"/><polygon class="d" points="716.33 736.21 774.75 757.35 762.99 788.92 716.33 736.21"/><line class="d" x1="764.44" y1="673.32" x2="774.75" y2="757.35"/><polyline class="d" points="660.68 674.81 764.43 673.32 716.33 736.21"/><polyline class="d" points="762.99 788.92 818.99 773.75 774.75 757.35"/><line class="d" x1="774.75" y1="757.35" x2="811.4" y2="736.21"/><polygon class="d" points="811.4 736.21 860.71 758.04 818.99 773.75 811.4 736.21"/><polygon class="d" points="817.58 684.47 811.4 736.21 855.47 709.81 817.58 684.47"/><polygon class="d" points="860.71 758.04 894.85 730.94 879.68 762.91 860.71 758.04"/><line class="d" x1="860.71" y1="758.04" x2="855.47" y2="709.81"/><polygon class="d" points="486.99 715.23 555.45 806.46 604.04 683.44 486.99 715.23"/><polyline class="d" points="681.35 817.1 604.76 849.62 639.62 774.06"/><polyline class="d" points="639.62 774.06 613.43 773.75 604.76 849.62"/><line class="d" x1="604.04" y1="683.44" x2="613.43" y2="773.75"/><polyline class="d" points="613.43 773.75 555.45 806.46 604.76 849.62"/><line class="d" x1="555.45" y1="806.46" x2="528.89" y2="860.45"/><polygon class="d" points="486.99 715.23 470.01 641.53 418.71 704.76 486.99 715.23"/><polygon class="d" points="604.04 683.44 562.85 635.03 631.85 642.62 604.04 683.44"/><line class="d" x1="562.85" y1="635.03" x2="486.99" y2="715.23"/><line class="d" x1="470.01" y1="641.53" x2="562.85" y2="635.03"/><polygon class="d" points="631.85 642.62 704.11 597.1 660.68 674.81 631.85 642.62"/><line class="d" x1="764.44" y1="673.32" x2="704.1" y2="597.1"/><line class="d" x1="764.44" y1="673.32" x2="803.81" y2="642.61"/><polygon class="d" points="704.11 597.1 588.14 577.59 631.85 642.62 704.11 597.1"/><polygon class="d" points="562.85 635.03 588.14 577.59 508.66 577.59 562.85 635.03"/><polygon class="d" points="508.66 577.59 388.72 621.3 470.01 641.53 508.66 577.59"/><polygon class="d" points="528.89 860.46 445.26 914.64 536.12 895.14 528.89 860.46"/><line class="d" x1="536.12" y1="895.14" x2="476.87" y2="983.28"/><polygon class="d" points="436.64 966.03 476.87 983.28 445.26 914.64 436.64 966.03"/><polygon class="d" points="447.97 1062.04 395.59 1100.26 426.66 1133.57 447.97 1062.04"/><polygon class="d" points="325.14 1086.6 387.28 1034.58 395.59 1100.26 325.14 1086.6"/><polygon class="d" points="387.28 1034.58 436.64 966.03 447.97 1062.04 387.28 1034.58"/><polyline class="d" points="436.64 966.03 333.81 963.78 387.28 1034.58"/><polygon class="d" points="325.14 1086.6 259.39 1055.9 294.07 1112.62 325.14 1086.6"/><polyline class="d" points="325.14 1086.6 333.81 963.78 259.39 1055.9"/><polygon class="d" points="306.36 914.64 333.81 963.78 259.39 955.47 306.36 914.64"/><line class="d" x1="528.89" y1="860.45" x2="413.29" y2="778.09"/><polygon class="d" points="354.51 895.23 413.29 778.09 445.26 914.64 354.51 895.23"/><polygon class="d" points="354.51 895.23 285.4 842.93 306.36 914.64 354.51 895.23"/><polygon class="d" points="413.29 778.09 330.43 716.13 418.71 704.76 413.29 778.09"/><polyline class="d" points="330.43 716.13 388.72 621.3 418.71 704.76"/><line class="d" x1="285.4" y1="842.93" x2="413.29" y2="778.09"/><polygon class="d" points="285.4 842.93 259.39 955.47 306.36 914.64 285.4 842.93"/><polygon class="d" points="330.43 716.13 244.58 736.21 285.4 842.93 330.43 716.13"/><polyline class="d" points="388.72 621.3 274.93 577.59 330.43 716.13"/><polyline class="d" points="285.4 842.93 174.11 860.46 259.39 955.47"/><line class="d" x1="244.58" y1="736.21" x2="174.11" y2="860.45"/><polyline class="d" points="259.39 1055.9 213.76 1116.09 294.07 1112.62"/><polygon class="d" points="803.81 642.62 878.05 659.23 817.58 684.47 803.81 642.62"/><polygon class="d" points="894.85 730.94 855.47 709.81 878.05 659.23 894.85 730.94"/><polyline class="d" points="803.81 642.62 881.85 571.62 878.05 659.23"/><polygon class="d" points="704.11 597.1 778.89 523.04 803.81 642.62 704.11 597.1"/><polygon class="d" points="588.14 577.59 648.83 519.59 704.11 597.1 588.14 577.59"/><line class="d" x1="878.05" y1="659.23" x2="938.74" y2="663.03"/><polygon class="d" points="879.68 762.91 904.61 770.61 881.85 786.76 879.68 762.91"/><polygon class="d" points="881.85 786.76 877.78 815.32 926.24 806.46 881.85 786.76"/><line class="d" x1="904.6" y1="770.61" x2="926.24" y2="806.46"/><line class="d" x1="894.85" y1="730.94" x2="904.6" y2="770.61"/><polyline class="d" points="894.85 730.94 942.27 737.99 904.61 770.61"/><line class="d" x1="904.6" y1="770.61" x2="979.75" y2="774.84"/><polygon class="d" points="877.78 815.32 904.61 840.92 868.48 872.74 877.78 815.32"/><line class="d" x1="904.6" y1="840.92" x2="901.35" y2="863.01"/><polygon class="d" points="901.35 863.01 912.46 905.7 868.48 872.74 901.35 863.01"/><polyline class="d" points="912.46 905.7 963.85 871.29 901.35 863.01"/><line class="d" x1="848.25" y1="947.16" x2="868.48" y2="872.74"/><polygon class="d" points="822.96 994.12 848.25 947.16 870.52 996.11 822.96 994.12"/><line class="d" x1="890.47" y1="956.55" x2="870.52" y2="996.11"/><polygon class="d" points="912.46 905.7 890.47 956.55 848.25 947.16 912.46 905.7"/><polygon class="d" points="912.46 905.7 962 988.46 890.47 956.55 912.46 905.7"/><polygon class="d" points="963.85 871.29 1023.46 895.23 962 988.46 963.85 871.29"/><line class="d" x1="988.42" y1="850.34" x2="963.85" y2="871.29"/><polygon class="d" points="962 988.46 1023.46 895.23 995.64 1030.09 962 988.46"/><polygon class="d" points="926.24 806.46 965.3 829.39 904.61 840.92 926.24 806.46"/><polygon class="d" points="979.75 774.84 965.3 829.39 926.24 806.46 979.75 774.84"/><polyline class="d" points="894.85 730.94 938.74 663.03 942.27 737.99"/><line class="d" x1="1010.09" y1="684.52" x2="938.74" y2="663.03"/><polygon class="d" points="881.85 571.62 992.03 571.62 938.74 663.03 881.85 571.62"/><polygon class="d" points="942.27 737.99 1010.09 684.52 979.75 774.84 942.27 737.99"/><polyline class="d" points="979.75 774.84 988.42 850.34 965.3 829.39"/><polygon class="d" points="979.75 774.84 1067.17 750.78 1010.09 684.52 979.75 774.84"/><polygon class="d" points="1023.46 895.23 1067.17 750.78 988.42 850.34 1023.46 895.23"/><polygon class="d" points="1010.09 684.52 1143.04 606.31 992.03 571.62 1010.09 684.52"/><line class="d" x1="1143.04" y1="606.31" x2="1067.17" y2="750.78"/><polyline class="d" points="995.64 1030.09 1117.99 976.33 1023.46 895.23"/><line class="d" x1="1170.13" y1="838.06" x2="1023.46" y2="895.23"/><polygon class="d" points="648.83 519.59 677.73 327.76 778.89 523.04 648.83 519.59"/><polygon class="d" points="952.99 360.55 778.89 523.04 881.85 571.62 952.99 360.55"/><line class="d" x1="542.98" y1="455.12" x2="508.66" y2="577.59"/><line class="d" x1="360.37" y1="442.2" x2="508.66" y2="577.59"/><line class="d" x1="388.72" y1="621.3" x2="360.37" y2="442.2"/><polyline class="d" points="648.83 519.59 542.98 455.12 588.14 577.59"/><line class="d" x1="677.73" y1="327.76" x2="542.98" y2="455.12"/><line class="d" x1="542.98" y1="455.12" x2="360.37" y2="442.2"/><line class="d" x1="677.73" y1="327.76" x2="360.37" y2="442.2"/><line class="d" x1="992.03" y1="571.62" x2="952.99" y2="360.55"/><polygon class="d" points="952.99 360.55 1174.63 360.31 1143.04 606.31 952.99 360.55"/><polygon class="d" points="677.73 327.76 910.63 150.26 952.99 360.55 677.73 327.76"/><line class="d" x1="360.37" y1="442.2" x2="417.62" y2="223.28"/><polyline class="d" points="910.63 150.26 417.63 223.28 677.73 327.76"/><polygon class="d" points="226.16 263.12 360.37 442.2 274.93 577.59 226.16 263.12"/><polygon class="d" points="274.93 577.59 56.67 597.1 244.58 736.21 274.93 577.59"/><polygon class="d" points="1558.64 162.94 1591.95 181.8 1511.51 192.26 1558.64 162.94"/><polygon class="d" points="1628.99 229.65 1591.95 181.8 1608.56 177.91 1628.99 229.65"/><polygon class="d" points="1594.54 243.56 1549.48 216.06 1591.95 181.8 1594.54 243.56"/><polygon class="d" points="1549.48 216.06 1509.14 212.7 1511.51 192.26 1549.48 216.06"/><line class="d" x1="1529.14" y1="260.6" x2="1509.14" y2="212.7"/><polyline class="d" points="1594.54 243.56 1529.14 260.6 1549.48 216.06"/><polygon class="d" points="1511.51 192.26 1478.52 209.92 1509.14 212.7 1511.51 192.26"/><line class="d" x1="1509.14" y1="212.7" x2="1489.34" y2="230.86"/><polygon class="d" points="1489.34 230.86 1454.64 225.68 1478.52 209.92 1489.34 230.86"/><line class="d" x1="1454.65" y1="225.68" x2="1465.69" y2="253.28"/><polygon class="d" points="1493.73 262.31 1489.34 230.86 1465.69 253.28 1493.73 262.31"/><polygon class="d" points="1454.64 225.68 1437.39 246.96 1441.86 225.76 1454.64 225.68"/><polygon class="d" points="1697.94 192.69 1640 149.6 1628.99 229.65 1697.94 192.69"/><line class="d" x1="1558.65" y1="162.94" x2="1601.88" y2="131.86"/><polygon class="d" points="1608.56 177.91 1601.88 131.86 1591.95 181.8 1608.56 177.91"/><line class="d" x1="1608.56" y1="177.91" x2="1640" y2="149.6"/><polygon class="d" points="1697.94 192.69 1640 149.6 1648.14 113.66 1697.94 192.69"/><polygon class="d" points="1640 149.6 1648.14 113.66 1601.88 131.86 1640 149.6"/><polyline class="d" points="1601.88 131.86 1638.01 94.35 1648.14 113.66"/><polygon class="d" points="1697.94 192.69 1720.5 233.47 1742.82 188.22 1697.94 192.69"/><polygon class="d" points="1628.99 229.65 1662.81 251.76 1617.94 258.04 1628.99 229.65"/><line class="d" x1="1662.81" y1="251.76" x2="1697.94" y2="192.69"/><polygon class="d" points="1617.94 258.04 1579.53 296.11 1594.54 243.56 1617.94 258.04"/><polygon class="d" points="1529.14 260.6 1509.15 284.82 1579.53 296.11 1529.14 260.6"/><polygon class="d" points="1579.53 296.11 1656.03 289.54 1617.94 258.04 1579.53 296.11"/><polygon class="d" points="1662.81 251.76 1656.03 289.54 1706.31 277.16 1662.81 251.76"/><polyline class="d" points="1662.81 251.76 1720.5 233.47 1706.31 277.16"/><polyline class="d" points="1742.82 188.22 1787.29 260.6 1720.5 233.47"/><line class="d" x1="1648.14" y1="113.66" x2="1692.36" y2="68.7"/><polygon class="d" points="1661.35 33.19 1692.36 68.7 1638.01 94.35 1661.35 33.19"/><polygon class="d" points="1667 -17.72 1689.57 37.08 1661.35 33.19 1667 -17.72"/><polygon class="d" points="1752.88 66 1692.36 68.7 1689.57 37.08 1752.88 66"/><polygon class="d" points="1754.98 22.4 1709.8 -10.99 1689.57 37.08 1754.98 22.4"/><line class="d" x1="1754.98" y1="22.4" x2="1740.77" y2="-51.32"/><polygon class="d" points="1780.23 47.07 1754.98 22.4 1811.74 7.73 1780.23 47.07"/><polyline class="d" points="1811.74 7.73 1783.36 -24.55 1754.98 22.4"/><polyline class="d" points="1648.14 113.66 1734.48 144.18 1692.36 68.7"/><polygon class="d" points="1752.88 66 1804.99 86.05 1780.23 47.07 1752.88 66"/><polygon class="d" points="1752.88 66 1734.48 144.18 1804.99 86.05 1752.88 66"/><polyline class="d" points="1804.99 86.05 1808.47 45.62 1811.74 7.73"/><line class="d" x1="1804.99" y1="86.05" x2="1853.61" y2="51.54"/><polygon class="d" points="1509.15 284.82 1459.52 286.6 1493.73 262.31 1509.15 284.82"/><polygon class="d" points="1437.39 246.96 1465.69 253.28 1459.52 286.6 1437.39 246.96"/><line class="d" x1="1509.15" y1="284.82" x2="1471.17" y2="338.81"/><polyline class="d" points="1579.53 296.11 1544.1 351.39 1509.15 284.82"/><line class="d" x1="1471.17" y1="338.81" x2="1544.1" y2="351.39"/><polyline class="d" points="1656.03 289.54 1617.78 351.39 1579.53 296.11"/><line class="d" x1="1544.1" y1="351.39" x2="1617.78" y2="351.39"/><line class="d" x1="1420.52" y1="293.82" x2="1437.39" y2="246.96"/><polygon class="d" points="1471.17 338.81 1420.52 293.81 1459.52 286.6 1471.17 338.81"/><line class="d" x1="1436.67" y1="212.05" x2="1441.86" y2="225.76"/><polygon class="d" points="1436.67 212.05 1434.66 194.59 1405.43 207.36 1436.67 212.05"/><line class="d" x1="1436.67" y1="212.05" x2="1424.86" y2="225.11"/><polygon class="d" points="1437.39 246.96 1424.86 225.11 1441.86 225.76 1437.39 246.96"/><polyline class="d" points="1437.39 246.96 1406.27 250.2 1424.86 225.11"/><polygon class="d" points="1405.43 207.36 1424.86 225.11 1376.64 234.33 1405.43 207.36"/><polygon class="d" points="1434.66 194.59 1413.58 183.69 1431.34 159.31 1434.66 194.59"/><line class="d" x1="1413.58" y1="183.69" x2="1412.1" y2="170.17"/><polygon class="d" points="1412.1 170.17 1398.22 146.74 1431.34 159.31 1412.1 170.17"/><line class="d" x1="1371.23" y1="175.02" x2="1412.1" y2="170.17"/><polygon class="d" points="1398.22 146.74 1432.2 112.32 1431.34 159.31 1398.22 146.74"/><polygon class="d" points="1440.66 80.71 1432.2 112.32 1410.26 86.94 1440.66 80.71"/><polyline class="d" points="1432.2 112.32 1403.98 113.36 1410.26 86.94"/><polygon class="d" points="1398.22 146.74 1353.61 105.7 1403.98 113.36 1398.22 146.74"/><polyline class="d" points="1398.22 146.74 1371.23 175.02 1353.61 105.7"/><polygon class="d" points="1405.43 207.36 1377.04 199.94 1413.58 183.69 1405.43 207.36"/><line class="d" x1="1376.64" y1="234.33" x2="1377.04" y2="199.94"/><line class="d" x1="1359.05" y1="191.19" x2="1377.04" y2="199.94"/><polygon class="d" points="417.63 223.28 226.16 263.12 260.12 -45.5 417.63 223.28"/><line class="d" x1="910.63" y1="150.26" x2="707.81" y2="-216.06"/><polygon class="d" points="1406.27 250.2 1375.35 294.69 1420.52 293.81 1406.27 250.2"/><line class="d" x1="1406.27" y1="250.2" x2="1376.64" y2="234.33"/><polygon class="d" points="1359.05 191.19 1329.06 237.83 1376.64 234.33 1359.05 191.19"/><polygon class="d" points="1375.35 294.69 1329.06 237.83 1376.64 234.33 1375.35 294.69"/><polyline class="d" points="1375.35 294.69 1381.93 379.28 1420.52 293.81"/><line class="d" x1="1295.07" y1="336.89" x2="1375.35" y2="294.69"/><polygon class="d" points="1329.06 237.83 1238.42 231.82 1295.07 336.89 1329.06 237.83"/><polygon class="d" points="1381.29 379.28 1362 537.24 1295.07 336.89 1381.29 379.28"/><line class="d" x1="1268.74" y1="468.17" x2="1295.07" y2="336.89"/><line class="d" x1="1174.63" y1="360.31" x2="1268.74" y2="468.17"/><polyline class="d" points="1238.42 231.82 1174.63 360.31 1295.07 336.89"/><polygon class="d" points="1381.94 378.51 1454.57 420.25 1471.87 339.58 1381.94 378.51"/><polygon class="d" points="1455.27 419.76 1509.46 617.08 1362 537.24 1455.27 419.76"/><polygon class="d" points="1455.27 419.76 1544.1 351.39 1586.36 442.88 1455.27 419.76"/><polygon class="d" points="1509.46 617.08 1637.84 656.9 1586.36 442.88 1509.46 617.08"/><line class="d" x1="1617.78" y1="351.39" x2="1697.94" y2="351.39"/><polygon class="d" points="1586.36 442.88 1617.78 351.39 1701.07 450.11 1586.36 442.88"/><line class="d" x1="1697.94" y1="351.39" x2="1701.07" y2="450.11"/><polygon class="d" points="1238.42 231.82 1260.07 91.17 1078.09 126.22 1238.42 231.82"/><polygon class="d" points="910.63 150.26 1078.09 126.22 1174.63 360.31 910.63 150.26"/><polygon class="d" points="1362 537.24 1143.04 606.31 1268.74 468.17 1362 537.24"/><line class="d" x1="1142.66" y1="607.32" x2="1276.66" y2="655.88"/><polygon class="d" points="1276.28 656.9 1170.13 838.06 1067.17 750.78 1276.28 656.9"/><line class="d" x1="1509.46" y1="617.08" x2="1459.52" y2="794.71"/><polygon class="d" points="1276.28 656.9 1363.16 537.24 1459.52 794.71 1276.28 656.9"/><polyline class="d" points="1706.31 277.16 1697.94 351.39 1656.03 289.54"/><polygon class="d" points="1787.29 260.6 1706.31 277.16 1847.68 391.44 1787.29 260.6"/><line class="d" x1="1697.94" y1="351.39" x2="1847.68" y2="391.44"/><line class="d" x1="1701.07" y1="450.11" x2="1847.68" y2="391.44"/><polygon class="d" points="1637.84 656.9 1888.56 663.54 1701.07 450.11 1637.84 656.9"/><line class="d" x1="1825.02" y1="802.11" x2="1888.56" y2="663.54"/><polygon class="d" points="1078.09 126.22 1110.62 -21.09 1260.07 91.17 1078.09 126.22"/><polygon class="d" points="1295.07 17.02 1110.62 -21.09 1260.07 91.17 1295.07 17.02"/><line class="d" x1="1295.07" y1="17.02" x2="1224.78" y2="-192.22"/><polygon class="d" points="1440.66 80.71 1420.52 46.47 1455.04 38.56 1440.66 80.71"/><line class="d" x1="1353.61" y1="105.7" x2="1315.77" y2="151.66"/><polyline class="d" points="1353.61 105.7 1325.65 86.42 1315.77 151.66"/><polygon class="d" points="1352.32 66.12 1420.52 46.47 1410.26 86.94 1352.32 66.12"/><polygon class="d" points="1366.41 -21.84 1352.32 66.12 1420.52 46.47 1366.41 -21.84"/><polyline class="d" points="1366.41 -21.84 1455.27 7.16 1420.52 46.47"/><polygon class="d" points="1493.06 -13.5 1455.27 7.16 1455.04 38.56 1493.06 -13.5"/><polygon class="d" points="1353.61 -57.48 1295.07 17.02 1366.41 -21.84 1353.61 -57.48"/><polygon class="d" points="1352.32 66.12 1295.07 17.02 1325.65 86.42 1352.32 66.12"/><polygon class="d" points="1325.65 86.42 1260.07 91.17 1295.07 17.02 1325.65 86.42"/><polyline class="d" points="1238.42 231.82 1315.77 151.66 1260.07 91.17"/><polygon class="d" points="1371.23 175.02 1359.05 191.19 1315.77 151.66 1371.23 175.02"/><line class="d" x1="1329.06" y1="237.83" x2="1315.77" y2="151.66"/><polygon class="d" points="1455.27 7.16 1476.63 -51.32 1493.06 -13.5 1455.27 7.16"/><polygon class="d" points="1391.23 -56.11 1476.63 -51.32 1455.27 7.16 1391.23 -56.11"/><polygon class="d" points="1847.68 391.44 1947.18 320.47 1888.56 663.54 1847.68 391.44"/><polygon class="d" points="1742.82 188.22 1780.23 158.45 1734.48 144.18 1742.82 188.22"/><polygon class="d" points="1780.23 158.45 1867.24 166.2 1804.99 86.05 1780.23 158.45"/><polyline class="d" points="1780.23 158.45 1787.29 260.6 1867.24 166.2"/><line class="d" x1="1787.29" y1="264" x2="1947.18" y2="320.47"/><polygon class="d" points="784.67 1055.54 848.25 1048.76 822.96 994.12 784.67 1055.54"/><polygon class="d" points="947.96 1051.92 870.52 996.11 848.25 1048.76 947.96 1051.92"/><polygon class="d" points="848.25 1048.76 891.6 1186.31 784.67 1116.91 848.25 1048.76"/><polyline class="d" points="1011.54 1157.72 995.64 1030.09 947.96 1051.92"/><polygon class="d" points="947.96 1051.92 891.6 1186.31 1011.54 1157.72 947.96 1051.92"/><polygon class="d" points="721.81 1116.09 784.67 1116.91 784.67 1055.54 721.81 1116.09"/><line class="d" x1="1117.99" y1="976.33" x2="1011.54" y2="1157.72"/><polygon class="d" points="1117.99 976.33 1252.52 933.38 1170.13 838.06 1117.99 976.33"/><polyline class="d" points="1252.52 933.38 1459.52 794.71 1170.13 838.06"/><polygon class="d" points="1459.52 794.71 1825.02 802.11 1637.84 656.9 1459.52 794.71"/><polyline class="d" points="1252.52 933.38 1190.61 1141.97 1117.99 976.33"/><line class="d" x1="1562.89" y1="1017.96" x2="1459.52" y2="794.71"/><polygon class="d" points="1252.52 933.38 1190.61 1141.97 1562.89 1017.96 1252.52 933.38"/><polygon class="d" points="1947.18 320.47 1888.56 663.54 2087.98 774.84 1947.18 320.47"/><line class="d" x1="1562.89" y1="1017.96" x2="1413.07" y2="1399.39"/><polygon class="d" points="1562.89 1017.96 1861.9 1246.28 1825.02 802.11 1562.89 1017.96"/><polygon class="d" points="259.39 1055.9 144.72 993.4 259.39 955.47 259.39 1055.9"/><line class="d" x1="174.11" y1="860.45" x2="144.72" y2="993.4"/><polygon class="d" points="144.72 993.4 48.3 1181.26 213.76 1116.09 144.72 993.4"/><polyline class="d" points="174.11 860.46 -42.74 842.93 144.72 993.4"/><polygon class="d" points="1861.9 1246.28 1825.02 802.11 2087.98 774.84 1861.9 1246.28"/><polygon class="d" points="1979.6 1716.25 2274.39 1224.32 2087.98 776.31 1861.9 1247.76 1979.6 1716.25"/><line class="d" x1="910.63" y1="150.26" x2="1110.62" y2="-21.09"/><polygon class="d" points="226.16 263.12 -146.78 96.51 260.12 -45.5 226.16 263.12"/><polyline class="d" points="-146.78 96.51 -55.74 -624.03 476.87 -652.01 260.12 -45.5"/><line class="d" x1="1811.74" y1="7.73" x2="1822.59" y2="-86.25"/><line class="d" x1="1811.74" y1="7.73" x2="1988.27" y2="-59.1"/><line class="d" x1="1811.74" y1="7.73" x2="1853.61" y2="51.54"/><polygon class="d" points="1853.61 51.54 1963.52 94.59 1867.24 166.2 1853.61 51.54"/><polyline class="d" points="1963.52 94.59 1988.27 -59.1 1853.61 51.54"/><polyline class="d" points="1867.24 166.2 1947.18 320.47 1963.52 94.59"/><polyline class="d" points="528.89 860.46 604.76 849.62 536.12 895.14"/><line class="d" x1="476.87" y1="983.28" x2="447.97" y2="1062.04"/><polyline class="d" points="226.16 263.12 56.67 597.1 -146.78 96.51"/><line class="d" x1="244.58" y1="736.21" x2="-42.74" y2="842.93"/><line class="d" x1="-42.74" y1="842.93" x2="56.67" y2="597.1"/></g><g class="c"><g class="e"><polygon class="f" points="486.99 715.23 470.01 641.53 418.71 704.76 486.99 715.23"/><polygon class="g" points="486.99 715.23 555.45 806.46 528.89 860.46 413.29 778.09 418.71 704.76 486.99 715.23"/><polygon class="h" points="562.85 635.03 588.14 577.59 631.85 642.62 562.85 635.03"/><polygon class="i" points="562.85 635.03 604.04 683.44 631.85 642.62 562.85 635.03"/><polygon class="j" points="704.11 597.1 588.14 577.59 631.85 642.62 704.11 597.1"/><polygon class="k" points="704.11 597.1 660.68 674.81 631.85 642.62 704.11 597.1"/><polygon class="l" points="704.11 597.1 660.68 674.81 764.43 673.32 704.11 597.1"/><polygon class="l" points="604.04 683.44 613.43 773.75 639.62 774.06 660.68 674.81 631.85 642.62 604.04 683.44"/><polygon class="m" points="562.85 635.03 588.14 577.59 508.66 577.59 562.85 635.03"/><polygon class="n" points="470.01 641.53 508.66 577.59 562.85 635.03 470.01 641.53"/><polygon class="o" points="470.01 641.53 486.99 715.23 562.85 635.03 470.01 641.53"/><polygon class="o" points="604.04 683.44 486.99 715.23 562.85 635.03 604.04 683.44"/><polygon class="p" points="418.71 704.76 388.72 621.3 470.01 641.53 418.71 704.76"/><polygon class="q" points="508.66 577.59 388.72 621.3 470.01 641.53 508.66 577.59"/><polygon class="r" points="306.36 914.64 333.81 963.78 259.39 955.47 306.36 914.64"/><polygon class="s" points="354.51 895.23 413.29 778.09 445.26 914.64 354.51 895.23"/><polygon class="t" points="354.51 895.23 285.4 842.93 306.36 914.64 354.51 895.23"/><polygon class="t" points="413.29 778.09 330.43 716.13 418.71 704.76 413.29 778.09"/><polygon class="m" points="388.72 621.3 418.71 704.76 330.43 716.13 388.72 621.3"/><polygon class="u" points="354.51 895.23 413.29 778.09 285.4 842.93 354.51 895.23"/><polygon class="v" points="330.43 716.13 285.4 842.93 413.29 778.09 330.43 716.13"/><polygon class="w" points="285.4 842.93 259.39 955.47 306.36 914.64 285.4 842.93"/><polygon class="x" points="333.81 963.78 259.39 955.47 306.36 914.64 333.81 963.78"/><polygon class="y" points="333.81 963.78 436.64 966.03 445.26 914.64 354.51 895.23 306.36 914.64 333.81 963.78"/><polygon class="y" points="333.81 963.78 259.39 955.47 259.39 1055.9 333.81 963.78"/><polygon class="z" points="330.43 716.13 244.58 736.21 285.4 842.93 330.43 716.13"/><polygon class="aa" points="388.72 621.3 274.93 577.59 330.43 716.13 388.72 621.3"/><polygon class="ab" points="285.4 842.93 174.11 860.46 259.39 955.47 285.4 842.93"/><polygon class="ac" points="144.72 993.4 174.11 860.46 259.39 955.47 144.72 993.4"/><polygon class="ad" points="244.58 736.21 174.11 860.46 285.4 842.93 244.58 736.21"/><polygon class="ae" points="704.11 597.1 778.89 523.04 803.81 642.62 704.11 597.1"/><polygon class="af" points="704.11 597.1 764.43 673.32 803.81 642.62 704.11 597.1"/><polygon class="ag" points="881.85 571.62 778.89 523.04 803.81 642.62 881.85 571.62"/><polygon class="ah" points="881.85 571.62 878.05 659.23 803.81 642.62 881.85 571.62"/><polygon class="ai" points="588.14 577.59 648.83 519.59 704.11 597.1 588.14 577.59"/><polygon class="aj" points="778.89 523.04 648.83 519.59 704.11 597.1 778.89 523.04"/><polygon class="ak" points="648.83 519.59 677.73 327.76 778.89 523.04 648.83 519.59"/><polygon class="al" points="952.99 360.55 778.89 523.04 881.85 571.62 952.99 360.55"/><polygon class="am" points="952.99 360.55 677.73 327.76 778.89 523.04 952.99 360.55"/><polygon class="an" points="542.98 455.12 508.66 577.59 588.14 577.59 542.98 455.12"/><polygon class="ao" points="388.72 621.3 360.37 442.2 508.66 577.59 388.72 621.3"/><polygon class="an" points="274.93 577.59 388.72 621.3 360.37 442.2 274.93 577.59"/><polygon class="ap" points="648.83 519.59 542.98 455.12 588.14 577.59 648.83 519.59"/><polygon class="aq" points="677.73 327.76 542.98 455.12 648.83 519.59 677.73 327.76"/><polygon class="ar" points="542.98 455.12 360.37 442.2 508.66 577.59 542.98 455.12"/><polygon class="an" points="274.93 577.59 244.58 736.21 330.43 716.13 274.93 577.59"/><polygon class="as" points="952.99 360.55 992.03 571.62 881.85 571.62 952.99 360.55"/><polygon class="at" points="938.74 663.03 992.03 571.62 881.85 571.62 938.74 663.03"/><polyline class="at" points="881.85 571.62 938.74 663.03 878.05 659.23"/><polyline class="au" points="894.85 730.94 938.74 663.03 878.05 659.23"/><polygon class="av" points="677.73 327.76 360.37 442.2 542.98 455.12 677.73 327.76"/><polygon class="aw" points="952.99 360.55 1143.04 606.31 992.03 571.62 952.99 360.55"/><polygon class="ax" points="1010.09 684.52 1143.04 606.31 992.03 571.62 1010.09 684.52"/><polygon class="ay" points="1010.09 684.52 938.74 663.03 992.03 571.62 1010.09 684.52"/><polyline class="ay" points="979.75 774.84 1010.09 684.52 1067.17 750.78"/><polygon class="al" points="952.99 360.55 1174.63 360.31 1143.04 606.31 952.99 360.55"/><polygon class="az" points="677.73 327.76 910.63 150.26 952.99 360.55 677.73 327.76"/><polygon class="ba" points="910.63 150.26 1174.63 360.31 952.99 360.55 910.63 150.26"/><polygon class="bb" points="360.37 442.2 417.63 223.28 677.73 327.76 360.37 442.2"/><polygon class="bc" points="910.63 150.26 417.63 223.28 677.73 327.76 910.63 150.26"/><polygon class="bd" points="417.63 223.28 226.16 263.12 360.37 442.2 417.63 223.28"/><polygon class="be" points="226.16 263.12 360.37 442.2 274.93 577.59 226.16 263.12"/><polygon class="bf" points="274.93 577.59 56.67 597.1 244.58 736.21 274.93 577.59"/><polygon class="bg" points="274.93 577.59 226.16 263.12 56.67 597.1 274.93 577.59"/><polygon class="ae" points="1398.22 146.74 1371.23 175.02 1353.61 105.7 1398.22 146.74"/><polygon class="ae" points="1398.22 146.74 1371.23 175.02 1412.1 170.17 1398.22 146.74"/><polygon class="ae" points="1398.22 146.74 1403.98 113.36 1353.61 105.7 1398.22 146.74"/><polygon class="ae" points="1377.04 199.94 1376.64 234.33 1359.05 191.19 1377.04 199.94"/><polygon class="af" points="1377.04 199.94 1376.64 234.33 1405.43 207.36 1377.04 199.94"/><polygon class="af" points="1377.04 199.94 1413.58 183.69 1405.43 207.36 1377.04 199.94"/><polygon class="bh" points="417.63 223.28 226.16 263.12 260.12 -45.5 417.63 223.28"/><polygon class="bi" points="910.63 150.26 707.81 -216.06 417.63 223.28 910.63 150.26"/><polygon class="bj" points="260.12 -45.5 707.81 -216.06 417.63 223.28 260.12 -45.5"/><polygon class="ag" points="1406.27 250.2 1375.35 294.69 1420.52 293.81 1406.27 250.2"/><polygon class="x" points="1376.64 234.33 1375.35 294.69 1406.27 250.2 1376.64 234.33"/><polygon class="y" points="1376.64 234.33 1424.86 225.11 1406.27 250.2 1376.64 234.33"/><polygon class="bk" points="1359.05 191.19 1329.06 237.83 1376.64 234.33 1359.05 191.19"/><polygon class="bl" points="1375.35 294.69 1329.06 237.83 1376.64 234.33 1375.35 294.69"/><polygon class="w" points="1329.06 237.83 1295.07 336.89 1375.35 294.69 1329.06 237.83"/><polygon class="x" points="1381.94 378.51 1295.07 336.89 1375.35 294.69 1381.94 378.51"/><polygon class="y" points="1381.94 378.51 1420.52 293.81 1375.35 294.69 1381.94 378.51"/><polygon class="al" points="1329.06 237.83 1238.42 231.82 1295.07 336.89 1329.06 237.83"/><polygon class="bm" points="1295.07 336.89 1174.63 360.31 1268.74 468.17 1295.07 336.89"/><polygon class="h" points="1295.07 336.89 1362 537.24 1268.74 468.17 1295.07 336.89"/><polygon class="i" points="1295.07 336.89 1362 537.24 1381.29 379.28 1295.07 336.89"/><polygon class="bn" points="1238.42 231.82 1174.63 360.31 1295.07 336.89 1238.42 231.82"/><polygon class="bo" points="1238.42 231.82 1260.07 91.17 1078.09 126.22 1238.42 231.82"/><polygon class="bp" points="910.63 150.26 1078.09 126.22 1174.63 360.31 910.63 150.26"/><polygon class="bq" points="1238.42 231.82 1078.09 126.22 1174.63 360.31 1238.42 231.82"/><polygon class="ad" points="1174.63 360.31 1268.74 468.17 1143.04 606.31 1174.63 360.31"/><polygon class="br" points="1362 537.24 1268.74 468.41 1143.04 606.55 1362 537.24"/><polygon class="bs" points="1276.28 656.9 1067.17 750.78 1143.04 606.55 1276.28 656.9"/><polygon class="bt" points="1010.09 684.52 1067.17 750.78 1143.04 606.55 1010.09 684.52"/><polygon class="bt" points="1276.28 656.9 1067.17 750.78 1170.13 838.06 1276.28 656.9"/><polygon class="bu" points="1252.52 933.38 1117.99 976.33 1170.13 838.06 1252.52 933.38"/><polygon class="bu" points="1252.52 933.38 1459.52 794.71 1170.13 838.06 1252.52 933.38"/><polygon class="bu" points="1252.52 933.38 1459.52 794.71 1562.89 1017.96 1252.52 933.38"/><polyline class="bs" points="1362 537.24 1276.66 655.88 1143.04 606.55"/><polygon class="bt" points="1362 537.24 1276.28 656.9 1459.52 794.71 1362 537.24"/><polygon class="bu" points="1362 537.24 1455.27 419.76 1509.46 617.08 1362 537.24"/><polyline class="bt" points="1170.13 838.06 1276.28 656.9 1459.52 794.71"/><polygon class="bv" points="1078.09 126.22 1110.62 -21.09 1260.07 91.17 1078.09 126.22"/><polygon class="bw" points="1295.07 17.02 1110.62 -21.09 1260.07 91.17 1295.07 17.02"/><polygon class="bx" points="1224.78 -192.22 1110.62 -21.09 1295.07 17.02 1224.78 -192.22"/><polygon class="as" points="1353.61 105.7 1315.77 151.66 1371.23 175.02 1353.61 105.7"/><polygon class="by" points="1325.65 86.42 1315.77 151.66 1353.61 105.7 1325.65 86.42"/><polygon class="bm" points="1352.32 66.12 1295.07 17.02 1325.65 86.42 1352.32 66.12"/><polygon class="i" points="1352.32 66.12 1420.52 46.47 1410.26 86.94 1352.32 66.12"/><polygon class="h" points="1352.32 66.12 1410.26 86.94 1403.98 113.36 1353.61 105.7 1325.65 86.42 1352.32 66.12"/><polygon class="h" points="1352.32 66.12 1295.07 17.02 1326.33 0 1362.91 0 1352.32 66.12"/><polygon class="i" points="1352.32 66.12 1420.52 46.47 1383.71 0 1362.91 0 1352.32 66.12"/><polygon class="bn" points="1325.65 86.42 1260.07 91.17 1295.07 17.02 1325.65 86.42"/><polygon class="bn" points="1308.45 0 1289.35 0 1295.07 17.02 1308.45 0"/><polygon class="bz" points="1308.45 0 1326.33 0 1295.07 17.02 1308.45 0"/><polygon class="as" points="1315.77 151.66 1260.07 91.17 1325.65 86.42 1315.77 151.66"/><polygon class="ca" points="1260.07 91.17 1238.42 231.82 1315.77 151.66 1260.07 91.17"/><polygon class="bx" points="1371.23 175.02 1359.05 191.19 1315.77 151.66 1371.23 175.02"/><polygon class="cb" points="1371.23 175.02 1359.05 191.19 1377.04 199.94 1413.58 183.69 1412.1 170.17 1371.23 175.02"/><polygon class="cc" points="1329.06 237.83 1315.77 151.66 1359.05 191.19 1329.06 237.83"/><polygon class="cd" points="1238.42 231.82 1315.77 151.66 1329.06 237.83 1238.42 231.82"/><polygon class="ce" points="910.63 150.26 1110.62 -21.09 1078.09 126.22 910.63 150.26"/><polygon class="be" points="707.81 -216.06 1110.62 -21.09 910.63 150.26 707.81 -216.06"/><polygon class="cf" points="226.16 263.12 -146.78 96.51 260.12 -45.5 226.16 263.12"/><polygon class="cg" points="476.87 -652.01 260.12 -45.5 -146.78 96.51 -55.74 -624.03 476.87 -652.01"/><polygon class="ch" points="226.16 263.12 56.67 597.1 -146.78 96.51 226.16 263.12"/><polygon class="ci" points="244.58 736.21 -42.74 842.93 174.11 860.46 244.58 736.21"/><polygon class="cj" points="144.72 993.4 -42.74 842.93 174.11 860.46 144.72 993.4"/><polygon class="ck" points="100.27 1080 144.72 993.4 0 877.24 0 1080 100.27 1080"/><polygon class="cl" points="244.58 736.21 -42.74 842.93 56.67 597.1 244.58 736.21"/><polygon class="cm" points="0 457.67 0 737.24 56.67 597.1 0 457.67"/></g></g><text class="cn" transform="translate(1126.34 762.18) scale(0.98 1)">Sob<tspan class="co" x="32.47" y="0">r</tspan><tspan x="40.18" y="0">e</tspan></text><text class="cn" transform="translate(1057.89 907.69) scale(0.98 1)">Comen<tspan class="cp" x="59.11" y="0">t</tspan><tspan x="66.4" y="0">e</tspan></text><text class="cq" transform="translate(1234.07 873.58) scale(0.98 1)">C<tspan class="cr" x="11.2" y="0">r</tspan><tspan x="18.9" y="0">édi</tspan><tspan class="cs" x="45.67" y="0">t</tspan><tspan class="ct" x="52.96" y="0">o</tspan><tspan class="cu" x="63.58" y="0">s</tspan></text></g></svg>