<svg xmlns="http://www.w3.org/2000/svg" xmlns:xlink="http://www.w3.org/1999/xlink" viewBox="0 0 1920 1080"><defs><style>.a,.bi{fill:none;}.b{clip-path:url(#a);}.aa,.ab,.ac,.ad,.ae,.af,.ag,.ah,.ai,.aj,.ak,.al,.am,.an,.ao,.ap,.aq,.ar,.as,.at,.au,.av,.aw,.ax,.ay,.az,.ba,.bc,.c,.d,.e,.f,.g,.h,.i,.j,.k,.l,.m,.n,.o,.p,.q,.r,.s,.t,.u,.v,.w,.x,.y,.z{opacity:0.7;}.d{fill:#f7e3c4;}.e{fill:#fbf2e4;}.f{fill:#f9ecd7;}.be,.g{fill:#f7e6ca;}.h{fill:#f9eedc;}.i{fill:#f8e9d0;}.j{fill:#fcf5ea;}.k{fill:#f8ead2;}.l{fill:#f7e2c2;}.bb,.m{fill:#f4ddb6;}.n{fill:#faf0e1;}.o{fill:#f8e7cc;}.bd,.p{fill:#f5e0bd;}.q{fill:#f3d9ad;}.r{fill:#f9edd8;}.s{fill:#f7e5c7;}.t{fill:#f9ebd5;}.u{fill:#f5deb9;}.v{fill:#f3dab0;}.w{fill:#f3d9ab;}.x{fill:#f4dcb4;}.y{fill:#f2d7a8;}.z{fill:#f5e1bf;}.aa{fill:#fcf6ee;}.ab{fill:#fcf7ef;}.ac{fill:#fbf4e9;}.ad{fill:#faefdf;}.ae{fill:#f3d7a9;}.af{fill:#f0ce93;}.ag{fill:#f4ddb7;}.ah,.bf{fill:#f2d5a3;}.ai{fill:#f4dcb5;}.aj{fill:#f7e3c3;}.ak{fill:#f4dbb2;}.al{fill:#f5e0be;}.am{fill:#f1d29d;}.an{fill:#f3d9ae;}.ao{fill:#f0cc8d;}.ap{fill:#f0d097;}.aq{fill:#f5dfbc;}.ar{fill:#f6e2c0;}.as{fill:#f7e4c5;}.at,.bg{fill:#f1d19a;}.au{fill:#f2d6a7;}.av{fill:#f2d6a5;}.aw,.bh{fill:#efcb8b;}.ax{fill:#f0cd8f;}.ay{fill:#f2d4a1;}.az{fill:#f0cf94;}.ba{fill:#fbf2e5;}.bc{fill:#f3d9ac;}.bi{stroke:#b09b6c;stroke-linecap:round;stroke-linejoin:round;stroke-width:0.89px;stroke-dasharray:29.53 14.76;}</style><clipPath id="a"><rect class="a" width="1920" height="1080"/></clipPath></defs><title>Artboard 1</title><g class="b"><g class="c"><polygon class="d" points="541.27 953.57 623.44 1044.21 510.17 1100.1 541.27 953.57"/><polygon class="e" points="623.44 1044.21 692.32 1122.05 510.17 1100.1 623.44 1044.21"/><polygon class="f" points="623.44 1044.21 709.68 1075.43 692.32 1122.05 623.44 1044.21"/><polygon class="g" points="623.44 1044.21 694.46 951.37 709.68 1075.43 623.44 1044.21"/><polygon class="f" points="541.27 953.57 694.46 951.37 623.44 1044.21 541.27 953.57"/><polygon class="d" points="692.32 1122.05 774.99 1099.65 709.68 1075.43 692.32 1122.05"/><polygon class="g" points="709.68 1075.43 763.79 1044.21 774.99 1099.65 709.68 1075.43"/><polygon class="e" points="763.79 1044.21 836.6 1076.45 774.99 1099.65 763.79 1044.21"/><polygon class="f" points="836.6 1076.45 828.87 1005.24 763.79 1044.21 836.6 1076.45"/><polygon class="h" points="772.92 967.83 763.79 1044.21 828.87 1005.24 772.92 967.83"/><polygon class="h" points="836.6 1076.45 887 1036.44 864.6 1083.65 836.6 1076.45"/><polygon class="d" points="828.87 1005.24 887 1036.44 836.6 1076.45 828.87 1005.24"/><polygon class="i" points="284.83 1013.24 385.9 1147.94 457.64 966.31 284.83 1013.24"/><polygon class="j" points="471.51 1099.65 385.9 1147.94 457.64 966.31 471.51 1099.65"/><polygon class="k" points="284.83 1013.24 259.76 904.43 184.02 997.79 284.83 1013.24"/><polygon class="f" points="457.64 966.31 396.84 894.84 498.71 906.03 457.64 966.31"/><polygon class="l" points="396.84 894.84 284.83 1013.24 457.64 966.31 396.84 894.84"/><polygon class="e" points="259.76 904.43 396.84 894.84 284.83 1013.24 259.76 904.43"/><polygon class="m" points="396.84 894.84 434.17 810.03 498.71 906.03 396.84 894.84"/><polygon class="n" points="498.71 906.03 605.38 838.83 541.27 953.57 498.71 906.03"/><polygon class="i" points="541.27 953.57 694.46 951.37 605.38 838.83 541.27 953.57"/><polygon class="e" points="694.46 951.37 752.59 906.03 605.38 838.83 694.46 951.37"/><polygon class="f" points="605.38 838.83 434.17 810.03 498.71 906.03 605.38 838.83"/><polygon class="o" points="396.84 894.84 434.17 810.03 316.83 810.03 396.84 894.84"/><polygon class="p" points="259.76 904.43 316.83 810.03 396.84 894.84 259.76 904.43"/><polygon class="p" points="184.02 997.79 139.75 874.57 259.76 904.43 184.02 997.79"/><polygon class="q" points="316.83 810.03 139.75 874.57 259.76 904.43 316.83 810.03"/><polygon class="r" points="176.02 1106.05 53.69 1014.58 184.02 997.79 176.02 1106.05"/><polygon class="o" points="139.75 874.57 184.02 997.79 53.69 1014.58 139.75 874.57"/><polygon class="n" points="53.69 1014.58 -12.79 1201.79 176.02 1106.05 53.69 1014.58"/><polygon class="i" points="53.69 1014.58 -73.06 1044.21 -12.79 1201.79 53.69 1014.58"/><polygon class="r" points="139.75 874.57 -28.26 810.03 53.69 1014.58 139.75 874.57"/><polygon class="j" points="752.59 906.03 862.2 930.57 772.92 967.83 752.59 906.03"/><polygon class="f" points="828.87 1005.24 862.2 930.57 772.92 967.83 828.87 1005.24"/><polygon class="s" points="887 1036.44 828.87 1005.24 862.2 930.57 887 1036.44"/><polygon class="t" points="752.59 906.03 867.8 801.22 862.2 930.57 752.59 906.03"/><polygon class="u" points="605.38 838.83 715.79 729.49 752.59 906.03 605.38 838.83"/><polygon class="h" points="867.8 801.22 715.79 729.49 752.59 906.03 867.8 801.22"/><polygon class="g" points="434.17 810.03 523.78 724.4 605.38 838.83 434.17 810.03"/><polygon class="v" points="715.79 729.49 523.78 724.4 605.38 838.83 715.79 729.49"/><polygon class="l" points="862.2 930.57 951.81 936.17 887 1036.44 862.2 930.57"/><polygon class="k" points="867.8 801.22 951.81 936.17 862.2 930.57 867.8 801.22"/><polygon class="k" points="887 1036.44 901.4 1095.01 864.6 1083.65 887 1036.44"/><polygon class="p" points="887 1036.44 957.01 1046.85 901.4 1095.01 887 1036.44"/><polygon class="f" points="957.01 1046.85 1012.34 1101.25 901.4 1095.01 957.01 1046.85"/><polygon class="w" points="887 1036.44 951.81 936.17 957.01 1046.85 887 1036.44"/><polygon class="x" points="957.01 1046.85 1057.15 967.91 951.81 936.17 957.01 1046.85"/><polygon class="i" points="867.8 801.22 1030.48 801.22 951.81 936.17 867.8 801.22"/><polygon class="l" points="1057.15 967.91 1030.48 801.22 951.81 936.17 1057.15 967.91"/><polygon class="s" points="957.01 1046.85 1057.15 967.91 1012.34 1101.25 957.01 1046.85"/><polygon class="u" points="1012.34 1101.25 1141.42 1065.73 1057.15 967.91 1012.34 1101.25"/><polygon class="y" points="1025.14 1212.72 1012.34 1101.25 1141.42 1065.73 1025.14 1212.72"/><polygon class="z" points="1076.88 1279 1141.42 1065.73 1025.14 1212.72 1076.88 1279"/><polygon class="v" points="1057.15 967.91 1253.43 852.43 1030.48 801.22 1057.15 967.91"/><polygon class="l" points="1141.42 1065.73 1057.15 967.91 1253.43 852.43 1141.42 1065.73"/><polygon class="f" points="1141.42 1065.73 1293.43 1194.59 1076.88 1279 1141.42 1065.73"/><polygon class="f" points="523.78 724.4 566.45 441.19 715.79 729.49 523.78 724.4"/><polygon class="z" points="972.84 489.6 715.79 729.49 867.8 801.22 972.84 489.6"/><polygon class="w" points="972.84 489.6 566.45 441.19 715.79 729.49 972.84 489.6"/><polygon class="i" points="367.5 629.22 316.83 810.03 434.17 810.03 367.5 629.22"/><polygon class="h" points="139.75 874.57 97.88 610.15 316.83 810.03 139.75 874.57"/><polygon class="i" points="-28.26 810.03 139.75 874.57 97.88 610.15 -28.26 810.03"/><polygon class="x" points="523.78 724.4 367.5 629.22 434.17 810.03 523.78 724.4"/><polygon class="l" points="566.45 441.19 367.5 629.22 523.78 724.4 566.45 441.19"/><polygon class="aa" points="367.5 629.22 97.88 610.15 316.83 810.03 367.5 629.22"/><polygon class="i" points="-28.26 810.03 -73.06 1044.21 53.69 1014.58 -28.26 810.03"/><polygon class="y" points="972.84 489.6 1030.48 801.22 867.8 801.22 972.84 489.6"/><polygon class="f" points="566.45 441.19 97.88 610.15 367.5 629.22 566.45 441.19"/><polygon class="g" points="972.84 489.6 1253.43 852.43 1030.48 801.22 972.84 489.6"/><polygon class="z" points="972.84 489.6 1300.07 489.23 1253.43 852.43 972.84 489.6"/><polygon class="ab" points="566.45 441.19 910.31 179.12 972.84 489.6 566.45 441.19"/><polygon class="n" points="910.31 179.12 1300.07 489.23 972.84 489.6 910.31 179.12"/><polygon class="ac" points="97.88 610.15 182.42 286.93 566.45 441.19 97.88 610.15"/><polygon class="ad" points="910.31 179.12 182.42 286.93 566.45 441.19 910.31 179.12"/><polygon class="r" points="182.42 286.93 -100.26 345.75 97.88 610.15 182.42 286.93"/><polygon class="h" points="-100.26 345.75 97.88 610.15 -28.26 810.03 -100.26 345.75"/><polygon class="ae" points="1867.03 197.84 1916.2 225.69 1797.45 241.13 1867.03 197.84"/><polygon class="s" points="1970.89 296.34 1916.2 225.69 1940.73 219.94 1970.89 296.34"/><polygon class="af" points="1920.03 316.87 1853.51 276.26 1916.2 225.69 1920.03 316.87"/><polygon class="ag" points="1853.51 276.26 1797.45 241.13 1916.2 225.69 1853.51 276.26"/><polygon class="ah" points="1853.51 276.26 1793.94 271.3 1797.45 241.13 1853.51 276.26"/><polygon class="ai" points="1853.51 276.26 1823.47 342.02 1793.94 271.3 1853.51 276.26"/><polygon class="aj" points="1920.03 316.87 1823.47 342.02 1853.51 276.26 1920.03 316.87"/><polygon class="ah" points="1797.45 241.13 1748.74 267.21 1793.94 271.3 1797.45 241.13"/><polygon class="ak" points="1793.94 271.3 1764.72 298.12 1748.74 267.21 1793.94 271.3"/><polygon class="ag" points="1764.72 298.12 1713.49 290.47 1748.74 267.21 1764.72 298.12"/><polygon class="al" points="1713.49 290.47 1729.8 331.22 1764.72 298.12 1713.49 290.47"/><polygon class="ag" points="1771.19 344.55 1764.72 298.12 1729.8 331.22 1771.19 344.55"/><polygon class="al" points="1713.49 290.47 1688.02 321.89 1694.62 290.59 1713.49 290.47"/><polygon class="am" points="1729.8 331.22 1688.02 321.89 1713.49 290.47 1729.8 331.22"/><polygon class="g" points="1930.87 151.95 1916.2 225.69 1867.03 197.84 1930.87 151.95"/><polygon class="an" points="1940.73 219.94 1930.87 151.95 1916.2 225.69 1940.73 219.94"/><polygon class="al" points="1954.58 338.25 1897.87 394.45 1920.03 316.87 1954.58 338.25"/><polygon class="i" points="1920.03 316.87 1823.47 342.02 1897.87 394.45 1920.03 316.87"/><polygon class="ag" points="1823.47 342.02 1793.96 377.79 1897.87 394.45 1823.47 342.02"/><polygon class="ao" points="1897.87 394.45 2010.81 384.76 1954.58 338.25 1897.87 394.45"/><polygon class="y" points="1793.96 377.79 1720.69 380.41 1771.19 344.55 1793.96 377.79"/><polygon class="ai" points="1729.8 331.22 1720.69 380.41 1771.19 344.55 1729.8 331.22"/><polygon class="s" points="1688.02 321.89 1729.8 331.22 1720.69 380.41 1688.02 321.89"/><polygon class="an" points="1793.96 377.79 1737.89 457.49 1720.69 380.41 1793.96 377.79"/><polygon class="ap" points="1897.87 394.45 1845.56 476.07 1793.96 377.79 1897.87 394.45"/><polygon class="ai" points="1737.89 457.49 1845.56 476.07 1793.96 377.79 1737.89 457.49"/><polygon class="g" points="2010.81 384.76 1954.34 476.07 1897.87 394.45 2010.81 384.76"/><polygon class="v" points="1845.56 476.07 1954.34 476.07 1897.87 394.45 1845.56 476.07"/><polygon class="l" points="1720.69 380.41 1663.1 391.06 1688.02 321.89 1720.69 380.41"/><polygon class="ae" points="1737.89 457.49 1663.1 391.06 1720.69 380.41 1737.89 457.49"/><polygon class="x" points="1694.62 290.59 1669.51 289.63 1686.95 270.35 1694.62 290.59"/><polygon class="y" points="1686.95 270.35 1683.98 244.57 1640.82 263.42 1686.95 270.35"/><polygon class="p" points="1669.51 289.63 1640.82 263.42 1686.95 270.35 1669.51 289.63"/><polygon class="ah" points="1688.02 321.89 1669.51 289.63 1694.62 290.59 1688.02 321.89"/><polygon class="p" points="1688.02 321.89 1642.06 326.67 1669.51 289.63 1688.02 321.89"/><polygon class="d" points="1640.82 263.42 1669.51 289.63 1598.33 303.24 1640.82 263.42"/><polygon class="aq" points="1642.06 326.67 1598.33 303.24 1669.51 289.63 1642.06 326.67"/><polygon class="g" points="1683.98 244.57 1652.86 228.47 1679.07 192.49 1683.98 244.57"/><polygon class="n" points="1652.86 228.47 1650.67 208.51 1679.07 192.49 1652.86 228.47"/><polygon class="f" points="1650.67 208.51 1630.18 173.93 1679.07 192.49 1650.67 208.51"/><polygon class="g" points="1590.33 215.68 1650.67 208.51 1630.18 173.93 1590.33 215.68"/><polygon class="g" points="1630.18 173.93 1680.35 123.1 1679.07 192.49 1630.18 173.93"/><polygon class="v" points="1692.84 76.43 1680.35 123.1 1647.95 85.64 1692.84 76.43"/><polygon class="l" points="1638.68 124.64 1647.95 85.64 1680.35 123.1 1638.68 124.64"/><polygon class="ak" points="1630.18 173.93 1638.68 124.64 1680.35 123.1 1630.18 173.93"/><polygon class="am" points="1630.18 173.93 1564.32 113.33 1638.68 124.64 1630.18 173.93"/><polygon class="u" points="1630.18 173.93 1590.33 215.68 1564.32 113.33 1630.18 173.93"/><polygon class="r" points="1652.86 228.47 1640.82 263.42 1683.98 244.57 1652.86 228.47"/><polygon class="ar" points="1640.82 263.42 1598.91 252.46 1652.86 228.47 1640.82 263.42"/><polygon class="k" points="1598.33 303.24 1598.91 252.46 1640.82 263.42 1598.33 303.24"/><polygon class="w" points="1688.02 321.89 1663.1 391.06 1642.06 326.67 1688.02 321.89"/><polygon class="as" points="1737.89 457.49 1606.13 517.25 1663.1 391.06 1737.89 457.49"/><polygon class="u" points="1598.91 252.46 1598.33 303.24 1572.35 239.55 1598.91 252.46"/><polygon class="ab" points="182.42 286.93 -100.26 345.75 -50.13 -109.9 182.42 286.93"/><polygon class="ac" points="910.31 179.12 610.85 -361.71 182.42 286.93 910.31 179.12"/><polygon class="ad" points="-50.13 -109.9 610.85 -361.71 182.42 286.93 -50.13 -109.9"/><polygon class="h" points="1642.06 326.67 1596.42 392.35 1663.1 391.06 1642.06 326.67"/><polygon class="s" points="1598.33 303.24 1596.42 392.35 1642.06 326.67 1598.33 303.24"/><polygon class="am" points="1572.35 239.55 1528.08 308.41 1598.33 303.24 1572.35 239.55"/><polygon class="q" points="1596.42 392.35 1528.08 308.41 1598.33 303.24 1596.42 392.35"/><polygon class="s" points="1663.1 391.06 1596.42 392.35 1606.13 517.25 1663.1 391.06"/><polygon class="s" points="1528.08 308.41 1477.89 454.66 1596.42 392.35 1528.08 308.41"/><polygon class="z" points="1606.13 517.25 1477.89 454.66 1596.42 392.35 1606.13 517.25"/><polygon class="z" points="1528.08 308.41 1394.25 299.54 1477.89 454.66 1528.08 308.41"/><polygon class="at" points="1605.18 517.25 1576.71 750.46 1477.89 454.66 1605.18 517.25"/><polygon class="w" points="1576.71 750.46 1439.01 648.48 1477.89 454.66 1576.71 750.46"/><polygon class="m" points="1477.89 454.66 1300.07 489.23 1439.01 648.48 1477.89 454.66"/><polygon class="l" points="1394.25 299.54 1300.07 489.23 1477.89 454.66 1394.25 299.54"/><polygon class="l" points="1606.14 516.11 1713.37 577.73 1738.91 458.64 1606.14 516.11"/><polygon class="au" points="1576.71 750.46 1714.41 577.01 1605.18 517.25 1576.71 750.46"/><polygon class="at" points="1714.41 577.01 1794.41 868.34 1576.71 750.46 1714.41 577.01"/><polygon class="av" points="1737.89 457.49 1714.41 577.01 1845.56 476.07 1737.89 457.49"/><polygon class="l" points="1714.41 577.01 1845.56 476.07 1907.96 611.15 1714.41 577.01"/><polygon class="aw" points="1794.41 868.34 1907.96 611.15 1714.41 577.01 1794.41 868.34"/><polygon class="au" points="1794.41 868.34 1983.95 927.12 1907.96 611.15 1794.41 868.34"/><polygon class="o" points="1954.34 476.07 1907.96 611.15 1845.56 476.07 1954.34 476.07"/><polygon class="ah" points="1907.96 611.15 1954.34 476.07 2077.31 621.81 1907.96 611.15"/><polygon class="ax" points="2077.31 621.81 1983.95 927.12 1907.96 611.15 2077.31 621.81"/><polygon class="l" points="1394.25 299.54 1426.21 91.87 1157.54 143.63 1394.25 299.54"/><polygon class="o" points="910.31 179.12 1157.54 143.63 1300.07 489.23 910.31 179.12"/><polygon class="q" points="1394.25 299.54 1157.54 143.63 1300.07 489.23 1394.25 299.54"/><polygon class="d" points="1300.07 489.23 1439.01 648.48 1253.43 852.43 1300.07 489.23"/><polygon class="k" points="1576.71 750.46 1253.43 852.43 1439.01 648.48 1576.71 750.46"/><polygon class="z" points="1253.43 852.43 1450.15 927.12 1141.42 1065.73 1253.43 852.43"/><polygon class="z" points="1450.15 927.12 1293.43 1194.59 1141.42 1065.73 1450.15 927.12"/><polygon class="g" points="1450.15 927.12 1720.69 1130.58 1293.43 1194.59 1450.15 927.12"/><polygon class="z" points="1576.71 750.46 1450.15 927.12 1253.43 852.43 1576.71 750.46"/><polygon class="u" points="1794.41 868.34 1720.69 1130.58 1576.71 750.46 1794.41 868.34"/><polygon class="v" points="1450.15 927.12 1578.42 750.46 1720.69 1130.58 1450.15 927.12"/><polygon class="s" points="1983.95 927.12 1720.69 1130.58 1794.41 868.34 1983.95 927.12"/><polygon class="m" points="1157.54 143.63 1205.57 -73.86 1426.21 91.87 1157.54 143.63"/><polygon class="y" points="1477.89 -17.59 1205.57 -73.86 1426.21 91.87 1477.89 -17.59"/><polygon class="y" points="1692.84 76.43 1663.1 25.88 1714.07 14.2 1692.84 76.43"/><polygon class="y" points="1647.95 85.64 1663.1 25.88 1692.84 76.43 1647.95 85.64"/><polygon class="y" points="1564.32 113.33 1508.46 181.19 1590.33 215.68 1564.32 113.33"/><polygon class="ah" points="1523.04 84.86 1508.46 181.19 1564.32 113.33 1523.04 84.86"/><polygon class="ay" points="1562.41 54.9 1663.1 25.88 1647.95 85.64 1562.41 54.9"/><polygon class="s" points="1583.22 -74.96 1562.41 54.9 1663.1 25.88 1583.22 -74.96"/><polygon class="u" points="1714.41 -32.15 1663.1 25.88 1583.22 -74.96 1714.41 -32.15"/><polygon class="g" points="1714.07 14.2 1663.1 25.88 1714.41 -32.15 1714.07 14.2"/><polygon class="m" points="1770.2 -62.66 1714.41 -32.15 1714.07 14.2 1770.2 -62.66"/><polygon class="m" points="1562.41 54.9 1477.89 -17.59 1523.04 84.86 1562.41 54.9"/><polygon class="y" points="1583.22 -74.96 1477.89 -17.59 1562.41 54.9 1583.22 -74.96"/><polygon class="l" points="1523.04 84.86 1426.21 91.87 1477.89 -17.59 1523.04 84.86"/><polygon class="y" points="1508.46 181.19 1426.21 91.87 1523.04 84.86 1508.46 181.19"/><polygon class="am" points="1426.21 91.87 1394.25 299.54 1508.46 181.19 1426.21 91.87"/><polygon class="az" points="1590.33 215.68 1572.35 239.55 1508.46 181.19 1590.33 215.68"/><polygon class="au" points="1528.08 308.41 1508.46 181.19 1572.35 239.55 1528.08 308.41"/><polygon class="u" points="1394.25 299.54 1508.46 181.19 1528.08 308.41 1394.25 299.54"/><polygon class="ba" points="1720.69 1130.58 2260.32 1141.52 1983.95 927.12 1720.69 1130.58"/><polygon class="ac" points="910.31 179.12 1205.57 -73.86 1157.54 143.63 910.31 179.12"/><polygon class="h" points="610.85 -361.71 1205.57 -73.86 910.31 179.12 610.85 -361.71"/><polygon class="n" points="269.89 -1005.36 -50.13 -109.9 -650.87 99.77 -516.47 -964.05 269.89 -1005.36"/></g><g class="c"><polygon class="ai" points="1793.94 271.3 1823.47 342.02 1771.19 344.55 1793.94 271.3"/><polygon class="ai" points="1970.89 296.34 1920.03 316.87 1916.2 225.69 1970.89 296.34"/><polygon class="w" points="1771.19 344.55 1793.94 271.3 1764.72 298.12 1771.19 344.55"/><polygon class="an" points="1823.47 342.02 1793.96 377.79 1771.19 344.55 1823.47 342.02"/><polygon class="am" points="1647.95 85.64 1562.41 54.9 1564.32 113.33 1647.95 85.64"/><polygon class="ai" points="1650.67 208.51 1590.33 215.68 1598.91 252.46 1650.67 208.51"/><polygon class="w" points="1598.91 252.46 1652.86 228.47 1650.67 208.51 1598.91 252.46"/><polygon class="g" points="1598.91 252.46 1572.35 239.55 1590.33 215.68 1598.91 252.46"/><polygon class="ai" points="1647.95 85.64 1638.68 124.64 1564.32 113.33 1647.95 85.64"/><polygon class="ai" points="1562.41 54.9 1523.04 84.86 1564.32 113.33 1562.41 54.9"/></g><polygon class="h" points="709.68 1075.43 694.46 951.37 772.92 967.83 709.68 1075.43"/><polygon class="p" points="457.64 966.31 541.27 953.57 510.17 1100.1 457.64 966.31"/><polygon class="p" points="176.02 1106.05 284.83 1013.24 346.7 1227.66 176.02 1106.05"/><polygon class="o" points="457.64 966.31 510.17 1100.1 471.51 1099.65 457.64 966.31"/><polygon class="p" points="772.92 967.83 709.68 1075.43 763.79 1044.21 772.92 967.83"/><polygon class="h" points="284.83 1013.24 385.9 1147.94 346.7 1227.66 284.83 1013.24"/><polygon class="h" points="457.64 966.31 498.71 906.03 541.27 953.57 457.64 966.31"/><polygon class="h" points="284.83 1013.24 184.02 997.79 176.02 1106.05 284.83 1013.24"/><polygon class="p" points="694.46 951.37 752.59 906.03 772.92 967.83 694.46 951.37"/><g class="c"><polygon class="ai" points="1801.01 -39.39 1714.07 14.2 1753.83 35.93 1801.01 -39.39"/><polygon class="bb" points="1753.83 35.93 1714.07 14.2 1724.14 93.54 1753.83 35.93"/><polygon class="am" points="1724.14 93.54 1714.07 14.2 1692.84 76.43 1724.14 93.54"/><polygon class="bc" points="1724.14 93.54 1680.35 123.1 1692.84 76.43 1724.14 93.54"/><polygon class="ai" points="1711.41 168.43 1724.14 93.54 1680.35 123.1 1711.41 168.43"/><polygon class="bd" points="1679.07 192.49 1711.41 168.43 1680.35 123.1 1679.07 192.49"/><polygon class="be" points="1707.34 219.68 1711.41 168.43 1679.07 192.49 1707.34 219.68"/><polygon class="ai" points="1683.98 244.57 1707.34 219.68 1679.07 192.49 1683.98 244.57"/><polygon class="g" points="1683.98 244.57 1705.59 242.29 1707.34 219.68 1683.98 244.57"/><polygon class="w" points="1708.95 268.25 1705.59 242.29 1683.98 244.57 1708.95 268.25"/><polygon class="ai" points="1708.95 268.25 1683.98 244.57 1686.95 270.35 1708.95 268.25"/><polygon class="g" points="1686.95 270.35 1694.62 290.59 1708.95 268.25 1686.95 270.35"/><polygon class="ai" points="1694.62 290.59 1713.49 290.47 1708.95 268.25 1694.62 290.59"/><polygon class="w" points="1801.01 -39.39 1714.07 14.2 1770.2 -62.66 1801.01 -39.39"/><polygon class="af" points="1922.27 107.13 1873.31 157.41 1930.87 151.95 1922.27 107.13"/><polygon class="ai" points="1930.87 151.95 1867.03 197.84 1873.31 157.41 1930.87 151.95"/><polygon class="g" points="1812.09 204.98 1867.03 197.84 1873.31 157.41 1812.09 204.98"/><polygon class="w" points="1748.74 267.21 1708.95 268.25 1713.49 290.47 1748.74 267.21"/><polygon class="bf" points="1731.97 251.89 1708.95 268.25 1748.74 267.21 1731.97 251.89"/><polygon class="w" points="1766.34 230.01 1731.97 251.89 1748.74 267.21 1766.34 230.01"/><polygon class="g" points="1766.34 230.01 1748.74 267.21 1797.45 241.13 1766.34 230.01"/><polygon class="ai" points="1812.09 204.98 1766.34 230.01 1797.45 241.13 1812.09 204.98"/><polygon class="w" points="1797.45 241.13 1867.03 197.84 1812.09 204.98 1797.45 241.13"/></g><g class="c"><polygon class="aj" points="1753.83 35.93 1766.11 36.09 1767.68 13.54 1753.83 35.93"/><polygon class="ai" points="1775.31 69.88 1745.14 52.79 1753.83 35.93 1766.11 36.09 1775.31 69.88"/><polygon class="d" points="1775.31 69.88 1724.14 93.54 1745.14 52.79 1775.31 69.88"/><polygon class="ai" points="1792.76 96.93 1711.41 168.43 1724.14 93.54 1792.76 96.93"/><polygon class="w" points="1790.66 161.32 1711.41 168.43 1792.76 96.93 1790.66 161.32"/><polygon class="w" points="1861.55 127.44 1873.31 157.41 1812.09 204.98 1861.55 127.44"/><polygon class="ai" points="1873.31 157.41 1915.39 114.18 1861.55 127.44 1873.31 157.41"/><polygon class="aj" points="1731.97 251.89 1705.59 242.29 1708.95 268.25 1731.97 251.89"/><polygon class="af" points="1707.34 219.68 1731.97 251.89 1705.59 242.29 1707.34 219.68"/><polygon class="ai" points="1766.34 230.01 1731.97 251.89 1707.34 219.68 1766.34 230.01"/><polygon class="af" points="1707.34 219.68 1711.41 168.43 1766.34 230.01 1707.34 219.68"/><polygon class="af" points="1812.09 204.98 1790.66 161.32 1766.34 230.01 1812.09 204.98"/><polygon class="ai" points="1766.34 230.01 1790.66 161.32 1711.41 168.43 1766.34 230.01"/><polygon class="aj" points="1792.76 96.93 1775.31 69.88 1724.14 93.54 1792.76 96.93"/><polygon class="aj" points="1790.66 161.32 1861.55 127.44 1812.09 204.98 1790.66 161.32"/><polygon class="af" points="1790.66 161.32 1861.55 127.44 1831.84 129.39 1792.76 96.93 1790.66 161.32"/></g><g class="c"><polygon class="aj" points="1915.39 114.18 1861.55 127.44 1895.41 111.63 1922.27 107.13 1915.39 114.18"/><polygon class="ai" points="1831.84 129.39 1861.55 127.44 1895.41 111.63 1860.18 122.41 1828.41 116.82 1831.84 129.39"/><polygon class="h" points="1831.84 129.39 1792.76 96.93 1828.41 116.82 1831.84 129.39"/><polygon class="d" points="1792.76 96.93 1775.31 69.88 1775.58 25.88 1784.59 66.92 1792.76 96.93"/><polygon class="bb" points="1792.76 96.93 1828.41 116.82 1798.76 88.58 1784.59 66.92 1792.76 96.93"/><polygon class="h" points="1775.31 69.88 1766.11 36.09 1775.58 25.88 1775.31 69.88"/><polygon class="d" points="1766.11 36.09 1775.58 25.88 1778.27 4.68 1787.93 -18.52 1767.68 13.54 1766.11 36.09"/><polygon class="bb" points="1895.41 111.63 1922.27 107.13 1938.59 76.62 1944.95 50.24 1925.41 88.25 1895.41 111.63"/><polygon class="bb" points="1778.27 4.68 1813.84 -39.87 1787.93 -18.52 1778.27 4.68"/><polygon class="bb" points="1854.26 71.56 1829.29 53.9 1862.36 47.1 1854.26 71.56"/><polygon class="h" points="1867.61 26.7 1829.29 53.9 1821.26 27.04 1867.61 26.7"/><polygon class="aj" points="1867.61 26.7 1821.26 27.04 1833.08 4.35 1867.61 26.7"/><polygon class="w" points="1829.29 53.9 1862.36 47.1 1867.61 26.7 1829.29 53.9"/><polygon class="aj" points="1874.17 42.85 1882.61 67.26 1902.06 51.41 1874.17 42.85"/><polygon class="d" points="1867.61 26.7 1874.17 42.85 1907.96 24.14 1867.61 26.7"/><polygon class="ai" points="1907.96 24.14 1902.06 51.41 1874.17 42.85 1907.96 24.14"/><polygon class="ai" points="1907.96 24.14 1893.68 -1.85 1867.61 26.7 1907.96 24.14"/><polygon class="d" points="1867.61 26.7 1893.68 -1.85 1861.98 -11.15 1867.61 26.7"/><polygon class="w" points="1867.61 26.7 1861.98 -11.15 1833.08 4.35 1867.61 26.7"/><polygon class="ai" points="1867.61 26.7 1874.17 42.85 1862.36 47.1 1867.61 26.7"/><polygon class="ai" points="1874.17 42.85 1854.26 71.56 1862.36 47.1 1874.17 42.85"/><polygon class="ai" points="1874.17 42.85 1882.61 67.26 1854.26 71.56 1874.17 42.85"/><polygon class="h" points="1882.61 67.26 1895.41 111.63 1860.18 122.41 1882.61 67.26"/><polygon class="ai" points="1854.26 71.56 1828.41 116.82 1829.29 53.9 1854.26 71.56"/><polygon class="aj" points="1860.18 122.41 1828.41 116.82 1854.26 71.56 1860.18 122.41"/><polygon class="h" points="1798.76 88.58 1828.41 116.82 1829.29 53.9 1798.76 88.58"/><polygon class="aj" points="1798.76 88.58 1784.59 66.92 1829.29 53.9 1798.76 88.58"/><polygon class="d" points="1829.29 53.9 1821.26 27.04 1775.58 25.88 1829.29 53.9"/><polygon class="bb" points="1784.59 66.92 1829.29 53.9 1775.58 25.88 1784.59 66.92"/><polygon class="h" points="1833.08 4.35 1813.84 -39.87 1778.27 4.68 1833.08 4.35"/><polygon class="ai" points="1821.26 27.04 1778.27 4.68 1833.08 4.35 1821.26 27.04"/><polygon class="aj" points="1775.58 25.88 1821.26 27.04 1778.27 4.68 1775.58 25.88"/><polygon class="ai" points="1902.06 51.41 1925.41 88.25 1882.61 67.26 1902.06 51.41"/><polygon class="w" points="1925.41 88.25 1895.41 111.63 1882.61 67.26 1925.41 88.25"/><polygon class="h" points="1944.95 50.24 1907.96 24.14 1952.46 28.25 1944.95 50.24"/><polygon class="w" points="1860.18 122.41 1882.61 67.26 1854.26 71.56 1860.18 122.41"/><polygon class="h" points="1902.06 51.41 1925.41 88.25 1944.95 50.24 1902.06 51.41"/><polygon class="w" points="1907.96 24.14 1902.06 51.41 1944.95 50.24 1907.96 24.14"/><polygon class="h" points="1907.96 24.14 1893.68 -1.85 1936.48 -30.47 1907.96 24.14"/><polygon class="w" points="1936.48 -30.47 1950.47 -6.43 1907.96 24.14 1936.48 -30.47"/><polygon class="d" points="1952.46 28.25 1950.47 -6.43 1907.96 24.14 1952.46 28.25"/><polygon class="d" points="1833.08 4.35 1861.98 -11.15 1813.84 -39.87 1833.08 4.35"/></g><g class="c"><polygon class="bg" points="864.6 1083.65 836.6 1076.45 834.35 1113.58 864.6 1083.65"/><polygon class="bh" points="774.99 1099.65 834.35 1113.58 836.6 1076.45 774.99 1099.65"/></g><polygon class="bi" points="541.27 953.57 623.44 1044.21 510.17 1100.1 541.27 953.57"/><polygon class="bi" points="623.44 1044.21 709.68 1075.43 692.32 1122.05 623.44 1044.21"/><line class="bi" x1="694.46" y1="951.37" x2="709.68" y2="1075.43"/><polyline class="bi" points="541.27 953.57 694.46 951.37 623.44 1044.21"/><polyline class="bi" points="692.32 1122.05 774.99 1099.65 709.68 1075.43"/><line class="bi" x1="709.68" y1="1075.43" x2="763.79" y2="1044.21"/><polygon class="bi" points="763.79 1044.21 836.6 1076.45 774.99 1099.65 763.79 1044.21"/><polygon class="bi" points="772.92 967.83 763.79 1044.21 828.87 1005.24 772.92 967.83"/><polygon class="bi" points="836.6 1076.45 887 1036.44 864.6 1083.65 836.6 1076.45"/><line class="bi" x1="836.6" y1="1076.45" x2="828.86" y2="1005.24"/><polygon class="bi" points="284.83 1013.24 385.9 1147.94 457.64 966.31 284.83 1013.24"/><line class="bi" x1="457.64" y1="966.31" x2="471.51" y2="1099.65"/><polygon class="bi" points="284.83 1013.24 259.76 904.43 184.02 997.79 284.83 1013.24"/><polygon class="bi" points="457.64 966.31 396.84 894.84 498.71 906.03 457.64 966.31"/><line class="bi" x1="396.84" y1="894.83" x2="284.83" y2="1013.24"/><line class="bi" x1="259.76" y1="904.44" x2="396.84" y2="894.83"/><polygon class="bi" points="498.71 906.03 605.38 838.83 541.27 953.57 498.71 906.03"/><line class="bi" x1="694.46" y1="951.37" x2="605.38" y2="838.83"/><line class="bi" x1="694.46" y1="951.37" x2="752.59" y2="906.04"/><polygon class="bi" points="605.38 838.83 434.17 810.03 498.71 906.03 605.38 838.83"/><polygon class="bi" points="396.84 894.84 434.17 810.03 316.83 810.03 396.84 894.84"/><polygon class="bi" points="316.83 810.03 139.75 874.57 259.76 904.43 316.83 810.03"/><polygon class="bi" points="176.02 1106.05 53.69 1014.58 184.02 997.79 176.02 1106.05"/><polyline class="bi" points="53.69 1014.58 139.75 874.57 184.02 997.79"/><polygon class="bi" points="53.69 1014.58 -73.06 1044.21 -12.79 1201.79 53.69 1014.58"/><polyline class="bi" points="139.75 874.57 -28.26 810.03 53.69 1014.58"/><polygon class="bi" points="752.59 906.03 862.2 930.57 772.92 967.83 752.59 906.03"/><polygon class="bi" points="887 1036.44 828.87 1005.24 862.2 930.57 887 1036.44"/><polyline class="bi" points="752.59 906.03 867.8 801.22 862.2 930.57"/><polygon class="bi" points="605.38 838.83 715.79 729.49 752.59 906.03 605.38 838.83"/><polygon class="bi" points="434.17 810.03 523.78 724.4 605.38 838.83 434.17 810.03"/><line class="bi" x1="862.2" y1="930.57" x2="951.81" y2="936.17"/><line class="bi" x1="887" y1="1036.44" x2="901.4" y2="1095.01"/><polyline class="bi" points="887 1036.44 957.01 1046.85 901.4 1095.01"/><polyline class="bi" points="887 1036.44 951.81 936.17 957.01 1046.85"/><line class="bi" x1="1057.15" y1="967.91" x2="951.81" y2="936.17"/><polygon class="bi" points="867.8 801.22 1030.48 801.22 951.81 936.17 867.8 801.22"/><polygon class="bi" points="957.01 1046.85 1057.15 967.91 1012.34 1101.25 957.01 1046.85"/><polygon class="bi" points="1012.34 1101.25 1141.42 1065.73 1057.15 967.91 1012.34 1101.25"/><polygon class="bi" points="1076.88 1279 1141.42 1065.73 1025.14 1212.72 1076.88 1279"/><polygon class="bi" points="1057.15 967.91 1253.43 852.43 1030.48 801.22 1057.15 967.91"/><line class="bi" x1="1253.43" y1="852.43" x2="1141.42" y2="1065.73"/><polygon class="bi" points="523.78 724.4 566.45 441.19 715.79 729.49 523.78 724.4"/><polygon class="bi" points="972.84 489.6 715.79 729.49 867.8 801.22 972.84 489.6"/><line class="bi" x1="367.5" y1="629.22" x2="316.83" y2="810.03"/><line class="bi" x1="97.88" y1="610.15" x2="316.83" y2="810.03"/><line class="bi" x1="139.75" y1="874.57" x2="97.88" y2="610.15"/><polyline class="bi" points="523.78 724.4 367.5 629.22 434.17 810.03"/><line class="bi" x1="566.45" y1="441.19" x2="367.5" y2="629.22"/><line class="bi" x1="367.5" y1="629.22" x2="97.88" y2="610.15"/><line class="bi" x1="566.45" y1="441.19" x2="97.88" y2="610.15"/><line class="bi" x1="1030.48" y1="801.22" x2="972.84" y2="489.6"/><polygon class="bi" points="972.84 489.6 1300.07 489.23 1253.43 852.43 972.84 489.6"/><polygon class="bi" points="566.45 441.19 910.31 179.12 972.84 489.6 566.45 441.19"/><line class="bi" x1="97.88" y1="610.15" x2="182.42" y2="286.93"/><polyline class="bi" points="910.31 179.12 182.42 286.93 566.45 441.19"/><polygon class="bi" points="-100.26 345.75 97.88 610.15 -28.26 810.03 -100.26 345.75"/><polygon class="bi" points="1867.03 197.84 1916.2 225.69 1797.45 241.13 1867.03 197.84"/><polygon class="bi" points="1970.89 296.34 1916.2 225.69 1940.73 219.94 1970.89 296.34"/><polygon class="bi" points="1920.03 316.87 1853.51 276.26 1916.2 225.69 1920.03 316.87"/><polygon class="bi" points="1853.51 276.26 1793.94 271.3 1797.45 241.13 1853.51 276.26"/><line class="bi" x1="1823.47" y1="342.02" x2="1793.94" y2="271.3"/><polyline class="bi" points="1920.03 316.87 1823.47 342.02 1853.51 276.26"/><polygon class="bi" points="1797.45 241.13 1748.74 267.21 1793.94 271.3 1797.45 241.13"/><line class="bi" x1="1793.94" y1="271.3" x2="1764.72" y2="298.12"/><polygon class="bi" points="1764.72 298.12 1713.49 290.47 1748.74 267.21 1764.72 298.12"/><line class="bi" x1="1713.49" y1="290.47" x2="1729.8" y2="331.22"/><polygon class="bi" points="1771.19 344.55 1764.72 298.12 1729.8 331.22 1771.19 344.55"/><polygon class="bi" points="1713.49 290.47 1688.02 321.89 1694.62 290.59 1713.49 290.47"/><line class="bi" x1="1867.03" y1="197.85" x2="1930.87" y2="151.95"/><polygon class="bi" points="1940.73 219.94 1930.87 151.95 1916.2 225.69 1940.73 219.94"/><polygon class="bi" points="1954.58 338.25 1897.87 394.45 1920.03 316.87 1954.58 338.25"/><polygon class="bi" points="1823.47 342.02 1793.96 377.79 1897.87 394.45 1823.47 342.02"/><polygon class="bi" points="1897.87 394.45 2010.81 384.76 1954.58 338.25 1897.87 394.45"/><polygon class="bi" points="1793.96 377.79 1720.69 380.41 1771.19 344.55 1793.96 377.79"/><polygon class="bi" points="1688.02 321.89 1729.8 331.22 1720.69 380.41 1688.02 321.89"/><line class="bi" x1="1793.96" y1="377.79" x2="1737.89" y2="457.49"/><polyline class="bi" points="1897.87 394.45 1845.56 476.07 1793.96 377.79"/><line class="bi" x1="1737.89" y1="457.49" x2="1845.56" y2="476.07"/><polyline class="bi" points="2010.81 384.76 1954.34 476.07 1897.87 394.45"/><line class="bi" x1="1845.56" y1="476.07" x2="1954.34" y2="476.07"/><line class="bi" x1="1663.1" y1="391.06" x2="1688.02" y2="321.89"/><polygon class="bi" points="1737.89 457.49 1663.1 391.06 1720.69 380.41 1737.89 457.49"/><line class="bi" x1="1686.95" y1="270.35" x2="1694.62" y2="290.59"/><polygon class="bi" points="1686.95 270.35 1683.98 244.57 1640.82 263.42 1686.95 270.35"/><line class="bi" x1="1686.95" y1="270.35" x2="1669.51" y2="289.63"/><polygon class="bi" points="1688.02 321.89 1669.51 289.63 1694.62 290.59 1688.02 321.89"/><polyline class="bi" points="1688.02 321.89 1642.06 326.67 1669.51 289.63"/><polygon class="bi" points="1640.82 263.42 1669.51 289.63 1598.33 303.24 1640.82 263.42"/><polygon class="bi" points="1683.98 244.57 1652.86 228.47 1679.07 192.49 1683.98 244.57"/><line class="bi" x1="1652.86" y1="228.47" x2="1650.67" y2="208.51"/><polygon class="bi" points="1650.67 208.51 1630.18 173.93 1679.07 192.49 1650.67 208.51"/><line class="bi" x1="1590.33" y1="215.68" x2="1650.67" y2="208.51"/><polygon class="bi" points="1630.18 173.93 1680.35 123.1 1679.07 192.49 1630.18 173.93"/><polygon class="bi" points="1692.84 76.43 1680.35 123.1 1647.95 85.64 1692.84 76.43"/><polyline class="bi" points="1680.35 123.1 1638.68 124.64 1647.95 85.64"/><polygon class="bi" points="1630.18 173.93 1564.32 113.33 1638.68 124.64 1630.18 173.93"/><polyline class="bi" points="1630.18 173.93 1590.33 215.68 1564.32 113.33"/><polygon class="bi" points="1640.82 263.42 1598.91 252.46 1652.86 228.47 1640.82 263.42"/><line class="bi" x1="1598.33" y1="303.23" x2="1598.91" y2="252.46"/><line class="bi" x1="1572.35" y1="239.55" x2="1598.91" y2="252.46"/><polygon class="bi" points="182.42 286.93 -100.26 345.75 -50.13 -109.9 182.42 286.93"/><line class="bi" x1="910.31" y1="179.12" x2="610.85" y2="-361.71"/><polygon class="bi" points="1642.06 326.67 1596.42 392.35 1663.1 391.06 1642.06 326.67"/><line class="bi" x1="1642.06" y1="326.67" x2="1598.33" y2="303.23"/><polygon class="bi" points="1572.35 239.55 1528.08 308.41 1598.33 303.24 1572.35 239.55"/><polygon class="bi" points="1596.42 392.35 1528.08 308.41 1598.33 303.24 1596.42 392.35"/><polyline class="bi" points="1596.42 392.35 1606.13 517.25 1663.1 391.06"/><line class="bi" x1="1477.89" y1="454.66" x2="1596.42" y2="392.35"/><polygon class="bi" points="1528.08 308.41 1394.25 299.54 1477.89 454.66 1528.08 308.41"/><polygon class="bi" points="1605.18 517.25 1576.71 750.46 1477.89 454.66 1605.18 517.25"/><line class="bi" x1="1439.01" y1="648.48" x2="1477.89" y2="454.66"/><line class="bi" x1="1300.07" y1="489.23" x2="1439.01" y2="648.48"/><polyline class="bi" points="1394.25 299.54 1300.07 489.23 1477.89 454.66"/><polygon class="bi" points="1606.14 516.11 1713.37 577.73 1738.91 458.64 1606.14 516.11"/><polygon class="bi" points="1714.41 577.01 1794.41 868.34 1576.71 750.46 1714.41 577.01"/><polygon class="bi" points="1714.41 577.01 1845.56 476.07 1907.96 611.15 1714.41 577.01"/><polygon class="bi" points="1794.41 868.34 1983.95 927.12 1907.96 611.15 1794.41 868.34"/><polygon class="bi" points="1907.96 611.15 1954.34 476.07 2077.31 621.81 1907.96 611.15"/><polygon class="bi" points="1394.25 299.54 1426.21 91.87 1157.54 143.63 1394.25 299.54"/><polygon class="bi" points="910.31 179.12 1157.54 143.63 1300.07 489.23 910.31 179.12"/><polygon class="bi" points="1576.71 750.46 1253.43 852.43 1439.01 648.48 1576.71 750.46"/><line class="bi" x1="1252.87" y1="853.93" x2="1450.71" y2="925.62"/><polygon class="bi" points="1450.15 927.12 1293.43 1194.59 1141.42 1065.73 1450.15 927.12"/><line class="bi" x1="1794.42" y1="868.34" x2="1720.69" y2="1130.58"/><polygon class="bi" points="1450.15 927.12 1578.42 750.46 1720.69 1130.58 1450.15 927.12"/><polygon class="bi" points="1157.54 143.63 1205.57 -73.86 1426.21 91.87 1157.54 143.63"/><polygon class="bi" points="1477.89 -17.59 1205.57 -73.86 1426.21 91.87 1477.89 -17.59"/><polygon class="bi" points="1692.84 76.43 1663.1 25.88 1714.07 14.2 1692.84 76.43"/><line class="bi" x1="1564.32" y1="113.33" x2="1508.46" y2="181.19"/><polyline class="bi" points="1564.32 113.33 1523.04 84.86 1508.46 181.19"/><polygon class="bi" points="1562.41 54.9 1663.1 25.88 1647.95 85.64 1562.41 54.9"/><polygon class="bi" points="1583.22 -74.96 1562.41 54.9 1663.1 25.88 1583.22 -74.96"/><polyline class="bi" points="1583.22 -74.96 1714.41 -32.15 1663.1 25.88"/><polygon class="bi" points="1770.2 -62.66 1714.41 -32.15 1714.07 14.2 1770.2 -62.66"/><polygon class="bi" points="1562.41 54.9 1477.89 -17.59 1523.04 84.86 1562.41 54.9"/><polygon class="bi" points="1523.04 84.86 1426.21 91.87 1477.89 -17.59 1523.04 84.86"/><polyline class="bi" points="1394.25 299.54 1508.46 181.19 1426.21 91.87"/><polygon class="bi" points="1590.33 215.68 1572.35 239.55 1508.46 181.19 1590.33 215.68"/><line class="bi" x1="1528.08" y1="308.41" x2="1508.46" y2="181.19"/><polygon class="bi" points="1720.69 1130.58 2260.32 1141.52 1983.95 927.12 1720.69 1130.58"/><line class="bi" x1="910.31" y1="179.12" x2="1205.57" y2="-73.86"/><polyline class="bi" points="-650.87 99.77 -516.47 -964.05 269.89 -1005.36 -50.13 -109.9"/></g></svg>