<svg xmlns="http://www.w3.org/2000/svg" xmlns:xlink="http://www.w3.org/1999/xlink" viewBox="0 0 1920 1080"><defs><style>.a,.bf,.bg{fill:none;}.b{clip-path:url(#a);}.aa,.ab,.ac,.ad,.ae,.af,.ag,.ah,.ai,.aj,.ak,.al,.am,.an,.ao,.ap,.aq,.ar,.as,.at,.au,.av,.aw,.ax,.ay,.az,.ba,.bg,.c,.d,.e,.f,.g,.h,.i,.j,.k,.l,.m,.n,.o,.p,.q,.r,.s,.t,.u,.v,.w,.x,.y,.z{opacity:0.7;}.d{fill:#f9ecd7;}.e{fill:#f7e3c4;}.f{fill:#fbf2e4;}.g{fill:#f7e6ca;}.h{fill:#f9eedc;}.i{fill:#f8e9d0;}.j{fill:#faefdf;}.k{fill:#fcf5ea;}.l{fill:#f8ead2;}.m{fill:#f7e2c2;}.n{fill:#f4ddb6;}.o{fill:#faf0e1;}.p{fill:#f8e7cc;}.q{fill:#f5e0bd;}.r{fill:#f3d9ad;}.s{fill:#f7e5c7;}.t{fill:#f9edd8;}.u{fill:#f3d9ac;}.v{fill:#f9ebd5;}.w{fill:#f5deb9;}.x{fill:#f3dab0;}.y{fill:#f4dcb4;}.bb,.z{fill:#f2d7a8;}.aa{fill:#f5e0be;}.ab{fill:#f3d9ab;}.ac{fill:#f5e1bf;}.ad{fill:#fcf6ee;}.ae{fill:#fcf7ef;}.af{fill:#fbf4e9;}.ag{fill:#f3d7a9;}.ah{fill:#f0ce93;}.ai{fill:#f4ddb7;}.aj{fill:#f2d5a3;}.ak{fill:#f4dcb5;}.al{fill:#f7e3c3;}.am{fill:#f4dbb2;}.an{fill:#f1d29d;}.ao{fill:#f3d9ae;}.ap{fill:#f6e2c0;}.aq{fill:#f0cc8d;}.ar{fill:#f0d097;}.as{fill:#f5dfbc;}.at{fill:#f7e4c5;}.au{fill:#f1d19a;}.av{fill:#f2d6a7;}.aw{fill:#f2d6a5;}.ax{fill:#efcb8b;}.ay,.bc{fill:#f0cd8f;}.az{fill:#f0cf94;}.ba{fill:#fbf2e5;}.bd{fill:#eabd6e;}.be{fill:#efc988;}.bf,.bg{stroke:#f3b78d;stroke-linecap:round;stroke-linejoin:round;stroke-width:0.9px;stroke-dasharray:30.03 15.02;}</style><clipPath id="a"><rect class="a" width="1920" height="1080"/></clipPath></defs><title>Artboard 1</title><g class="b"><g class="c"><polygon class="d" points="461.5 1079.4 398.85 1014.78 584.1 1037.1 461.5 1079.4"/><polygon class="e" points="430.48 865.75 514.04 957.94 398.85 1014.78 430.48 865.75"/><polygon class="f" points="514.04 957.94 584.1 1037.1 398.85 1014.78 514.04 957.94"/><polygon class="d" points="514.04 957.94 601.75 989.68 584.1 1037.1 514.04 957.94"/><polygon class="g" points="514.04 957.94 586.27 863.51 601.75 989.68 514.04 957.94"/><polygon class="d" points="430.48 865.75 586.27 863.51 514.04 957.94 430.48 865.75"/><polygon class="e" points="584.1 1037.1 668.17 1014.31 601.75 989.68 584.1 1037.1"/><polygon class="g" points="601.75 989.68 656.78 957.94 668.17 1014.31 601.75 989.68"/><polygon class="f" points="656.78 957.94 730.83 990.72 668.17 1014.31 656.78 957.94"/><polygon class="d" points="730.83 990.72 722.96 918.3 656.78 957.94 730.83 990.72"/><polygon class="h" points="666.07 880.25 656.78 957.94 722.96 918.3 666.07 880.25"/><polygon class="h" points="730.83 990.72 782.09 950.03 759.3 998.04 730.83 990.72"/><polygon class="e" points="722.96 918.3 782.09 950.03 730.83 990.72 722.96 918.3"/><polygon class="i" points="169.67 926.44 272.46 1063.42 345.42 878.7 169.67 926.44"/><polygon class="j" points="346.51 1128.22 398.85 1014.78 461.5 1079.4 346.51 1128.22"/><polygon class="k" points="359.53 1014.31 346.51 1128.22 398.85 1014.78 359.53 1014.31"/><polygon class="k" points="359.53 1014.31 272.46 1063.42 345.42 878.7 359.53 1014.31"/><polygon class="i" points="272.46 1063.42 346.51 1128.22 359.53 1014.31 272.46 1063.42"/><polygon class="f" points="272.46 1063.42 232.6 1144.5 346.51 1128.22 272.46 1063.42"/><polygon class="l" points="169.67 926.44 144.18 815.78 67.15 910.73 169.67 926.44"/><polygon class="d" points="345.42 878.7 283.58 806.02 387.19 817.41 345.42 878.7"/><polygon class="m" points="283.58 806.02 169.67 926.44 345.42 878.7 283.58 806.02"/><polygon class="f" points="144.18 815.78 283.58 806.02 169.67 926.44 144.18 815.78"/><polygon class="n" points="283.58 806.02 321.56 719.77 387.19 817.41 283.58 806.02"/><polygon class="o" points="387.19 817.41 495.68 749.06 430.48 865.75 387.19 817.41"/><polygon class="i" points="430.48 865.75 586.27 863.51 495.68 749.06 430.48 865.75"/><polygon class="f" points="586.27 863.51 645.39 817.41 495.68 749.06 586.27 863.51"/><polygon class="d" points="495.68 749.06 321.56 719.77 387.19 817.41 495.68 749.06"/><polygon class="p" points="283.58 806.02 321.56 719.77 202.22 719.77 283.58 806.02"/><polygon class="q" points="144.18 815.78 202.22 719.77 283.58 806.02 144.18 815.78"/><polygon class="q" points="67.15 910.73 22.13 785.4 144.18 815.78 67.15 910.73"/><polygon class="r" points="202.22 719.77 22.13 785.4 144.18 815.78 202.22 719.77"/><polygon class="s" points="59.02 1020.82 107.02 1225.86 232.6 1144.5 59.02 1020.82"/><polygon class="t" points="-29.24 1196.71 59.02 1020.82 107.02 1225.86 -29.24 1196.71"/><polygon class="t" points="59.02 1020.82 -65.39 927.8 67.15 910.73 59.02 1020.82"/><polygon class="p" points="22.13 785.4 67.15 910.73 -65.39 927.8 22.13 785.4"/><polygon class="u" points="-29.24 1196.71 59.02 1020.82 -133.01 1118.19 -29.24 1196.71"/><polygon class="o" points="-65.39 927.8 -133.01 1118.19 59.02 1020.82 -65.39 927.8"/><polygon class="t" points="22.13 785.4 -148.74 719.77 -65.39 927.8 22.13 785.4"/><polygon class="k" points="645.39 817.41 756.86 842.36 666.07 880.25 645.39 817.41"/><polygon class="d" points="722.96 918.3 756.86 842.36 666.07 880.25 722.96 918.3"/><polygon class="s" points="782.09 950.03 722.96 918.3 756.86 842.36 782.09 950.03"/><polygon class="v" points="645.39 817.41 762.56 710.81 756.86 842.36 645.39 817.41"/><polygon class="w" points="495.68 749.06 607.96 637.86 645.39 817.41 495.68 749.06"/><polygon class="h" points="762.56 710.81 607.96 637.86 645.39 817.41 762.56 710.81"/><polygon class="g" points="321.56 719.77 412.69 632.69 495.68 749.06 321.56 719.77"/><polygon class="x" points="607.96 637.86 412.69 632.69 495.68 749.06 607.96 637.86"/><polygon class="m" points="756.86 842.36 847.99 848.05 782.09 950.03 756.86 842.36"/><polygon class="l" points="762.56 710.81 847.99 848.05 756.86 842.36 762.56 710.81"/><polygon class="y" points="759.3 998.04 796.73 1009.6 762.56 1033.84 759.3 998.04"/><polygon class="z" points="762.56 1033.84 756.46 1076.73 829.21 1063.42 762.56 1033.84"/><polygon class="q" points="796.73 1009.6 829.21 1063.42 762.56 1033.84 796.73 1009.6"/><polygon class="l" points="782.09 950.03 796.73 1009.6 759.3 998.04 782.09 950.03"/><polygon class="q" points="782.09 950.03 853.28 960.61 796.73 1009.6 782.09 950.03"/><polygon class="e" points="829.21 1063.42 796.73 1009.6 909.56 1015.94 829.21 1063.42"/><polygon class="d" points="853.28 960.61 909.56 1015.94 796.73 1009.6 853.28 960.61"/><polygon class="g" points="756.46 1076.73 796.73 1115.16 742.49 1162.94 756.46 1076.73"/><polygon class="t" points="796.73 1115.16 829.21 1063.42 756.46 1076.73 796.73 1115.16"/><polygon class="aa" points="829.21 1063.42 887.86 1097.85 796.73 1115.16 829.21 1063.42"/><polygon class="l" points="909.56 1015.94 887.86 1097.85 829.21 1063.42 909.56 1015.94"/><polygon class="ab" points="782.09 950.03 847.99 848.05 853.28 960.61 782.09 950.03"/><polygon class="y" points="853.28 960.61 955.12 880.33 847.99 848.05 853.28 960.61"/><polygon class="i" points="762.56 710.81 928 710.81 847.99 848.05 762.56 710.81"/><polygon class="m" points="955.12 880.33 928 710.81 847.99 848.05 955.12 880.33"/><polygon class="s" points="853.28 960.61 955.12 880.33 909.56 1015.94 853.28 960.61"/><polygon class="w" points="887.86 1097.85 909.56 1015.94 922.58 1129.31 887.86 1097.85"/><polygon class="w" points="909.56 1015.94 1040.83 979.82 955.12 880.33 909.56 1015.94"/><polygon class="z" points="922.58 1129.31 909.56 1015.94 1040.83 979.82 922.58 1129.31"/><polygon class="ac" points="975.19 1196.71 1040.83 979.82 922.58 1129.31 975.19 1196.71"/><polygon class="x" points="955.12 880.33 1154.74 762.89 928 710.81 955.12 880.33"/><polygon class="m" points="1040.83 979.82 955.12 880.33 1154.74 762.89 1040.83 979.82"/><polygon class="d" points="1040.83 979.82 1195.42 1110.87 975.19 1196.71 1040.83 979.82"/><polygon class="d" points="412.69 632.69 456.08 344.65 607.96 637.86 412.69 632.69"/><polygon class="ac" points="869.38 393.89 607.96 637.86 762.56 710.81 869.38 393.89"/><polygon class="ab" points="869.38 393.89 456.08 344.65 607.96 637.86 869.38 393.89"/><polygon class="i" points="253.75 535.88 202.22 719.77 321.56 719.77 253.75 535.88"/><polygon class="h" points="22.13 785.4 -20.45 516.49 202.22 719.77 22.13 785.4"/><polygon class="i" points="-148.74 719.77 22.13 785.4 -20.45 516.49 -148.74 719.77"/><polygon class="y" points="412.69 632.69 253.75 535.88 321.56 719.77 412.69 632.69"/><polygon class="m" points="456.08 344.65 253.75 535.88 412.69 632.69 456.08 344.65"/><polygon class="ad" points="253.75 535.88 -20.45 516.49 202.22 719.77 253.75 535.88"/><polygon class="z" points="869.38 393.89 928 710.81 762.56 710.81 869.38 393.89"/><polygon class="d" points="456.08 344.65 -20.45 516.49 253.75 535.88 456.08 344.65"/><polygon class="g" points="869.38 393.89 1154.74 762.89 928 710.81 869.38 393.89"/><polygon class="ac" points="869.38 393.89 1202.17 393.52 1154.74 762.89 869.38 393.89"/><polygon class="ae" points="456.08 344.65 805.79 78.13 869.38 393.89 456.08 344.65"/><polygon class="o" points="805.79 78.13 1202.17 393.52 869.38 393.89 805.79 78.13"/><polygon class="af" points="-20.45 516.49 65.53 187.77 456.08 344.65 -20.45 516.49"/><polygon class="j" points="805.79 78.13 65.53 187.77 456.08 344.65 805.79 78.13"/><polygon class="t" points="65.53 187.77 -221.97 247.6 -20.45 516.49 65.53 187.77"/><polygon class="ag" points="1778.78 97.17 1828.79 125.49 1708.01 141.2 1778.78 97.17"/><polygon class="s" points="1884.41 197.34 1828.79 125.49 1853.73 119.64 1884.41 197.34"/><polygon class="ah" points="1832.68 218.23 1765.03 176.93 1828.79 125.49 1832.68 218.23"/><polygon class="ai" points="1765.03 176.93 1708.01 141.2 1828.79 125.49 1765.03 176.93"/><polygon class="aj" points="1765.03 176.93 1704.45 171.88 1708.01 141.2 1765.03 176.93"/><polygon class="ak" points="1765.03 176.93 1734.48 243.81 1704.45 171.88 1765.03 176.93"/><polygon class="al" points="1832.68 218.23 1734.48 243.81 1765.03 176.93 1832.68 218.23"/><polygon class="aj" points="1708.01 141.2 1658.47 167.72 1704.45 171.88 1708.01 141.2"/><polygon class="am" points="1704.45 171.88 1674.72 199.16 1658.47 167.72 1704.45 171.88"/><polygon class="ai" points="1674.72 199.16 1622.62 191.38 1658.47 167.72 1674.72 199.16"/><polygon class="aa" points="1622.62 191.38 1639.21 232.82 1674.72 199.16 1622.62 191.38"/><polygon class="ai" points="1681.31 246.37 1674.72 199.16 1639.21 232.82 1681.31 246.37"/><polygon class="aa" points="1622.62 191.38 1596.72 223.33 1603.43 191.5 1622.62 191.38"/><polygon class="an" points="1639.21 232.82 1596.72 223.33 1622.62 191.38 1639.21 232.82"/><polygon class="i" points="1987.94 141.84 1900.94 77.15 1884.41 197.34 1987.94 141.84"/><polygon class="g" points="1843.7 50.5 1828.79 125.49 1778.78 97.17 1843.7 50.5"/><polygon class="ao" points="1853.73 119.64 1843.7 50.5 1828.79 125.49 1853.73 119.64"/><polygon class="al" points="1853.73 119.64 1900.94 77.15 1884.41 197.34 1853.73 119.64"/><polygon class="ap" points="1987.94 141.84 1900.94 77.15 1913.16 23.17 1987.94 141.84"/><polygon class="i" points="1900.94 77.15 1843.7 50.5 1853.73 119.64 1900.94 77.15"/><polygon class="p" points="1900.94 77.15 1913.16 23.17 1843.7 50.5 1900.94 77.15"/><polygon class="ai" points="1897.94 -5.82 1913.16 23.17 1843.7 50.5 1897.94 -5.82"/><polygon class="am" points="1884.41 197.34 1935.19 230.54 1867.82 239.96 1884.41 197.34"/><polygon class="m" points="1935.19 230.54 1987.94 141.84 1884.41 197.34 1935.19 230.54"/><polygon class="n" points="1935.19 230.54 1925 287.26 1867.82 239.96 1935.19 230.54"/><polygon class="aa" points="1867.82 239.96 1810.14 297.13 1832.68 218.23 1867.82 239.96"/><polygon class="i" points="1832.68 218.23 1734.48 243.81 1810.14 297.13 1832.68 218.23"/><polygon class="ai" points="1734.48 243.81 1704.47 280.18 1810.14 297.13 1734.48 243.81"/><polygon class="aq" points="1810.14 297.13 1925 287.26 1867.82 239.96 1810.14 297.13"/><polygon class="l" points="1913.16 23.17 1979.55 -44.33 1897.94 -5.82 1913.16 23.17"/><polygon class="s" points="2042.81 69 1979.55 -44.33 1913.16 23.17 2042.81 69"/><polygon class="z" points="1704.47 280.18 1629.95 282.84 1681.31 246.37 1704.47 280.18"/><polygon class="ak" points="1639.21 232.82 1629.95 282.84 1681.31 246.37 1639.21 232.82"/><polygon class="s" points="1596.72 223.33 1639.21 232.82 1629.95 282.84 1596.72 223.33"/><polygon class="ao" points="1704.47 280.18 1647.44 361.24 1629.95 282.84 1704.47 280.18"/><polygon class="ar" points="1810.14 297.13 1756.94 380.13 1704.47 280.18 1810.14 297.13"/><polygon class="ak" points="1647.44 361.24 1756.94 380.13 1704.47 280.18 1647.44 361.24"/><polygon class="g" points="1925 287.26 1867.57 380.13 1810.14 297.13 1925 287.26"/><polygon class="x" points="1756.94 380.13 1867.57 380.13 1810.14 297.13 1756.94 380.13"/><polygon class="m" points="1629.95 282.84 1571.38 293.68 1596.72 223.33 1629.95 282.84"/><polygon class="ag" points="1647.44 361.24 1571.38 293.68 1629.95 282.84 1647.44 361.24"/><polygon class="y" points="1603.43 191.5 1577.9 190.52 1595.63 170.91 1603.43 191.5"/><polygon class="z" points="1595.63 170.91 1592.61 144.69 1548.72 163.87 1595.63 170.91"/><polygon class="q" points="1577.9 190.52 1548.72 163.87 1595.63 170.91 1577.9 190.52"/><polygon class="aj" points="1596.72 223.33 1577.9 190.52 1603.43 191.5 1596.72 223.33"/><polygon class="q" points="1596.72 223.33 1549.98 228.19 1577.9 190.52 1596.72 223.33"/><polygon class="e" points="1548.72 163.87 1577.9 190.52 1505.51 204.36 1548.72 163.87"/><polygon class="as" points="1549.98 228.19 1505.51 204.36 1577.9 190.52 1549.98 228.19"/><polygon class="g" points="1592.61 144.69 1560.97 128.32 1587.62 91.72 1592.61 144.69"/><polygon class="o" points="1560.97 128.32 1558.74 108.02 1587.62 91.72 1560.97 128.32"/><polygon class="d" points="1558.74 108.02 1537.9 72.85 1587.62 91.72 1558.74 108.02"/><polygon class="g" points="1497.38 115.31 1558.74 108.02 1537.9 72.85 1497.38 115.31"/><polygon class="g" points="1537.9 72.85 1588.92 21.16 1587.62 91.72 1537.9 72.85"/><polygon class="x" points="1601.63 -26.3 1588.92 21.16 1555.97 -16.94 1601.63 -26.3"/><polygon class="m" points="1546.55 22.73 1555.97 -16.94 1588.92 21.16 1546.55 22.73"/><polygon class="am" points="1537.9 72.85 1546.55 22.73 1588.92 21.16 1537.9 72.85"/><polygon class="an" points="1537.9 72.85 1470.92 11.23 1546.55 22.73 1537.9 72.85"/><polygon class="w" points="1537.9 72.85 1497.38 115.31 1470.92 11.23 1537.9 72.85"/><polygon class="t" points="1560.97 128.32 1548.72 163.87 1592.61 144.69 1560.97 128.32"/><polygon class="ap" points="1548.72 163.87 1506.1 152.72 1560.97 128.32 1548.72 163.87"/><polygon class="l" points="1505.51 204.36 1506.1 152.72 1548.72 163.87 1505.51 204.36"/><polygon class="ab" points="1596.72 223.33 1571.38 293.68 1549.98 228.19 1596.72 223.33"/><polygon class="at" points="1647.44 361.24 1513.45 422.01 1571.38 293.68 1647.44 361.24"/><polygon class="w" points="1506.1 152.72 1505.51 204.36 1479.09 139.59 1506.1 152.72"/><polygon class="ae" points="65.53 187.77 -221.97 247.6 -170.98 -215.8 65.53 187.77"/><polygon class="af" points="805.79 78.13 501.24 -471.9 65.53 187.77 805.79 78.13"/><polygon class="j" points="-170.98 -215.8 501.24 -471.9 65.53 187.77 -170.98 -215.8"/><polygon class="h" points="1549.98 228.19 1503.56 294.99 1571.38 293.68 1549.98 228.19"/><polygon class="s" points="1505.51 204.36 1503.56 294.99 1549.98 228.19 1505.51 204.36"/><polygon class="an" points="1479.09 139.59 1434.06 209.62 1505.51 204.36 1479.09 139.59"/><polygon class="r" points="1503.56 294.99 1434.06 209.62 1505.51 204.36 1503.56 294.99"/><polygon class="s" points="1571.38 293.68 1503.56 294.99 1513.45 422.01 1571.38 293.68"/><polygon class="s" points="1434.06 209.62 1383.02 358.36 1503.56 294.99 1434.06 209.62"/><polygon class="ac" points="1513.45 422.01 1383.02 358.36 1503.56 294.99 1513.45 422.01"/><polygon class="ac" points="1434.06 209.62 1297.96 200.6 1383.02 358.36 1434.06 209.62"/><polygon class="au" points="1512.47 422.01 1483.52 659.18 1383.02 358.36 1512.47 422.01"/><polygon class="ab" points="1483.52 659.18 1343.48 555.48 1383.02 358.36 1483.52 659.18"/><polygon class="n" points="1383.02 358.36 1202.17 393.52 1343.48 555.48 1383.02 358.36"/><polygon class="m" points="1297.96 200.6 1202.17 393.52 1383.02 358.36 1297.96 200.6"/><polygon class="m" points="1513.46 420.85 1622.51 483.52 1648.48 362.4 1513.46 420.85"/><polygon class="av" points="1483.52 659.18 1623.56 482.79 1512.47 422.01 1483.52 659.18"/><polygon class="au" points="1623.56 482.79 1704.93 779.07 1483.52 659.18 1623.56 482.79"/><polygon class="aw" points="1647.44 361.24 1623.56 482.79 1756.94 380.13 1647.44 361.24"/><polygon class="m" points="1623.56 482.79 1756.94 380.13 1820.4 517.5 1623.56 482.79"/><polygon class="ax" points="1704.93 779.07 1820.4 517.5 1623.56 482.79 1704.93 779.07"/><polygon class="av" points="1704.93 779.07 1897.69 838.85 1820.4 517.5 1704.93 779.07"/><polygon class="p" points="1867.57 380.13 1820.4 517.5 1756.94 380.13 1867.57 380.13"/><polygon class="w" points="1867.57 380.13 1987.94 380.13 1925 287.26 1867.57 380.13"/><polygon class="aj" points="1820.4 517.5 1867.57 380.13 1992.64 528.35 1820.4 517.5"/><polygon class="t" points="1987.94 380.13 1992.64 528.35 1867.57 380.13 1987.94 380.13"/><polygon class="ay" points="1992.64 528.35 1897.69 838.85 1820.4 517.5 1992.64 528.35"/><polygon class="m" points="1297.96 200.6 1330.46 -10.6 1057.22 42.04 1297.96 200.6"/><polygon class="p" points="805.79 78.13 1057.22 42.04 1202.17 393.52 805.79 78.13"/><polygon class="r" points="1297.96 200.6 1057.22 42.04 1202.17 393.52 1297.96 200.6"/><polygon class="e" points="1202.17 393.52 1343.48 555.48 1154.74 762.89 1202.17 393.52"/><polygon class="l" points="1483.52 659.18 1154.74 762.89 1343.48 555.48 1483.52 659.18"/><polygon class="ac" points="1154.74 762.89 1354.81 838.85 1040.83 979.82 1154.74 762.89"/><polygon class="ac" points="1354.81 838.85 1195.42 1110.87 1040.83 979.82 1354.81 838.85"/><polygon class="g" points="1354.81 838.85 1629.95 1045.77 1195.42 1110.87 1354.81 838.85"/><polygon class="ac" points="1483.52 659.18 1354.81 838.85 1154.74 762.89 1483.52 659.18"/><polygon class="w" points="1704.93 779.07 1629.95 1045.77 1483.52 659.18 1704.93 779.07"/><polygon class="x" points="1354.81 838.85 1485.26 659.18 1629.95 1045.77 1354.81 838.85"/><polygon class="s" points="1897.69 838.85 1629.95 1045.77 1704.93 779.07 1897.69 838.85"/><polygon class="av" points="1897.69 838.85 2274.15 848.83 1992.64 528.35 1897.69 838.85"/><polygon class="v" points="1897.69 838.85 2178.75 1056.89 2274.15 848.83 1897.69 838.85"/><polygon class="n" points="1057.22 42.04 1106.07 -179.15 1330.46 -10.6 1057.22 42.04"/><polygon class="z" points="1470.92 11.23 1414.11 80.24 1497.38 115.31 1470.92 11.23"/><polygon class="aj" points="1428.94 -17.73 1414.11 80.24 1470.92 11.23 1428.94 -17.73"/><polygon class="z" points="1414.11 80.24 1330.46 -10.6 1428.94 -17.73 1414.11 80.24"/><polygon class="an" points="1330.46 -10.6 1297.96 200.6 1414.11 80.24 1330.46 -10.6"/><polygon class="az" points="1497.38 115.31 1479.09 139.59 1414.11 80.24 1497.38 115.31"/><polygon class="av" points="1434.06 209.62 1414.11 80.24 1479.09 139.59 1434.06 209.62"/><polygon class="w" points="1297.96 200.6 1414.11 80.24 1434.06 209.62 1297.96 200.6"/><polygon class="ad" points="1629.95 1045.77 1195.42 1110.87 1319.13 1253.99 1629.95 1045.77"/><polygon class="ba" points="1629.95 1045.77 2178.75 1056.89 1897.69 838.85 1629.95 1045.77"/><polygon class="t" points="1629.95 1045.77 1785.16 1381 1319.13 1253.99 1629.95 1045.77"/><polygon class="t" points="2178.75 1056.89 1785.16 1381 1629.95 1045.77 2178.75 1056.89"/><polygon class="ad" points="1785.16 1381 2234.12 1723.82 2178.75 1056.89 1785.16 1381"/><polygon class="af" points="805.79 78.13 1106.07 -179.15 1057.22 42.04 805.79 78.13"/><polygon class="h" points="501.24 -471.9 1106.07 -179.15 805.79 78.13 501.24 -471.9"/></g><g class="c"><polygon class="aj" points="1704.45 171.88 1734.48 243.81 1681.31 246.37 1704.45 171.88"/><polygon class="w" points="1884.41 197.34 1832.68 218.23 1828.79 125.49 1884.41 197.34"/><polygon class="aj" points="2042.81 69 1987.94 141.84 1913.16 23.17 2042.81 69"/><polygon class="w" points="1681.31 246.37 1704.45 171.88 1674.72 199.16 1681.31 246.37"/><polygon class="aj" points="1884.41 197.34 1867.82 239.96 1832.68 218.23 1884.41 197.34"/><polygon class="w" points="1734.48 243.81 1704.47 280.18 1681.31 246.37 1734.48 243.81"/><polygon class="an" points="1555.97 -16.94 1468.97 -48.2 1470.92 11.23 1555.97 -16.94"/><polygon class="aj" points="1558.74 108.02 1497.38 115.31 1506.1 152.72 1558.74 108.02"/><polygon class="w" points="1506.1 152.72 1560.97 128.32 1558.74 108.02 1506.1 152.72"/><polygon class="al" points="1506.1 152.72 1479.09 139.59 1497.38 115.31 1506.1 152.72"/><polygon class="am" points="1555.97 -16.94 1546.55 22.73 1470.92 11.23 1555.97 -16.94"/><polygon class="an" points="1468.97 -48.2 1428.94 -17.73 1470.92 11.23 1468.97 -48.2"/></g><g class="c"><polygon class="e" points="601.75 989.68 586.27 863.51 666.07 880.25 601.75 989.68"/><polygon class="k" points="345.42 878.7 430.48 865.75 398.85 1014.78 345.42 878.7"/><polygon class="k" points="59.02 1020.82 169.67 926.44 232.6 1144.5 59.02 1020.82"/><polygon class="e" points="345.42 878.7 398.85 1014.78 359.53 1014.31 345.42 878.7"/><polygon class="k" points="666.07 880.25 601.75 989.68 656.78 957.94 666.07 880.25"/><polygon class="m" points="169.67 926.44 272.46 1063.42 232.6 1144.5 169.67 926.44"/><polygon class="e" points="345.42 878.7 387.19 817.41 430.48 865.75 345.42 878.7"/><polygon class="y" points="169.67 926.44 67.15 910.73 59.02 1020.82 169.67 926.44"/><polygon class="k" points="586.27 863.51 645.39 817.41 666.07 880.25 586.27 863.51"/></g><g class="c"><polygon class="am" points="1633.46 -8.91 1588.92 21.16 1601.63 -26.3 1633.46 -8.91"/><polygon class="al" points="1620.51 67.26 1633.46 -8.91 1588.92 21.16 1620.51 67.26"/><polygon class="q" points="1587.62 91.72 1620.51 67.26 1588.92 21.16 1587.62 91.72"/><polygon class="al" points="1616.37 119.38 1620.51 67.26 1587.62 91.72 1616.37 119.38"/><polygon class="am" points="1592.61 144.69 1616.37 119.38 1587.62 91.72 1592.61 144.69"/><polygon class="g" points="1592.61 144.69 1614.59 142.37 1616.37 119.38 1592.61 144.69"/><polygon class="ah" points="1618.01 168.77 1614.59 142.37 1592.61 144.69 1618.01 168.77"/><polygon class="al" points="1618.01 168.77 1592.61 144.69 1595.63 170.91 1618.01 168.77"/><polygon class="aj" points="1595.63 170.91 1603.43 191.5 1618.01 168.77 1595.63 170.91"/><polygon class="aj" points="1603.43 191.5 1622.62 191.38 1618.01 168.77 1603.43 191.5"/><polygon class="m" points="1834.95 4.91 1897.94 -5.82 1875.73 -71.28 1834.95 4.91"/><polygon class="al" points="1897.94 -5.82 1843.7 50.5 1834.95 4.91 1897.94 -5.82"/><polygon class="g" points="1834.95 4.91 1785.16 56.05 1843.7 50.5 1834.95 4.91"/><polygon class="q" points="1843.7 50.5 1778.78 97.17 1785.16 56.05 1843.7 50.5"/><polygon class="al" points="1722.9 104.43 1778.78 97.17 1785.16 56.05 1722.9 104.43"/><polygon class="aj" points="1658.47 167.72 1618.01 168.77 1622.62 191.38 1658.47 167.72"/><polygon class="aj" points="1641.42 152.14 1618.01 168.77 1658.47 167.72 1641.42 152.14"/><polygon class="g" points="1676.37 129.89 1641.42 152.14 1658.47 167.72 1676.37 129.89"/><polygon class="ah" points="1676.37 129.89 1658.47 167.72 1708.01 141.2 1676.37 129.89"/><polygon class="aj" points="1722.9 104.43 1676.37 129.89 1708.01 141.2 1722.9 104.43"/><polygon class="g" points="1708.01 141.2 1778.78 97.17 1722.9 104.43 1708.01 141.2"/></g><g class="c"><polygon class="ao" points="1703.24 -5.46 1620.51 67.26 1633.46 -8.91 1703.24 -5.46"/><polygon class="al" points="1701.11 60.03 1620.51 67.26 1703.24 -5.46 1701.11 60.03"/><polygon class="am" points="1773.2 25.57 1785.16 56.05 1722.9 104.43 1773.2 25.57"/><polygon class="al" points="1785.16 56.05 1827.96 12.09 1773.2 25.57 1785.16 56.05"/><polygon class="al" points="1641.42 152.14 1614.59 142.37 1618.01 168.77 1641.42 152.14"/><polygon class="q" points="1616.37 119.38 1641.42 152.14 1614.59 142.37 1616.37 119.38"/><polygon class="al" points="1676.37 129.89 1641.42 152.14 1616.37 119.38 1676.37 129.89"/><polygon class="am" points="1616.37 119.38 1620.51 67.26 1676.37 129.89 1616.37 119.38"/><polygon class="ai" points="1722.9 104.43 1701.11 60.03 1676.37 129.89 1722.9 104.43"/><polygon class="ao" points="1676.37 129.89 1701.11 60.03 1620.51 67.26 1676.37 129.89"/><polygon class="al" points="1701.11 60.03 1773.2 25.57 1722.9 104.43 1701.11 60.03"/><polygon class="am" points="1701.11 60.03 1773.2 25.57 1742.98 27.56 1703.24 -5.46 1701.11 60.03"/></g><g class="c"><polygon class="q" points="1827.96 12.09 1773.2 25.57 1807.64 9.49 1834.95 4.91 1827.96 12.09"/><polygon class="ao" points="1742.98 27.56 1773.2 25.57 1807.64 9.49 1771.81 20.46 1739.51 14.77 1742.98 27.56"/><polygon class="al" points="1742.98 27.56 1703.24 -5.46 1739.51 14.77 1742.98 27.56"/><polygon class="ao" points="1703.24 -5.46 1739.51 14.77 1709.35 -13.95 1694.93 -35.98 1703.24 -5.46"/><polygon class="ao" points="1807.64 9.49 1834.95 4.91 1851.56 -26.11 1858.02 -52.94 1838.15 -14.29 1807.64 9.49"/><polygon class="al" points="1794.63 -35.63 1807.64 9.49 1771.81 20.46 1794.63 -35.63"/><polygon class="q" points="1765.79 -31.25 1739.51 14.77 1740.39 -49.21 1765.79 -31.25"/><polygon class="q" points="1771.81 20.46 1739.51 14.77 1765.79 -31.25 1771.81 20.46"/><polygon class="al" points="1709.35 -13.95 1739.51 14.77 1740.39 -49.21 1709.35 -13.95"/><polygon class="q" points="1838.15 -14.29 1807.64 9.49 1794.63 -35.63 1838.15 -14.29"/><polygon class="al" points="1771.81 20.46 1794.63 -35.63 1765.79 -31.25 1771.81 20.46"/></g><g class="c"><polygon class="d" points="687.16 1045.77 722.96 1071.81 728.54 1028.48 687.16 1045.77"/><polygon class="e" points="711.06 1107.68 687.16 1045.77 722.96 1071.81 711.06 1107.68"/><polygon class="k" points="626.41 1067.47 687.16 1045.77 711.06 1107.68 626.41 1067.47"/><polygon class="e" points="711.06 1107.68 683.9 1188.98 626.41 1067.47 711.06 1107.68"/><polygon class="e" points="547.21 1089.75 561.59 1168.91 626.41 1067.47 547.21 1089.75"/><polygon class="d" points="626.41 1067.47 561.59 1168.91 683.9 1188.98 626.41 1067.47"/></g><g class="c"><polygon class="bb" points="756.46 1076.73 711.06 1107.68 742.49 1162.94 756.46 1076.73"/><polygon class="bc" points="756.46 1076.73 722.96 1071.81 711.06 1107.68 756.46 1076.73"/><polygon class="k" points="728.54 1028.48 722.96 1071.81 756.46 1076.73 728.54 1028.48"/><polygon class="e" points="728.54 1028.48 756.46 1076.73 762.56 1033.84 728.54 1028.48"/><polygon class="e" points="762.56 1033.84 759.3 998.04 728.54 1028.48 762.56 1033.84"/><polygon class="e" points="759.3 998.04 730.83 990.72 728.54 1028.48 759.3 998.04"/><polygon class="bd" points="346.51 1128.22 461.5 1079.4 435.47 1142.33 346.51 1128.22"/><polygon class="be" points="547.21 1089.75 461.5 1079.4 435.47 1142.33 547.21 1089.75"/><polygon class="k" points="668.17 1014.31 728.54 1028.48 730.83 990.72 668.17 1014.31"/><polygon class="e" points="687.16 1045.77 728.54 1028.48 668.17 1014.31 687.16 1045.77"/><polygon class="ab" points="626.41 1067.47 687.16 1045.77 668.17 1014.31 626.41 1067.47"/><polygon class="e" points="626.41 1067.47 668.17 1014.31 584.1 1037.1 626.41 1067.47"/><polygon class="k" points="547.21 1089.75 626.41 1067.47 584.1 1037.1 547.21 1089.75"/><polygon class="e" points="584.1 1037.1 461.5 1079.4 547.21 1089.75 584.1 1037.1"/></g><polygon class="bf" points="461.5 1079.4 398.85 1014.78 584.1 1037.1 461.5 1079.4"/><polygon class="bf" points="430.48 865.75 514.04 957.94 398.85 1014.78 430.48 865.75"/><polygon class="bf" points="514.04 957.94 601.75 989.68 584.1 1037.1 514.04 957.94"/><line class="bf" x1="586.27" y1="863.51" x2="601.75" y2="989.68"/><polyline class="bf" points="430.48 865.75 586.27 863.51 514.04 957.94"/><polyline class="bf" points="584.1 1037.1 668.17 1014.31 601.75 989.68"/><line class="bf" x1="601.75" y1="989.68" x2="656.78" y2="957.94"/><polygon class="bf" points="656.78 957.94 730.83 990.72 668.17 1014.31 656.78 957.94"/><polygon class="bf" points="666.07 880.25 656.78 957.94 722.96 918.3 666.07 880.25"/><polygon class="bf" points="730.83 990.72 782.09 950.03 759.3 998.04 730.83 990.72"/><line class="bf" x1="730.83" y1="990.72" x2="722.96" y2="918.3"/><polygon class="bf" points="169.67 926.44 272.46 1063.42 345.42 878.7 169.67 926.44"/><polyline class="bf" points="461.5 1079.4 346.51 1128.22 398.85 1014.78"/><polyline class="bf" points="398.85 1014.78 359.53 1014.31 346.51 1128.22"/><line class="bf" x1="345.42" y1="878.7" x2="359.53" y2="1014.31"/><polyline class="bf" points="359.53 1014.31 272.46 1063.42 346.51 1128.22"/><line class="bf" x1="272.47" y1="1063.42" x2="232.6" y2="1144.5"/><polygon class="bf" points="169.67 926.44 144.18 815.78 67.15 910.73 169.67 926.44"/><polygon class="bf" points="345.42 878.7 283.58 806.02 387.19 817.41 345.42 878.7"/><line class="bf" x1="283.59" y1="806.02" x2="169.67" y2="926.44"/><line class="bf" x1="144.18" y1="815.78" x2="283.59" y2="806.02"/><polygon class="bf" points="387.19 817.41 495.68 749.06 430.48 865.75 387.19 817.41"/><line class="bf" x1="586.27" y1="863.51" x2="495.68" y2="749.06"/><line class="bf" x1="586.27" y1="863.51" x2="645.39" y2="817.41"/><polygon class="bf" points="495.68 749.06 321.56 719.77 387.19 817.41 495.68 749.06"/><polygon class="bf" points="283.58 806.02 321.56 719.77 202.22 719.77 283.58 806.02"/><polygon class="bf" points="202.22 719.77 22.13 785.4 144.18 815.78 202.22 719.77"/><line class="bf" x1="232.6" y1="1144.5" x2="59.02" y2="1020.82"/><polygon class="bf" points="-29.24 1196.71 59.02 1020.82 107.02 1225.86 -29.24 1196.71"/><polygon class="bf" points="59.02 1020.82 -65.39 927.8 67.15 910.73 59.02 1020.82"/><polyline class="bf" points="-65.39 927.8 22.13 785.4 67.15 910.73"/><line class="bf" x1="-133.01" y1="1118.19" x2="59.02" y2="1020.82"/><polyline class="bf" points="22.13 785.4 -148.74 719.77 -65.39 927.8"/><polygon class="bf" points="645.39 817.41 756.86 842.36 666.07 880.25 645.39 817.41"/><polygon class="bf" points="782.09 950.03 722.96 918.3 756.86 842.36 782.09 950.03"/><polyline class="bf" points="645.39 817.41 762.56 710.81 756.86 842.36"/><polygon class="bf" points="495.68 749.06 607.96 637.86 645.39 817.41 495.68 749.06"/><polygon class="bf" points="321.56 719.77 412.69 632.69 495.68 749.06 321.56 719.77"/><line class="bf" x1="756.86" y1="842.36" x2="847.99" y2="848.06"/><polygon class="bf" points="759.3 998.04 796.73 1009.6 762.56 1033.84 759.3 998.04"/><polygon class="bf" points="762.56 1033.84 756.46 1076.73 829.21 1063.42 762.56 1033.84"/><line class="bf" x1="796.73" y1="1009.6" x2="829.21" y2="1063.42"/><line class="bf" x1="782.09" y1="950.03" x2="796.73" y2="1009.6"/><polyline class="bf" points="782.09 950.03 853.28 960.61 796.73 1009.6"/><line class="bf" x1="796.73" y1="1009.6" x2="909.56" y2="1015.94"/><polygon class="bf" points="756.46 1076.73 796.73 1115.16 742.49 1162.94 756.46 1076.73"/><polygon class="bf" points="829.21 1063.42 887.86 1097.85 796.73 1115.16 829.21 1063.42"/><polygon class="bf" points="909.56 1015.94 887.86 1097.85 829.21 1063.42 909.56 1015.94"/><polyline class="bf" points="782.09 950.03 847.99 848.05 853.28 960.61"/><line class="bf" x1="955.12" y1="880.33" x2="847.99" y2="848.06"/><polygon class="bf" points="762.56 710.81 928 710.81 847.99 848.05 762.56 710.81"/><polygon class="bf" points="853.28 960.61 955.12 880.33 909.56 1015.94 853.28 960.61"/><polyline class="bf" points="909.56 1015.94 922.58 1129.31 887.86 1097.85"/><polygon class="bf" points="909.56 1015.94 1040.83 979.82 955.12 880.33 909.56 1015.94"/><polygon class="bf" points="975.19 1196.71 1040.83 979.82 922.58 1129.31 975.19 1196.71"/><polygon class="bf" points="955.12 880.33 1154.74 762.89 928 710.81 955.12 880.33"/><line class="bf" x1="1154.74" y1="762.89" x2="1040.83" y2="979.82"/><polygon class="bf" points="412.69 632.69 456.08 344.65 607.96 637.86 412.69 632.69"/><polygon class="bf" points="869.38 393.89 607.96 637.86 762.56 710.81 869.38 393.89"/><line class="bf" x1="253.75" y1="535.88" x2="202.22" y2="719.77"/><line class="bf" x1="-20.45" y1="516.49" x2="202.22" y2="719.77"/><line class="bf" x1="22.13" y1="785.4" x2="-20.45" y2="516.49"/><polyline class="bf" points="412.69 632.69 253.75 535.88 321.56 719.77"/><line class="bf" x1="456.08" y1="344.65" x2="253.75" y2="535.88"/><line class="bf" x1="253.75" y1="535.88" x2="-20.45" y2="516.49"/><line class="bf" x1="456.08" y1="344.65" x2="-20.45" y2="516.49"/><line class="bf" x1="928" y1="710.81" x2="869.38" y2="393.89"/><polygon class="bf" points="869.38 393.89 1202.17 393.52 1154.74 762.89 869.38 393.89"/><polygon class="bf" points="456.08 344.65 805.79 78.13 869.38 393.89 456.08 344.65"/><line class="bf" x1="-20.45" y1="516.49" x2="65.53" y2="187.77"/><polyline class="bf" points="805.79 78.13 65.53 187.77 456.08 344.65"/><polygon class="bf" points="1778.78 97.17 1828.79 125.49 1708.01 141.2 1778.78 97.17"/><polygon class="bf" points="1884.41 197.34 1828.79 125.49 1853.73 119.64 1884.41 197.34"/><polygon class="bf" points="1832.68 218.23 1765.03 176.93 1828.79 125.49 1832.68 218.23"/><polygon class="bf" points="1765.03 176.93 1704.45 171.88 1708.01 141.2 1765.03 176.93"/><line class="bf" x1="1734.48" y1="243.81" x2="1704.45" y2="171.88"/><polyline class="bf" points="1832.68 218.23 1734.48 243.81 1765.03 176.93"/><polygon class="bf" points="1708.01 141.2 1658.47 167.72 1704.45 171.88 1708.01 141.2"/><line class="bf" x1="1704.45" y1="171.88" x2="1674.72" y2="199.16"/><polygon class="bf" points="1674.72 199.16 1622.62 191.38 1658.47 167.72 1674.72 199.16"/><line class="bf" x1="1622.62" y1="191.38" x2="1639.21" y2="232.82"/><polygon class="bf" points="1681.31 246.37 1674.72 199.16 1639.21 232.82 1681.31 246.37"/><polygon class="bf" points="1622.62 191.38 1596.72 223.33 1603.43 191.5 1622.62 191.38"/><polygon class="bf" points="1987.94 141.84 1900.94 77.15 1884.41 197.34 1987.94 141.84"/><line class="bf" x1="1778.78" y1="97.18" x2="1843.7" y2="50.5"/><polygon class="bf" points="1853.73 119.64 1843.7 50.5 1828.79 125.49 1853.73 119.64"/><line class="bf" x1="1853.74" y1="119.64" x2="1900.94" y2="77.15"/><polygon class="bf" points="1987.94 141.84 1900.94 77.15 1913.16 23.17 1987.94 141.84"/><polygon class="bf" points="1900.94 77.15 1913.16 23.17 1843.7 50.5 1900.94 77.15"/><polyline class="bf" points="1843.7 50.5 1897.94 -5.82 1913.16 23.17"/><polygon class="bf" points="1884.41 197.34 1935.19 230.54 1867.82 239.96 1884.41 197.34"/><polygon class="bf" points="1867.82 239.96 1810.14 297.13 1832.68 218.23 1867.82 239.96"/><polygon class="bf" points="1734.48 243.81 1704.47 280.18 1810.14 297.13 1734.48 243.81"/><polygon class="bf" points="1810.14 297.13 1925 287.26 1867.82 239.96 1810.14 297.13"/><line class="bf" x1="1913.16" y1="23.17" x2="1979.55" y2="-44.33"/><polyline class="bf" points="1913.16 23.17 2042.81 69 1979.55 -44.33"/><polygon class="bf" points="1704.47 280.18 1629.95 282.84 1681.31 246.37 1704.47 280.18"/><polygon class="bf" points="1596.72 223.33 1639.21 232.82 1629.95 282.84 1596.72 223.33"/><line class="bf" x1="1704.47" y1="280.18" x2="1647.44" y2="361.23"/><polyline class="bf" points="1810.14 297.13 1756.94 380.13 1704.47 280.18"/><line class="bf" x1="1647.44" y1="361.23" x2="1756.94" y2="380.13"/><polyline class="bf" points="1925 287.26 1867.57 380.13 1810.14 297.13"/><line class="bf" x1="1756.94" y1="380.13" x2="1867.57" y2="380.13"/><line class="bf" x1="1571.38" y1="293.68" x2="1596.72" y2="223.33"/><polygon class="bf" points="1647.44 361.24 1571.38 293.68 1629.95 282.84 1647.44 361.24"/><line class="bf" x1="1595.63" y1="170.91" x2="1603.43" y2="191.5"/><polygon class="bf" points="1595.63 170.91 1592.61 144.69 1548.72 163.87 1595.63 170.91"/><line class="bf" x1="1595.63" y1="170.91" x2="1577.9" y2="190.52"/><polygon class="bf" points="1596.72 223.33 1577.9 190.52 1603.43 191.5 1596.72 223.33"/><polyline class="bf" points="1596.72 223.33 1549.98 228.19 1577.9 190.52"/><polygon class="bf" points="1548.72 163.87 1577.9 190.52 1505.51 204.36 1548.72 163.87"/><polygon class="bf" points="1592.61 144.69 1560.97 128.32 1587.62 91.72 1592.61 144.69"/><line class="bf" x1="1560.97" y1="128.32" x2="1558.74" y2="108.02"/><polygon class="bf" points="1558.74 108.02 1537.9 72.85 1587.62 91.72 1558.74 108.02"/><line class="bf" x1="1497.38" y1="115.31" x2="1558.74" y2="108.02"/><polygon class="bf" points="1537.9 72.85 1588.92 21.16 1587.62 91.72 1537.9 72.85"/><polygon class="bf" points="1601.63 -26.3 1588.92 21.16 1555.97 -16.94 1601.63 -26.3"/><polyline class="bf" points="1588.92 21.16 1546.55 22.73 1555.97 -16.94"/><polygon class="bf" points="1537.9 72.85 1470.92 11.23 1546.55 22.73 1537.9 72.85"/><polyline class="bf" points="1537.9 72.85 1497.38 115.31 1470.92 11.23"/><polygon class="bf" points="1548.72 163.87 1506.1 152.72 1560.97 128.32 1548.72 163.87"/><line class="bf" x1="1505.51" y1="204.36" x2="1506.1" y2="152.72"/><line class="bf" x1="1479.09" y1="139.59" x2="1506.1" y2="152.72"/><polygon class="bf" points="65.53 187.77 -221.97 247.6 -170.98 -215.8 65.53 187.77"/><line class="bf" x1="805.79" y1="78.13" x2="501.24" y2="-471.9"/><polygon class="bf" points="1549.98 228.19 1503.56 294.99 1571.38 293.68 1549.98 228.19"/><line class="bf" x1="1549.98" y1="228.19" x2="1505.51" y2="204.36"/><polygon class="bf" points="1479.09 139.59 1434.06 209.62 1505.51 204.36 1479.09 139.59"/><polygon class="bf" points="1503.56 294.99 1434.06 209.62 1505.51 204.36 1503.56 294.99"/><polyline class="bf" points="1503.56 294.99 1513.45 422.01 1571.38 293.68"/><line class="bf" x1="1383.02" y1="358.36" x2="1503.56" y2="294.99"/><polygon class="bf" points="1434.06 209.62 1297.96 200.6 1383.02 358.36 1434.06 209.62"/><polygon class="bf" points="1512.47 422.01 1483.52 659.18 1383.02 358.36 1512.47 422.01"/><line class="bf" x1="1343.48" y1="555.47" x2="1383.02" y2="358.36"/><line class="bf" x1="1202.17" y1="393.52" x2="1343.48" y2="555.47"/><polyline class="bf" points="1297.96 200.6 1202.17 393.52 1383.02 358.36"/><polygon class="bf" points="1513.46 420.85 1622.51 483.52 1648.48 362.4 1513.46 420.85"/><polygon class="bf" points="1623.56 482.79 1704.93 779.07 1483.52 659.18 1623.56 482.79"/><polygon class="bf" points="1623.56 482.79 1756.94 380.13 1820.4 517.5 1623.56 482.79"/><polygon class="bf" points="1704.93 779.07 1897.69 838.85 1820.4 517.5 1704.93 779.07"/><line class="bf" x1="1867.57" y1="380.13" x2="1987.94" y2="380.13"/><polygon class="bf" points="1820.4 517.5 1867.57 380.13 1992.64 528.35 1820.4 517.5"/><polygon class="bf" points="1297.96 200.6 1330.46 -10.6 1057.22 42.04 1297.96 200.6"/><polygon class="bf" points="805.79 78.13 1057.22 42.04 1202.17 393.52 805.79 78.13"/><polygon class="bf" points="1483.52 659.18 1154.74 762.89 1343.48 555.48 1483.52 659.18"/><line class="bf" x1="1154.17" y1="764.42" x2="1355.38" y2="837.33"/><polygon class="bf" points="1354.81 838.85 1195.42 1110.87 1040.83 979.82 1354.81 838.85"/><line class="bf" x1="1704.93" y1="779.07" x2="1629.95" y2="1045.77"/><polygon class="bf" points="1354.81 838.85 1485.26 659.18 1629.95 1045.77 1354.81 838.85"/><polygon class="bf" points="1897.69 838.85 2274.15 848.83 1992.64 528.35 1897.69 838.85"/><polygon class="bf" points="1057.22 42.04 1106.07 -179.15 1330.46 -10.6 1057.22 42.04"/><line class="bf" x1="1470.92" y1="11.23" x2="1414.11" y2="80.24"/><polyline class="bf" points="1470.92 11.23 1428.94 -17.73 1414.11 80.24"/><polyline class="bf" points="1297.96 200.6 1414.11 80.24 1330.46 -10.6"/><polygon class="bf" points="1497.38 115.31 1479.09 139.59 1414.11 80.24 1497.38 115.31"/><line class="bf" x1="1434.06" y1="209.62" x2="1414.11" y2="80.24"/><polyline class="bf" points="1319.13 1253.99 1629.95 1045.77 1195.42 1110.87"/><polygon class="bf" points="1629.95 1045.77 2178.75 1056.89 1897.69 838.85 1629.95 1045.77"/><line class="bf" x1="1785.16" y1="1381" x2="1629.95" y2="1045.77"/><polygon class="bf" points="1785.16 1381 2234.12 1723.82 2178.75 1056.89 1785.16 1381"/><line class="bf" x1="805.79" y1="78.13" x2="1106.07" y2="-179.15"/><polygon class="bg" points="687.16 1045.77 722.96 1071.81 728.54 1028.48 687.16 1045.77"/><polygon class="bg" points="711.06 1107.68 687.16 1045.77 722.96 1071.81 711.06 1107.68"/><polygon class="bg" points="626.41 1067.47 687.16 1045.77 711.06 1107.68 626.41 1067.47"/><polygon class="bg" points="711.06 1107.68 683.9 1188.98 626.41 1067.47 711.06 1107.68"/><polygon class="bg" points="547.21 1089.75 561.59 1168.91 626.41 1067.47 547.21 1089.75"/><polygon class="bg" points="626.41 1067.47 561.59 1168.91 683.9 1188.98 626.41 1067.47"/><polygon class="bf" points="756.46 1076.73 711.06 1107.68 742.49 1162.94 756.46 1076.73"/><polygon class="bf" points="756.46 1076.73 722.96 1071.81 711.06 1107.68 756.46 1076.73"/><polygon class="bg" points="728.54 1028.48 722.96 1071.81 756.46 1076.73 728.54 1028.48"/><polygon class="bg" points="728.54 1028.48 756.46 1076.73 762.56 1033.84 728.54 1028.48"/><polygon class="bg" points="762.56 1033.84 759.3 998.04 728.54 1028.48 762.56 1033.84"/><polygon class="bg" points="759.3 998.04 730.83 990.72 728.54 1028.48 759.3 998.04"/><polygon class="bf" points="346.51 1128.22 461.5 1079.4 435.47 1142.33 346.51 1128.22"/><polygon class="bf" points="547.21 1089.75 461.5 1079.4 435.47 1142.33 547.21 1089.75"/><polygon class="bg" points="668.17 1014.31 728.54 1028.48 730.83 990.72 668.17 1014.31"/><polygon class="bg" points="687.16 1045.77 728.54 1028.48 668.17 1014.31 687.16 1045.77"/><polygon class="bg" points="626.41 1067.47 687.16 1045.77 668.17 1014.31 626.41 1067.47"/><polygon class="bg" points="626.41 1067.47 668.17 1014.31 584.1 1037.1 626.41 1067.47"/><polygon class="bg" points="547.21 1089.75 626.41 1067.47 584.1 1037.1 547.21 1089.75"/><polygon class="bg" points="584.1 1037.1 461.5 1079.4 547.21 1089.75 584.1 1037.1"/></g></svg>