<?xml version="1.0" encoding="utf-8"?>
<!-- Generator: Adobe Illustrator 22.1.0, SVG Export Plug-In . SVG Version: 6.00 Build 0)  -->
<svg version="1.1" id="Layer_1" xmlns="http://www.w3.org/2000/svg" xmlns:xlink="http://www.w3.org/1999/xlink" x="0px" y="0px"
	 viewBox="0 0 1920 1080" style="enable-background:new 0 0 1920 1080;" xml:space="preserve">
<style type="text/css">
	.st0{clip-path:url(#SVGID_2_);}
	.st1{opacity:0.7;}
	.st2{opacity:0.7;fill:#F9ECD7;enable-background:new    ;}
	.st3{opacity:0.7;fill:#F7E3C4;enable-background:new    ;}
	.st4{opacity:0.7;fill:#FBF2E4;enable-background:new    ;}
	.st5{opacity:0.7;fill:#F7E6CA;enable-background:new    ;}
	.st6{opacity:0.7;fill:#F9EEDC;enable-background:new    ;}
	.st7{opacity:0.7;fill:#F8E9D0;enable-background:new    ;}
	.st8{opacity:0.7;fill:#FAEFDF;enable-background:new    ;}
	.st9{opacity:0.7;fill:#FCF5EA;enable-background:new    ;}
	.st10{opacity:0.7;fill:#F8EAD2;enable-background:new    ;}
	.st11{opacity:0.7;fill:#F7E2C2;enable-background:new    ;}
	.st12{opacity:0.7;fill:#F4DDB6;enable-background:new    ;}
	.st13{opacity:0.7;fill:#FAF0E1;enable-background:new    ;}
	.st14{opacity:0.7;fill:#F8E7CC;enable-background:new    ;}
	.st15{opacity:0.7;fill:#F5E0BD;enable-background:new    ;}
	.st16{opacity:0.7;fill:#F3D9AD;enable-background:new    ;}
	.st17{opacity:0.7;fill:#FBF2E5;enable-background:new    ;}
	.st18{opacity:0.7;fill:#F8E8CE;enable-background:new    ;}
	.st19{opacity:0.7;fill:#F3DAB0;enable-background:new    ;}
	.st20{opacity:0.7;fill:#FCF7EF;enable-background:new    ;}
	.st21{opacity:0.7;fill:#F7E4C5;enable-background:new    ;}
	.st22{opacity:0.7;fill:#F7E5C7;enable-background:new    ;}
	.st23{opacity:0.7;fill:#F9EDD8;enable-background:new    ;}
	.st24{opacity:0.7;fill:#F3D9AC;enable-background:new    ;}
	.st25{opacity:0.7;fill:#F9EBD5;enable-background:new    ;}
	.st26{opacity:0.7;fill:#F5DEB9;enable-background:new    ;}
	.st27{opacity:0.7;fill:#F4DCB4;enable-background:new    ;}
	.st28{opacity:0.7;fill:#F2D7A8;enable-background:new    ;}
	.st29{opacity:0.7;fill:#F8E9D1;enable-background:new    ;}
	.st30{opacity:0.7;fill:#F5E0BE;enable-background:new    ;}
	.st31{opacity:0.7;fill:#F3D9AB;enable-background:new    ;}
	.st32{opacity:0.7;fill:#F5E1BF;enable-background:new    ;}
	.st33{opacity:0.7;fill:#FCF6EE;enable-background:new    ;}
	.st34{opacity:0.7;fill:#FBF4E9;enable-background:new    ;}
	.st35{opacity:0.7;fill:#F3D7A9;enable-background:new    ;}
	.st36{opacity:0.7;fill:#F0CE93;enable-background:new    ;}
	.st37{opacity:0.7;fill:#F4DDB7;enable-background:new    ;}
	.st38{opacity:0.7;fill:#F2D5A3;enable-background:new    ;}
	.st39{opacity:0.7;fill:#F4DCB5;enable-background:new    ;}
	.st40{opacity:0.7;fill:#F7E3C3;enable-background:new    ;}
	.st41{opacity:0.7;fill:#F4DBB2;enable-background:new    ;}
	.st42{opacity:0.7;fill:#F1D29D;enable-background:new    ;}
	.st43{opacity:0.7;fill:#F3D9AE;enable-background:new    ;}
	.st44{opacity:0.7;fill:#F6E2C0;enable-background:new    ;}
	.st45{opacity:0.7;fill:#F0CC8D;enable-background:new    ;}
	.st46{opacity:0.7;fill:#F5DFBC;enable-background:new    ;}
	.st47{opacity:0.7;fill:#F0D097;enable-background:new    ;}
	.st48{opacity:0.7;fill:#F1D19A;enable-background:new    ;}
	.st49{opacity:0.7;fill:#F2D6A7;enable-background:new    ;}
	.st50{opacity:0.7;fill:#F2D6A5;enable-background:new    ;}
	.st51{opacity:0.7;fill:#EFCB8B;enable-background:new    ;}
	.st52{opacity:0.7;fill:#F0CD8F;enable-background:new    ;}
	.st53{opacity:0.7;fill:#F0CF94;enable-background:new    ;}
	.st54{opacity:0.7;fill:#F2D4A1;enable-background:new    ;}
	.st55{fill:#F49E00;}
	.st56{fill:#EE8200;}
	.st57{fill:#F7B13E;}
	.st58{fill:#FBCC86;}
	.st59{opacity:0.7;fill:#F49E00;enable-background:new    ;}
	.st60{opacity:0.7;fill:#EE8200;enable-background:new    ;}
	.st61{opacity:0.7;fill:#F7B13E;enable-background:new    ;}
	.st62{opacity:0.7;fill:#FBCC86;enable-background:new    ;}
	.st63{opacity:0.7;fill:#FCD77C;enable-background:new    ;}
	.st64{fill:#F0CF94;}
	.st65{fill:#F4DDB6;}
	.st66{fill:#F1D19A;}
	.st67{fill:#F0CD91;}
	.st68{fill:#F3D9AD;}
	.st69{fill:#F5E0BD;}
	.st70{fill:#F7E6CA;}
	.st71{fill:#F2D7A8;}
	.st72{fill:#F0CD8F;}
	.st73{fill:#ECC37B;}
	.st74{fill:#E9BA67;}
	.st75{fill:#EEC783;}
	.st76{fill:#EFCB8B;}
	.st77{fill:#EDC580;}
	.st78{fill:#F2D6A7;}
	.st79{fill:#F7E2C2;}
	.st80{fill:#F3D9AB;}
	.st81{fill:#EABD6E;}
	.st82{fill:#EFC988;}
	.st83{fill:#F2D5A3;}
	.st84{fill:#E9B961;}
	.st85{fill:#ECC47D;}
	.st86{fill:#BCBCBC;}
	.st87{fill:#D7D7D6;}
	.st88{fill:#E4E4E4;}
	.st89{fill:#F6F6F6;}
	.st90{fill:#E9E9E9;}
	.st91{fill:#DADADA;}
	.st92{fill:#CCCCCC;}
	.st93{fill:#C6C6C6;}
	.st94{fill:#BBBBBA;}
	.st95{fill:#F2F2F2;}
	.st96{fill:#ECECEC;}
	.st97{fill:#E2E2E1;}
	.st98{fill:#EFEFEF;}
	.st99{fill:#D0D0D0;}
	.st100{fill:#DEDEDE;}
	.st101{fill:#E7E7E7;}
	.st102{fill:#444932;}
	.st103{fill:#787865;}
	.st104{fill:#89897A;}
	.st105{fill:#70715D;}
	.st106{fill:#5B5D48;}
	.st107{fill:#747561;}
	.st108{fill:#545741;}
	.st109{fill:#40462F;}
	.st110{fill:#4E523B;}
	.st111{fill:#5F614B;}
	.st112{fill:#767764;}
	.st113{fill:#63644F;}
	.st114{fill:#6A6B57;}
	.st115{fill:#353D25;}
	.st116{fill:#31331D;}
	.st117{fill:#2B341C;}
	.st118{fill:#2B2E18;}
	.st119{fill:#313921;}
	.st120{fill:#30321C;}
	.st121{fill:#3F452D;}
	.st122{fill:#555842;}
	.st123{fill:#595C46;}
	.st124{fill:#9D9C8E;}
	.st125{fill:#686A55;}
	.st126{fill:#8B8A7C;}
	.st127{fill:#858475;}
	.st128{fill:#80806E;}
	.st129{fill:#9B9A8B;}
	.st130{fill:#808070;}
	.st131{fill:#AAA89B;}
	.st132{fill:#A09F91;}
	.st133{fill:#BCBBB2;}
	.st134{fill:#949384;}
	.st135{fill:#7A7B68;}
	.st136{fill:#ACAA9E;}
	.st137{fill:#BEBDB4;}
	.st138{fill:#E8B75D;}
	.st139{clip-path:url(#SVGID_4_);}
	.st140{fill:none;stroke:#9D4701;stroke-width:0.6;stroke-linecap:round;stroke-linejoin:round;stroke-dasharray:20,10;}
</style>
<title>Teste_home</title>
<g>
	<defs>
		<rect id="SVGID_1_" width="1920" height="1080"/>
	</defs>
	<clipPath id="SVGID_2_">
		<use xlink:href="#SVGID_1_"  style="overflow:visible;"/>
	</clipPath>
	<g class="st0">
		<g class="st1">
			<polygon class="st2" points="681.3,817.1 639.6,774.1 763,788.9 			"/>
			<polygon class="st3" points="660.7,674.8 716.3,736.2 639.6,774.1 			"/>
			<polygon class="st4" points="716.3,736.2 763,788.9 639.6,774.1 			"/>
			<polygon class="st2" points="716.3,736.2 774.8,757.3 763,788.9 			"/>
			<polygon class="st5" points="716.3,736.2 764.4,673.3 774.8,757.3 			"/>
			<polygon class="st2" points="660.7,674.8 764.4,673.3 716.3,736.2 			"/>
			<polygon class="st3" points="763,788.9 819,773.8 774.8,757.3 			"/>
			<polygon class="st5" points="774.8,757.3 811.4,736.2 819,773.8 			"/>
			<polygon class="st4" points="811.4,736.2 860.7,758 819,773.8 			"/>
			<polygon class="st2" points="860.7,758 855.5,709.8 811.4,736.2 			"/>
			<polygon class="st6" points="817.6,684.5 811.4,736.2 855.5,709.8 			"/>
			<polygon class="st6" points="860.7,758 894.8,730.9 879.7,762.9 			"/>
			<polygon class="st3" points="855.5,709.8 894.8,730.9 860.7,758 			"/>
			<polygon class="st7" points="487,715.2 555.5,806.5 604,683.4 			"/>
			<polygon class="st8" points="604.8,849.6 639.6,774.1 681.3,817.1 			"/>
			<polygon class="st9" points="613.4,773.8 604.8,849.6 639.6,774.1 			"/>
			<polygon class="st9" points="613.4,773.8 555.5,806.5 604,683.4 			"/>
			<polygon class="st7" points="555.5,806.5 604.8,849.6 613.4,773.8 			"/>
			<polygon class="st4" points="555.5,806.5 528.9,860.5 604.8,849.6 			"/>
			<polygon class="st10" points="487,715.2 470,641.5 418.7,704.8 			"/>
			<polygon class="st2" points="604,683.4 562.8,635 631.8,642.6 			"/>
			<polygon class="st11" points="562.8,635 487,715.2 604,683.4 			"/>
			<polygon class="st4" points="470,641.5 562.8,635 487,715.2 			"/>
			<polygon class="st12" points="562.8,635 588.1,577.6 631.8,642.6 			"/>
			<polygon class="st13" points="631.8,642.6 704.1,597.1 660.7,674.8 			"/>
			<polygon class="st7" points="660.7,674.8 764.4,673.3 704.1,597.1 			"/>
			<polygon class="st4" points="764.4,673.3 803.8,642.6 704.1,597.1 			"/>
			<polygon class="st2" points="704.1,597.1 588.1,577.6 631.8,642.6 			"/>
			<polygon class="st14" points="562.8,635 588.1,577.6 508.7,577.6 			"/>
			<polygon class="st15" points="470,641.5 508.7,577.6 562.8,635 			"/>
			<polygon class="st15" points="418.7,704.8 388.7,621.3 470,641.5 			"/>
			<polygon class="st16" points="508.7,577.6 388.7,621.3 470,641.5 			"/>
			<polygon class="st10" points="528.9,860.5 445.3,914.6 536.1,895.1 			"/>
			<polygon class="st8" points="476.9,983.3 445.3,914.6 536.1,895.1 			"/>
			<polygon class="st11" points="436.6,966 476.9,983.3 445.3,914.6 			"/>
			<polygon class="st17" points="448,1062 395.6,1100.3 426.7,1133.6 			"/>
			<polygon class="st18" points="325.1,1086.6 387.3,1034.6 395.6,1100.3 			"/>
			<polygon class="st6" points="448,1062 387.3,1034.6 395.6,1100.3 			"/>
			<polygon class="st14" points="387.3,1034.6 436.6,966 448,1062 			"/>
			<polygon class="st14" points="333.8,963.8 387.3,1034.6 436.6,966 			"/>
			<polygon class="st19" points="333.8,963.8 325.1,1086.6 387.3,1034.6 			"/>
			<polygon class="st20" points="325.1,1086.6 259.4,1055.9 294.1,1112.6 			"/>
			<polygon class="st21" points="333.8,963.8 259.4,1055.9 325.1,1086.6 			"/>
			<polygon class="st8" points="306.4,914.6 333.8,963.8 259.4,955.5 			"/>
			<polygon class="st22" points="259.4,955.5 259.4,1055.9 333.8,963.8 			"/>
			<polygon class="st22" points="413.3,778.1 445.3,914.6 528.9,860.5 			"/>
			<polygon class="st23" points="354.5,895.2 413.3,778.1 445.3,914.6 			"/>
			<polygon class="st23" points="354.5,895.2 285.4,842.9 306.4,914.6 			"/>
			<polygon class="st23" points="413.3,778.1 330.4,716.1 418.7,704.8 			"/>
			<polygon class="st14" points="388.7,621.3 418.7,704.8 330.4,716.1 			"/>
			<polygon class="st24" points="354.5,895.2 413.3,778.1 285.4,842.9 			"/>
			<polygon class="st13" points="330.4,716.1 285.4,842.9 413.3,778.1 			"/>
			<polygon class="st22" points="285.4,842.9 259.4,955.5 306.4,914.6 			"/>
			<polygon class="st7" points="330.4,716.1 244.6,736.2 285.4,842.9 			"/>
			<polygon class="st23" points="388.7,621.3 274.9,577.6 330.4,716.1 			"/>
			<polygon class="st4" points="285.4,842.9 174.1,860.5 259.4,955.5 			"/>
			<polygon class="st3" points="244.6,736.2 174.1,860.5 285.4,842.9 			"/>
			<polygon class="st10" points="294.1,1112.6 259.4,1055.9 213.8,1116.1 			"/>
			<polygon class="st9" points="803.8,642.6 878,659.2 817.6,684.5 			"/>
			<polygon class="st2" points="855.5,709.8 878,659.2 817.6,684.5 			"/>
			<polygon class="st22" points="894.8,730.9 855.5,709.8 878,659.2 			"/>
			<polygon class="st25" points="803.8,642.6 881.8,571.6 878,659.2 			"/>
			<polygon class="st26" points="704.1,597.1 778.9,523 803.8,642.6 			"/>
			<polygon class="st6" points="881.8,571.6 778.9,523 803.8,642.6 			"/>
			<polygon class="st5" points="588.1,577.6 648.8,519.6 704.1,597.1 			"/>
			<polygon class="st19" points="778.9,523 648.8,519.6 704.1,597.1 			"/>
			<polygon class="st11" points="878,659.2 938.7,663 894.8,730.9 			"/>
			<polygon class="st10" points="881.8,571.6 938.7,663 878,659.2 			"/>
			<polygon class="st27" points="879.7,762.9 904.6,770.6 881.8,786.8 			"/>
			<polygon class="st28" points="881.8,786.8 877.8,815.3 926.2,806.5 			"/>
			<polygon class="st15" points="904.6,770.6 926.2,806.5 881.8,786.8 			"/>
			<polygon class="st10" points="894.8,730.9 904.6,770.6 879.7,762.9 			"/>
			<polygon class="st15" points="894.8,730.9 942.3,738 904.6,770.6 			"/>
			<polygon class="st3" points="926.2,806.5 904.6,770.6 979.8,774.8 			"/>
			<polygon class="st2" points="942.3,738 979.8,774.8 904.6,770.6 			"/>
			<polygon class="st5" points="877.8,815.3 904.6,840.9 868.5,872.7 			"/>
			<polygon class="st13" points="904.6,840.9 901.3,863 868.5,872.7 			"/>
			<polygon class="st2" points="901.3,863 912.5,905.7 868.5,872.7 			"/>
			<polygon class="st5" points="963.8,871.3 901.3,863 912.5,905.7 			"/>
			<polygon class="st5" points="912.5,905.7 848.2,947.2 868.5,872.7 			"/>
			<polygon class="st19" points="823,994.1 848.2,947.2 870.5,996.1 			"/>
			<polygon class="st11" points="890.5,956.5 870.5,996.1 848.2,947.2 			"/>
			<polygon class="st23" points="912.5,905.7 890.5,956.5 848.2,947.2 			"/>
			<polygon class="st29" points="912.5,905.7 962,988.5 890.5,956.5 			"/>
			<polygon class="st26" points="912.5,905.7 963.8,871.3 962,988.5 			"/>
			<polygon class="st2" points="963.8,871.3 1023.5,895.2 962,988.5 			"/>
			<polygon class="st17" points="988.4,850.3 963.8,871.3 1023.5,895.2 			"/>
			<polygon class="st14" points="962,988.5 1023.5,895.2 995.6,1030.1 			"/>
			<polygon class="st23" points="904.6,840.9 926.2,806.5 877.8,815.3 			"/>
			<polygon class="st30" points="926.2,806.5 965.3,829.4 904.6,840.9 			"/>
			<polygon class="st10" points="979.8,774.8 965.3,829.4 926.2,806.5 			"/>
			<polygon class="st31" points="894.8,730.9 938.7,663 942.3,738 			"/>
			<polygon class="st27" points="942.3,738 1010.1,684.5 938.7,663 			"/>
			<polygon class="st7" points="881.8,571.6 992,571.6 938.7,663 			"/>
			<polygon class="st11" points="1010.1,684.5 992,571.6 938.7,663 			"/>
			<polygon class="st22" points="942.3,738 1010.1,684.5 979.8,774.8 			"/>
			<polygon class="st26" points="965.3,829.4 979.8,774.8 988.4,850.3 			"/>
			<polygon class="st26" points="979.8,774.8 1067.2,750.8 1010.1,684.5 			"/>
			<polygon class="st28" points="988.4,850.3 979.8,774.8 1067.2,750.8 			"/>
			<polygon class="st32" points="1023.5,895.2 1067.2,750.8 988.4,850.3 			"/>
			<polygon class="st19" points="1010.1,684.5 1143,606.3 992,571.6 			"/>
			<polygon class="st11" points="1067.2,750.8 1010.1,684.5 1143,606.3 			"/>
			<polygon class="st11" points="995.6,1030.1 1118,976.3 1023.5,895.2 			"/>
			<polygon class="st2" points="1067.2,750.8 1170.1,838.1 1023.5,895.2 			"/>
			<polygon class="st2" points="648.8,519.6 677.7,327.8 778.9,523 			"/>
			<polygon class="st32" points="953,360.5 778.9,523 881.8,571.6 			"/>
			<polygon class="st31" points="953,360.5 677.7,327.8 778.9,523 			"/>
			<polygon class="st7" points="543,455.1 508.7,577.6 588.1,577.6 			"/>
			<polygon class="st6" points="388.7,621.3 360.4,442.2 508.7,577.6 			"/>
			<polygon class="st7" points="274.9,577.6 388.7,621.3 360.4,442.2 			"/>
			<polygon class="st27" points="648.8,519.6 543,455.1 588.1,577.6 			"/>
			<polygon class="st11" points="677.7,327.8 543,455.1 648.8,519.6 			"/>
			<polygon class="st33" points="543,455.1 360.4,442.2 508.7,577.6 			"/>
			<polygon class="st7" points="274.9,577.6 244.6,736.2 330.4,716.1 			"/>
			<polygon class="st28" points="953,360.5 992,571.6 881.8,571.6 			"/>
			<polygon class="st2" points="677.7,327.8 360.4,442.2 543,455.1 			"/>
			<polygon class="st5" points="953,360.5 1143,606.3 992,571.6 			"/>
			<polygon class="st32" points="953,360.5 1174.6,360.3 1143,606.3 			"/>
			<polygon class="st20" points="677.7,327.8 910.6,150.3 953,360.5 			"/>
			<polygon class="st13" points="910.6,150.3 1174.6,360.3 953,360.5 			"/>
			<polygon class="st34" points="360.4,442.2 417.6,223.3 677.7,327.8 			"/>
			<polygon class="st8" points="910.6,150.3 417.6,223.3 677.7,327.8 			"/>
			<polygon class="st23" points="417.6,223.3 226.2,263.1 360.4,442.2 			"/>
			<polygon class="st6" points="226.2,263.1 360.4,442.2 274.9,577.6 			"/>
			<polygon class="st34" points="274.9,577.6 56.7,597.1 244.6,736.2 			"/>
			<polygon class="st5" points="274.9,577.6 226.2,263.1 56.7,597.1 			"/>
			<polygon class="st35" points="1558.6,162.9 1591.9,181.8 1511.5,192.3 			"/>
			<polygon class="st22" points="1629,229.6 1591.9,181.8 1608.6,177.9 			"/>
			<polygon class="st36" points="1594.5,243.6 1549.5,216.1 1591.9,181.8 			"/>
			<polygon class="st37" points="1549.5,216.1 1511.5,192.3 1591.9,181.8 			"/>
			<polygon class="st38" points="1549.5,216.1 1509.1,212.7 1511.5,192.3 			"/>
			<polygon class="st39" points="1549.5,216.1 1529.1,260.6 1509.1,212.7 			"/>
			<polygon class="st40" points="1594.5,243.6 1529.1,260.6 1549.5,216.1 			"/>
			<polygon class="st38" points="1511.5,192.3 1478.5,209.9 1509.1,212.7 			"/>
			<polygon class="st41" points="1509.1,212.7 1489.3,230.9 1478.5,209.9 			"/>
			<polygon class="st37" points="1489.3,230.9 1454.6,225.7 1478.5,209.9 			"/>
			<polygon class="st30" points="1454.6,225.7 1465.7,253.3 1489.3,230.9 			"/>
			<polygon class="st37" points="1493.7,262.3 1489.3,230.9 1465.7,253.3 			"/>
			<polygon class="st30" points="1454.6,225.7 1437.4,247 1441.9,225.8 			"/>
			<polygon class="st42" points="1465.7,253.3 1437.4,247 1454.6,225.7 			"/>
			<polygon class="st7" points="1697.9,192.7 1640,149.6 1629,229.6 			"/>
			<polygon class="st5" points="1601.9,131.9 1591.9,181.8 1558.6,162.9 			"/>
			<polygon class="st43" points="1608.6,177.9 1601.9,131.9 1591.9,181.8 			"/>
			<polygon class="st40" points="1608.6,177.9 1640,149.6 1629,229.6 			"/>
			<polygon class="st44" points="1697.9,192.7 1640,149.6 1648.1,113.7 			"/>
			<polygon class="st7" points="1640,149.6 1601.9,131.9 1608.6,177.9 			"/>
			<polygon class="st14" points="1640,149.6 1648.1,113.7 1601.9,131.9 			"/>
			<polygon class="st37" points="1638,94.3 1648.1,113.7 1601.9,131.9 			"/>
			<polygon class="st10" points="1697.9,192.7 1720.5,233.5 1742.8,188.2 			"/>
			<polygon class="st41" points="1629,229.6 1662.8,251.8 1617.9,258 			"/>
			<polygon class="st11" points="1662.8,251.8 1697.9,192.7 1629,229.6 			"/>
			<polygon class="st4" points="1720.5,233.5 1662.8,251.8 1697.9,192.7 			"/>
			<polygon class="st12" points="1662.8,251.8 1656,289.5 1617.9,258 			"/>
			<polygon class="st30" points="1617.9,258 1579.5,296.1 1594.5,243.6 			"/>
			<polygon class="st7" points="1594.5,243.6 1529.1,260.6 1579.5,296.1 			"/>
			<polygon class="st37" points="1529.1,260.6 1509.2,284.8 1579.5,296.1 			"/>
			<polygon class="st45" points="1579.5,296.1 1656,289.5 1617.9,258 			"/>
			<polygon class="st14" points="1662.8,251.8 1656,289.5 1706.3,277.2 			"/>
			<polygon class="st15" points="1720.5,233.5 1706.3,277.2 1662.8,251.8 			"/>
			<polygon class="st15" points="1742.8,188.2 1787.3,260.6 1720.5,233.5 			"/>
			<polygon class="st16" points="1706.3,277.2 1787.3,260.6 1720.5,233.5 			"/>
			<polygon class="st10" points="1648.1,113.7 1692.4,68.7 1638,94.3 			"/>
			<polygon class="st43" points="1661.3,33.2 1692.4,68.7 1638,94.3 			"/>
			<polygon class="st21" points="1667,-17.7 1689.6,37.1 1661.3,33.2 			"/>
			<polygon class="st14" points="1752.9,66 1692.4,68.7 1689.6,37.1 			"/>
			<polygon class="st11" points="1689.6,37.1 1661.3,33.2 1692.4,68.7 			"/>
			<polygon class="st14" points="1709.8,-11 1689.6,37.1 1667,-17.7 			"/>
			<polygon class="st14" points="1755,22.4 1709.8,-11 1689.6,37.1 			"/>
			<polygon class="st40" points="1755,22.4 1740.8,-51.3 1709.8,-11 			"/>
			<polygon class="st8" points="1755,22.4 1783.4,-24.5 1740.8,-51.3 			"/>
			<polygon class="st8" points="1780.2,47.1 1755,22.4 1811.7,7.7 			"/>
			<polygon class="st22" points="1811.7,7.7 1783.4,-24.5 1755,22.4 			"/>
			<polygon class="st22" points="1734.5,144.2 1692.4,68.7 1648.1,113.7 			"/>
			<polygon class="st46" points="1752.9,66 1734.5,144.2 1692.4,68.7 			"/>
			<polygon class="st46" points="1752.9,66 1805,86.1 1780.2,47.1 			"/>
			<polygon class="st26" points="1752.9,66 1734.5,144.2 1805,86.1 			"/>
			<polygon class="st7" points="1805,86.1 1811.7,7.7 1780.2,47.1 			"/>
			<polygon class="st4" points="1805,86.1 1853.6,51.5 1811.7,7.7 			"/>
			<polygon class="st28" points="1509.2,284.8 1459.5,286.6 1493.7,262.3 			"/>
			<polygon class="st39" points="1465.7,253.3 1459.5,286.6 1493.7,262.3 			"/>
			<polygon class="st22" points="1437.4,247 1465.7,253.3 1459.5,286.6 			"/>
			<polygon class="st43" points="1509.2,284.8 1471.2,338.8 1459.5,286.6 			"/>
			<polygon class="st47" points="1579.5,296.1 1544.1,351.4 1509.2,284.8 			"/>
			<polygon class="st39" points="1471.2,338.8 1544.1,351.4 1509.2,284.8 			"/>
			<polygon class="st5" points="1656,289.5 1617.8,351.4 1579.5,296.1 			"/>
			<polygon class="st19" points="1544.1,351.4 1617.8,351.4 1579.5,296.1 			"/>
			<polygon class="st11" points="1459.5,286.6 1420.5,293.8 1437.4,247 			"/>
			<polygon class="st35" points="1471.2,338.8 1420.5,293.8 1459.5,286.6 			"/>
			<polygon class="st27" points="1441.9,225.8 1424.9,225.1 1436.7,212.1 			"/>
			<polygon class="st28" points="1436.7,212.1 1434.7,194.6 1405.4,207.4 			"/>
			<polygon class="st15" points="1424.9,225.1 1405.4,207.4 1436.7,212.1 			"/>
			<polygon class="st38" points="1437.4,247 1424.9,225.1 1441.9,225.8 			"/>
			<polygon class="st15" points="1437.4,247 1406.3,250.2 1424.9,225.1 			"/>
			<polygon class="st3" points="1405.4,207.4 1424.9,225.1 1376.6,234.3 			"/>
			<polygon class="st46" points="1406.3,250.2 1376.6,234.3 1424.9,225.1 			"/>
			<polygon class="st5" points="1434.7,194.6 1413.6,183.7 1431.3,159.3 			"/>
			<polygon class="st13" points="1413.6,183.7 1412.1,170.2 1431.3,159.3 			"/>
			<polygon class="st2" points="1412.1,170.2 1398.2,146.7 1431.3,159.3 			"/>
			<polygon class="st5" points="1371.2,175 1412.1,170.2 1398.2,146.7 			"/>
			<polygon class="st5" points="1398.2,146.7 1432.2,112.3 1431.3,159.3 			"/>
			<polygon class="st19" points="1440.7,80.7 1432.2,112.3 1410.3,86.9 			"/>
			<polygon class="st11" points="1404,113.4 1410.3,86.9 1432.2,112.3 			"/>
			<polygon class="st41" points="1398.2,146.7 1404,113.4 1432.2,112.3 			"/>
			<polygon class="st42" points="1398.2,146.7 1353.6,105.7 1404,113.4 			"/>
			<polygon class="st26" points="1398.2,146.7 1371.2,175 1353.6,105.7 			"/>
			<polygon class="st23" points="1413.6,183.7 1405.4,207.4 1434.7,194.6 			"/>
			<polygon class="st44" points="1405.4,207.4 1377,199.9 1413.6,183.7 			"/>
			<polygon class="st10" points="1376.6,234.3 1377,199.9 1405.4,207.4 			"/>
			<polygon class="st31" points="1437.4,247 1420.5,293.8 1406.3,250.2 			"/>
			<polygon class="st21" points="1471.2,338.8 1381.9,379.3 1420.5,293.8 			"/>
			<polygon class="st26" points="1377,199.9 1376.6,234.3 1359.1,191.2 			"/>
			<polygon class="st20" points="417.6,223.3 226.2,263.1 260.1,-45.5 			"/>
			<polygon class="st34" points="910.6,150.3 707.8,-216.1 417.6,223.3 			"/>
			<polygon class="st8" points="260.1,-45.5 707.8,-216.1 417.6,223.3 			"/>
			<polygon class="st6" points="1406.3,250.2 1375.3,294.7 1420.5,293.8 			"/>
			<polygon class="st22" points="1376.6,234.3 1375.3,294.7 1406.3,250.2 			"/>
			<polygon class="st42" points="1359.1,191.2 1329.1,237.8 1376.6,234.3 			"/>
			<polygon class="st16" points="1375.3,294.7 1329.1,237.8 1376.6,234.3 			"/>
			<polygon class="st22" points="1420.5,293.8 1375.3,294.7 1381.9,379.3 			"/>
			<polygon class="st22" points="1329.1,237.8 1295.1,336.9 1375.3,294.7 			"/>
			<polygon class="st32" points="1381.9,379.3 1295.1,336.9 1375.3,294.7 			"/>
			<polygon class="st32" points="1329.1,237.8 1238.4,231.8 1295.1,336.9 			"/>
			<polygon class="st48" points="1381.3,379.3 1362,537.2 1295.1,336.9 			"/>
			<polygon class="st31" points="1362,537.2 1268.7,468.2 1295.1,336.9 			"/>
			<polygon class="st12" points="1295.1,336.9 1174.6,360.3 1268.7,468.2 			"/>
			<polygon class="st11" points="1238.4,231.8 1174.6,360.3 1295.1,336.9 			"/>
			<polygon class="st11" points="1381.9,378.5 1454.6,420.2 1471.9,339.6 			"/>
			<polygon class="st49" points="1362,537.2 1455.3,419.8 1381.3,379.3 			"/>
			<polygon class="st48" points="1455.3,419.8 1509.5,617.1 1362,537.2 			"/>
			<polygon class="st50" points="1471.2,338.8 1455.3,419.8 1544.1,351.4 			"/>
			<polygon class="st11" points="1455.3,419.8 1544.1,351.4 1586.4,442.9 			"/>
			<polygon class="st51" points="1509.5,617.1 1586.4,442.9 1455.3,419.8 			"/>
			<polygon class="st49" points="1509.5,617.1 1637.8,656.9 1586.4,442.9 			"/>
			<polygon class="st14" points="1617.8,351.4 1586.4,442.9 1544.1,351.4 			"/>
			<polygon class="st26" points="1617.8,351.4 1697.9,351.4 1656,289.5 			"/>
			<polygon class="st38" points="1586.4,442.9 1617.8,351.4 1701.1,450.1 			"/>
			<polygon class="st23" points="1697.9,351.4 1701.1,450.1 1617.8,351.4 			"/>
			<polygon class="st52" points="1701.1,450.1 1637.8,656.9 1586.4,442.9 			"/>
			<polygon class="st11" points="1238.4,231.8 1260.1,91.2 1078.1,126.2 			"/>
			<polygon class="st14" points="910.6,150.3 1078.1,126.2 1174.6,360.3 			"/>
			<polygon class="st16" points="1238.4,231.8 1078.1,126.2 1174.6,360.3 			"/>
			<polygon class="st3" points="1174.6,360.3 1268.7,468.2 1143,606.3 			"/>
			<polygon class="st10" points="1362,537.2 1143,606.3 1268.7,468.2 			"/>
			<polygon class="st32" points="1143,606.3 1276.3,656.9 1067.2,750.8 			"/>
			<polygon class="st32" points="1276.3,656.9 1170.1,838.1 1067.2,750.8 			"/>
			<polygon class="st25" points="1118,976.3 1170.1,838.1 1023.5,895.2 			"/>
			<polygon class="st5" points="1276.3,656.9 1459.5,794.7 1170.1,838.1 			"/>
			<polygon class="st32" points="1362,537.2 1276.3,656.9 1143,606.3 			"/>
			<polygon class="st26" points="1509.5,617.1 1459.5,794.7 1362,537.2 			"/>
			<polygon class="st19" points="1276.3,656.9 1363.2,537.2 1459.5,794.7 			"/>
			<polygon class="st10" points="1706.3,277.2 1697.9,351.4 1656,289.5 			"/>
			<polygon class="st7" points="1787.3,260.6 1706.3,277.2 1847.7,391.4 			"/>
			<polygon class="st19" points="1697.9,351.4 1847.7,391.4 1706.3,277.2 			"/>
			<polygon class="st12" points="1701.1,450.1 1847.7,391.4 1697.9,351.4 			"/>
			<polygon class="st22" points="1637.8,656.9 1459.5,794.7 1509.5,617.1 			"/>
			<polygon class="st49" points="1637.8,656.9 1888.6,663.5 1701.1,450.1 			"/>
			<polygon class="st15" points="1847.7,391.4 1888.6,663.5 1701.1,450.1 			"/>
			<polygon class="st25" points="1637.8,656.9 1825,802.1 1888.6,663.5 			"/>
			<polygon class="st12" points="1078.1,126.2 1110.6,-21.1 1260.1,91.2 			"/>
			<polygon class="st28" points="1295.1,17 1110.6,-21.1 1260.1,91.2 			"/>
			<polygon class="st53" points="1224.8,-192.2 1110.6,-21.1 1295.1,17 			"/>
			<polygon class="st28" points="1440.7,80.7 1420.5,46.5 1455,38.6 			"/>
			<polygon class="st28" points="1410.3,86.9 1420.5,46.5 1440.7,80.7 			"/>
			<polygon class="st28" points="1353.6,105.7 1315.8,151.7 1371.2,175 			"/>
			<polygon class="st38" points="1325.7,86.4 1315.8,151.7 1353.6,105.7 			"/>
			<polygon class="st54" points="1352.3,66.1 1420.5,46.5 1410.3,86.9 			"/>
			<polygon class="st22" points="1366.4,-21.8 1352.3,66.1 1420.5,46.5 			"/>
			<polygon class="st26" points="1455.3,7.2 1420.5,46.5 1366.4,-21.8 			"/>
			<polygon class="st5" points="1455,38.6 1420.5,46.5 1455.3,7.2 			"/>
			<polygon class="st12" points="1493.1,-13.5 1455.3,7.2 1455,38.6 			"/>
			<polygon class="st12" points="1353.6,-57.5 1295.1,17 1366.4,-21.8 			"/>
			<polygon class="st12" points="1352.3,66.1 1295.1,17 1325.7,86.4 			"/>
			<polygon class="st28" points="1366.4,-21.8 1295.1,17 1352.3,66.1 			"/>
			<polygon class="st11" points="1325.7,86.4 1260.1,91.2 1295.1,17 			"/>
			<polygon class="st28" points="1315.8,151.7 1260.1,91.2 1325.7,86.4 			"/>
			<polygon class="st42" points="1260.1,91.2 1238.4,231.8 1315.8,151.7 			"/>
			<polygon class="st53" points="1371.2,175 1359.1,191.2 1315.8,151.7 			"/>
			<polygon class="st49" points="1329.1,237.8 1315.8,151.7 1359.1,191.2 			"/>
			<polygon class="st26" points="1238.4,231.8 1315.8,151.7 1329.1,237.8 			"/>
			<polygon class="st42" points="1455.3,7.2 1476.6,-51.3 1493.1,-13.5 			"/>
			<polygon class="st42" points="1391.2,-56.1 1476.6,-51.3 1455.3,7.2 			"/>
			<polygon class="st26" points="1224.8,-192.2 1353.6,-57.5 1295.1,17 			"/>
			<polygon class="st25" points="1847.7,391.4 1947.2,320.5 1888.6,663.5 			"/>
			<polygon class="st22" points="1787.3,260.6 1947.2,320.5 1847.7,391.4 			"/>
			<polygon class="st7" points="1742.8,188.2 1780.2,158.4 1734.5,144.2 			"/>
			<polygon class="st38" points="1805,86.1 1780.2,158.4 1734.5,144.2 			"/>
			<polygon class="st27" points="1787.3,260.6 1780.2,158.4 1742.8,188.2 			"/>
			<polygon class="st22" points="1853.6,51.5 1867.2,166.2 1805,86.1 			"/>
			<polygon class="st23" points="1780.2,158.4 1867.2,166.2 1805,86.1 			"/>
			<polygon class="st14" points="1787.3,260.6 1867.2,166.2 1780.2,158.4 			"/>
			<polygon class="st26" points="1867.2,166.2 1787.3,260.6 1947.2,320.5 			"/>
			<polygon class="st12" points="784.7,1055.5 848.2,1048.8 823,994.1 			"/>
			<polygon class="st5" points="870.5,996.1 848.2,1048.8 823,994.1 			"/>
			<polygon class="st5" points="948,1051.9 870.5,996.1 848.2,1048.8 			"/>
			<polygon class="st5" points="784.7,1055.5 784.7,1116.9 848.2,1048.8 			"/>
			<polygon class="st11" points="848.2,1048.8 891.6,1186.3 784.7,1116.9 			"/>
			<polygon class="st15" points="948,1051.9 891.6,1186.3 848.2,1048.8 			"/>
			<polygon class="st23" points="948,1051.9 1011.5,1157.7 995.6,1030.1 			"/>
			<polygon class="st27" points="1118,976.3 1011.5,1157.7 995.6,1030.1 			"/>
			<polygon class="st14" points="948,1051.9 891.6,1186.3 1011.5,1157.7 			"/>
			<polygon class="st15" points="721.8,1116.1 784.7,1116.9 784.7,1055.5 			"/>
			<polygon class="st22" points="1011.5,1157.7 1190.6,1142 1118,976.3 			"/>
			<polygon class="st17" points="1118,976.3 1252.5,933.4 1170.1,838.1 			"/>
			<polygon class="st33" points="1459.5,794.7 1170.1,838.1 1252.5,933.4 			"/>
			<polygon class="st17" points="1459.5,794.7 1825,802.1 1637.8,656.9 			"/>
			<polygon class="st6" points="1252.5,933.4 1190.6,1142 1118,976.3 			"/>
			<polygon class="st23" points="1459.5,794.7 1562.9,1018 1252.5,933.4 			"/>
			<polygon class="st23" points="1825,802.1 1562.9,1018 1459.5,794.7 			"/>
			<polygon class="st17" points="1252.5,933.4 1190.6,1142 1562.9,1018 			"/>
			<polygon class="st17" points="1825,802.1 2088,774.8 1888.6,663.5 			"/>
			<polygon class="st26" points="1947.2,320.5 1888.6,663.5 2088,774.8 			"/>
			<polygon class="st33" points="1562.9,1018 1413.1,1399.4 1190.6,1142 			"/>
			<polygon class="st33" points="1562.9,1018 1861.9,1246.3 1825,802.1 			"/>
			<polygon class="st6" points="1413.1,1399.4 1861.9,1246.3 1562.9,1018 			"/>
			<polygon class="st10" points="259.4,1055.9 144.7,993.4 259.4,955.5 			"/>
			<polygon class="st3" points="174.1,860.5 144.7,993.4 259.4,955.5 			"/>
			<polygon class="st12" points="144.7,993.4 213.8,1116.1 259.4,1055.9 			"/>
			<polygon class="st28" points="144.7,993.4 48.3,1181.3 213.8,1116.1 			"/>
			<polygon class="st31" points="174.1,860.5 -42.7,842.9 144.7,993.4 			"/>
			<polygon class="st5" points="48.3,1181.3 -42.7,842.9 144.7,993.4 			"/>
			<polygon class="st31" points="48.3,1181.3 -42.7,842.9 -123,1186 			"/>
			<polygon class="st13" points="1861.9,1246.3 1825,802.1 2088,774.8 			"/>
			<polygon class="st5" points="1979.6,1716.2 2274.4,1224.3 2088,776.3 1861.9,1247.8 			"/>
			<polygon class="st34" points="910.6,150.3 1110.6,-21.1 1078.1,126.2 			"/>
			<polygon class="st6" points="707.8,-216.1 1110.6,-21.1 910.6,150.3 			"/>
			<polygon class="st11" points="226.2,263.1 -146.8,96.5 260.1,-45.5 			"/>
			<polygon class="st13" points="476.9,-652 260.1,-45.5 -146.8,96.5 -55.7,-624 			"/>
			<polygon class="st42" points="1811.7,7.7 1822.6,-86.2 1783.4,-24.5 			"/>
			<polygon class="st11" points="1811.7,7.7 1988.3,-59.1 1822.6,-86.2 			"/>
			<polygon class="st7" points="1853.6,51.5 1988.3,-59.1 1811.7,7.7 			"/>
			<polygon class="st12" points="1853.6,51.5 1963.5,94.6 1867.2,166.2 			"/>
			<polygon class="st16" points="1988.3,-59.1 1853.6,51.5 1963.5,94.6 			"/>
			<polygon class="st15" points="1867.2,166.2 1947.2,320.5 1963.5,94.6 			"/>
			<polygon class="st9" points="536.1,895.1 528.9,860.5 604.8,849.6 			"/>
			<polygon class="st17" points="448,1062 436.6,966 476.9,983.3 			"/>
			<polygon class="st20" points="226.2,263.1 56.7,597.1 -146.8,96.5 			"/>
			<polygon class="st6" points="-147,97 56.7,597.1 -43,843 			"/>
			<polygon class="st20" points="244.6,736.2 -42.7,842.9 174.1,860.5 			"/>
			<polygon class="st5" points="244.6,736.2 -42.7,842.9 56.7,597.1 			"/>
		</g>
		<g class="st1">
			<polygon class="st55" points="1509.1,212.7 1529.1,260.6 1493.7,262.3 			"/>
			<polygon class="st55" points="1629,229.6 1594.5,243.6 1591.9,181.8 			"/>
			<polygon class="st56" points="1734.5,144.2 1697.9,192.7 1648.1,113.7 			"/>
			<polygon class="st55" points="1755,22.4 1752.9,66 1689.6,37.1 			"/>
			<polygon class="st57" points="1493.7,262.3 1509.1,212.7 1489.3,230.9 			"/>
			<polygon class="st56" points="1629,229.6 1617.9,258 1594.5,243.6 			"/>
			<polygon class="st55" points="1697.9,192.7 1742.8,188.2 1734.5,144.2 			"/>
			<polygon class="st58" points="1529.1,260.6 1509.2,284.8 1493.7,262.3 			"/>
			<polygon class="st56" points="1755,22.4 1780.2,47.1 1752.9,66 			"/>
			<path class="st55" d="M1455.3,7.2c-0.6-2.1-64-63.3-64-63.3l-24.8,34.3L1455.3,7.2z"/>
			<polygon class="st55" points="1410.3,86.9 1352.3,66.1 1353.6,105.7 			"/>
			<polygon class="st55" points="1412.1,170.2 1371.2,175 1377,199.9 			"/>
			<polygon class="st57" points="1377,199.9 1413.6,183.7 1412.1,170.2 			"/>
			<polygon class="st58" points="1377,199.9 1359.1,191.2 1371.2,175 			"/>
			<polygon class="st58" points="1410.3,86.9 1404,113.4 1353.6,105.7 			"/>
			<polygon class="st57" points="1352.3,66.1 1325.7,86.4 1353.6,105.7 			"/>
		</g>
		<polygon class="st59" points="774.8,757.3 764.4,673.3 817.6,684.5 		"/>
		<polygon class="st59" points="604,683.4 660.7,674.8 639.6,774.1 		"/>
		<polygon class="st60" points="413.3,778.1 487,715.2 528.9,860.5 		"/>
		<polygon class="st59" points="333.8,963.8 354.5,895.2 436.6,966 		"/>
		<polygon class="st61" points="604,683.4 639.6,774.1 613.4,773.8 		"/>
		<polygon class="st61" points="817.6,684.5 774.8,757.3 811.4,736.2 		"/>
		<polygon class="st62" points="487,715.2 555.5,806.5 528.9,860.5 		"/>
		<polygon class="st60" points="604,683.4 631.8,642.6 660.7,674.8 		"/>
		<polygon class="st59" points="487,715.2 418.7,704.8 413.3,778.1 		"/>
		<polygon class="st62" points="764.4,673.3 803.8,642.6 817.6,684.5 		"/>
		<polygon class="st63" points="354.5,895.2 445.3,914.6 436.6,966 		"/>
		<polygon class="st60" points="333.8,963.8 306.4,914.6 354.5,895.2 		"/>
		<g class="st1">
			<polygon class="st55" points="870.5,996.1 948,1051.9 962,988.5 			"/>
			<polygon class="st55" points="901.3,863 963.8,871.3 965.3,829.4 			"/>
			<polygon class="st57" points="965.3,829.4 904.6,840.9 901.3,863 			"/>
			<polygon class="st58" points="965.3,829.4 988.4,850.3 963.8,871.3 			"/>
			<polygon class="st58" points="870.5,996.1 890.5,956.5 962,988.5 			"/>
			<polygon class="st57" points="948,1051.9 995.6,1030.1 962,988.5 			"/>
		</g>
		<g class="st1">
			<polygon class="st64" points="1513.9,2.3 1455,38.6 1482,53.3 			"/>
			<polygon class="st65" points="1482,53.3 1455,38.6 1461.9,92.3 			"/>
			<polygon class="st66" points="1461.9,92.3 1455,38.6 1440.7,80.7 			"/>
			<polygon class="st67" points="1461.9,92.3 1432.2,112.3 1440.7,80.7 			"/>
			<polygon class="st68" points="1453.2,143 1461.9,92.3 1432.2,112.3 			"/>
			<polygon class="st69" points="1431.3,159.3 1453.2,143 1432.2,112.3 			"/>
			<polygon class="st70" points="1450.5,177.7 1453.2,143 1431.3,159.3 			"/>
			<polygon class="st71" points="1434.7,194.6 1450.5,177.7 1431.3,159.3 			"/>
			<polygon class="st72" points="1434.7,194.6 1449.3,193.1 1450.5,177.7 			"/>
			<polygon class="st73" points="1451.6,210.6 1449.3,193.1 1434.7,194.6 			"/>
			<polygon class="st74" points="1451.6,210.6 1434.7,194.6 1436.7,212.1 			"/>
			<polygon class="st73" points="1436.7,212.1 1441.9,225.8 1451.6,210.6 			"/>
			<polygon class="st66" points="1441.9,225.8 1454.6,225.7 1451.6,210.6 			"/>
			<polygon class="st75" points="1513.9,2.3 1455,38.6 1493.1,-13.5 			"/>
			<polygon class="st66" points="1513.9,2.3 1493.1,-13.5 1524.6,-44.4 			"/>
			<polygon class="st76" points="1513.9,2.3 1524.6,-44.4 1565.7,-51.4 			"/>
			<polygon class="st77" points="1645.2,-43 1667,-17.7 1643.2,0.4 			"/>
			<polygon class="st78" points="1667,-17.7 1661.3,33.2 1643.2,0.4 			"/>
			<polygon class="st75" points="1623.2,50.8 1643.2,0.4 1661.3,33.2 			"/>
			<polygon class="st71" points="1661.3,33.2 1623.2,50.8 1638,94.3 			"/>
			<polygon class="st79" points="1596.1,101.5 1638,94.3 1623.2,50.8 			"/>
			<polygon class="st80" points="1638,94.3 1601.9,131.9 1596.1,101.5 			"/>
			<polygon class="st76" points="1596.1,101.5 1562.9,135.6 1601.9,131.9 			"/>
			<polygon class="st81" points="1601.9,131.9 1558.6,162.9 1562.9,135.6 			"/>
			<polygon class="st82" points="1521.4,167.8 1558.6,162.9 1562.9,135.6 			"/>
			<polygon class="st76" points="1478.5,209.9 1451.6,210.6 1454.6,225.7 			"/>
			<polygon class="st83" points="1467.2,199.6 1451.6,210.6 1478.5,209.9 			"/>
			<polygon class="st82" points="1490.4,184.7 1467.2,199.6 1478.5,209.9 			"/>
			<polygon class="st84" points="1490.4,184.7 1478.5,209.9 1511.5,192.3 			"/>
			<polygon class="st81" points="1521.4,167.8 1490.4,184.7 1511.5,192.3 			"/>
			<polygon class="st85" points="1511.5,192.3 1558.6,162.9 1521.4,167.8 			"/>
		</g>
		<g class="st1">
			<polygon class="st86" points="1482,53.3 1490.3,53.4 1491.3,38.1 			"/>
			<polygon class="st87" points="1496.5,76.3 1476.1,64.7 1482,53.3 1490.3,53.4 			"/>
			<polygon class="st88" points="1496.5,76.3 1461.9,92.3 1476.1,64.7 			"/>
			<polygon class="st89" points="1508.3,94.6 1453.2,143 1461.9,92.3 			"/>
			<polygon class="st90" points="1506.9,138.2 1453.2,143 1508.3,94.6 			"/>
			<polygon class="st91" points="1554.9,115.3 1562.9,135.6 1521.4,167.8 			"/>
			<polygon class="st92" points="1562.9,135.6 1591.4,106.3 1554.9,115.3 			"/>
			<polygon class="st93" points="1467.2,199.6 1449.3,193.1 1451.6,210.6 			"/>
			<polygon class="st94" points="1450.5,177.7 1467.2,199.6 1449.3,193.1 			"/>
			<polygon class="st87" points="1490.4,184.7 1467.2,199.6 1450.5,177.7 			"/>
			<polygon class="st88" points="1450.5,177.7 1453.2,143 1490.4,184.7 			"/>
			<polygon class="st90" points="1521.4,167.8 1506.9,138.2 1490.4,184.7 			"/>
			<polygon class="st95" points="1490.4,184.7 1506.9,138.2 1453.2,143 			"/>
			<polygon class="st96" points="1508.3,94.6 1496.5,76.3 1461.9,92.3 			"/>
			<polygon class="st97" points="1506.9,138.2 1554.9,115.3 1521.4,167.8 			"/>
			<polygon class="st98" points="1506.9,138.2 1554.9,115.3 1534.8,116.6 1508.3,94.6 			"/>
			<polygon class="st99" points="1628.5,39.5 1628.5,27.2 1607.9,0.7 1643.2,0.4 			"/>
			<polygon class="st100" points="1643.2,0.4 1645.2,-43 1607.9,0.7 			"/>
			<polygon class="st101" points="1607.9,0.7 1582.3,-14.6 1645.2,-43 			"/>
		</g>
		<g class="st1">
			<polygon class="st102" points="1591.4,106.3 1554.9,115.3 1577.9,104.6 1596.1,101.5 			"/>
			<polygon class="st103" points="1534.8,116.6 1554.9,115.3 1577.9,104.6 1554,111.8 1532.5,108.1 			"/>
			<polygon class="st104" points="1534.8,116.6 1508.3,94.6 1532.5,108.1 			"/>
			<polygon class="st105" points="1508.3,94.6 1496.5,76.3 1496.7,46.5 1502.8,74.3 			"/>
			<polygon class="st106" points="1508.3,94.6 1532.5,108.1 1512.4,88.9 1502.8,74.3 			"/>
			<polygon class="st107" points="1496.5,76.3 1490.3,53.4 1496.7,46.5 			"/>
			<polygon class="st108" points="1490.3,53.4 1496.7,46.5 1498.5,32.1 1505.1,16.4 1491.3,38.1 			"/>
			<polygon class="st108" points="1577.9,104.6 1596.1,101.5 1607.1,80.8 1611.4,63 1598.2,88.7 			"/>
			<path class="st109" d="M1607.1,80.8l4.3-17.8l17.1-23.5l-9,18.2C1619.6,57.6,1607.1,80.8,1607.1,80.8z"/>
			<polygon class="st110" points="1611.4,63 1628.5,39.5 1628.5,27.2 1607.9,0.7 1623.2,28.5 			"/>
			<polygon class="st111" points="1616.5,48.1 1614.5,12.7 1623.2,28.5 			"/>
			<polygon class="st112" points="1615.2,24.6 1614.5,12.7 1607.9,0.7 1590,-3.3 1605.7,8.3 			"/>
			<polygon class="st113" points="1607.9,0.7 1582.3,-14.6 1563.5,-11.8 1590,-3.3 			"/>
			<polygon class="st114" points="1550.1,-10.8 1521.9,-6 1513.9,2.3 1505.1,16.4 1522.6,1.9 			"/>
			<polygon class="st112" points="1498.5,32.1 1522.6,1.9 1505.1,16.4 			"/>
			<polygon class="st115" points="1550,77.4 1533.1,65.4 1555.5,60.8 			"/>
			<polygon class="st116" points="1559,47 1533.1,65.4 1527.6,47.3 			"/>
			<polygon class="st117" points="1559,47 1527.6,47.3 1535.7,31.9 			"/>
			<polygon class="st118" points="1533.1,65.4 1555.5,60.8 1559,47 			"/>
			<polygon class="st118" points="1563.5,58 1569.2,74.5 1582.4,63.8 			"/>
			<polygon class="st119" points="1559,47 1563.5,58 1586.4,45.3 			"/>
			<polygon class="st117" points="1586.4,45.3 1582.4,63.8 1563.5,58 			"/>
			<polygon class="st117" points="1586.4,45.3 1576.7,27.7 1559,47 			"/>
			<polygon class="st120" points="1559,47 1576.7,27.7 1555.2,21.4 			"/>
			<polygon class="st121" points="1559,47 1555.2,21.4 1535.7,31.9 			"/>
			<polygon class="st122" points="1559,47 1563.5,58 1555.5,60.8 			"/>
			<polygon class="st105" points="1563.5,58 1550,77.4 1555.5,60.8 			"/>
			<polygon class="st123" points="1563.5,58 1569.2,74.5 1550,77.4 			"/>
			<polygon class="st124" points="1569.2,74.5 1577.9,104.6 1554,111.8 			"/>
			<polygon class="st112" points="1550,77.4 1532.5,108.1 1533.1,65.4 			"/>
			<polygon class="st125" points="1554,111.8 1532.5,108.1 1550,77.4 			"/>
			<polygon class="st126" points="1512.4,88.9 1532.5,108.1 1533.1,65.4 			"/>
			<polygon class="st127" points="1512.4,88.9 1502.8,74.3 1533.1,65.4 			"/>
			<polygon class="st127" points="1533.1,65.4 1527.6,47.3 1496.7,46.5 			"/>
			<polygon class="st103" points="1502.8,74.3 1533.1,65.4 1496.7,46.5 			"/>
			<polygon class="st104" points="1535.7,31.9 1522.6,1.9 1498.5,32.1 			"/>
			<polygon class="st126" points="1527.6,47.3 1498.5,32.1 1535.7,31.9 			"/>
			<polygon class="st128" points="1496.7,46.5 1527.6,47.3 1498.5,32.1 			"/>
			<polygon class="st129" points="1582.4,63.8 1598.2,88.7 1569.2,74.5 			"/>
			<polygon class="st104" points="1598.2,88.7 1577.9,104.6 1569.2,74.5 			"/>
			<polygon class="st104" points="1611.4,63 1586.4,45.3 1616.5,48.1 			"/>
			<polygon class="st130" points="1554,111.8 1569.2,74.5 1550,77.4 			"/>
			<polygon class="st131" points="1582.4,63.8 1598.2,88.7 1611.4,63 			"/>
			<polygon class="st124" points="1586.4,45.3 1582.4,63.8 1611.4,63 			"/>
			<polygon class="st104" points="1586.4,45.3 1576.7,27.7 1605.7,8.3 			"/>
			<polygon class="st132" points="1605.7,8.3 1615.2,24.6 1586.4,45.3 			"/>
			<polygon class="st133" points="1616.5,48.1 1615.2,24.6 1586.4,45.3 			"/>
			<polygon class="st134" points="1576.7,27.7 1590,-3.3 1555.2,21.4 			"/>
			<polygon class="st135" points="1605.7,8.3 1576.7,27.7 1590,-3.3 			"/>
			<polygon class="st134" points="1555.2,21.4 1550.1,-10.8 1563.5,-11.8 			"/>
			<polygon class="st136" points="1590,-3.3 1563.5,-11.8 1555.2,21.4 			"/>
			<polygon class="st136" points="1535.7,31.9 1555.2,21.4 1522.6,1.9 			"/>
			<polygon class="st137" points="1550.1,-10.8 1522.6,1.9 1555.2,21.4 			"/>
		</g>
		<g class="st1">
			<polygon class="st86" points="750.7,1021.6 738.4,1018.1 730.7,1042 			"/>
			<polygon class="st87" points="738.4,979.3 764,1005.7 750.7,1021.6 738.4,1018.1 			"/>
			<polygon class="st88" points="738.4,979.3 796.2,967.4 764,1005.7 			"/>
			<polygon class="st89" points="728.3,945.5 829.5,890.1 796.2,967.4 			"/>
			<polygon class="st90" points="748,876.7 829.5,890.1 728.3,945.5 			"/>
			<polygon class="st91" points="667.6,894.4 664,859 738.4,824 			"/>
			<polygon class="st92" points="664,859 610,894.4 667.6,894.4 			"/>
			<polygon class="st93" points="831.6,794.7 855.5,812 859.2,783.2 			"/>
			<polygon class="st94" points="847.5,835.9 831.6,794.7 855.5,812 			"/>
			<polygon class="st87" points="791.2,809.2 831.6,794.7 847.5,835.9 			"/>
			<polygon class="st88" points="847.5,835.9 829.5,890.1 791.2,809.2 			"/>
			<polygon class="st90" points="738.4,824 748,876.7 791.2,809.2 			"/>
			<polygon class="st95" points="791.2,809.2 748,876.7 829.5,890.1 			"/>
			<polygon class="st96" points="728.3,945.5 738.4,979.3 796.2,967.4 			"/>
			<polygon class="st97" points="748,876.7 667.6,894.4 738.4,824 			"/>
			<polygon class="st98" points="748,876.7 667.6,894.4 698,900.2 728.3,945.5 			"/>
			<polygon class="st99" points="528.1,986.1 523.1,1005.7 543,1055.9 490.6,1042.5 			"/>
			<polygon class="st100" points="490.6,1042.5 470,1110.8 543,1055.9 			"/>
			<polygon class="st101" points="543,1055.9 574.8,1090.2 470,1110.8 			"/>
		</g>
		<g class="st1">
			<polygon class="st102" points="610,894.4 667.6,894.4 629.3,902.5 601.1,900.2 			"/>
			<polygon class="st103" points="698,900.2 667.6,894.4 629.3,902.5 667.6,900.2 698,914.6 			"/>
			<polygon class="st104" points="698,900.2 728.3,945.5 698,914.6 			"/>
			<polygon class="st105" points="728.3,945.5 738.4,979.3 726.1,1026.6 728.3,980 			"/>
			<polygon class="st106" points="728.3,945.5 698,914.6 720,952.9 728.3,980 			"/>
			<polygon class="st107" points="738.4,979.3 738.4,1018.1 726.1,1026.6 			"/>
			<polygon class="st108" points="738.4,1018.1 726.1,1026.6 717.7,1048.8 701.6,1071.2 730.7,1042 			"/>
			<polygon class="st108" points="629.3,902.5 601.1,900.2 576.4,928.7 562.8,955.5 592.8,919.7 			"/>
			<path class="st109" d="M576.4,928.7l-13.6,26.7l-34.7,30.6c0,0,20.8-25.6,20.6-25.4L576.4,928.7z"/>
			<polygon class="st110" points="562.8,955.5 528.1,986.1 523.1,1005.7 543,1055.9 531.5,1005.7 			"/>
			<polygon class="st111" points="549.3,977.2 538,1034.3 531.5,1005.7 			"/>
			<polygon class="st112" points="541.8,1015.1 538,1034.3 543,1055.9 567.9,1069.3 549.3,1044.7 			"/>
			<polygon class="st113" points="543,1055.9 574.8,1090.2 603.7,1093.1 567.9,1069.3 			"/>
			<polygon class="st114" points="623.9,1096.7 667.6,1100.3 682.8,1090.2 701.6,1071.2 669.8,1087.3 			"/>
			<polygon class="st112" points="717.7,1048.8 669.8,1087.3 701.6,1071.2 			"/>
			<polygon class="st115" points="659.7,956.5 679.9,982.2 644.9,980.8 			"/>
			<polygon class="st116" points="634,1001.3 679.9,982.2 680.6,1013.3 			"/>
			<polygon class="st117" points="634,1001.3 680.6,1013.3 662.6,1034.6 			"/>
			<polygon class="st118" points="679.9,982.2 644.9,980.8 634,1001.3 			"/>
			<polygon class="st118" points="631.8,982.2 630,953.7 606.2,965.6 			"/>
			<polygon class="st119" points="634,1001.3 631.8,982.2 592.8,993.4 			"/>
			<polygon class="st117" points="592.8,993.4 606.2,965.6 631.8,982.2 			"/>
			<polygon class="st117" points="592.8,993.4 600.1,1025.2 634,1001.3 			"/>
			<polygon class="st120" points="634,1001.3 600.1,1025.2 629.3,1043.6 			"/>
			<polygon class="st121" points="634,1001.3 629.3,1043.6 662.6,1034.6 			"/>
			<polygon class="st122" points="634,1001.3 631.8,982.2 644.9,980.8 			"/>
			<polygon class="st105" points="631.8,982.2 659.7,956.5 644.9,980.8 			"/>
			<polygon class="st123" points="631.8,982.2 630,953.7 659.7,956.5 			"/>
			<polygon class="st124" points="630,953.7 629.3,902.5 667.6,900.2 			"/>
			<polygon class="st112" points="659.7,956.5 698,914.6 679.9,982.2 			"/>
			<polygon class="st125" points="667.6,900.2 698,914.6 659.7,956.5 			"/>
			<polygon class="st126" points="720,952.9 698,914.6 679.9,982.2 			"/>
			<polygon class="st127" points="720,952.9 728.3,980 679.9,982.2 			"/>
			<polygon class="st127" points="679.9,982.2 680.6,1013.3 726.1,1026.6 			"/>
			<polygon class="st103" points="728.3,980 679.9,982.2 726.1,1026.6 			"/>
			<polygon class="st104" points="662.6,1034.6 669.8,1087.3 717.7,1048.8 			"/>
			<polygon class="st126" points="680.6,1013.3 717.7,1048.8 662.6,1034.6 			"/>
			<polygon class="st128" points="726.1,1026.6 680.6,1013.3 717.7,1048.8 			"/>
			<polygon class="st129" points="606.2,965.6 592.8,919.7 630,953.7 			"/>
			<polygon class="st104" points="592.8,919.7 629.3,902.5 630,953.7 			"/>
			<polygon class="st104" points="562.8,955.5 592.8,993.4 549.3,977.2 			"/>
			<polygon class="st130" points="667.6,900.2 630,953.7 659.7,956.5 			"/>
			<polygon class="st131" points="606.2,965.6 592.8,919.7 562.8,955.5 			"/>
			<polygon class="st124" points="592.8,993.4 606.2,965.6 562.8,955.5 			"/>
			<polygon class="st104" points="592.8,993.4 600.1,1025.2 549.3,1044.7 			"/>
			<polygon class="st132" points="549.3,1044.7 541.8,1015.1 592.8,993.4 			"/>
			<polygon class="st133" points="549.3,977.2 541.8,1015.1 592.8,993.4 			"/>
			<polygon class="st134" points="600.1,1025.2 567.9,1069.3 629.3,1043.6 			"/>
			<polygon class="st135" points="549.3,1044.7 600.1,1025.2 567.9,1069.3 			"/>
			<polygon class="st134" points="629.3,1043.6 623.9,1096.7 603.7,1093.1 			"/>
			<polygon class="st136" points="567.9,1069.3 603.7,1093.1 629.3,1043.6 			"/>
			<polygon class="st136" points="662.6,1034.6 629.3,1043.6 669.8,1087.3 			"/>
			<polygon class="st137" points="623.9,1096.7 669.8,1087.3 629.3,1043.6 			"/>
		</g>
		<g class="st1">
			<polygon class="st64" points="682.8,1090.2 784.7,1055.5 750.7,1021.6 			"/>
			<polygon class="st65" points="750.7,1021.6 784.7,1055.5 796.2,967.4 			"/>
			<polygon class="st66" points="796.2,967.4 784.7,1055.5 823,994.1 			"/>
			<polygon class="st67" points="796.2,967.4 848.2,947.2 823,994.1 			"/>
			<polygon class="st68" points="829.5,890.1 796.2,967.4 848.2,947.2 			"/>
			<polygon class="st69" points="868.5,872.7 829.5,890.1 848.2,947.2 			"/>
			<polygon class="st70" points="847.5,835.9 829.5,890.1 868.5,872.7 			"/>
			<polygon class="st71" points="877.8,815.3 847.5,835.9 868.5,872.7 			"/>
			<polygon class="st72" points="877.8,815.3 855.5,812 847.5,835.9 			"/>
			<polygon class="st73" points="859.2,783.2 855.5,812 877.8,815.3 			"/>
			<polygon class="st74" points="859.2,783.2 877.8,815.3 881.8,786.8 			"/>
			<polygon class="st73" points="881.8,786.8 879.7,762.9 859.2,783.2 			"/>
			<polygon class="st66" points="879.7,762.9 860.7,758 859.2,783.2 			"/>
			<polygon class="st75" points="682.8,1090.2 784.7,1055.5 721.8,1116.1 			"/>
			<polygon class="st138" points="448,1062 426.7,1133.6 470,1110.8 			"/>
			<polygon class="st77" points="470,1110.8 448,1062 490.6,1042.5 			"/>
			<polygon class="st78" points="448,1062 476.9,983.3 490.6,1042.5 			"/>
			<polygon class="st75" points="540.5,970.3 490.6,1042.5 476.9,983.3 			"/>
			<polygon class="st71" points="476.9,983.3 540.5,970.3 536.1,895.1 			"/>
			<polygon class="st79" points="601.1,900.2 536.1,895.1 540.5,970.3 			"/>
			<polygon class="st80" points="536.1,895.1 604.8,849.6 601.1,900.2 			"/>
			<polygon class="st76" points="601.1,900.2 664,859 604.8,849.6 			"/>
			<polygon class="st81" points="604.8,849.6 681.3,817.1 664,859 			"/>
			<polygon class="st82" points="738.4,824 681.3,817.1 664,859 			"/>
			<polygon class="st76" points="819,773.8 859.2,783.2 860.7,758 			"/>
			<polygon class="st83" points="831.6,794.7 859.2,783.2 819,773.8 			"/>
			<polygon class="st82" points="791.2,809.2 831.6,794.7 819,773.8 			"/>
			<polygon class="st84" points="791.2,809.2 819,773.8 763,788.9 			"/>
			<polygon class="st81" points="738.4,824 791.2,809.2 763,788.9 			"/>
			<polygon class="st85" points="763,788.9 681.3,817.1 738.4,824 			"/>
		</g>
	</g>
</g>
<g>
	<defs>
		<rect id="SVGID_3_" width="1920" height="1080"/>
	</defs>
	<clipPath id="SVGID_4_">
		<use xlink:href="#SVGID_3_"  style="overflow:visible;"/>
	</clipPath>
	<g class="st139">
		<polygon class="st140" points="681.3,817.1 639.6,774.1 763,788.9 		"/>
		<polygon class="st140" points="660.7,674.8 716.3,736.2 639.6,774.1 		"/>
		<polygon class="st140" points="716.3,736.2 774.8,757.3 763,788.9 		"/>
		<line class="st140" x1="764.4" y1="673.3" x2="774.8" y2="757.3"/>
		<polyline class="st140" points="660.7,674.8 764.4,673.3 716.3,736.2 		"/>
		<polyline class="st140" points="763,788.9 819,773.8 774.8,757.3 		"/>
		<line class="st140" x1="774.8" y1="757.3" x2="811.4" y2="736.2"/>
		<polygon class="st140" points="811.4,736.2 860.7,758 819,773.8 		"/>
		<polygon class="st140" points="817.6,684.5 811.4,736.2 855.5,709.8 		"/>
		<polygon class="st140" points="860.7,758 894.8,730.9 879.7,762.9 		"/>
		<line class="st140" x1="860.7" y1="758" x2="855.5" y2="709.8"/>
		<polygon class="st140" points="487,715.2 555.5,806.5 604,683.4 		"/>
		<polyline class="st140" points="681.3,817.1 604.8,849.6 639.6,774.1 		"/>
		<polyline class="st140" points="639.6,774.1 613.4,773.8 604.8,849.6 		"/>
		<line class="st140" x1="604" y1="683.4" x2="613.4" y2="773.8"/>
		<polyline class="st140" points="613.4,773.8 555.5,806.5 604.8,849.6 		"/>
		<line class="st140" x1="555.5" y1="806.5" x2="528.9" y2="860.5"/>
		<polygon class="st140" points="487,715.2 470,641.5 418.7,704.8 		"/>
		<polygon class="st140" points="604,683.4 562.8,635 631.8,642.6 		"/>
		<line class="st140" x1="562.8" y1="635" x2="487" y2="715.2"/>
		<line class="st140" x1="470" y1="641.5" x2="562.8" y2="635"/>
		<polygon class="st140" points="631.8,642.6 704.1,597.1 660.7,674.8 		"/>
		<line class="st140" x1="764.4" y1="673.3" x2="704.1" y2="597.1"/>
		<line class="st140" x1="764.4" y1="673.3" x2="803.8" y2="642.6"/>
		<polygon class="st140" points="704.1,597.1 588.1,577.6 631.8,642.6 		"/>
		<polygon class="st140" points="562.8,635 588.1,577.6 508.7,577.6 		"/>
		<polygon class="st140" points="508.7,577.6 388.7,621.3 470,641.5 		"/>
		<polygon class="st140" points="528.9,860.5 445.3,914.6 536.1,895.1 		"/>
		<line class="st140" x1="536.1" y1="895.1" x2="476.9" y2="983.3"/>
		<polygon class="st140" points="436.6,966 476.9,983.3 445.3,914.6 		"/>
		<polygon class="st140" points="448,1062 395.6,1100.3 426.7,1133.6 		"/>
		<polygon class="st140" points="325.1,1086.6 387.3,1034.6 395.6,1100.3 		"/>
		<polygon class="st140" points="387.3,1034.6 436.6,966 448,1062 		"/>
		<polyline class="st140" points="436.6,966 333.8,963.8 387.3,1034.6 		"/>
		<polygon class="st140" points="325.1,1086.6 259.4,1055.9 294.1,1112.6 		"/>
		<polyline class="st140" points="325.1,1086.6 333.8,963.8 259.4,1055.9 		"/>
		<polygon class="st140" points="306.4,914.6 333.8,963.8 259.4,955.5 		"/>
		<line class="st140" x1="528.9" y1="860.5" x2="413.3" y2="778.1"/>
		<polygon class="st140" points="354.5,895.2 413.3,778.1 445.3,914.6 		"/>
		<polygon class="st140" points="354.5,895.2 285.4,842.9 306.4,914.6 		"/>
		<polygon class="st140" points="413.3,778.1 330.4,716.1 418.7,704.8 		"/>
		<polyline class="st140" points="330.4,716.1 388.7,621.3 418.7,704.8 		"/>
		<line class="st140" x1="285.4" y1="842.9" x2="413.3" y2="778.1"/>
		<polygon class="st140" points="285.4,842.9 259.4,955.5 306.4,914.6 		"/>
		<polygon class="st140" points="330.4,716.1 244.6,736.2 285.4,842.9 		"/>
		<polyline class="st140" points="388.7,621.3 274.9,577.6 330.4,716.1 		"/>
		<polyline class="st140" points="285.4,842.9 174.1,860.5 259.4,955.5 		"/>
		<line class="st140" x1="244.6" y1="736.2" x2="174.1" y2="860.5"/>
		<polyline class="st140" points="259.4,1055.9 213.8,1116.1 294.1,1112.6 		"/>
		<polygon class="st140" points="803.8,642.6 878,659.2 817.6,684.5 		"/>
		<polygon class="st140" points="894.8,730.9 855.5,709.8 878,659.2 		"/>
		<polyline class="st140" points="803.8,642.6 881.8,571.6 878,659.2 		"/>
		<polygon class="st140" points="704.1,597.1 778.9,523 803.8,642.6 		"/>
		<polygon class="st140" points="588.1,577.6 648.8,519.6 704.1,597.1 		"/>
		<line class="st140" x1="878" y1="659.2" x2="938.7" y2="663"/>
		<polygon class="st140" points="879.7,762.9 904.6,770.6 881.8,786.8 		"/>
		<polygon class="st140" points="881.8,786.8 877.8,815.3 926.2,806.5 		"/>
		<line class="st140" x1="904.6" y1="770.6" x2="926.2" y2="806.5"/>
		<line class="st140" x1="894.8" y1="730.9" x2="904.6" y2="770.6"/>
		<polyline class="st140" points="894.8,730.9 942.3,738 904.6,770.6 		"/>
		<line class="st140" x1="904.6" y1="770.6" x2="979.8" y2="774.8"/>
		<polygon class="st140" points="877.8,815.3 904.6,840.9 868.5,872.7 		"/>
		<line class="st140" x1="904.6" y1="840.9" x2="901.3" y2="863"/>
		<polygon class="st140" points="901.3,863 912.5,905.7 868.5,872.7 		"/>
		<polyline class="st140" points="912.5,905.7 963.8,871.3 901.3,863 		"/>
		<line class="st140" x1="848.2" y1="947.2" x2="868.5" y2="872.7"/>
		<polygon class="st140" points="823,994.1 848.2,947.2 870.5,996.1 		"/>
		<line class="st140" x1="890.5" y1="956.5" x2="870.5" y2="996.1"/>
		<polygon class="st140" points="912.5,905.7 890.5,956.5 848.2,947.2 		"/>
		<polygon class="st140" points="912.5,905.7 962,988.5 890.5,956.5 		"/>
		<polygon class="st140" points="963.8,871.3 1023.5,895.2 962,988.5 		"/>
		<line class="st140" x1="988.4" y1="850.3" x2="963.8" y2="871.3"/>
		<polygon class="st140" points="962,988.5 1023.5,895.2 995.6,1030.1 		"/>
		<polygon class="st140" points="926.2,806.5 965.3,829.4 904.6,840.9 		"/>
		<polygon class="st140" points="979.8,774.8 965.3,829.4 926.2,806.5 		"/>
		<polyline class="st140" points="894.8,730.9 938.7,663 942.3,738 		"/>
		<line class="st140" x1="1010.1" y1="684.5" x2="938.7" y2="663"/>
		<polygon class="st140" points="881.8,571.6 992,571.6 938.7,663 		"/>
		<polygon class="st140" points="942.3,738 1010.1,684.5 979.8,774.8 		"/>
		<polyline class="st140" points="979.8,774.8 988.4,850.3 965.3,829.4 		"/>
		<polygon class="st140" points="979.8,774.8 1067.2,750.8 1010.1,684.5 		"/>
		<polygon class="st140" points="1023.5,895.2 1067.2,750.8 988.4,850.3 		"/>
		<polygon class="st140" points="1010.1,684.5 1143,606.3 992,571.6 		"/>
		<line class="st140" x1="1143" y1="606.3" x2="1067.2" y2="750.8"/>
		<polyline class="st140" points="995.6,1030.1 1118,976.3 1023.5,895.2 		"/>
		<line class="st140" x1="1170.1" y1="838.1" x2="1023.5" y2="895.2"/>
		<polygon class="st140" points="648.8,519.6 677.7,327.8 778.9,523 		"/>
		<polygon class="st140" points="953,360.5 778.9,523 881.8,571.6 		"/>
		<line class="st140" x1="543" y1="455.1" x2="508.7" y2="577.6"/>
		<line class="st140" x1="360.4" y1="442.2" x2="508.7" y2="577.6"/>
		<line class="st140" x1="388.7" y1="621.3" x2="360.4" y2="442.2"/>
		<polyline class="st140" points="648.8,519.6 543,455.1 588.1,577.6 		"/>
		<line class="st140" x1="677.7" y1="327.8" x2="543" y2="455.1"/>
		<line class="st140" x1="543" y1="455.1" x2="360.4" y2="442.2"/>
		<line class="st140" x1="677.7" y1="327.8" x2="360.4" y2="442.2"/>
		<line class="st140" x1="992" y1="571.6" x2="953" y2="360.5"/>
		<polygon class="st140" points="953,360.5 1174.6,360.3 1143,606.3 		"/>
		<polygon class="st140" points="677.7,327.8 910.6,150.3 953,360.5 		"/>
		<line class="st140" x1="360.4" y1="442.2" x2="417.6" y2="223.3"/>
		<polyline class="st140" points="910.6,150.3 417.6,223.3 677.7,327.8 		"/>
		<polygon class="st140" points="226.2,263.1 360.4,442.2 274.9,577.6 		"/>
		<polygon class="st140" points="274.9,577.6 56.7,597.1 244.6,736.2 		"/>
		<polygon class="st140" points="1558.6,162.9 1591.9,181.8 1511.5,192.3 		"/>
		<polygon class="st140" points="1629,229.6 1591.9,181.8 1608.6,177.9 		"/>
		<polygon class="st140" points="1594.5,243.6 1549.5,216.1 1591.9,181.8 		"/>
		<polygon class="st140" points="1549.5,216.1 1509.1,212.7 1511.5,192.3 		"/>
		<line class="st140" x1="1529.1" y1="260.6" x2="1509.1" y2="212.7"/>
		<polyline class="st140" points="1594.5,243.6 1529.1,260.6 1549.5,216.1 		"/>
		<polygon class="st140" points="1511.5,192.3 1478.5,209.9 1509.1,212.7 		"/>
		<line class="st140" x1="1509.1" y1="212.7" x2="1489.3" y2="230.9"/>
		<polygon class="st140" points="1489.3,230.9 1454.6,225.7 1478.5,209.9 		"/>
		<line class="st140" x1="1454.7" y1="225.7" x2="1465.7" y2="253.3"/>
		<polygon class="st140" points="1493.7,262.3 1489.3,230.9 1465.7,253.3 		"/>
		<polygon class="st140" points="1454.6,225.7 1437.4,247 1441.9,225.8 		"/>
		<polygon class="st140" points="1697.9,192.7 1640,149.6 1629,229.6 		"/>
		<line class="st140" x1="1558.7" y1="162.9" x2="1601.9" y2="131.9"/>
		<polygon class="st140" points="1608.6,177.9 1601.9,131.9 1591.9,181.8 		"/>
		<line class="st140" x1="1608.6" y1="177.9" x2="1640" y2="149.6"/>
		<polygon class="st140" points="1697.9,192.7 1640,149.6 1648.1,113.7 		"/>
		<polygon class="st140" points="1640,149.6 1648.1,113.7 1601.9,131.9 		"/>
		<polyline class="st140" points="1601.9,131.9 1638,94.3 1648.1,113.7 		"/>
		<polygon class="st140" points="1697.9,192.7 1720.5,233.5 1742.8,188.2 		"/>
		<polygon class="st140" points="1629,229.6 1662.8,251.8 1617.9,258 		"/>
		<line class="st140" x1="1662.8" y1="251.8" x2="1697.9" y2="192.7"/>
		<polygon class="st140" points="1617.9,258 1579.5,296.1 1594.5,243.6 		"/>
		<polygon class="st140" points="1529.1,260.6 1509.2,284.8 1579.5,296.1 		"/>
		<polygon class="st140" points="1579.5,296.1 1656,289.5 1617.9,258 		"/>
		<polygon class="st140" points="1662.8,251.8 1656,289.5 1706.3,277.2 		"/>
		<polyline class="st140" points="1662.8,251.8 1720.5,233.5 1706.3,277.2 		"/>
		<polyline class="st140" points="1742.8,188.2 1787.3,260.6 1720.5,233.5 		"/>
		<line class="st140" x1="1648.1" y1="113.7" x2="1692.4" y2="68.7"/>
		<polygon class="st140" points="1661.3,33.2 1692.4,68.7 1638,94.3 		"/>
		<polygon class="st140" points="1667,-17.7 1689.6,37.1 1661.3,33.2 		"/>
		<polygon class="st140" points="1752.9,66 1692.4,68.7 1689.6,37.1 		"/>
		<polygon class="st140" points="1755,22.4 1709.8,-11 1689.6,37.1 		"/>
		<line class="st140" x1="1755" y1="22.4" x2="1740.8" y2="-51.3"/>
		<polygon class="st140" points="1780.2,47.1 1755,22.4 1811.7,7.7 		"/>
		<polyline class="st140" points="1811.7,7.7 1783.4,-24.5 1755,22.4 		"/>
		<polyline class="st140" points="1648.1,113.7 1734.5,144.2 1692.4,68.7 		"/>
		<polygon class="st140" points="1752.9,66 1805,86.1 1780.2,47.1 		"/>
		<polygon class="st140" points="1752.9,66 1734.5,144.2 1805,86.1 		"/>
		<polyline class="st140" points="1805,86.1 1808.5,45.6 1811.7,7.7 		"/>
		<line class="st140" x1="1805" y1="86.1" x2="1853.6" y2="51.5"/>
		<polygon class="st140" points="1509.2,284.8 1459.5,286.6 1493.7,262.3 		"/>
		<polygon class="st140" points="1437.4,247 1465.7,253.3 1459.5,286.6 		"/>
		<line class="st140" x1="1509.2" y1="284.8" x2="1471.2" y2="338.8"/>
		<polyline class="st140" points="1579.5,296.1 1544.1,351.4 1509.2,284.8 		"/>
		<line class="st140" x1="1471.2" y1="338.8" x2="1544.1" y2="351.4"/>
		<polyline class="st140" points="1656,289.5 1617.8,351.4 1579.5,296.1 		"/>
		<line class="st140" x1="1544.1" y1="351.4" x2="1617.8" y2="351.4"/>
		<line class="st140" x1="1420.5" y1="293.8" x2="1437.4" y2="247"/>
		<polygon class="st140" points="1471.2,338.8 1420.5,293.8 1459.5,286.6 		"/>
		<line class="st140" x1="1436.7" y1="212.1" x2="1441.9" y2="225.8"/>
		<polygon class="st140" points="1436.7,212.1 1434.7,194.6 1405.4,207.4 		"/>
		<line class="st140" x1="1436.7" y1="212.1" x2="1424.9" y2="225.1"/>
		<polygon class="st140" points="1437.4,247 1424.9,225.1 1441.9,225.8 		"/>
		<polyline class="st140" points="1437.4,247 1406.3,250.2 1424.9,225.1 		"/>
		<polygon class="st140" points="1405.4,207.4 1424.9,225.1 1376.6,234.3 		"/>
		<polygon class="st140" points="1434.7,194.6 1413.6,183.7 1431.3,159.3 		"/>
		<line class="st140" x1="1413.6" y1="183.7" x2="1412.1" y2="170.2"/>
		<polygon class="st140" points="1412.1,170.2 1398.2,146.7 1431.3,159.3 		"/>
		<line class="st140" x1="1371.2" y1="175" x2="1412.1" y2="170.2"/>
		<polygon class="st140" points="1398.2,146.7 1432.2,112.3 1431.3,159.3 		"/>
		<polygon class="st140" points="1440.7,80.7 1432.2,112.3 1410.3,86.9 		"/>
		<polyline class="st140" points="1432.2,112.3 1404,113.4 1410.3,86.9 		"/>
		<polygon class="st140" points="1398.2,146.7 1353.6,105.7 1404,113.4 		"/>
		<polyline class="st140" points="1398.2,146.7 1371.2,175 1353.6,105.7 		"/>
		<polygon class="st140" points="1405.4,207.4 1377,199.9 1413.6,183.7 		"/>
		<line class="st140" x1="1376.6" y1="234.3" x2="1377" y2="199.9"/>
		<line class="st140" x1="1359.1" y1="191.2" x2="1377" y2="199.9"/>
		<polygon class="st140" points="417.6,223.3 226.2,263.1 260.1,-45.5 		"/>
		<line class="st140" x1="910.6" y1="150.3" x2="707.8" y2="-216.1"/>
		<polygon class="st140" points="1406.3,250.2 1375.3,294.7 1420.5,293.8 		"/>
		<line class="st140" x1="1406.3" y1="250.2" x2="1376.6" y2="234.3"/>
		<polygon class="st140" points="1359.1,191.2 1329.1,237.8 1376.6,234.3 		"/>
		<polygon class="st140" points="1375.3,294.7 1329.1,237.8 1376.6,234.3 		"/>
		<polyline class="st140" points="1375.3,294.7 1381.9,379.3 1420.5,293.8 		"/>
		<line class="st140" x1="1295.1" y1="336.9" x2="1375.3" y2="294.7"/>
		<polygon class="st140" points="1329.1,237.8 1238.4,231.8 1295.1,336.9 		"/>
		<polygon class="st140" points="1381.3,379.3 1362,537.2 1295.1,336.9 		"/>
		<line class="st140" x1="1268.7" y1="468.2" x2="1295.1" y2="336.9"/>
		<line class="st140" x1="1174.6" y1="360.3" x2="1268.7" y2="468.2"/>
		<polyline class="st140" points="1238.4,231.8 1174.6,360.3 1295.1,336.9 		"/>
		<polygon class="st140" points="1381.9,378.5 1454.6,420.2 1471.9,339.6 		"/>
		<polygon class="st140" points="1455.3,419.8 1509.5,617.1 1362,537.2 		"/>
		<polygon class="st140" points="1455.3,419.8 1544.1,351.4 1586.4,442.9 		"/>
		<polygon class="st140" points="1509.5,617.1 1637.8,656.9 1586.4,442.9 		"/>
		<line class="st140" x1="1617.8" y1="351.4" x2="1697.9" y2="351.4"/>
		<polygon class="st140" points="1586.4,442.9 1617.8,351.4 1701.1,450.1 		"/>
		<line class="st140" x1="1697.9" y1="351.4" x2="1701.1" y2="450.1"/>
		<polygon class="st140" points="1238.4,231.8 1260.1,91.2 1078.1,126.2 		"/>
		<polygon class="st140" points="910.6,150.3 1078.1,126.2 1174.6,360.3 		"/>
		<polygon class="st140" points="1362,537.2 1143,606.3 1268.7,468.2 		"/>
		<line class="st140" x1="1142.7" y1="607.3" x2="1276.7" y2="655.9"/>
		<polygon class="st140" points="1276.3,656.9 1170.1,838.1 1067.2,750.8 		"/>
		<line class="st140" x1="1509.5" y1="617.1" x2="1459.5" y2="794.7"/>
		<polygon class="st140" points="1276.3,656.9 1363.2,537.2 1459.5,794.7 		"/>
		<polyline class="st140" points="1706.3,277.2 1697.9,351.4 1656,289.5 		"/>
		<polygon class="st140" points="1787.3,260.6 1706.3,277.2 1847.7,391.4 		"/>
		<line class="st140" x1="1697.9" y1="351.4" x2="1847.7" y2="391.4"/>
		<line class="st140" x1="1701.1" y1="450.1" x2="1847.7" y2="391.4"/>
		<polygon class="st140" points="1637.8,656.9 1888.6,663.5 1701.1,450.1 		"/>
		<line class="st140" x1="1825" y1="802.1" x2="1888.6" y2="663.5"/>
		<polygon class="st140" points="1078.1,126.2 1110.6,-21.1 1260.1,91.2 		"/>
		<polygon class="st140" points="1295.1,17 1110.6,-21.1 1260.1,91.2 		"/>
		<line class="st140" x1="1295.1" y1="17" x2="1224.8" y2="-192.2"/>
		<polygon class="st140" points="1440.7,80.7 1420.5,46.5 1455,38.6 		"/>
		<line class="st140" x1="1353.6" y1="105.7" x2="1315.8" y2="151.7"/>
		<polyline class="st140" points="1353.6,105.7 1325.7,86.4 1315.8,151.7 		"/>
		<polygon class="st140" points="1352.3,66.1 1420.5,46.5 1410.3,86.9 		"/>
		<polygon class="st140" points="1366.4,-21.8 1352.3,66.1 1420.5,46.5 		"/>
		<polyline class="st140" points="1366.4,-21.8 1455.3,7.2 1420.5,46.5 		"/>
		<polygon class="st140" points="1493.1,-13.5 1455.3,7.2 1455,38.6 		"/>
		<polygon class="st140" points="1353.6,-57.5 1295.1,17 1366.4,-21.8 		"/>
		<polygon class="st140" points="1352.3,66.1 1295.1,17 1325.7,86.4 		"/>
		<polygon class="st140" points="1325.7,86.4 1260.1,91.2 1295.1,17 		"/>
		<polyline class="st140" points="1238.4,231.8 1315.8,151.7 1260.1,91.2 		"/>
		<polygon class="st140" points="1371.2,175 1359.1,191.2 1315.8,151.7 		"/>
		<line class="st140" x1="1329.1" y1="237.8" x2="1315.8" y2="151.7"/>
		<polygon class="st140" points="1455.3,7.2 1476.6,-51.3 1493.1,-13.5 		"/>
		<polygon class="st140" points="1391.2,-56.1 1476.6,-51.3 1455.3,7.2 		"/>
		<polygon class="st140" points="1847.7,391.4 1947.2,320.5 1888.6,663.5 		"/>
		<polygon class="st140" points="1742.8,188.2 1780.2,158.4 1734.5,144.2 		"/>
		<polygon class="st140" points="1780.2,158.4 1867.2,166.2 1805,86.1 		"/>
		<polyline class="st140" points="1780.2,158.4 1787.3,260.6 1867.2,166.2 		"/>
		<line class="st140" x1="1787.3" y1="264" x2="1947.2" y2="320.5"/>
		<polygon class="st140" points="784.7,1055.5 848.2,1048.8 823,994.1 		"/>
		<polygon class="st140" points="948,1051.9 870.5,996.1 848.2,1048.8 		"/>
		<polygon class="st140" points="848.2,1048.8 891.6,1186.3 784.7,1116.9 		"/>
		<polyline class="st140" points="1011.5,1157.7 995.6,1030.1 948,1051.9 		"/>
		<polygon class="st140" points="948,1051.9 891.6,1186.3 1011.5,1157.7 		"/>
		<polygon class="st140" points="721.8,1116.1 784.7,1116.9 784.7,1055.5 		"/>
		<line class="st140" x1="1118" y1="976.3" x2="1011.5" y2="1157.7"/>
		<polygon class="st140" points="1118,976.3 1252.5,933.4 1170.1,838.1 		"/>
		<polyline class="st140" points="1252.5,933.4 1459.5,794.7 1170.1,838.1 		"/>
		<polygon class="st140" points="1459.5,794.7 1825,802.1 1637.8,656.9 		"/>
		<polyline class="st140" points="1252.5,933.4 1190.6,1142 1118,976.3 		"/>
		<line class="st140" x1="1562.9" y1="1018" x2="1459.5" y2="794.7"/>
		<polygon class="st140" points="1252.5,933.4 1190.6,1142 1562.9,1018 		"/>
		<polygon class="st140" points="1947.2,320.5 1888.6,663.5 2088,774.8 		"/>
		<line class="st140" x1="1562.9" y1="1018" x2="1413.1" y2="1399.4"/>
		<polygon class="st140" points="1562.9,1018 1861.9,1246.3 1825,802.1 		"/>
		<polygon class="st140" points="259.4,1055.9 144.7,993.4 259.4,955.5 		"/>
		<line class="st140" x1="174.1" y1="860.5" x2="144.7" y2="993.4"/>
		<polygon class="st140" points="144.7,993.4 48.3,1181.3 213.8,1116.1 		"/>
		<polyline class="st140" points="174.1,860.5 -42.7,842.9 144.7,993.4 		"/>
		<polygon class="st140" points="1861.9,1246.3 1825,802.1 2088,774.8 		"/>
		<polygon class="st140" points="1979.6,1716.2 2274.4,1224.3 2088,776.3 1861.9,1247.8 		"/>
		<line class="st140" x1="910.6" y1="150.3" x2="1110.6" y2="-21.1"/>
		<polygon class="st140" points="226.2,263.1 -146.8,96.5 260.1,-45.5 		"/>
		<polyline class="st140" points="-146.8,96.5 -55.7,-624 476.9,-652 260.1,-45.5 		"/>
		<line class="st140" x1="1811.7" y1="7.7" x2="1822.6" y2="-86.2"/>
		<line class="st140" x1="1811.7" y1="7.7" x2="1988.3" y2="-59.1"/>
		<line class="st140" x1="1811.7" y1="7.7" x2="1853.6" y2="51.5"/>
		<polygon class="st140" points="1853.6,51.5 1963.5,94.6 1867.2,166.2 		"/>
		<polyline class="st140" points="1963.5,94.6 1988.3,-59.1 1853.6,51.5 		"/>
		<polyline class="st140" points="1867.2,166.2 1947.2,320.5 1963.5,94.6 		"/>
		<polyline class="st140" points="528.9,860.5 604.8,849.6 536.1,895.1 		"/>
		<line class="st140" x1="476.9" y1="983.3" x2="448" y2="1062"/>
		<polyline class="st140" points="226.2,263.1 56.7,597.1 -146.8,96.5 		"/>
		<line class="st140" x1="244.6" y1="736.2" x2="-42.7" y2="842.9"/>
		<line class="st140" x1="-42.7" y1="842.9" x2="56.7" y2="597.1"/>
	</g>
</g>
</svg>
