<svg xmlns="http://www.w3.org/2000/svg" viewBox="0 0 472 91"><defs><style>.a{fill:#351413;opacity:0.6;}</style></defs><title>Artboard 1</title><path class="a" d="M270.24,52.18h-3.12V59h3.12c2.36,0,3.8-1.2,3.8-3.39S272.64,52.18,270.24,52.18Z"/><path class="a" d="M311.81,52.9a64.44,64.44,0,0,1-1.71,6.71l-.75,2.57h4.93l-.72-2.57C312.91,57.25,312.09,54.44,311.81,52.9Z"/><path class="a" d="M243.12,52c-4.18,0-7.26,3.22-7.26,7.71s3.08,7.73,7.26,7.73,7.22-3.21,7.22-7.73S247.26,52,243.12,52Z"/><path class="a" d="M226.32,28.16a64.44,64.44,0,0,1-1.71,6.71l-.75,2.57h4.93l-.72-2.57C227.42,32.51,226.59,29.7,226.32,28.16Z"/><path class="a" d="M0,0V91H472V0ZM332.22,47.73l-.14,15.58h-4.41l-.17-15.58ZM244.07,39l2.47,2.64-5.34,5L238.77,44Zm-43.6-16L204,35.08c.65,2.32,1.4,4.82,1.71,6.71a64.17,64.17,0,0,1,1.75-6.71L211,23h5.2l-7.74,24H203l-7.74-24ZM151.83,48.55H147L153.32,31h5.08l6.32,17.59h-4.83l-1.08-3h-5.94ZM170.48,71.7h-4.93V60.54h-7.26V71.7h-4.93v-24h4.93V56h7.26V47.73h4.93ZM165.06,47l-7.74-24h5.2l3.56,12.09c.65,2.32,1.41,4.82,1.72,6.71a63.93,63.93,0,0,1,1.74-6.71L173,23h5.21L170.5,47Zm23.81,4.85h-3V67.66h3v4H178v-4h3V51.81h-3V47.73h10.85Zm3.31-24.75h-3V42.92h3v4H181.32v-4h3V27.06h-3V23h10.86Zm10.29,45c-3.39,0-6.51-1.41-8.12-4.59l3.94-2.81a4.69,4.69,0,0,0,4.21,2.88A2.5,2.5,0,0,0,205.17,65c0-3.56-9.24-4.93-9.24-11.4a6.29,6.29,0,0,1,6.47-6.16,6.8,6.8,0,0,1,6,3.18l-3.29,2.91a3.18,3.18,0,0,0-2.47-1.64,1.69,1.69,0,0,0-1.74,1.75c0,3,9.21,4.55,9.21,11.3C210.07,69,206.92,72,202.47,72Zm24.76-19.76h-4.59V71.7h-4.93V52.25h-4.59V47.73h14.11Zm-4.5-11L221.05,47h-5.21l7.74-24H229l7.73,24h-5.2l-1.64-5.69ZM243.12,72a12.31,12.31,0,1,1,12.29-12.32A12.31,12.31,0,0,1,243.12,72Zm31.06-.34-3.36-8.25h-3.7V71.7h-4.86v-24H271c4.73,0,7.74,3.05,7.74,7.88a7.42,7.42,0,0,1-3.32,6.67l4.11,9.42Zm22-19.89h-3V67.66h3v4H285.34v-4h3V51.81h-3V47.73H296.2ZM317.05,71.7,315.41,66h-7.19l-1.68,5.68h-5.21l7.74-24h5.45l7.74,24Zm12.88.31a3.15,3.15,0,1,1,3.15-3.15A3.19,3.19,0,0,1,329.93,72Z"/><path class="a" d="M154.11,42h3.46a39.41,39.41,0,0,1-1.71-6.19A41,41,0,0,1,154.11,42Z"/></svg>