<svg xmlns="http://www.w3.org/2000/svg" viewBox="0 0 472 202"><defs><style>.a{fill:#ffde00;}</style></defs><title>Artboard 1</title><path class="a" d="M295.51,140.43h-6.77v14.81h6.77c5.14,0,8.26-2.6,8.26-7.36S300.72,140.43,295.51,140.43Z"/><path class="a" d="M200.07,88.22a135.25,135.25,0,0,1-3.72,14.59l-1.64,5.58h10.72l-1.56-5.58C202.45,97.68,200.67,91.57,200.07,88.22Z"/><path class="a" d="M236.57,140.06c-9.08,0-15.78,7-15.78,16.75s6.7,16.81,15.78,16.81,15.7-7,15.7-16.81S245.58,140.06,236.57,140.06Z"/><path class="a" d="M43.15,118.2h7.52a86.57,86.57,0,0,1-3.73-13.46A88.35,88.35,0,0,1,43.15,118.2Z"/><path class="a" d="M385.86,142a135.71,135.71,0,0,1-3.72,14.58l-1.64,5.58h10.72l-1.56-5.58C388.24,151.45,386.46,145.34,385.86,142Z"/><path class="a" d="M0,0V202H472V0ZM430.22,130.76l-.3,33.86h-9.6L420,130.76Zm-191.57-18.9,5.36,5.73L232.4,128.38l-5.28-5.73ZM143.88,77l7.74,26.27c1.42,5.06,3,10.49,3.72,14.58a142,142,0,0,1,3.8-14.58L166.73,77H178l-16.82,52.09H149.39L132.57,77ZM38.18,132.55H27.69L41.42,94.32h11l13.73,38.23H55.7l-2.34-6.63H40.45Zm40.54,50.3H68V158.59H52.23v24.26H41.51V130.76H52.23v18H68v-18H78.72ZM66.93,129.08,50.11,77H61.42l7.74,26.27c1.42,5.06,3,10.49,3.72,14.58a142,142,0,0,1,3.8-14.58L84.27,77H95.58L78.76,129.08Zm51.76,10.53h-6.48v34.46h6.48v8.78H95.09v-8.78h6.48V139.61H95.09v-8.85h23.6Zm7.18-53.77H119.4V120.3h6.47v8.78H102.28V120.3h6.47V85.84h-6.47V77h23.59Zm22.36,97.68c-7.37,0-14.14-3.05-17.64-10l8.56-6.1c2.09,4.09,5.36,6.25,9.16,6.25a5.44,5.44,0,0,0,5.8-5.51c0-7.74-20.09-10.72-20.09-24.78,0-7.89,6.7-13.39,14.06-13.39A14.72,14.72,0,0,1,161,136.94l-7.14,6.32c-1.34-2-3.2-3.57-5.36-3.57a3.67,3.67,0,0,0-3.8,3.79c0,6.55,20,9.9,20,24.56C164.75,177,157.91,183.52,148.23,183.52ZM202,140.58h-10v42.27H181.35V140.58h-10v-9.82H202Zm-9.78-23.85-3.65,12.35H177.3L194.12,77H206l16.82,52.09H211.46l-3.58-12.35Zm44.31,66.87a26.76,26.76,0,1,1,26.72-26.79A26.78,26.78,0,0,1,236.57,183.6Zm67.5-.75-7.29-17.93h-8v17.93H278.17V130.76h19c10.27,0,16.82,6.62,16.82,17.12,0,6.69-2.68,11.68-7.22,14.51l8.93,20.46Zm47.85-43.24h-6.47v34.46h6.47v8.78H328.33v-8.78h6.48V139.61h-6.48v-8.85h23.59Zm45.33,43.24-3.57-12.35H378.05l-3.65,12.35H363.09l16.82-52.09h11.83l16.82,52.09Zm28,.67a6.85,6.85,0,1,1,6.85-6.85A6.92,6.92,0,0,1,425.23,183.52Z"/></svg>