<svg xmlns="http://www.w3.org/2000/svg" viewBox="0 0 170 57"><defs><style>.a,.b{fill:#fff;}.a{fill-rule:evenodd;}</style></defs><title>Artboard 1</title><path class="a" d="M25,.3c.67.15,1.35.24,2,.45,4.57,1.47,7.34,4.78,8.15,9.86,1,6.15-2.86,11.93-8.51,13C20.81,24.8,15,20.43,13.89,14.1S16.2,2,22,.59c.5-.13,1-.2,1.51-.29Zm-.24,20.16c4.2,0,7.45-3.54,7.44-8.1,0-4.75-3.65-8.71-8-8.7-4.17,0-7.43,3.56-7.42,8.13C16.77,16.58,20.35,20.46,24.76,20.46Z"/><path class="a" d="M.22,29.38c.12-.52.23-1,.37-1.55a8.16,8.16,0,0,1,8-6.18,8.94,8.94,0,0,1,8.4,8c.75,4.95-2.46,9.64-7,10.27S1,37,.32,32a1,1,0,0,0-.1-.24ZM8.8,37.24a5.93,5.93,0,0,0,5.8-6.16c0-3.63-2.73-6.71-6.09-6.75a5.87,5.87,0,0,0-5.83,6C2.65,34.18,5.33,37.21,8.8,37.24Z"/><path class="a" d="M30.56,56.78c-.28-.08-.56-.14-.84-.23a3.78,3.78,0,0,1-2.4-3.95,3.39,3.39,0,0,1,3.37-3.2A3.62,3.62,0,0,1,34,52.87a3.51,3.51,0,0,1-2.84,3.81.67.67,0,0,0-.23.1Zm.18-2.09a1.48,1.48,0,0,0,1.46-1.52,1.72,1.72,0,0,0-1.59-1.76A1.5,1.5,0,0,0,29.16,53,1.65,1.65,0,0,0,30.74,54.69Z"/><path class="a" d="M17.1,54.9A6.73,6.73,0,0,1,10.73,48a6.36,6.36,0,0,1,6.18-6.61c3.43,0,6.32,3.22,6.31,7A6.3,6.3,0,0,1,17.1,54.9ZM13,48a4.41,4.41,0,0,0,4.17,4.56A4,4,0,0,0,21,48.32a4.36,4.36,0,0,0-4.18-4.53A4,4,0,0,0,13,48Z"/><path class="b" d="M29.86,41.34a3.13,3.13,0,0,1-.8,2.19,3.14,3.14,0,0,1-4.4,0,3,3,0,0,1-.85-2.19V39.47H26v3.2c0,.81.29,1.21.88,1.21s.84-.4.84-1.21V40.35a3.18,3.18,0,0,0-.76-2.27l-2.28-2.45a3.81,3.81,0,0,1-.85-2.69V31.5a3.06,3.06,0,0,1,.83-2.2,3.09,3.09,0,0,1,4.34,0,3.1,3.1,0,0,1,.83,2.2v1.87H27.65v-3.2c0-.81-.28-1.21-.84-1.21s-.83.4-.83,1.21v2.08a3.18,3.18,0,0,0,.75,2.26L29,37a3.85,3.85,0,0,1,.85,2.7Z"/><path class="b" d="M37.79,44.28H34.92v-.43a2.18,2.18,0,0,1-1.56.58c-1.54,0-2.31-.93-2.31-2.78V38.17q0-2.93,3.21-2.93h.66V30.17c0-.81-.27-1.21-.81-1.21s-.8.4-.8,1.21v3.2H31.14V31.5a3.14,3.14,0,0,1,.8-2.25,3.22,3.22,0,0,1,4.34,0,3.14,3.14,0,0,1,.8,2.25V43.73h.71Zm-2.87-1V35.79h-.64q-1.05,0-1.05,1.2v5.68c0,.77.24,1.15.74,1.15A1.3,1.3,0,0,0,34.92,43.3Z"/><path class="b" d="M45.59,44.28H42.73v-.43a2.29,2.29,0,0,1-1.61.58c-1.58,0-2.37-.93-2.37-2.78V29.1h-.69v-.54h2.86V42.67c0,.77.27,1.15.82,1.15a1.35,1.35,0,0,0,1-.52V29.1H42v-.54H44.9V43.73h.69Z"/><path class="b" d="M53.38,44.28H50.52v-.43a2.29,2.29,0,0,1-1.62.58c-1.57,0-2.36-.93-2.36-2.78V31.19c0-1.85.79-2.78,2.36-2.78a2.25,2.25,0,0,1,1.62.58V23.66h-.7v-.55h2.87V43.73h.69Zm-2.86-1V29.53a1.4,1.4,0,0,0-1-.51c-.53,0-.8.38-.8,1.15v12.5c0,.77.27,1.15.8,1.15A1.38,1.38,0,0,0,50.52,43.3Z"/><path class="b" d="M60.94,44.28H58.08v-.43a2.21,2.21,0,0,1-1.56.58c-1.54,0-2.31-.93-2.31-2.78V38.17q0-2.93,3.2-2.93h.67V30.17c0-.81-.27-1.21-.82-1.21s-.8.4-.8,1.21v3.2H54.29V31.5a3.1,3.1,0,0,1,.81-2.25,3.21,3.21,0,0,1,4.33,0,3.1,3.1,0,0,1,.8,2.25V43.73h.71Zm-2.86-1V35.79h-.64c-.71,0-1.06.4-1.06,1.2v5.68c0,.77.25,1.15.75,1.15A1.33,1.33,0,0,0,58.08,43.3Zm2.19-19.88-2.89,4.24h-.61l1.14-4.55h2.36Z"/><path class="b" d="M68.27,29.1h-.69L65.74,44.28h-2L61.9,29.1h-.69v-.54h3.73v.54h-.7L65.5,41.4l1.36-12.3h-.69v-.54h2.1Z"/><path class="b" d="M75.39,41.34a2.94,2.94,0,0,1-.89,2.19,3.25,3.25,0,0,1-4.49,0,3,3,0,0,1-.9-2.19V31.5a3,3,0,0,1,.9-2.2,3.28,3.28,0,0,1,4.49,0,3,3,0,0,1,.89,2.2v5.16H71.28v6c0,.81.33,1.21,1,1.21s1-.4,1-1.21v-3.2h2.17Zm-2.17-5.22V30.17c0-.81-.32-1.21-1-1.21s-1,.4-1,1.21v5.95Z"/><path class="b" d="M80,44.28H76.45v-.55h.69V29.1h-.69v-.54h2.87V43.73H80Zm-.69-17.54H77.14V23.11h2.18Z"/><path class="b" d="M86.94,41.34a3.08,3.08,0,0,1-.8,2.19,3.13,3.13,0,0,1-4.39,0,3,3,0,0,1-.86-2.19V39.47h2.17v3.2c0,.81.3,1.21.88,1.21s.84-.4.84-1.21V40.35A3.18,3.18,0,0,0,84,38.08l-2.27-2.45a3.81,3.81,0,0,1-.86-2.69V31.5a3.1,3.1,0,0,1,.83-2.2,3.09,3.09,0,0,1,4.34,0,3.1,3.1,0,0,1,.83,2.2v1.87H84.73v-3.2c0-.81-.28-1.21-.84-1.21s-.83.4-.83,1.21v2.08a3.18,3.18,0,0,0,.75,2.26L86.09,37a3.85,3.85,0,0,1,.85,2.7Z"/><path class="b" d="M98.33,41.34a3.13,3.13,0,0,1-.8,2.19,3.14,3.14,0,0,1-4.4,0,3,3,0,0,1-.85-2.19V39.47h2.17v3.2c0,.81.29,1.21.88,1.21s.84-.4.84-1.21V40.35a3.18,3.18,0,0,0-.76-2.27l-2.28-2.45a3.81,3.81,0,0,1-.85-2.69V31.5a3.09,3.09,0,0,1,.82-2.2,3.1,3.1,0,0,1,4.35,0,3.1,3.1,0,0,1,.83,2.2v1.87H96.12v-3.2c0-.81-.28-1.21-.84-1.21s-.83.4-.83,1.21v2.08a3.22,3.22,0,0,0,.74,2.26L97.47,37a3.86,3.86,0,0,1,.86,2.7Z"/><path class="b" d="M106.58,44.28h-2.86v-.43a2.26,2.26,0,0,1-1.6.58c-1.59,0-2.38-.93-2.38-2.78V29.1h-.69v-.54h2.86V42.67c0,.77.27,1.15.82,1.15a1.35,1.35,0,0,0,1-.52V29.1H103v-.54h2.86V43.73h.69Z"/><path class="b" d="M113.87,41.65c0,1.85-.79,2.78-2.36,2.78a2.29,2.29,0,0,1-1.62-.58v.43H107v-.55h.7V23.66H107v-.55h2.86V29a2.25,2.25,0,0,1,1.62-.58c1.57,0,2.36.93,2.36,2.78Zm-2.17,1V30.17c0-.77-.27-1.15-.8-1.15a1.38,1.38,0,0,0-1,.51V43.3a1.36,1.36,0,0,0,1,.52C111.43,43.82,111.7,43.44,111.7,42.67Z"/><path class="b" d="M121.78,29.1h-.69l-1.83,15.18h-2L115.42,29.1h-.7v-.54h3.74v.54h-.71L119,41.4l1.36-12.3h-.69v-.54h2.1Z"/><path class="b" d="M128.91,41.34a3,3,0,0,1-.89,2.19,3,3,0,0,1-2.25.9,3.05,3.05,0,0,1-2.25-.9,3,3,0,0,1-.9-2.19V31.5a3,3,0,0,1,.9-2.2,3.08,3.08,0,0,1,2.25-.89,3.05,3.05,0,0,1,2.25.89,3,3,0,0,1,.89,2.2v5.16h-4.12v6c0,.81.33,1.21,1,1.21s1-.4,1-1.21v-3.2h2.17Zm-2.17-5.22V30.17c0-.81-.33-1.21-1-1.21s-1,.4-1,1.21v5.95Z"/><path class="b" d="M136.44,33.37h-2.17v-3.2c0-.77-.22-1.15-.67-1.15a1.19,1.19,0,0,0-.87.51v14.2h.71v.55h-3.57v-.55h.71V29.1h-.71v-.54h2.86V29a2.14,2.14,0,0,1,1.54-.58c1.44,0,2.17.93,2.17,2.78Z"/><path class="b" d="M143.5,41.34a3.09,3.09,0,0,1-.81,2.19,3.13,3.13,0,0,1-4.39,0,3,3,0,0,1-.86-2.19V39.47h2.17v3.2c0,.81.3,1.21.89,1.21s.84-.4.84-1.21V40.35a3.22,3.22,0,0,0-.76-2.27l-2.28-2.45a3.81,3.81,0,0,1-.86-2.69V31.5a3.1,3.1,0,0,1,.83-2.2,3.09,3.09,0,0,1,4.34,0,3.06,3.06,0,0,1,.83,2.2v1.87h-2.16v-3.2c0-.81-.28-1.21-.84-1.21s-.83.4-.83,1.21v2.08a3.18,3.18,0,0,0,.75,2.26L142.64,37a3.86,3.86,0,0,1,.86,2.7Z"/><path class="b" d="M148,44.28h-3.55v-.55h.69V29.1h-.69v-.54h2.86V43.73H148Zm-.69-17.54h-2.17V23.11h2.17Z"/><path class="b" d="M155.49,29.1h-.69L153,44.28h-2L149.13,29.1h-.69v-.54h3.73v.54h-.71l1.26,12.3,1.36-12.3h-.69v-.54h2.1Z"/><path class="b" d="M162.62,41.34a3,3,0,0,1-.89,2.19,3,3,0,0,1-2.25.9,3.05,3.05,0,0,1-2.25-.9,3,3,0,0,1-.9-2.19V31.5a3,3,0,0,1,.9-2.2,3.08,3.08,0,0,1,2.25-.89,3.05,3.05,0,0,1,2.25.89,3,3,0,0,1,.89,2.2Zm-2.17,1.33V30.17c0-.81-.32-1.21-1-1.21s-1,.4-1,1.21v12.5c0,.81.32,1.21,1,1.21S160.45,43.48,160.45,42.67Z"/><path class="b" d="M170,41.34a3.13,3.13,0,0,1-.8,2.19,3.14,3.14,0,0,1-4.4,0,3,3,0,0,1-.86-2.19V39.47h2.17v3.2c0,.81.3,1.21.89,1.21s.84-.4.84-1.21V40.35a3.18,3.18,0,0,0-.76-2.27l-2.28-2.45a3.81,3.81,0,0,1-.86-2.69V31.5a3.1,3.1,0,0,1,.83-2.2,3.1,3.1,0,0,1,4.35,0,3.09,3.09,0,0,1,.82,2.2v1.87h-2.16v-3.2c0-.81-.28-1.21-.84-1.21s-.83.4-.83,1.21v2.08a3.18,3.18,0,0,0,.75,2.26L169.09,37a3.86,3.86,0,0,1,.86,2.7Z"/></svg>