<svg xmlns="http://www.w3.org/2000/svg" viewBox="0 0 70 70"><defs><style>.a{fill:#e17516;}</style></defs><title>Artboard 1</title><path class="a" d="M41.85,24.4a.88.88,0,0,0-1.32-.09L39,25.72A.94.94,0,0,0,38.88,27,13,13,0,0,1,41.71,35a12.71,12.71,0,0,1-2.83,8.06A.94.94,0,0,0,39,44.31l1.56,1.42a1,1,0,0,0,1.32-.1,17,17,0,0,0,0-21.23Z"/><path class="a" d="M46.71,20a.89.89,0,0,0-1.27-.09l-1.61,1.41a.88.88,0,0,0-.09,1.23,19.55,19.55,0,0,1,0,24.91.83.83,0,0,0,.09,1.22l1.61,1.42a.85.85,0,0,0,1.27-.1,23.3,23.3,0,0,0,0-30Z"/><path class="a" d="M35,70A35,35,0,1,1,70,35,35,35,0,0,1,35,70ZM35,6A29,29,0,1,0,64,35,29,29,0,0,0,35,6Z"/><path class="a" d="M33.23,48.51l-9.4-7.72a.82.82,0,0,0-.49-.2L16.49,40a.6.6,0,0,1-.52-.56V30.61a.57.57,0,0,1,.52-.56l6.85-.64a.82.82,0,0,0,.49-.2l9.4-7.72a.9.9,0,0,1,1.47.7V47.81A.9.9,0,0,1,33.23,48.51Z"/></svg>