<?xml version="1.0" encoding="utf-8"?>
<!-- Generator: Adobe Illustrator 22.1.0, SVG Export Plug-In . SVG Version: 6.00 Build 0)  -->
<svg version="1.1" id="Layer_1" xmlns="http://www.w3.org/2000/svg" xmlns:xlink="http://www.w3.org/1999/xlink" x="0px" y="0px"
	 viewBox="0 0 472 366" style="enable-background:new 0 0 472 366;" xml:space="preserve">
<style type="text/css">
	.st0{opacity:0.68;fill:#702E00;enable-background:new    ;}
	.st1{fill:#E75A12;}
	.st2{fill:#E1A216;}
	.st3{fill:#FFFFFF;}
	.st4{opacity:0.4;fill:#702E00;enable-background:new    ;}
	.st5{fill:none;}
	.st6{font-family: 'Source Sans Pro', sans-serif; font-weight: 700;}
	.st7{font-size:25px;}
	.st8{letter-spacing:1;}
	.st9{font-family: 'Source Sans Pro', sans-serif; font-weight: 400;}
	.st10{font-size:22px;}
	.st11{display:none;}
	.st12{display:inline;}
	.st13{fill:none;stroke:#E75A12;stroke-width:3;stroke-linecap:round;stroke-linejoin:round;}
	.st14{fill:none;stroke:#E75A12;stroke-width:3;stroke-linecap:round;stroke-linejoin:round;stroke-dasharray:12.1572,12.1572;}
	.st15{fill:none;stroke:#E75A12;stroke-width:3;stroke-linecap:round;stroke-linejoin:round;stroke-dasharray:11.8896,11.8896;}
	.st16{fill:none;stroke:#E75A12;stroke-width:3;stroke-linecap:round;stroke-linejoin:round;stroke-dasharray:12.2133,12.2133;}
	.st17{display:inline;fill:none;}
	.st18{fill:none;stroke:#E75A12;stroke-width:3;stroke-linecap:round;stroke-linejoin:round;stroke-dasharray:11.9879,11.9879;}
	.st19{fill:none;stroke:#E75A12;stroke-width:3;stroke-linecap:round;stroke-linejoin:round;stroke-dasharray:11.9986,11.9986;}
	.st20{fill:none;stroke:#E75A12;stroke-width:3;stroke-linecap:round;stroke-linejoin:round;stroke-dasharray:12.339,12.339;}

		.st21{display:none;fill:none;stroke:#E75A12;stroke-width:3;stroke-linecap:round;stroke-linejoin:round;stroke-miterlimit:10;stroke-dasharray:12,12;}
</style>
<g id="Layer_7">
</g>
<rect class="st0" width="472" height="202"/>
<g>
	<g>
		<path class="st1" d="M68,182.9v-24.3H52.2v24.3H41.5v-52.1h10.7v18H68v-18h10.7v52.1H68z"/>
		<path class="st1" d="M95.1,182.9v-8.8h6.5v-34.5h-6.5v-8.9h23.6v8.9h-6.5v34.5h6.5v8.8H95.1z"/>
		<path class="st1" d="M130.6,173.5l8.6-6.1c2.1,4.1,5.4,6.3,9.2,6.3c3.4,0,5.8-2.3,5.8-5.5c0-7.7-20.1-10.7-20.1-24.8
			c0-7.9,6.7-13.4,14.1-13.4c5.9,0,10.2,2.7,12.9,6.9l-7.1,6.3c-1.3-2-3.2-3.6-5.4-3.6s-3.8,1.6-3.8,3.8c0,6.5,20,9.9,20,24.6
			c0,8.9-6.8,15.5-16.5,15.5C140.9,183.5,134.1,180.5,130.6,173.5z"/>
		<path class="st1" d="M181.3,182.9v-42.3h-10v-9.8H202v9.8h-10v42.3H181.3z"/>
		<path class="st1" d="M209.8,156.8c0-14.7,12-26.7,26.8-26.7c14.7,0,26.7,12.1,26.7,26.7c0,14.8-12.1,26.8-26.7,26.8
			C221.8,183.6,209.8,171.6,209.8,156.8z M252.3,156.8c0-9.8-6.7-16.7-15.7-16.7c-9.1,0-15.8,7-15.8,16.7c0,9.9,6.7,16.8,15.8,16.8
			C245.6,173.6,252.3,166.6,252.3,156.8z M244,117.6l-11.6,10.8l-5.3-5.7l11.5-10.8L244,117.6z"/>
		<path class="st1" d="M278.2,182.9v-52.1h19c10.3,0,16.8,6.6,16.8,17.1c0,6.7-2.7,11.7-7.2,14.5l8.9,20.5h-11.6l-7.3-17.9h-8v17.9
			H278.2z M303.8,147.9c0-4.8-3.1-7.4-8.3-7.4h-6.8v14.8h6.8C300.6,155.2,303.8,152.6,303.8,147.9z"/>
		<path class="st1" d="M328.3,182.9v-8.8h6.5v-34.5h-6.5v-8.9h23.6v8.9h-6.5v34.5h6.5v8.8H328.3z"/>
		<path class="st1" d="M393.7,170.5H378l-3.6,12.4h-11.3l16.8-52.1h11.8l16.8,52.1h-11.3L393.7,170.5z M380.5,162.2h10.7l-1.6-5.6
			c-1.4-5.1-3.2-11.2-3.8-14.6c-0.7,4.1-2.2,9.5-3.7,14.6L380.5,162.2z"/>
		<path class="st1" d="M425.2,169.8c3.7,0,6.8,3.1,6.8,6.8s-3.1,6.8-6.8,6.8s-6.8-3.1-6.8-6.8C418.4,173,421.5,169.8,425.2,169.8z
			 M420.3,164.6l-0.4-33.9h10.3l-0.3,33.9H420.3z"/>
	</g>
	<g>
		<g>
			<path class="st2" d="M84.3,77h11.3l-16.8,52.1H67L50.1,77h11.3l7.7,26.3c1.4,5.1,3.1,10.5,3.7,14.6c0.7-4.1,2.3-9.5,3.8-14.6
				L84.3,77z"/>
			<path class="st2" d="M102.3,129.1v-8.8h6.5V85.8h-6.5V77h23.6v8.9h-6.5v34.5h6.5v8.8L102.3,129.1L102.3,129.1z"/>
			<path class="st2" d="M166.7,77H178l-16.8,52.1h-11.8L132.6,77h11.3l7.7,26.3c1.4,5.1,3.1,10.5,3.7,14.6c0.7-4.1,2.3-9.5,3.8-14.6
				L166.7,77z"/>
			<path class="st2" d="M207.9,116.7h-15.6l-3.6,12.4h-11.3L194.2,77H206l16.8,52.1h-11.3L207.9,116.7z M194.7,108.4h10.7l-1.6-5.6
				c-1.4-5.1-3.2-11.2-3.8-14.6c-0.7,4.1-2.2,9.5-3.7,14.6L194.7,108.4z"/>
		</g>
	</g>
	<g>
		<g>
			<path class="st3" d="M53.4,125.9H40.5l-2.3,6.6H27.7l13.7-38.2h11l13.7,38.2H55.6L53.4,125.9z M43.1,118.2h7.5
				c-1.6-4.5-3.1-9.7-3.7-13.5C46.3,108.5,44.7,113.7,43.1,118.2z"/>
		</g>
	</g>
</g>
<rect y="202" class="st4" width="472" height="164"/>
<rect x="1" y="221" class="st5" width="446" height="172"/>
<text transform="matrix(0.9998 0 0 1 120.9512 241.75)" class="st3 st6 st7 st8">web-documentário</text>
<text transform="matrix(0.9998 0 0 1 335.1064 241.75)" class="st3 st9 st10"> que ilustra </text>
<text transform="matrix(0.9998 0 0 1 66.7587 273.95)" class="st3 st9 st10">imaginários do universo de um grupo de</text>
<text transform="matrix(0.9998 0 0 1 56.5615 306.1497)" class="st3 st9 st10">estudantes do ensino médio da Escola de </text>
<text transform="matrix(0.9998 0 0 1 170.6386 338.3499)" class="st3 st9 st10">Ensino Integral Afrânio Lages.</text>
<g id="Layer_1_1_">
	<g class="st11">
		<g class="st12">
			<line class="st13" x1="-648.5" y1="351.5" x2="-652" y2="356.4"/>
			<line class="st14" x1="-659" y1="366.3" x2="-851.5" y2="639.6"/>
			<polyline class="st13" points="-855,644.6 -858.5,649.5 -852.7,647.9 			"/>
			<line class="st15" x1="-841.2" y1="644.8" x2="-182" y2="463.7"/>
			<polyline class="st13" points="-176.3,462.1 -170.5,460.5 -176.3,459.2 			"/>
			<line class="st16" x1="-188.3" y1="456.4" x2="-634.7" y2="354.2"/>
			<line class="st13" x1="-640.7" y1="352.8" x2="-646.5" y2="351.5"/>
		</g>
	</g>
	<g class="st11">
		<path class="st17" d="M-199.5,442.5"/>
	</g>
	<g class="st11">
		<g class="st12">
			<line class="st13" x1="-169.5" y1="461.5" x2="-173.6" y2="465.9"/>
			<line class="st18" x1="-181.8" y1="474.6" x2="-621.8" y2="941.3"/>
			<polyline class="st13" points="-625.9,945.6 -630,950 -624.1,948.9 			"/>
			<line class="st19" x1="-612.3" y1="946.7" x2="-240.8" y2="877.2"/>
			<polyline class="st13" points="-234.9,876.1 -229,875 -228.1,869.1 			"/>
			<line class="st20" x1="-226.3" y1="856.9" x2="-168.3" y2="472.5"/>
			<line class="st13" x1="-167.4" y1="466.4" x2="-166.5" y2="460.5"/>
		</g>
	</g>
	<polyline class="st21" points="-228.5,874.5 -646.5,351.5 -630.5,949.5 -858.5,649.5 	"/>
</g>
</svg>
